<?xml version="1.0" encoding="utf-8" standalone="no"?>
<!DOCTYPE svg PUBLIC "-//W3C//DTD SVG 1.1//EN"
  "http://www.w3.org/Graphics/SVG/1.1/DTD/svg11.dtd">
<svg xmlns:xlink="http://www.w3.org/1999/xlink" width="408.10125pt" height="352.861125pt" viewBox="0 0 408.10125 352.861125" xmlns="http://www.w3.org/2000/svg" version="1.1">
 <metadata>
  <rdf:RDF xmlns:dc="http://purl.org/dc/elements/1.1/" xmlns:cc="http://creativecommons.org/ns#" xmlns:rdf="http://www.w3.org/1999/02/22-rdf-syntax-ns#">
   <cc:Work>
    <dc:type rdf:resource="http://purl.org/dc/dcmitype/StillImage"/>
    <dc:date>2025-05-19T11:54:53.464686</dc:date>
    <dc:format>image/svg+xml</dc:format>
    <dc:creator>
     <cc:Agent>
      <dc:title>Matplotlib v3.7.2, https://matplotlib.org/</dc:title>
     </cc:Agent>
    </dc:creator>
   </cc:Work>
  </rdf:RDF>
 </metadata>
 <defs>
  <style type="text/css">*{stroke-linejoin: round; stroke-linecap: butt}</style>
 </defs>
 <g id="figure_1">
  <g id="patch_1">
   <path d="M 0 352.861125 
L 408.10125 352.861125 
L 408.10125 0 
L 0 0 
z
" style="fill: #ffffff"/>
  </g>
  <g id="axes_1">
   <g id="patch_2">
    <path d="M 43.78125 315.304875 
L 400.90125 315.304875 
L 400.90125 49.192875 
L 43.78125 49.192875 
z
" style="fill: #ffffff"/>
   </g>
   <g id="PolyCollection_1">
    <defs>
     <path id="mc31a86a7c3" d="M 60.013977 -291.57225 
L 60.013977 -291.57225 
L 75.473718 -291.57225 
L 75.473718 -291.57225 
L 80.158487 -291.57225 
L 80.158487 -291.57225 
L 82.500872 -291.57225 
L 82.500872 -291.57225 
L 82.969349 -291.57225 
L 82.969349 -291.57225 
L 84.843257 -291.57225 
L 84.843257 -291.57225 
L 91.870412 -291.57225 
L 91.870412 -291.57225 
L 95.618228 -291.57225 
L 95.618228 -291.57225 
L 96.086705 -291.57225 
L 96.086705 -291.57225 
L 99.366043 -291.57225 
L 99.366043 -291.57225 
L 111.077968 -291.57225 
L 111.077968 -291.57225 
L 115.294261 -291.57225 
L 115.294261 -291.57225 
L 121.384461 -291.57225 
L 121.384461 -291.57225 
L 124.195323 -291.57225 
L 124.195323 -291.57225 
L 125.132277 -291.57225 
L 125.132277 -291.57225 
L 126.069231 -291.57225 
L 126.069231 -291.57225 
L 126.537708 -291.57225 
L 126.537708 -285.731988 
L 127.006185 -285.731988 
L 127.006185 -285.731988 
L 128.411616 -285.731988 
L 128.411616 -285.731988 
L 133.096386 -285.731988 
L 133.096386 -285.731988 
L 135.907248 -285.731988 
L 135.907248 -285.731988 
L 137.781156 -285.731988 
L 137.781156 -284.946432 
L 138.71811 -284.946432 
L 138.71811 -284.946432 
L 139.186586 -284.946432 
L 139.186586 -284.946432 
L 141.528971 -284.946432 
L 141.528971 -283.833594 
L 141.997448 -283.833594 
L 141.997448 -283.833594 
L 143.402879 -283.833594 
L 143.402879 -283.833594 
L 143.871356 -283.833594 
L 143.871356 -283.833594 
L 144.339833 -283.833594 
L 144.339833 -282.666575 
L 144.80831 -282.666575 
L 144.80831 -282.666575 
L 145.276787 -282.666575 
L 145.276787 -281.488381 
L 146.213741 -281.488381 
L 146.213741 -281.488381 
L 147.619172 -281.488381 
L 147.619172 -281.488381 
L 148.087649 -281.488381 
L 148.087649 -281.488381 
L 148.556126 -281.488381 
L 148.556126 -281.488381 
L 151.366988 -281.488381 
L 151.366988 -281.488381 
L 151.835465 -281.488381 
L 151.835465 -281.488381 
L 154.17785 -281.488381 
L 154.17785 -281.488381 
L 156.988712 -281.488381 
L 156.988712 -280.263843 
L 161.673481 -280.263843 
L 161.673481 -280.263843 
L 163.547389 -280.263843 
L 163.547389 -279.058558 
L 165.889774 -279.058558 
L 165.889774 -279.058558 
L 166.358251 -279.058558 
L 166.358251 -277.868436 
L 175.727791 -277.868436 
L 175.727791 -276.69721 
L 181.349514 -276.69721 
L 181.349514 -276.69721 
L 184.160376 -276.69721 
L 184.160376 -275.535422 
L 187.908192 -275.535422 
L 187.908192 -275.535422 
L 194.935347 -275.535422 
L 194.935347 -274.381405 
L 202.430978 -274.381405 
L 202.430978 -274.381405 
L 209.458133 -274.381405 
L 209.458133 -274.381405 
L 222.107012 -274.381405 
L 222.107012 -274.381405 
L 223.512442 -274.381405 
L 223.512442 -273.221024 
L 223.980919 -273.221024 
L 223.980919 -272.072815 
L 225.38635 -272.072815 
L 225.38635 -272.072815 
L 226.791781 -272.072815 
L 226.791781 -272.072815 
L 227.728735 -272.072815 
L 227.728735 -272.072815 
L 228.197212 -272.072815 
L 228.197212 -272.072815 
L 230.07112 -272.072815 
L 230.07112 -272.072815 
L 230.539597 -272.072815 
L 230.539597 -272.072815 
L 231.008074 -272.072815 
L 231.008074 -272.072815 
L 231.945028 -272.072815 
L 231.945028 -272.072815 
L 239.909137 -272.072815 
L 239.909137 -272.072815 
L 242.251522 -272.072815 
L 242.251522 -270.849232 
L 243.188476 -270.849232 
L 243.188476 -270.849232 
L 246.936291 -270.849232 
L 246.936291 -270.849232 
L 250.21563 -270.849232 
L 250.21563 -269.617951 
L 254.431923 -269.617951 
L 254.431923 -269.617951 
L 259.58517 -269.617951 
L 259.58517 -269.617951 
L 260.990601 -269.617951 
L 260.990601 -269.617951 
L 266.612324 -269.617951 
L 266.612324 -269.617951 
L 270.36014 -269.617951 
L 270.36014 -268.370609 
L 270.828617 -268.370609 
L 270.828617 -268.370609 
L 271.765571 -268.370609 
L 271.765571 -268.370609 
L 272.702525 -268.370609 
L 272.702525 -268.370609 
L 273.171002 -268.370609 
L 273.171002 -268.370609 
L 273.639479 -268.370609 
L 273.639479 -268.370609 
L 275.04491 -268.370609 
L 275.04491 -267.075111 
L 276.450341 -267.075111 
L 276.450341 -267.075111 
L 276.918818 -267.075111 
L 276.918818 -267.075111 
L 277.387295 -267.075111 
L 277.387295 -267.075111 
L 278.792726 -267.075111 
L 278.792726 -267.075111 
L 279.261203 -267.075111 
L 279.261203 -267.075111 
L 280.666634 -267.075111 
L 280.666634 -265.744637 
L 285.351403 -265.744637 
L 285.351403 -264.419692 
L 290.036173 -264.419692 
L 290.036173 -264.419692 
L 291.441604 -264.419692 
L 291.441604 -264.419692 
L 291.910081 -264.419692 
L 291.910081 -263.082191 
L 292.378558 -263.082191 
L 292.378558 -263.082191 
L 294.252466 -263.082191 
L 294.252466 -261.731074 
L 296.126374 -261.731074 
L 296.126374 -261.731074 
L 297.063328 -261.731074 
L 297.063328 -261.731074 
L 297.531805 -261.731074 
L 297.531805 -261.731074 
L 298.000282 -261.731074 
L 298.000282 -261.731074 
L 299.405713 -261.731074 
L 299.405713 -261.731074 
L 301.279621 -261.731074 
L 301.279621 -261.731074 
L 301.748098 -261.731074 
L 301.748098 -261.731074 
L 302.685052 -261.731074 
L 302.685052 -261.731074 
L 303.622006 -261.731074 
L 303.622006 -261.731074 
L 304.55896 -261.731074 
L 304.55896 -261.731074 
L 305.027437 -261.731074 
L 305.027437 -261.731074 
L 305.495914 -261.731074 
L 305.495914 -261.731074 
L 305.96439 -261.731074 
L 305.96439 -261.731074 
L 306.432867 -261.731074 
L 306.432867 -261.731074 
L 306.901344 -261.731074 
L 306.901344 -261.731074 
L 307.369821 -261.731074 
L 307.369821 -261.731074 
L 307.838298 -261.731074 
L 307.838298 -261.731074 
L 308.306775 -261.731074 
L 308.306775 -261.731074 
L 308.775252 -261.731074 
L 308.775252 -261.731074 
L 309.243729 -261.731074 
L 309.243729 -261.731074 
L 309.712206 -261.731074 
L 309.712206 -261.731074 
L 310.180683 -261.731074 
L 310.180683 -261.731074 
L 310.64916 -261.731074 
L 310.64916 -261.731074 
L 311.117637 -261.731074 
L 311.117637 -261.731074 
L 311.586114 -261.731074 
L 311.586114 -259.810837 
L 312.054591 -259.810837 
L 312.054591 -259.810837 
L 312.523068 -259.810837 
L 312.523068 -257.893173 
L 312.991545 -257.893173 
L 312.991545 -257.893173 
L 313.460022 -257.893173 
L 313.460022 -257.893173 
L 313.928499 -257.893173 
L 313.928499 -257.893173 
L 314.396976 -257.893173 
L 314.396976 -255.764316 
L 314.865453 -255.764316 
L 314.865453 -255.764316 
L 315.33393 -255.764316 
L 315.33393 -253.634501 
L 315.802407 -253.634501 
L 315.802407 -251.432013 
L 316.270884 -251.432013 
L 316.270884 -251.432013 
L 316.739361 -251.432013 
L 316.739361 -251.432013 
L 317.207838 -251.432013 
L 317.207838 -251.432013 
L 317.676315 -251.432013 
L 317.676315 -251.432013 
L 318.144792 -251.432013 
L 318.144792 -251.432013 
L 318.613269 -251.432013 
L 318.613269 -251.432013 
L 319.081746 -251.432013 
L 319.081746 -251.432013 
L 319.550223 -251.432013 
L 319.550223 -247.973979 
L 320.0187 -247.973979 
L 320.0187 -247.973979 
L 320.487177 -247.973979 
L 320.487177 -247.973979 
L 320.955654 -247.973979 
L 320.955654 -247.973979 
L 321.424131 -247.973979 
L 321.424131 -247.973979 
L 321.892608 -247.973979 
L 321.892608 -247.973979 
L 322.361085 -247.973979 
L 322.361085 -247.973979 
L 322.829562 -247.973979 
L 322.829562 -247.973979 
L 323.766516 -247.973979 
L 323.766516 -247.973979 
L 324.234993 -247.973979 
L 324.234993 -247.973979 
L 324.70347 -247.973979 
L 324.70347 -247.973979 
L 325.171947 -247.973979 
L 325.171947 -247.973979 
L 326.108901 -247.973979 
L 326.108901 -247.973979 
L 326.577378 -247.973979 
L 326.577378 -247.973979 
L 327.045854 -247.973979 
L 327.045854 -247.973979 
L 327.514331 -247.973979 
L 327.514331 -247.973979 
L 327.982808 -247.973979 
L 327.982808 -247.973979 
L 328.919762 -247.973979 
L 328.919762 -247.973979 
L 329.388239 -247.973979 
L 329.388239 -247.973979 
L 329.856716 -247.973979 
L 329.856716 -247.973979 
L 330.325193 -247.973979 
L 330.325193 -247.973979 
L 331.730624 -247.973979 
L 331.730624 -247.973979 
L 332.199101 -247.973979 
L 332.199101 -247.973979 
L 332.667578 -247.973979 
L 332.667578 -247.973979 
L 333.604532 -247.973979 
L 333.604532 -247.973979 
L 334.073009 -247.973979 
L 334.073009 -247.973979 
L 334.541486 -247.973979 
L 334.541486 -247.973979 
L 335.009963 -247.973979 
L 335.009963 -247.973979 
L 335.47844 -247.973979 
L 335.47844 -247.973979 
L 336.415394 -247.973979 
L 336.415394 -247.973979 
L 337.352348 -247.973979 
L 337.352348 -227.329773 
L 337.820825 -227.329773 
L 337.820825 -227.329773 
L 339.226256 -227.329773 
L 339.226256 -227.329773 
L 339.694733 -227.329773 
L 339.694733 -227.329773 
L 340.16321 -227.329773 
L 340.16321 -227.329773 
L 340.631687 -227.329773 
L 340.631687 -227.329773 
L 341.100164 -227.329773 
L 341.100164 -227.329773 
L 342.037118 -227.329773 
L 342.037118 -177.31324 
L 342.505595 -177.31324 
L 342.505595 -177.31324 
L 343.442549 -177.31324 
L 343.442549 -177.31324 
L 343.911026 -177.31324 
L 343.911026 -177.31324 
L 344.84798 -177.31324 
L 344.84798 -177.31324 
L 345.316457 -177.31324 
L 345.316457 -177.31324 
L 346.721888 -177.31324 
L 346.721888 -177.31324 
L 352.343611 -177.31324 
L 352.343611 -177.31324 
L 354.217519 -177.31324 
L 354.217519 -177.31324 
L 354.685996 -177.31324 
L 354.685996 -96.021003 
L 355.154473 -96.021003 
L 355.154473 -96.021003 
L 357.496858 -96.021003 
L 357.496858 -96.021003 
L 372.488121 -96.021003 
L 372.488121 -96.021003 
L 372.488121 -243.306073 
L 372.488121 -243.306073 
L 372.488121 -243.306073 
L 357.496858 -243.306073 
L 357.496858 -243.306073 
L 355.154473 -243.306073 
L 355.154473 -243.306073 
L 354.685996 -243.306073 
L 354.685996 -256.043822 
L 354.217519 -256.043822 
L 354.217519 -256.043822 
L 352.343611 -256.043822 
L 352.343611 -256.043822 
L 346.721888 -256.043822 
L 346.721888 -256.043822 
L 345.316457 -256.043822 
L 345.316457 -256.043822 
L 344.84798 -256.043822 
L 344.84798 -256.043822 
L 343.911026 -256.043822 
L 343.911026 -256.043822 
L 343.442549 -256.043822 
L 343.442549 -256.043822 
L 342.505595 -256.043822 
L 342.505595 -256.043822 
L 342.037118 -256.043822 
L 342.037118 -268.586357 
L 341.100164 -268.586357 
L 341.100164 -268.586357 
L 340.631687 -268.586357 
L 340.631687 -268.586357 
L 340.16321 -268.586357 
L 340.16321 -268.586357 
L 339.694733 -268.586357 
L 339.694733 -268.586357 
L 339.226256 -268.586357 
L 339.226256 -268.586357 
L 337.820825 -268.586357 
L 337.820825 -268.586357 
L 337.352348 -268.586357 
L 337.352348 -270.974857 
L 336.415394 -270.974857 
L 336.415394 -270.974857 
L 335.47844 -270.974857 
L 335.47844 -270.974857 
L 335.009963 -270.974857 
L 335.009963 -270.974857 
L 334.541486 -270.974857 
L 334.541486 -270.974857 
L 334.073009 -270.974857 
L 334.073009 -270.974857 
L 333.604532 -270.974857 
L 333.604532 -270.974857 
L 332.667578 -270.974857 
L 332.667578 -270.974857 
L 332.199101 -270.974857 
L 332.199101 -270.974857 
L 331.730624 -270.974857 
L 331.730624 -270.974857 
L 330.325193 -270.974857 
L 330.325193 -270.974857 
L 329.856716 -270.974857 
L 329.856716 -270.974857 
L 329.388239 -270.974857 
L 329.388239 -270.974857 
L 328.919762 -270.974857 
L 328.919762 -270.974857 
L 327.982808 -270.974857 
L 327.982808 -270.974857 
L 327.514331 -270.974857 
L 327.514331 -270.974857 
L 327.045854 -270.974857 
L 327.045854 -270.974857 
L 326.577378 -270.974857 
L 326.577378 -270.974857 
L 326.108901 -270.974857 
L 326.108901 -270.974857 
L 325.171947 -270.974857 
L 325.171947 -270.974857 
L 324.70347 -270.974857 
L 324.70347 -270.974857 
L 324.234993 -270.974857 
L 324.234993 -270.974857 
L 323.766516 -270.974857 
L 323.766516 -270.974857 
L 322.829562 -270.974857 
L 322.829562 -270.974857 
L 322.361085 -270.974857 
L 322.361085 -270.974857 
L 321.892608 -270.974857 
L 321.892608 -270.974857 
L 321.424131 -270.974857 
L 321.424131 -270.974857 
L 320.955654 -270.974857 
L 320.955654 -270.974857 
L 320.487177 -270.974857 
L 320.487177 -270.974857 
L 320.0187 -270.974857 
L 320.0187 -270.974857 
L 319.550223 -270.974857 
L 319.550223 -272.614634 
L 319.081746 -272.614634 
L 319.081746 -272.614634 
L 318.613269 -272.614634 
L 318.613269 -272.614634 
L 318.144792 -272.614634 
L 318.144792 -272.614634 
L 317.676315 -272.614634 
L 317.676315 -272.614634 
L 317.207838 -272.614634 
L 317.207838 -272.614634 
L 316.739361 -272.614634 
L 316.739361 -272.614634 
L 316.270884 -272.614634 
L 316.270884 -272.614634 
L 315.802407 -272.614634 
L 315.802407 -273.893218 
L 315.33393 -273.893218 
L 315.33393 -275.117426 
L 314.865453 -275.117426 
L 314.865453 -275.117426 
L 314.396976 -275.117426 
L 314.396976 -276.308123 
L 313.928499 -276.308123 
L 313.928499 -276.308123 
L 313.460022 -276.308123 
L 313.460022 -276.308123 
L 312.991545 -276.308123 
L 312.991545 -276.308123 
L 312.523068 -276.308123 
L 312.523068 -277.406125 
L 312.054591 -277.406125 
L 312.054591 -277.406125 
L 311.586114 -277.406125 
L 311.586114 -278.47564 
L 311.117637 -278.47564 
L 311.117637 -278.47564 
L 310.64916 -278.47564 
L 310.64916 -278.47564 
L 310.180683 -278.47564 
L 310.180683 -278.47564 
L 309.712206 -278.47564 
L 309.712206 -278.47564 
L 309.243729 -278.47564 
L 309.243729 -278.47564 
L 308.775252 -278.47564 
L 308.775252 -278.47564 
L 308.306775 -278.47564 
L 308.306775 -278.47564 
L 307.838298 -278.47564 
L 307.838298 -278.47564 
L 307.369821 -278.47564 
L 307.369821 -278.47564 
L 306.901344 -278.47564 
L 306.901344 -278.47564 
L 306.432867 -278.47564 
L 306.432867 -278.47564 
L 305.96439 -278.47564 
L 305.96439 -278.47564 
L 305.495914 -278.47564 
L 305.495914 -278.47564 
L 305.027437 -278.47564 
L 305.027437 -278.47564 
L 304.55896 -278.47564 
L 304.55896 -278.47564 
L 303.622006 -278.47564 
L 303.622006 -278.47564 
L 302.685052 -278.47564 
L 302.685052 -278.47564 
L 301.748098 -278.47564 
L 301.748098 -278.47564 
L 301.279621 -278.47564 
L 301.279621 -278.47564 
L 299.405713 -278.47564 
L 299.405713 -278.47564 
L 298.000282 -278.47564 
L 298.000282 -278.47564 
L 297.531805 -278.47564 
L 297.531805 -278.47564 
L 297.063328 -278.47564 
L 297.063328 -278.47564 
L 296.126374 -278.47564 
L 296.126374 -278.47564 
L 294.252466 -278.47564 
L 294.252466 -279.33839 
L 292.378558 -279.33839 
L 292.378558 -279.33839 
L 291.910081 -279.33839 
L 291.910081 -280.18288 
L 291.441604 -280.18288 
L 291.441604 -280.18288 
L 290.036173 -280.18288 
L 290.036173 -280.18288 
L 285.351403 -280.18288 
L 285.351403 -281.009216 
L 280.666634 -281.009216 
L 280.666634 -281.823212 
L 279.261203 -281.823212 
L 279.261203 -281.823212 
L 278.792726 -281.823212 
L 278.792726 -281.823212 
L 277.387295 -281.823212 
L 277.387295 -281.823212 
L 276.918818 -281.823212 
L 276.918818 -281.823212 
L 276.450341 -281.823212 
L 276.450341 -281.823212 
L 275.04491 -281.823212 
L 275.04491 -282.610409 
L 273.639479 -282.610409 
L 273.639479 -282.610409 
L 273.171002 -282.610409 
L 273.171002 -282.610409 
L 272.702525 -282.610409 
L 272.702525 -282.610409 
L 271.765571 -282.610409 
L 271.765571 -282.610409 
L 270.828617 -282.610409 
L 270.828617 -282.610409 
L 270.36014 -282.610409 
L 270.36014 -283.366712 
L 266.612324 -283.366712 
L 266.612324 -283.366712 
L 260.990601 -283.366712 
L 260.990601 -283.366712 
L 259.58517 -283.366712 
L 259.58517 -283.366712 
L 254.431923 -283.366712 
L 254.431923 -283.366712 
L 250.21563 -283.366712 
L 250.21563 -284.103181 
L 246.936291 -284.103181 
L 246.936291 -284.103181 
L 243.188476 -284.103181 
L 243.188476 -284.103181 
L 242.251522 -284.103181 
L 242.251522 -284.822064 
L 239.909137 -284.822064 
L 239.909137 -284.822064 
L 231.945028 -284.822064 
L 231.945028 -284.822064 
L 231.008074 -284.822064 
L 231.008074 -284.822064 
L 230.539597 -284.822064 
L 230.539597 -284.822064 
L 230.07112 -284.822064 
L 230.07112 -284.822064 
L 228.197212 -284.822064 
L 228.197212 -284.822064 
L 227.728735 -284.822064 
L 227.728735 -284.822064 
L 226.791781 -284.822064 
L 226.791781 -284.822064 
L 225.38635 -284.822064 
L 225.38635 -284.822064 
L 223.980919 -284.822064 
L 223.980919 -285.501845 
L 223.512442 -285.501845 
L 223.512442 -286.170535 
L 222.107012 -286.170535 
L 222.107012 -286.170535 
L 209.458133 -286.170535 
L 209.458133 -286.170535 
L 202.430978 -286.170535 
L 202.430978 -286.170535 
L 194.935347 -286.170535 
L 194.935347 -286.821027 
L 187.908192 -286.821027 
L 187.908192 -286.821027 
L 184.160376 -286.821027 
L 184.160376 -287.455896 
L 181.349514 -287.455896 
L 181.349514 -287.455896 
L 175.727791 -287.455896 
L 175.727791 -288.073254 
L 166.358251 -288.073254 
L 166.358251 -288.672238 
L 165.889774 -288.672238 
L 165.889774 -288.672238 
L 163.547389 -288.672238 
L 163.547389 -289.247709 
L 161.673481 -289.247709 
L 161.673481 -289.247709 
L 156.988712 -289.247709 
L 156.988712 -289.794971 
L 154.17785 -289.794971 
L 154.17785 -289.794971 
L 151.835465 -289.794971 
L 151.835465 -289.794971 
L 151.366988 -289.794971 
L 151.366988 -289.794971 
L 148.556126 -289.794971 
L 148.556126 -289.794971 
L 148.087649 -289.794971 
L 148.087649 -289.794971 
L 147.619172 -289.794971 
L 147.619172 -289.794971 
L 146.213741 -289.794971 
L 146.213741 -289.794971 
L 145.276787 -289.794971 
L 145.276787 -290.297759 
L 144.80831 -290.297759 
L 144.80831 -290.297759 
L 144.339833 -290.297759 
L 144.339833 -290.755623 
L 143.871356 -290.755623 
L 143.871356 -290.755623 
L 143.402879 -290.755623 
L 143.402879 -290.755623 
L 141.997448 -290.755623 
L 141.997448 -290.755623 
L 141.528971 -290.755623 
L 141.528971 -291.152441 
L 139.186586 -291.152441 
L 139.186586 -291.152441 
L 138.71811 -291.152441 
L 138.71811 -291.152441 
L 137.781156 -291.152441 
L 137.781156 -291.454971 
L 135.907248 -291.454971 
L 135.907248 -291.454971 
L 133.096386 -291.454971 
L 133.096386 -291.454971 
L 128.411616 -291.454971 
L 128.411616 -291.454971 
L 127.006185 -291.454971 
L 127.006185 -291.454971 
L 126.537708 -291.454971 
L 126.537708 -291.57225 
L 126.069231 -291.57225 
L 126.069231 -291.57225 
L 125.132277 -291.57225 
L 125.132277 -291.57225 
L 124.195323 -291.57225 
L 124.195323 -291.57225 
L 121.384461 -291.57225 
L 121.384461 -291.57225 
L 115.294261 -291.57225 
L 115.294261 -291.57225 
L 111.077968 -291.57225 
L 111.077968 -291.57225 
L 99.366043 -291.57225 
L 99.366043 -291.57225 
L 96.086705 -291.57225 
L 96.086705 -291.57225 
L 95.618228 -291.57225 
L 95.618228 -291.57225 
L 91.870412 -291.57225 
L 91.870412 -291.57225 
L 84.843257 -291.57225 
L 84.843257 -291.57225 
L 82.969349 -291.57225 
L 82.969349 -291.57225 
L 82.500872 -291.57225 
L 82.500872 -291.57225 
L 80.158487 -291.57225 
L 80.158487 -291.57225 
L 75.473718 -291.57225 
L 75.473718 -291.57225 
L 60.013977 -291.57225 
z
" style="stroke: #1f77b4; stroke-opacity: 0.25"/>
    </defs>
    <g clip-path="url(#p3af082be10)">
     <use xlink:href="#mc31a86a7c3" x="0" y="352.861125" style="fill: #1f77b4; fill-opacity: 0.25; stroke: #1f77b4; stroke-opacity: 0.25"/>
    </g>
   </g>
   <g id="PolyCollection_2">
    <defs>
     <path id="mf9899e1054" d="M 60.013977 -291.57225 
L 60.013977 -291.57225 
L 82.500872 -291.57225 
L 82.500872 -291.57225 
L 120.915984 -291.57225 
L 120.915984 -291.57225 
L 126.069231 -291.57225 
L 126.069231 -291.57225 
L 127.006185 -291.57225 
L 127.006185 -291.57225 
L 137.312679 -291.57225 
L 137.312679 -232.772212 
L 147.150695 -232.772212 
L 147.150695 -232.772212 
L 232.413505 -232.772212 
L 232.413505 -232.772212 
L 233.818936 -232.772212 
L 233.818936 -232.772212 
L 255.368877 -232.772212 
L 255.368877 -232.772212 
L 272.702525 -232.772212 
L 272.702525 -232.772212 
L 293.315512 -232.772212 
L 293.315512 -232.772212 
L 296.126374 -232.772212 
L 296.126374 -232.772212 
L 305.027437 -232.772212 
L 305.027437 -232.772212 
L 305.495914 -232.772212 
L 305.495914 -232.772212 
L 307.369821 -232.772212 
L 307.369821 -232.772212 
L 310.180683 -232.772212 
L 310.180683 -232.772212 
L 316.739361 -232.772212 
L 316.739361 -232.772212 
L 318.613269 -232.772212 
L 318.613269 -232.772212 
L 319.550223 -232.772212 
L 319.550223 -232.772212 
L 320.487177 -232.772212 
L 320.487177 -232.772212 
L 320.955654 -232.772212 
L 320.955654 -232.772212 
L 321.892608 -232.772212 
L 321.892608 -232.772212 
L 324.234993 -232.772212 
L 324.234993 -232.772212 
L 325.171947 -232.772212 
L 325.171947 -232.772212 
L 330.79367 -232.772212 
L 330.79367 -232.772212 
L 332.199101 -232.772212 
L 332.199101 -232.772212 
L 336.415394 -232.772212 
L 336.415394 -232.772212 
L 338.757779 -232.772212 
L 338.757779 -232.772212 
L 342.037118 -232.772212 
L 342.037118 -232.772212 
L 384.668523 -232.772212 
L 384.668523 -232.772212 
L 384.668523 -290.239551 
L 384.668523 -290.239551 
L 384.668523 -290.239551 
L 342.037118 -290.239551 
L 342.037118 -290.239551 
L 338.757779 -290.239551 
L 338.757779 -290.239551 
L 336.415394 -290.239551 
L 336.415394 -290.239551 
L 332.199101 -290.239551 
L 332.199101 -290.239551 
L 330.79367 -290.239551 
L 330.79367 -290.239551 
L 325.171947 -290.239551 
L 325.171947 -290.239551 
L 324.234993 -290.239551 
L 324.234993 -290.239551 
L 321.892608 -290.239551 
L 321.892608 -290.239551 
L 320.955654 -290.239551 
L 320.955654 -290.239551 
L 320.487177 -290.239551 
L 320.487177 -290.239551 
L 319.550223 -290.239551 
L 319.550223 -290.239551 
L 318.613269 -290.239551 
L 318.613269 -290.239551 
L 316.739361 -290.239551 
L 316.739361 -290.239551 
L 310.180683 -290.239551 
L 310.180683 -290.239551 
L 307.369821 -290.239551 
L 307.369821 -290.239551 
L 305.495914 -290.239551 
L 305.495914 -290.239551 
L 305.027437 -290.239551 
L 305.027437 -290.239551 
L 296.126374 -290.239551 
L 296.126374 -290.239551 
L 293.315512 -290.239551 
L 293.315512 -290.239551 
L 272.702525 -290.239551 
L 272.702525 -290.239551 
L 255.368877 -290.239551 
L 255.368877 -290.239551 
L 233.818936 -290.239551 
L 233.818936 -290.239551 
L 232.413505 -290.239551 
L 232.413505 -290.239551 
L 147.150695 -290.239551 
L 147.150695 -290.239551 
L 137.312679 -290.239551 
L 137.312679 -291.57225 
L 127.006185 -291.57225 
L 127.006185 -291.57225 
L 126.069231 -291.57225 
L 126.069231 -291.57225 
L 120.915984 -291.57225 
L 120.915984 -291.57225 
L 82.500872 -291.57225 
L 82.500872 -291.57225 
L 60.013977 -291.57225 
z
" style="stroke: #ff7f0e; stroke-opacity: 0.25"/>
    </defs>
    <g clip-path="url(#p3af082be10)">
     <use xlink:href="#mf9899e1054" x="0" y="352.861125" style="fill: #ff7f0e; fill-opacity: 0.25; stroke: #ff7f0e; stroke-opacity: 0.25"/>
    </g>
   </g>
   <g id="PolyCollection_3">
    <defs>
     <path id="m2550cafc39" d="M 60.013977 -291.57225 
L 60.013977 -291.57225 
L 132.159432 -291.57225 
L 132.159432 -291.57225 
L 270.36014 -291.57225 
L 270.36014 -49.65225 
L 270.36014 -49.65225 
L 270.36014 -49.65225 
L 270.36014 -291.57225 
L 132.159432 -291.57225 
L 132.159432 -291.57225 
L 60.013977 -291.57225 
z
" style="stroke: #2ca02c; stroke-opacity: 0.25"/>
    </defs>
    <g clip-path="url(#p3af082be10)">
     <use xlink:href="#m2550cafc39" x="0" y="352.861125" style="fill: #2ca02c; fill-opacity: 0.25; stroke: #2ca02c; stroke-opacity: 0.25"/>
    </g>
   </g>
   <g id="matplotlib.axis_1">
    <g id="xtick_1">
     <g id="line2d_1">
      <defs>
       <path id="mef3da214c0" d="M 0 0 
L 0 3.5 
" style="stroke: #000000; stroke-width: 0.8"/>
      </defs>
      <g>
       <use xlink:href="#mef3da214c0" x="60.013977" y="315.304875" style="stroke: #000000; stroke-width: 0.8"/>
      </g>
     </g>
     <g id="text_1">
      <!-- 0 -->
      <g transform="translate(56.832727 329.903312) scale(0.1 -0.1)">
       <defs>
        <path id="DejaVuSans-30" d="M 2034 4250 
Q 1547 4250 1301 3770 
Q 1056 3291 1056 2328 
Q 1056 1369 1301 889 
Q 1547 409 2034 409 
Q 2525 409 2770 889 
Q 3016 1369 3016 2328 
Q 3016 3291 2770 3770 
Q 2525 4250 2034 4250 
z
M 2034 4750 
Q 2819 4750 3233 4129 
Q 3647 3509 3647 2328 
Q 3647 1150 3233 529 
Q 2819 -91 2034 -91 
Q 1250 -91 836 529 
Q 422 1150 422 2328 
Q 422 3509 836 4129 
Q 1250 4750 2034 4750 
z
" transform="scale(0.015625)"/>
       </defs>
       <use xlink:href="#DejaVuSans-30"/>
      </g>
     </g>
    </g>
    <g id="xtick_2">
     <g id="line2d_2">
      <g>
       <use xlink:href="#mef3da214c0" x="106.861675" y="315.304875" style="stroke: #000000; stroke-width: 0.8"/>
      </g>
     </g>
     <g id="text_2">
      <!-- 100 -->
      <g transform="translate(97.317925 329.903312) scale(0.1 -0.1)">
       <defs>
        <path id="DejaVuSans-31" d="M 794 531 
L 1825 531 
L 1825 4091 
L 703 3866 
L 703 4441 
L 1819 4666 
L 2450 4666 
L 2450 531 
L 3481 531 
L 3481 0 
L 794 0 
L 794 531 
z
" transform="scale(0.015625)"/>
       </defs>
       <use xlink:href="#DejaVuSans-31"/>
       <use xlink:href="#DejaVuSans-30" x="63.623047"/>
       <use xlink:href="#DejaVuSans-30" x="127.246094"/>
      </g>
     </g>
    </g>
    <g id="xtick_3">
     <g id="line2d_3">
      <g>
       <use xlink:href="#mef3da214c0" x="153.709373" y="315.304875" style="stroke: #000000; stroke-width: 0.8"/>
      </g>
     </g>
     <g id="text_3">
      <!-- 200 -->
      <g transform="translate(144.165623 329.903312) scale(0.1 -0.1)">
       <defs>
        <path id="DejaVuSans-32" d="M 1228 531 
L 3431 531 
L 3431 0 
L 469 0 
L 469 531 
Q 828 903 1448 1529 
Q 2069 2156 2228 2338 
Q 2531 2678 2651 2914 
Q 2772 3150 2772 3378 
Q 2772 3750 2511 3984 
Q 2250 4219 1831 4219 
Q 1534 4219 1204 4116 
Q 875 4013 500 3803 
L 500 4441 
Q 881 4594 1212 4672 
Q 1544 4750 1819 4750 
Q 2544 4750 2975 4387 
Q 3406 4025 3406 3419 
Q 3406 3131 3298 2873 
Q 3191 2616 2906 2266 
Q 2828 2175 2409 1742 
Q 1991 1309 1228 531 
z
" transform="scale(0.015625)"/>
       </defs>
       <use xlink:href="#DejaVuSans-32"/>
       <use xlink:href="#DejaVuSans-30" x="63.623047"/>
       <use xlink:href="#DejaVuSans-30" x="127.246094"/>
      </g>
     </g>
    </g>
    <g id="xtick_4">
     <g id="line2d_4">
      <g>
       <use xlink:href="#mef3da214c0" x="200.557071" y="315.304875" style="stroke: #000000; stroke-width: 0.8"/>
      </g>
     </g>
     <g id="text_4">
      <!-- 300 -->
      <g transform="translate(191.013321 329.903312) scale(0.1 -0.1)">
       <defs>
        <path id="DejaVuSans-33" d="M 2597 2516 
Q 3050 2419 3304 2112 
Q 3559 1806 3559 1356 
Q 3559 666 3084 287 
Q 2609 -91 1734 -91 
Q 1441 -91 1130 -33 
Q 819 25 488 141 
L 488 750 
Q 750 597 1062 519 
Q 1375 441 1716 441 
Q 2309 441 2620 675 
Q 2931 909 2931 1356 
Q 2931 1769 2642 2001 
Q 2353 2234 1838 2234 
L 1294 2234 
L 1294 2753 
L 1863 2753 
Q 2328 2753 2575 2939 
Q 2822 3125 2822 3475 
Q 2822 3834 2567 4026 
Q 2313 4219 1838 4219 
Q 1578 4219 1281 4162 
Q 984 4106 628 3988 
L 628 4550 
Q 988 4650 1302 4700 
Q 1616 4750 1894 4750 
Q 2613 4750 3031 4423 
Q 3450 4097 3450 3541 
Q 3450 3153 3228 2886 
Q 3006 2619 2597 2516 
z
" transform="scale(0.015625)"/>
       </defs>
       <use xlink:href="#DejaVuSans-33"/>
       <use xlink:href="#DejaVuSans-30" x="63.623047"/>
       <use xlink:href="#DejaVuSans-30" x="127.246094"/>
      </g>
     </g>
    </g>
    <g id="xtick_5">
     <g id="line2d_5">
      <g>
       <use xlink:href="#mef3da214c0" x="247.404768" y="315.304875" style="stroke: #000000; stroke-width: 0.8"/>
      </g>
     </g>
     <g id="text_5">
      <!-- 400 -->
      <g transform="translate(237.861018 329.903312) scale(0.1 -0.1)">
       <defs>
        <path id="DejaVuSans-34" d="M 2419 4116 
L 825 1625 
L 2419 1625 
L 2419 4116 
z
M 2253 4666 
L 3047 4666 
L 3047 1625 
L 3713 1625 
L 3713 1100 
L 3047 1100 
L 3047 0 
L 2419 0 
L 2419 1100 
L 313 1100 
L 313 1709 
L 2253 4666 
z
" transform="scale(0.015625)"/>
       </defs>
       <use xlink:href="#DejaVuSans-34"/>
       <use xlink:href="#DejaVuSans-30" x="63.623047"/>
       <use xlink:href="#DejaVuSans-30" x="127.246094"/>
      </g>
     </g>
    </g>
    <g id="xtick_6">
     <g id="line2d_6">
      <g>
       <use xlink:href="#mef3da214c0" x="294.252466" y="315.304875" style="stroke: #000000; stroke-width: 0.8"/>
      </g>
     </g>
     <g id="text_6">
      <!-- 500 -->
      <g transform="translate(284.708716 329.903312) scale(0.1 -0.1)">
       <defs>
        <path id="DejaVuSans-35" d="M 691 4666 
L 3169 4666 
L 3169 4134 
L 1269 4134 
L 1269 2991 
Q 1406 3038 1543 3061 
Q 1681 3084 1819 3084 
Q 2600 3084 3056 2656 
Q 3513 2228 3513 1497 
Q 3513 744 3044 326 
Q 2575 -91 1722 -91 
Q 1428 -91 1123 -41 
Q 819 9 494 109 
L 494 744 
Q 775 591 1075 516 
Q 1375 441 1709 441 
Q 2250 441 2565 725 
Q 2881 1009 2881 1497 
Q 2881 1984 2565 2268 
Q 2250 2553 1709 2553 
Q 1456 2553 1204 2497 
Q 953 2441 691 2322 
L 691 4666 
z
" transform="scale(0.015625)"/>
       </defs>
       <use xlink:href="#DejaVuSans-35"/>
       <use xlink:href="#DejaVuSans-30" x="63.623047"/>
       <use xlink:href="#DejaVuSans-30" x="127.246094"/>
      </g>
     </g>
    </g>
    <g id="xtick_7">
     <g id="line2d_7">
      <g>
       <use xlink:href="#mef3da214c0" x="341.100164" y="315.304875" style="stroke: #000000; stroke-width: 0.8"/>
      </g>
     </g>
     <g id="text_7">
      <!-- 600 -->
      <g transform="translate(331.556414 329.903312) scale(0.1 -0.1)">
       <defs>
        <path id="DejaVuSans-36" d="M 2113 2584 
Q 1688 2584 1439 2293 
Q 1191 2003 1191 1497 
Q 1191 994 1439 701 
Q 1688 409 2113 409 
Q 2538 409 2786 701 
Q 3034 994 3034 1497 
Q 3034 2003 2786 2293 
Q 2538 2584 2113 2584 
z
M 3366 4563 
L 3366 3988 
Q 3128 4100 2886 4159 
Q 2644 4219 2406 4219 
Q 1781 4219 1451 3797 
Q 1122 3375 1075 2522 
Q 1259 2794 1537 2939 
Q 1816 3084 2150 3084 
Q 2853 3084 3261 2657 
Q 3669 2231 3669 1497 
Q 3669 778 3244 343 
Q 2819 -91 2113 -91 
Q 1303 -91 875 529 
Q 447 1150 447 2328 
Q 447 3434 972 4092 
Q 1497 4750 2381 4750 
Q 2619 4750 2861 4703 
Q 3103 4656 3366 4563 
z
" transform="scale(0.015625)"/>
       </defs>
       <use xlink:href="#DejaVuSans-36"/>
       <use xlink:href="#DejaVuSans-30" x="63.623047"/>
       <use xlink:href="#DejaVuSans-30" x="127.246094"/>
      </g>
     </g>
    </g>
    <g id="xtick_8">
     <g id="line2d_8">
      <g>
       <use xlink:href="#mef3da214c0" x="387.947862" y="315.304875" style="stroke: #000000; stroke-width: 0.8"/>
      </g>
     </g>
     <g id="text_8">
      <!-- 700 -->
      <g transform="translate(378.404112 329.903312) scale(0.1 -0.1)">
       <defs>
        <path id="DejaVuSans-37" d="M 525 4666 
L 3525 4666 
L 3525 4397 
L 1831 0 
L 1172 0 
L 2766 4134 
L 525 4134 
L 525 4666 
z
" transform="scale(0.015625)"/>
       </defs>
       <use xlink:href="#DejaVuSans-37"/>
       <use xlink:href="#DejaVuSans-30" x="63.623047"/>
       <use xlink:href="#DejaVuSans-30" x="127.246094"/>
      </g>
     </g>
    </g>
    <g id="text_9">
     <!-- Weeks since Treatment Start -->
     <g transform="translate(150.632656 343.581437) scale(0.1 -0.1)">
      <defs>
       <path id="DejaVuSans-57" d="M 213 4666 
L 850 4666 
L 1831 722 
L 2809 4666 
L 3519 4666 
L 4500 722 
L 5478 4666 
L 6119 4666 
L 4947 0 
L 4153 0 
L 3169 4050 
L 2175 0 
L 1381 0 
L 213 4666 
z
" transform="scale(0.015625)"/>
       <path id="DejaVuSans-65" d="M 3597 1894 
L 3597 1613 
L 953 1613 
Q 991 1019 1311 708 
Q 1631 397 2203 397 
Q 2534 397 2845 478 
Q 3156 559 3463 722 
L 3463 178 
Q 3153 47 2828 -22 
Q 2503 -91 2169 -91 
Q 1331 -91 842 396 
Q 353 884 353 1716 
Q 353 2575 817 3079 
Q 1281 3584 2069 3584 
Q 2775 3584 3186 3129 
Q 3597 2675 3597 1894 
z
M 3022 2063 
Q 3016 2534 2758 2815 
Q 2500 3097 2075 3097 
Q 1594 3097 1305 2825 
Q 1016 2553 972 2059 
L 3022 2063 
z
" transform="scale(0.015625)"/>
       <path id="DejaVuSans-6b" d="M 581 4863 
L 1159 4863 
L 1159 1991 
L 2875 3500 
L 3609 3500 
L 1753 1863 
L 3688 0 
L 2938 0 
L 1159 1709 
L 1159 0 
L 581 0 
L 581 4863 
z
" transform="scale(0.015625)"/>
       <path id="DejaVuSans-73" d="M 2834 3397 
L 2834 2853 
Q 2591 2978 2328 3040 
Q 2066 3103 1784 3103 
Q 1356 3103 1142 2972 
Q 928 2841 928 2578 
Q 928 2378 1081 2264 
Q 1234 2150 1697 2047 
L 1894 2003 
Q 2506 1872 2764 1633 
Q 3022 1394 3022 966 
Q 3022 478 2636 193 
Q 2250 -91 1575 -91 
Q 1294 -91 989 -36 
Q 684 19 347 128 
L 347 722 
Q 666 556 975 473 
Q 1284 391 1588 391 
Q 1994 391 2212 530 
Q 2431 669 2431 922 
Q 2431 1156 2273 1281 
Q 2116 1406 1581 1522 
L 1381 1569 
Q 847 1681 609 1914 
Q 372 2147 372 2553 
Q 372 3047 722 3315 
Q 1072 3584 1716 3584 
Q 2034 3584 2315 3537 
Q 2597 3491 2834 3397 
z
" transform="scale(0.015625)"/>
       <path id="DejaVuSans-20" transform="scale(0.015625)"/>
       <path id="DejaVuSans-69" d="M 603 3500 
L 1178 3500 
L 1178 0 
L 603 0 
L 603 3500 
z
M 603 4863 
L 1178 4863 
L 1178 4134 
L 603 4134 
L 603 4863 
z
" transform="scale(0.015625)"/>
       <path id="DejaVuSans-6e" d="M 3513 2113 
L 3513 0 
L 2938 0 
L 2938 2094 
Q 2938 2591 2744 2837 
Q 2550 3084 2163 3084 
Q 1697 3084 1428 2787 
Q 1159 2491 1159 1978 
L 1159 0 
L 581 0 
L 581 3500 
L 1159 3500 
L 1159 2956 
Q 1366 3272 1645 3428 
Q 1925 3584 2291 3584 
Q 2894 3584 3203 3211 
Q 3513 2838 3513 2113 
z
" transform="scale(0.015625)"/>
       <path id="DejaVuSans-63" d="M 3122 3366 
L 3122 2828 
Q 2878 2963 2633 3030 
Q 2388 3097 2138 3097 
Q 1578 3097 1268 2742 
Q 959 2388 959 1747 
Q 959 1106 1268 751 
Q 1578 397 2138 397 
Q 2388 397 2633 464 
Q 2878 531 3122 666 
L 3122 134 
Q 2881 22 2623 -34 
Q 2366 -91 2075 -91 
Q 1284 -91 818 406 
Q 353 903 353 1747 
Q 353 2603 823 3093 
Q 1294 3584 2113 3584 
Q 2378 3584 2631 3529 
Q 2884 3475 3122 3366 
z
" transform="scale(0.015625)"/>
       <path id="DejaVuSans-54" d="M -19 4666 
L 3928 4666 
L 3928 4134 
L 2272 4134 
L 2272 0 
L 1638 0 
L 1638 4134 
L -19 4134 
L -19 4666 
z
" transform="scale(0.015625)"/>
       <path id="DejaVuSans-72" d="M 2631 2963 
Q 2534 3019 2420 3045 
Q 2306 3072 2169 3072 
Q 1681 3072 1420 2755 
Q 1159 2438 1159 1844 
L 1159 0 
L 581 0 
L 581 3500 
L 1159 3500 
L 1159 2956 
Q 1341 3275 1631 3429 
Q 1922 3584 2338 3584 
Q 2397 3584 2469 3576 
Q 2541 3569 2628 3553 
L 2631 2963 
z
" transform="scale(0.015625)"/>
       <path id="DejaVuSans-61" d="M 2194 1759 
Q 1497 1759 1228 1600 
Q 959 1441 959 1056 
Q 959 750 1161 570 
Q 1363 391 1709 391 
Q 2188 391 2477 730 
Q 2766 1069 2766 1631 
L 2766 1759 
L 2194 1759 
z
M 3341 1997 
L 3341 0 
L 2766 0 
L 2766 531 
Q 2569 213 2275 61 
Q 1981 -91 1556 -91 
Q 1019 -91 701 211 
Q 384 513 384 1019 
Q 384 1609 779 1909 
Q 1175 2209 1959 2209 
L 2766 2209 
L 2766 2266 
Q 2766 2663 2505 2880 
Q 2244 3097 1772 3097 
Q 1472 3097 1187 3025 
Q 903 2953 641 2809 
L 641 3341 
Q 956 3463 1253 3523 
Q 1550 3584 1831 3584 
Q 2591 3584 2966 3190 
Q 3341 2797 3341 1997 
z
" transform="scale(0.015625)"/>
       <path id="DejaVuSans-74" d="M 1172 4494 
L 1172 3500 
L 2356 3500 
L 2356 3053 
L 1172 3053 
L 1172 1153 
Q 1172 725 1289 603 
Q 1406 481 1766 481 
L 2356 481 
L 2356 0 
L 1766 0 
Q 1100 0 847 248 
Q 594 497 594 1153 
L 594 3053 
L 172 3053 
L 172 3500 
L 594 3500 
L 594 4494 
L 1172 4494 
z
" transform="scale(0.015625)"/>
       <path id="DejaVuSans-6d" d="M 3328 2828 
Q 3544 3216 3844 3400 
Q 4144 3584 4550 3584 
Q 5097 3584 5394 3201 
Q 5691 2819 5691 2113 
L 5691 0 
L 5113 0 
L 5113 2094 
Q 5113 2597 4934 2840 
Q 4756 3084 4391 3084 
Q 3944 3084 3684 2787 
Q 3425 2491 3425 1978 
L 3425 0 
L 2847 0 
L 2847 2094 
Q 2847 2600 2669 2842 
Q 2491 3084 2119 3084 
Q 1678 3084 1418 2786 
Q 1159 2488 1159 1978 
L 1159 0 
L 581 0 
L 581 3500 
L 1159 3500 
L 1159 2956 
Q 1356 3278 1631 3431 
Q 1906 3584 2284 3584 
Q 2666 3584 2933 3390 
Q 3200 3197 3328 2828 
z
" transform="scale(0.015625)"/>
       <path id="DejaVuSans-53" d="M 3425 4513 
L 3425 3897 
Q 3066 4069 2747 4153 
Q 2428 4238 2131 4238 
Q 1616 4238 1336 4038 
Q 1056 3838 1056 3469 
Q 1056 3159 1242 3001 
Q 1428 2844 1947 2747 
L 2328 2669 
Q 3034 2534 3370 2195 
Q 3706 1856 3706 1288 
Q 3706 609 3251 259 
Q 2797 -91 1919 -91 
Q 1588 -91 1214 -16 
Q 841 59 441 206 
L 441 856 
Q 825 641 1194 531 
Q 1563 422 1919 422 
Q 2459 422 2753 634 
Q 3047 847 3047 1241 
Q 3047 1584 2836 1778 
Q 2625 1972 2144 2069 
L 1759 2144 
Q 1053 2284 737 2584 
Q 422 2884 422 3419 
Q 422 4038 858 4394 
Q 1294 4750 2059 4750 
Q 2388 4750 2728 4690 
Q 3069 4631 3425 4513 
z
" transform="scale(0.015625)"/>
      </defs>
      <use xlink:href="#DejaVuSans-57"/>
      <use xlink:href="#DejaVuSans-65" x="93.001953"/>
      <use xlink:href="#DejaVuSans-65" x="154.525391"/>
      <use xlink:href="#DejaVuSans-6b" x="216.048828"/>
      <use xlink:href="#DejaVuSans-73" x="273.958984"/>
      <use xlink:href="#DejaVuSans-20" x="326.058594"/>
      <use xlink:href="#DejaVuSans-73" x="357.845703"/>
      <use xlink:href="#DejaVuSans-69" x="409.945312"/>
      <use xlink:href="#DejaVuSans-6e" x="437.728516"/>
      <use xlink:href="#DejaVuSans-63" x="501.107422"/>
      <use xlink:href="#DejaVuSans-65" x="556.087891"/>
      <use xlink:href="#DejaVuSans-20" x="617.611328"/>
      <use xlink:href="#DejaVuSans-54" x="649.398438"/>
      <use xlink:href="#DejaVuSans-72" x="695.732422"/>
      <use xlink:href="#DejaVuSans-65" x="734.595703"/>
      <use xlink:href="#DejaVuSans-61" x="796.119141"/>
      <use xlink:href="#DejaVuSans-74" x="857.398438"/>
      <use xlink:href="#DejaVuSans-6d" x="896.607422"/>
      <use xlink:href="#DejaVuSans-65" x="994.019531"/>
      <use xlink:href="#DejaVuSans-6e" x="1055.542969"/>
      <use xlink:href="#DejaVuSans-74" x="1118.921875"/>
      <use xlink:href="#DejaVuSans-20" x="1158.130859"/>
      <use xlink:href="#DejaVuSans-53" x="1189.917969"/>
      <use xlink:href="#DejaVuSans-74" x="1253.394531"/>
      <use xlink:href="#DejaVuSans-61" x="1292.603516"/>
      <use xlink:href="#DejaVuSans-72" x="1353.882812"/>
      <use xlink:href="#DejaVuSans-74" x="1394.996094"/>
     </g>
    </g>
   </g>
   <g id="matplotlib.axis_2">
    <g id="ytick_1">
     <g id="line2d_9">
      <defs>
       <path id="md2b8495887" d="M 0 0 
L -3.5 0 
" style="stroke: #000000; stroke-width: 0.8"/>
      </defs>
      <g>
       <use xlink:href="#md2b8495887" x="43.78125" y="303.208875" style="stroke: #000000; stroke-width: 0.8"/>
      </g>
     </g>
     <g id="text_10">
      <!-- 0.0 -->
      <g transform="translate(20.878125 307.008094) scale(0.1 -0.1)">
       <defs>
        <path id="DejaVuSans-2e" d="M 684 794 
L 1344 794 
L 1344 0 
L 684 0 
L 684 794 
z
" transform="scale(0.015625)"/>
       </defs>
       <use xlink:href="#DejaVuSans-30"/>
       <use xlink:href="#DejaVuSans-2e" x="63.623047"/>
       <use xlink:href="#DejaVuSans-30" x="95.410156"/>
      </g>
     </g>
    </g>
    <g id="ytick_2">
     <g id="line2d_10">
      <g>
       <use xlink:href="#md2b8495887" x="43.78125" y="254.824875" style="stroke: #000000; stroke-width: 0.8"/>
      </g>
     </g>
     <g id="text_11">
      <!-- 0.2 -->
      <g transform="translate(20.878125 258.624094) scale(0.1 -0.1)">
       <use xlink:href="#DejaVuSans-30"/>
       <use xlink:href="#DejaVuSans-2e" x="63.623047"/>
       <use xlink:href="#DejaVuSans-32" x="95.410156"/>
      </g>
     </g>
    </g>
    <g id="ytick_3">
     <g id="line2d_11">
      <g>
       <use xlink:href="#md2b8495887" x="43.78125" y="206.440875" style="stroke: #000000; stroke-width: 0.8"/>
      </g>
     </g>
     <g id="text_12">
      <!-- 0.4 -->
      <g transform="translate(20.878125 210.240094) scale(0.1 -0.1)">
       <use xlink:href="#DejaVuSans-30"/>
       <use xlink:href="#DejaVuSans-2e" x="63.623047"/>
       <use xlink:href="#DejaVuSans-34" x="95.410156"/>
      </g>
     </g>
    </g>
    <g id="ytick_4">
     <g id="line2d_12">
      <g>
       <use xlink:href="#md2b8495887" x="43.78125" y="158.056875" style="stroke: #000000; stroke-width: 0.8"/>
      </g>
     </g>
     <g id="text_13">
      <!-- 0.6 -->
      <g transform="translate(20.878125 161.856094) scale(0.1 -0.1)">
       <use xlink:href="#DejaVuSans-30"/>
       <use xlink:href="#DejaVuSans-2e" x="63.623047"/>
       <use xlink:href="#DejaVuSans-36" x="95.410156"/>
      </g>
     </g>
    </g>
    <g id="ytick_5">
     <g id="line2d_13">
      <g>
       <use xlink:href="#md2b8495887" x="43.78125" y="109.672875" style="stroke: #000000; stroke-width: 0.8"/>
      </g>
     </g>
     <g id="text_14">
      <!-- 0.8 -->
      <g transform="translate(20.878125 113.472094) scale(0.1 -0.1)">
       <defs>
        <path id="DejaVuSans-38" d="M 2034 2216 
Q 1584 2216 1326 1975 
Q 1069 1734 1069 1313 
Q 1069 891 1326 650 
Q 1584 409 2034 409 
Q 2484 409 2743 651 
Q 3003 894 3003 1313 
Q 3003 1734 2745 1975 
Q 2488 2216 2034 2216 
z
M 1403 2484 
Q 997 2584 770 2862 
Q 544 3141 544 3541 
Q 544 4100 942 4425 
Q 1341 4750 2034 4750 
Q 2731 4750 3128 4425 
Q 3525 4100 3525 3541 
Q 3525 3141 3298 2862 
Q 3072 2584 2669 2484 
Q 3125 2378 3379 2068 
Q 3634 1759 3634 1313 
Q 3634 634 3220 271 
Q 2806 -91 2034 -91 
Q 1263 -91 848 271 
Q 434 634 434 1313 
Q 434 1759 690 2068 
Q 947 2378 1403 2484 
z
M 1172 3481 
Q 1172 3119 1398 2916 
Q 1625 2713 2034 2713 
Q 2441 2713 2670 2916 
Q 2900 3119 2900 3481 
Q 2900 3844 2670 4047 
Q 2441 4250 2034 4250 
Q 1625 4250 1398 4047 
Q 1172 3844 1172 3481 
z
" transform="scale(0.015625)"/>
       </defs>
       <use xlink:href="#DejaVuSans-30"/>
       <use xlink:href="#DejaVuSans-2e" x="63.623047"/>
       <use xlink:href="#DejaVuSans-38" x="95.410156"/>
      </g>
     </g>
    </g>
    <g id="ytick_6">
     <g id="line2d_14">
      <g>
       <use xlink:href="#md2b8495887" x="43.78125" y="61.288875" style="stroke: #000000; stroke-width: 0.8"/>
      </g>
     </g>
     <g id="text_15">
      <!-- 1.0 -->
      <g transform="translate(20.878125 65.088094) scale(0.1 -0.1)">
       <use xlink:href="#DejaVuSans-31"/>
       <use xlink:href="#DejaVuSans-2e" x="63.623047"/>
       <use xlink:href="#DejaVuSans-30" x="95.410156"/>
      </g>
     </g>
    </g>
    <g id="text_16">
     <!-- Probability of No Event -->
     <g transform="translate(14.798438 239.388719) rotate(-90) scale(0.1 -0.1)">
      <defs>
       <path id="DejaVuSans-50" d="M 1259 4147 
L 1259 2394 
L 2053 2394 
Q 2494 2394 2734 2622 
Q 2975 2850 2975 3272 
Q 2975 3691 2734 3919 
Q 2494 4147 2053 4147 
L 1259 4147 
z
M 628 4666 
L 2053 4666 
Q 2838 4666 3239 4311 
Q 3641 3956 3641 3272 
Q 3641 2581 3239 2228 
Q 2838 1875 2053 1875 
L 1259 1875 
L 1259 0 
L 628 0 
L 628 4666 
z
" transform="scale(0.015625)"/>
       <path id="DejaVuSans-6f" d="M 1959 3097 
Q 1497 3097 1228 2736 
Q 959 2375 959 1747 
Q 959 1119 1226 758 
Q 1494 397 1959 397 
Q 2419 397 2687 759 
Q 2956 1122 2956 1747 
Q 2956 2369 2687 2733 
Q 2419 3097 1959 3097 
z
M 1959 3584 
Q 2709 3584 3137 3096 
Q 3566 2609 3566 1747 
Q 3566 888 3137 398 
Q 2709 -91 1959 -91 
Q 1206 -91 779 398 
Q 353 888 353 1747 
Q 353 2609 779 3096 
Q 1206 3584 1959 3584 
z
" transform="scale(0.015625)"/>
       <path id="DejaVuSans-62" d="M 3116 1747 
Q 3116 2381 2855 2742 
Q 2594 3103 2138 3103 
Q 1681 3103 1420 2742 
Q 1159 2381 1159 1747 
Q 1159 1113 1420 752 
Q 1681 391 2138 391 
Q 2594 391 2855 752 
Q 3116 1113 3116 1747 
z
M 1159 2969 
Q 1341 3281 1617 3432 
Q 1894 3584 2278 3584 
Q 2916 3584 3314 3078 
Q 3713 2572 3713 1747 
Q 3713 922 3314 415 
Q 2916 -91 2278 -91 
Q 1894 -91 1617 61 
Q 1341 213 1159 525 
L 1159 0 
L 581 0 
L 581 4863 
L 1159 4863 
L 1159 2969 
z
" transform="scale(0.015625)"/>
       <path id="DejaVuSans-6c" d="M 603 4863 
L 1178 4863 
L 1178 0 
L 603 0 
L 603 4863 
z
" transform="scale(0.015625)"/>
       <path id="DejaVuSans-79" d="M 2059 -325 
Q 1816 -950 1584 -1140 
Q 1353 -1331 966 -1331 
L 506 -1331 
L 506 -850 
L 844 -850 
Q 1081 -850 1212 -737 
Q 1344 -625 1503 -206 
L 1606 56 
L 191 3500 
L 800 3500 
L 1894 763 
L 2988 3500 
L 3597 3500 
L 2059 -325 
z
" transform="scale(0.015625)"/>
       <path id="DejaVuSans-66" d="M 2375 4863 
L 2375 4384 
L 1825 4384 
Q 1516 4384 1395 4259 
Q 1275 4134 1275 3809 
L 1275 3500 
L 2222 3500 
L 2222 3053 
L 1275 3053 
L 1275 0 
L 697 0 
L 697 3053 
L 147 3053 
L 147 3500 
L 697 3500 
L 697 3744 
Q 697 4328 969 4595 
Q 1241 4863 1831 4863 
L 2375 4863 
z
" transform="scale(0.015625)"/>
       <path id="DejaVuSans-4e" d="M 628 4666 
L 1478 4666 
L 3547 763 
L 3547 4666 
L 4159 4666 
L 4159 0 
L 3309 0 
L 1241 3903 
L 1241 0 
L 628 0 
L 628 4666 
z
" transform="scale(0.015625)"/>
       <path id="DejaVuSans-45" d="M 628 4666 
L 3578 4666 
L 3578 4134 
L 1259 4134 
L 1259 2753 
L 3481 2753 
L 3481 2222 
L 1259 2222 
L 1259 531 
L 3634 531 
L 3634 0 
L 628 0 
L 628 4666 
z
" transform="scale(0.015625)"/>
       <path id="DejaVuSans-76" d="M 191 3500 
L 800 3500 
L 1894 563 
L 2988 3500 
L 3597 3500 
L 2284 0 
L 1503 0 
L 191 3500 
z
" transform="scale(0.015625)"/>
      </defs>
      <use xlink:href="#DejaVuSans-50"/>
      <use xlink:href="#DejaVuSans-72" x="58.552734"/>
      <use xlink:href="#DejaVuSans-6f" x="97.416016"/>
      <use xlink:href="#DejaVuSans-62" x="158.597656"/>
      <use xlink:href="#DejaVuSans-61" x="222.074219"/>
      <use xlink:href="#DejaVuSans-62" x="283.353516"/>
      <use xlink:href="#DejaVuSans-69" x="346.830078"/>
      <use xlink:href="#DejaVuSans-6c" x="374.613281"/>
      <use xlink:href="#DejaVuSans-69" x="402.396484"/>
      <use xlink:href="#DejaVuSans-74" x="430.179688"/>
      <use xlink:href="#DejaVuSans-79" x="469.388672"/>
      <use xlink:href="#DejaVuSans-20" x="528.568359"/>
      <use xlink:href="#DejaVuSans-6f" x="560.355469"/>
      <use xlink:href="#DejaVuSans-66" x="621.537109"/>
      <use xlink:href="#DejaVuSans-20" x="656.742188"/>
      <use xlink:href="#DejaVuSans-4e" x="688.529297"/>
      <use xlink:href="#DejaVuSans-6f" x="763.333984"/>
      <use xlink:href="#DejaVuSans-20" x="824.515625"/>
      <use xlink:href="#DejaVuSans-45" x="856.302734"/>
      <use xlink:href="#DejaVuSans-76" x="919.486328"/>
      <use xlink:href="#DejaVuSans-65" x="978.666016"/>
      <use xlink:href="#DejaVuSans-6e" x="1040.189453"/>
      <use xlink:href="#DejaVuSans-74" x="1103.568359"/>
     </g>
    </g>
   </g>
   <g id="line2d_15">
    <defs>
     <path id="mf67684865f" d="M -4 0 
L 4 0 
M 0 4 
L 0 -4 
" style="stroke: #1f77b4; stroke-width: 0.5"/>
    </defs>
    <g clip-path="url(#p3af082be10)">
     <use xlink:href="#mf67684865f" x="75.473718" y="61.288875" style="fill: #1f77b4; stroke: #1f77b4; stroke-width: 0.5"/>
     <use xlink:href="#mf67684865f" x="80.158487" y="61.288875" style="fill: #1f77b4; stroke: #1f77b4; stroke-width: 0.5"/>
     <use xlink:href="#mf67684865f" x="82.500872" y="61.288875" style="fill: #1f77b4; stroke: #1f77b4; stroke-width: 0.5"/>
     <use xlink:href="#mf67684865f" x="82.969349" y="61.288875" style="fill: #1f77b4; stroke: #1f77b4; stroke-width: 0.5"/>
     <use xlink:href="#mf67684865f" x="84.843257" y="61.288875" style="fill: #1f77b4; stroke: #1f77b4; stroke-width: 0.5"/>
     <use xlink:href="#mf67684865f" x="91.870412" y="61.288875" style="fill: #1f77b4; stroke: #1f77b4; stroke-width: 0.5"/>
     <use xlink:href="#mf67684865f" x="95.618228" y="61.288875" style="fill: #1f77b4; stroke: #1f77b4; stroke-width: 0.5"/>
     <use xlink:href="#mf67684865f" x="96.086705" y="61.288875" style="fill: #1f77b4; stroke: #1f77b4; stroke-width: 0.5"/>
     <use xlink:href="#mf67684865f" x="99.366043" y="61.288875" style="fill: #1f77b4; stroke: #1f77b4; stroke-width: 0.5"/>
     <use xlink:href="#mf67684865f" x="111.077968" y="61.288875" style="fill: #1f77b4; stroke: #1f77b4; stroke-width: 0.5"/>
     <use xlink:href="#mf67684865f" x="115.294261" y="61.288875" style="fill: #1f77b4; stroke: #1f77b4; stroke-width: 0.5"/>
     <use xlink:href="#mf67684865f" x="121.384461" y="61.288875" style="fill: #1f77b4; stroke: #1f77b4; stroke-width: 0.5"/>
     <use xlink:href="#mf67684865f" x="124.195323" y="61.288875" style="fill: #1f77b4; stroke: #1f77b4; stroke-width: 0.5"/>
     <use xlink:href="#mf67684865f" x="125.132277" y="61.288875" style="fill: #1f77b4; stroke: #1f77b4; stroke-width: 0.5"/>
     <use xlink:href="#mf67684865f" x="126.069231" y="61.288875" style="fill: #1f77b4; stroke: #1f77b4; stroke-width: 0.5"/>
     <use xlink:href="#mf67684865f" x="127.006185" y="62.120215" style="fill: #1f77b4; stroke: #1f77b4; stroke-width: 0.5"/>
     <use xlink:href="#mf67684865f" x="128.411616" y="62.120215" style="fill: #1f77b4; stroke: #1f77b4; stroke-width: 0.5"/>
     <use xlink:href="#mf67684865f" x="133.096386" y="62.120215" style="fill: #1f77b4; stroke: #1f77b4; stroke-width: 0.5"/>
     <use xlink:href="#mf67684865f" x="135.907248" y="62.120215" style="fill: #1f77b4; stroke: #1f77b4; stroke-width: 0.5"/>
     <use xlink:href="#mf67684865f" x="138.71811" y="62.963183" style="fill: #1f77b4; stroke: #1f77b4; stroke-width: 0.5"/>
     <use xlink:href="#mf67684865f" x="139.186586" y="62.963183" style="fill: #1f77b4; stroke: #1f77b4; stroke-width: 0.5"/>
     <use xlink:href="#mf67684865f" x="141.997448" y="63.812107" style="fill: #1f77b4; stroke: #1f77b4; stroke-width: 0.5"/>
     <use xlink:href="#mf67684865f" x="143.402879" y="63.812107" style="fill: #1f77b4; stroke: #1f77b4; stroke-width: 0.5"/>
     <use xlink:href="#mf67684865f" x="143.871356" y="63.812107" style="fill: #1f77b4; stroke: #1f77b4; stroke-width: 0.5"/>
     <use xlink:href="#mf67684865f" x="144.339833" y="64.67016" style="fill: #1f77b4; stroke: #1f77b4; stroke-width: 0.5"/>
     <use xlink:href="#mf67684865f" x="144.80831" y="64.67016" style="fill: #1f77b4; stroke: #1f77b4; stroke-width: 0.5"/>
     <use xlink:href="#mf67684865f" x="145.276787" y="65.537574" style="fill: #1f77b4; stroke: #1f77b4; stroke-width: 0.5"/>
     <use xlink:href="#mf67684865f" x="146.213741" y="65.537574" style="fill: #1f77b4; stroke: #1f77b4; stroke-width: 0.5"/>
     <use xlink:href="#mf67684865f" x="147.619172" y="65.537574" style="fill: #1f77b4; stroke: #1f77b4; stroke-width: 0.5"/>
     <use xlink:href="#mf67684865f" x="148.087649" y="65.537574" style="fill: #1f77b4; stroke: #1f77b4; stroke-width: 0.5"/>
     <use xlink:href="#mf67684865f" x="148.556126" y="65.537574" style="fill: #1f77b4; stroke: #1f77b4; stroke-width: 0.5"/>
     <use xlink:href="#mf67684865f" x="151.366988" y="65.537574" style="fill: #1f77b4; stroke: #1f77b4; stroke-width: 0.5"/>
     <use xlink:href="#mf67684865f" x="151.835465" y="65.537574" style="fill: #1f77b4; stroke: #1f77b4; stroke-width: 0.5"/>
     <use xlink:href="#mf67684865f" x="154.17785" y="65.537574" style="fill: #1f77b4; stroke: #1f77b4; stroke-width: 0.5"/>
     <use xlink:href="#mf67684865f" x="161.673481" y="66.434447" style="fill: #1f77b4; stroke: #1f77b4; stroke-width: 0.5"/>
     <use xlink:href="#mf67684865f" x="165.889774" y="67.33473" style="fill: #1f77b4; stroke: #1f77b4; stroke-width: 0.5"/>
     <use xlink:href="#mf67684865f" x="181.349514" y="69.142194" style="fill: #1f77b4; stroke: #1f77b4; stroke-width: 0.5"/>
     <use xlink:href="#mf67684865f" x="187.908192" y="70.049429" style="fill: #1f77b4; stroke: #1f77b4; stroke-width: 0.5"/>
     <use xlink:href="#mf67684865f" x="202.430978" y="70.960209" style="fill: #1f77b4; stroke: #1f77b4; stroke-width: 0.5"/>
     <use xlink:href="#mf67684865f" x="209.458133" y="70.960209" style="fill: #1f77b4; stroke: #1f77b4; stroke-width: 0.5"/>
     <use xlink:href="#mf67684865f" x="222.107012" y="70.960209" style="fill: #1f77b4; stroke: #1f77b4; stroke-width: 0.5"/>
     <use xlink:href="#mf67684865f" x="223.980919" y="72.803452" style="fill: #1f77b4; stroke: #1f77b4; stroke-width: 0.5"/>
     <use xlink:href="#mf67684865f" x="225.38635" y="72.803452" style="fill: #1f77b4; stroke: #1f77b4; stroke-width: 0.5"/>
     <use xlink:href="#mf67684865f" x="226.791781" y="72.803452" style="fill: #1f77b4; stroke: #1f77b4; stroke-width: 0.5"/>
     <use xlink:href="#mf67684865f" x="227.728735" y="72.803452" style="fill: #1f77b4; stroke: #1f77b4; stroke-width: 0.5"/>
     <use xlink:href="#mf67684865f" x="228.197212" y="72.803452" style="fill: #1f77b4; stroke: #1f77b4; stroke-width: 0.5"/>
     <use xlink:href="#mf67684865f" x="230.07112" y="72.803452" style="fill: #1f77b4; stroke: #1f77b4; stroke-width: 0.5"/>
     <use xlink:href="#mf67684865f" x="230.539597" y="72.803452" style="fill: #1f77b4; stroke: #1f77b4; stroke-width: 0.5"/>
     <use xlink:href="#mf67684865f" x="231.008074" y="72.803452" style="fill: #1f77b4; stroke: #1f77b4; stroke-width: 0.5"/>
     <use xlink:href="#mf67684865f" x="231.945028" y="72.803452" style="fill: #1f77b4; stroke: #1f77b4; stroke-width: 0.5"/>
     <use xlink:href="#mf67684865f" x="239.909137" y="72.803452" style="fill: #1f77b4; stroke: #1f77b4; stroke-width: 0.5"/>
     <use xlink:href="#mf67684865f" x="242.251522" y="73.775627" style="fill: #1f77b4; stroke: #1f77b4; stroke-width: 0.5"/>
     <use xlink:href="#mf67684865f" x="243.188476" y="73.775627" style="fill: #1f77b4; stroke: #1f77b4; stroke-width: 0.5"/>
     <use xlink:href="#mf67684865f" x="246.936291" y="73.775627" style="fill: #1f77b4; stroke: #1f77b4; stroke-width: 0.5"/>
     <use xlink:href="#mf67684865f" x="254.431923" y="74.760319" style="fill: #1f77b4; stroke: #1f77b4; stroke-width: 0.5"/>
     <use xlink:href="#mf67684865f" x="259.58517" y="74.760319" style="fill: #1f77b4; stroke: #1f77b4; stroke-width: 0.5"/>
     <use xlink:href="#mf67684865f" x="260.990601" y="74.760319" style="fill: #1f77b4; stroke: #1f77b4; stroke-width: 0.5"/>
     <use xlink:href="#mf67684865f" x="266.612324" y="74.760319" style="fill: #1f77b4; stroke: #1f77b4; stroke-width: 0.5"/>
     <use xlink:href="#mf67684865f" x="270.36014" y="75.762286" style="fill: #1f77b4; stroke: #1f77b4; stroke-width: 0.5"/>
     <use xlink:href="#mf67684865f" x="270.828617" y="75.762286" style="fill: #1f77b4; stroke: #1f77b4; stroke-width: 0.5"/>
     <use xlink:href="#mf67684865f" x="271.765571" y="75.762286" style="fill: #1f77b4; stroke: #1f77b4; stroke-width: 0.5"/>
     <use xlink:href="#mf67684865f" x="272.702525" y="75.762286" style="fill: #1f77b4; stroke: #1f77b4; stroke-width: 0.5"/>
     <use xlink:href="#mf67684865f" x="273.171002" y="75.762286" style="fill: #1f77b4; stroke: #1f77b4; stroke-width: 0.5"/>
     <use xlink:href="#mf67684865f" x="273.639479" y="75.762286" style="fill: #1f77b4; stroke: #1f77b4; stroke-width: 0.5"/>
     <use xlink:href="#mf67684865f" x="276.450341" y="76.800855" style="fill: #1f77b4; stroke: #1f77b4; stroke-width: 0.5"/>
     <use xlink:href="#mf67684865f" x="276.918818" y="76.800855" style="fill: #1f77b4; stroke: #1f77b4; stroke-width: 0.5"/>
     <use xlink:href="#mf67684865f" x="277.387295" y="76.800855" style="fill: #1f77b4; stroke: #1f77b4; stroke-width: 0.5"/>
     <use xlink:href="#mf67684865f" x="278.792726" y="76.800855" style="fill: #1f77b4; stroke: #1f77b4; stroke-width: 0.5"/>
     <use xlink:href="#mf67684865f" x="279.261203" y="76.800855" style="fill: #1f77b4; stroke: #1f77b4; stroke-width: 0.5"/>
     <use xlink:href="#mf67684865f" x="280.666634" y="77.868817" style="fill: #1f77b4; stroke: #1f77b4; stroke-width: 0.5"/>
     <use xlink:href="#mf67684865f" x="285.351403" y="78.941865" style="fill: #1f77b4; stroke: #1f77b4; stroke-width: 0.5"/>
     <use xlink:href="#mf67684865f" x="290.036173" y="78.941865" style="fill: #1f77b4; stroke: #1f77b4; stroke-width: 0.5"/>
     <use xlink:href="#mf67684865f" x="291.441604" y="78.941865" style="fill: #1f77b4; stroke: #1f77b4; stroke-width: 0.5"/>
     <use xlink:href="#mf67684865f" x="292.378558" y="80.03054" style="fill: #1f77b4; stroke: #1f77b4; stroke-width: 0.5"/>
     <use xlink:href="#mf67684865f" x="296.126374" y="81.135383" style="fill: #1f77b4; stroke: #1f77b4; stroke-width: 0.5"/>
     <use xlink:href="#mf67684865f" x="297.063328" y="81.135383" style="fill: #1f77b4; stroke: #1f77b4; stroke-width: 0.5"/>
     <use xlink:href="#mf67684865f" x="297.531805" y="81.135383" style="fill: #1f77b4; stroke: #1f77b4; stroke-width: 0.5"/>
     <use xlink:href="#mf67684865f" x="298.000282" y="81.135383" style="fill: #1f77b4; stroke: #1f77b4; stroke-width: 0.5"/>
     <use xlink:href="#mf67684865f" x="299.405713" y="81.135383" style="fill: #1f77b4; stroke: #1f77b4; stroke-width: 0.5"/>
     <use xlink:href="#mf67684865f" x="301.279621" y="81.135383" style="fill: #1f77b4; stroke: #1f77b4; stroke-width: 0.5"/>
     <use xlink:href="#mf67684865f" x="301.748098" y="81.135383" style="fill: #1f77b4; stroke: #1f77b4; stroke-width: 0.5"/>
     <use xlink:href="#mf67684865f" x="302.685052" y="81.135383" style="fill: #1f77b4; stroke: #1f77b4; stroke-width: 0.5"/>
     <use xlink:href="#mf67684865f" x="303.622006" y="81.135383" style="fill: #1f77b4; stroke: #1f77b4; stroke-width: 0.5"/>
     <use xlink:href="#mf67684865f" x="304.55896" y="81.135383" style="fill: #1f77b4; stroke: #1f77b4; stroke-width: 0.5"/>
     <use xlink:href="#mf67684865f" x="305.027437" y="81.135383" style="fill: #1f77b4; stroke: #1f77b4; stroke-width: 0.5"/>
     <use xlink:href="#mf67684865f" x="305.495914" y="81.135383" style="fill: #1f77b4; stroke: #1f77b4; stroke-width: 0.5"/>
     <use xlink:href="#mf67684865f" x="305.96439" y="81.135383" style="fill: #1f77b4; stroke: #1f77b4; stroke-width: 0.5"/>
     <use xlink:href="#mf67684865f" x="306.432867" y="81.135383" style="fill: #1f77b4; stroke: #1f77b4; stroke-width: 0.5"/>
     <use xlink:href="#mf67684865f" x="306.901344" y="81.135383" style="fill: #1f77b4; stroke: #1f77b4; stroke-width: 0.5"/>
     <use xlink:href="#mf67684865f" x="307.369821" y="81.135383" style="fill: #1f77b4; stroke: #1f77b4; stroke-width: 0.5"/>
     <use xlink:href="#mf67684865f" x="307.838298" y="81.135383" style="fill: #1f77b4; stroke: #1f77b4; stroke-width: 0.5"/>
     <use xlink:href="#mf67684865f" x="308.306775" y="81.135383" style="fill: #1f77b4; stroke: #1f77b4; stroke-width: 0.5"/>
     <use xlink:href="#mf67684865f" x="308.775252" y="81.135383" style="fill: #1f77b4; stroke: #1f77b4; stroke-width: 0.5"/>
     <use xlink:href="#mf67684865f" x="309.243729" y="81.135383" style="fill: #1f77b4; stroke: #1f77b4; stroke-width: 0.5"/>
     <use xlink:href="#mf67684865f" x="309.712206" y="81.135383" style="fill: #1f77b4; stroke: #1f77b4; stroke-width: 0.5"/>
     <use xlink:href="#mf67684865f" x="310.180683" y="81.135383" style="fill: #1f77b4; stroke: #1f77b4; stroke-width: 0.5"/>
     <use xlink:href="#mf67684865f" x="310.64916" y="81.135383" style="fill: #1f77b4; stroke: #1f77b4; stroke-width: 0.5"/>
     <use xlink:href="#mf67684865f" x="311.117637" y="81.135383" style="fill: #1f77b4; stroke: #1f77b4; stroke-width: 0.5"/>
     <use xlink:href="#mf67684865f" x="311.586114" y="82.586844" style="fill: #1f77b4; stroke: #1f77b4; stroke-width: 0.5"/>
     <use xlink:href="#mf67684865f" x="312.054591" y="82.586844" style="fill: #1f77b4; stroke: #1f77b4; stroke-width: 0.5"/>
     <use xlink:href="#mf67684865f" x="312.523068" y="84.057658" style="fill: #1f77b4; stroke: #1f77b4; stroke-width: 0.5"/>
     <use xlink:href="#mf67684865f" x="312.991545" y="84.057658" style="fill: #1f77b4; stroke: #1f77b4; stroke-width: 0.5"/>
     <use xlink:href="#mf67684865f" x="313.460022" y="84.057658" style="fill: #1f77b4; stroke: #1f77b4; stroke-width: 0.5"/>
     <use xlink:href="#mf67684865f" x="313.928499" y="84.057658" style="fill: #1f77b4; stroke: #1f77b4; stroke-width: 0.5"/>
     <use xlink:href="#mf67684865f" x="314.865453" y="85.669064" style="fill: #1f77b4; stroke: #1f77b4; stroke-width: 0.5"/>
     <use xlink:href="#mf67684865f" x="315.33393" y="87.304701" style="fill: #1f77b4; stroke: #1f77b4; stroke-width: 0.5"/>
     <use xlink:href="#mf67684865f" x="315.802407" y="89.004734" style="fill: #1f77b4; stroke: #1f77b4; stroke-width: 0.5"/>
     <use xlink:href="#mf67684865f" x="316.270884" y="89.004734" style="fill: #1f77b4; stroke: #1f77b4; stroke-width: 0.5"/>
     <use xlink:href="#mf67684865f" x="316.739361" y="89.004734" style="fill: #1f77b4; stroke: #1f77b4; stroke-width: 0.5"/>
     <use xlink:href="#mf67684865f" x="317.207838" y="89.004734" style="fill: #1f77b4; stroke: #1f77b4; stroke-width: 0.5"/>
     <use xlink:href="#mf67684865f" x="317.676315" y="89.004734" style="fill: #1f77b4; stroke: #1f77b4; stroke-width: 0.5"/>
     <use xlink:href="#mf67684865f" x="318.144792" y="89.004734" style="fill: #1f77b4; stroke: #1f77b4; stroke-width: 0.5"/>
     <use xlink:href="#mf67684865f" x="318.613269" y="89.004734" style="fill: #1f77b4; stroke: #1f77b4; stroke-width: 0.5"/>
     <use xlink:href="#mf67684865f" x="319.081746" y="89.004734" style="fill: #1f77b4; stroke: #1f77b4; stroke-width: 0.5"/>
     <use xlink:href="#mf67684865f" x="319.550223" y="91.411522" style="fill: #1f77b4; stroke: #1f77b4; stroke-width: 0.5"/>
     <use xlink:href="#mf67684865f" x="320.0187" y="91.411522" style="fill: #1f77b4; stroke: #1f77b4; stroke-width: 0.5"/>
     <use xlink:href="#mf67684865f" x="320.487177" y="91.411522" style="fill: #1f77b4; stroke: #1f77b4; stroke-width: 0.5"/>
     <use xlink:href="#mf67684865f" x="320.955654" y="91.411522" style="fill: #1f77b4; stroke: #1f77b4; stroke-width: 0.5"/>
     <use xlink:href="#mf67684865f" x="321.424131" y="91.411522" style="fill: #1f77b4; stroke: #1f77b4; stroke-width: 0.5"/>
     <use xlink:href="#mf67684865f" x="321.892608" y="91.411522" style="fill: #1f77b4; stroke: #1f77b4; stroke-width: 0.5"/>
     <use xlink:href="#mf67684865f" x="322.361085" y="91.411522" style="fill: #1f77b4; stroke: #1f77b4; stroke-width: 0.5"/>
     <use xlink:href="#mf67684865f" x="322.829562" y="91.411522" style="fill: #1f77b4; stroke: #1f77b4; stroke-width: 0.5"/>
     <use xlink:href="#mf67684865f" x="323.766516" y="91.411522" style="fill: #1f77b4; stroke: #1f77b4; stroke-width: 0.5"/>
     <use xlink:href="#mf67684865f" x="324.234993" y="91.411522" style="fill: #1f77b4; stroke: #1f77b4; stroke-width: 0.5"/>
     <use xlink:href="#mf67684865f" x="324.70347" y="91.411522" style="fill: #1f77b4; stroke: #1f77b4; stroke-width: 0.5"/>
     <use xlink:href="#mf67684865f" x="325.171947" y="91.411522" style="fill: #1f77b4; stroke: #1f77b4; stroke-width: 0.5"/>
     <use xlink:href="#mf67684865f" x="326.108901" y="91.411522" style="fill: #1f77b4; stroke: #1f77b4; stroke-width: 0.5"/>
     <use xlink:href="#mf67684865f" x="326.577378" y="91.411522" style="fill: #1f77b4; stroke: #1f77b4; stroke-width: 0.5"/>
     <use xlink:href="#mf67684865f" x="327.045854" y="91.411522" style="fill: #1f77b4; stroke: #1f77b4; stroke-width: 0.5"/>
     <use xlink:href="#mf67684865f" x="327.514331" y="91.411522" style="fill: #1f77b4; stroke: #1f77b4; stroke-width: 0.5"/>
     <use xlink:href="#mf67684865f" x="327.982808" y="91.411522" style="fill: #1f77b4; stroke: #1f77b4; stroke-width: 0.5"/>
     <use xlink:href="#mf67684865f" x="328.919762" y="91.411522" style="fill: #1f77b4; stroke: #1f77b4; stroke-width: 0.5"/>
     <use xlink:href="#mf67684865f" x="329.388239" y="91.411522" style="fill: #1f77b4; stroke: #1f77b4; stroke-width: 0.5"/>
     <use xlink:href="#mf67684865f" x="329.856716" y="91.411522" style="fill: #1f77b4; stroke: #1f77b4; stroke-width: 0.5"/>
     <use xlink:href="#mf67684865f" x="330.325193" y="91.411522" style="fill: #1f77b4; stroke: #1f77b4; stroke-width: 0.5"/>
     <use xlink:href="#mf67684865f" x="331.730624" y="91.411522" style="fill: #1f77b4; stroke: #1f77b4; stroke-width: 0.5"/>
     <use xlink:href="#mf67684865f" x="332.199101" y="91.411522" style="fill: #1f77b4; stroke: #1f77b4; stroke-width: 0.5"/>
     <use xlink:href="#mf67684865f" x="332.667578" y="91.411522" style="fill: #1f77b4; stroke: #1f77b4; stroke-width: 0.5"/>
     <use xlink:href="#mf67684865f" x="333.604532" y="91.411522" style="fill: #1f77b4; stroke: #1f77b4; stroke-width: 0.5"/>
     <use xlink:href="#mf67684865f" x="334.073009" y="91.411522" style="fill: #1f77b4; stroke: #1f77b4; stroke-width: 0.5"/>
     <use xlink:href="#mf67684865f" x="334.541486" y="91.411522" style="fill: #1f77b4; stroke: #1f77b4; stroke-width: 0.5"/>
     <use xlink:href="#mf67684865f" x="335.009963" y="91.411522" style="fill: #1f77b4; stroke: #1f77b4; stroke-width: 0.5"/>
     <use xlink:href="#mf67684865f" x="335.47844" y="91.411522" style="fill: #1f77b4; stroke: #1f77b4; stroke-width: 0.5"/>
     <use xlink:href="#mf67684865f" x="336.415394" y="91.411522" style="fill: #1f77b4; stroke: #1f77b4; stroke-width: 0.5"/>
     <use xlink:href="#mf67684865f" x="337.820825" y="100.236412" style="fill: #1f77b4; stroke: #1f77b4; stroke-width: 0.5"/>
     <use xlink:href="#mf67684865f" x="339.226256" y="100.236412" style="fill: #1f77b4; stroke: #1f77b4; stroke-width: 0.5"/>
     <use xlink:href="#mf67684865f" x="339.694733" y="100.236412" style="fill: #1f77b4; stroke: #1f77b4; stroke-width: 0.5"/>
     <use xlink:href="#mf67684865f" x="340.16321" y="100.236412" style="fill: #1f77b4; stroke: #1f77b4; stroke-width: 0.5"/>
     <use xlink:href="#mf67684865f" x="340.631687" y="100.236412" style="fill: #1f77b4; stroke: #1f77b4; stroke-width: 0.5"/>
     <use xlink:href="#mf67684865f" x="341.100164" y="100.236412" style="fill: #1f77b4; stroke: #1f77b4; stroke-width: 0.5"/>
     <use xlink:href="#mf67684865f" x="342.505595" y="127.299407" style="fill: #1f77b4; stroke: #1f77b4; stroke-width: 0.5"/>
     <use xlink:href="#mf67684865f" x="343.442549" y="127.299407" style="fill: #1f77b4; stroke: #1f77b4; stroke-width: 0.5"/>
     <use xlink:href="#mf67684865f" x="343.911026" y="127.299407" style="fill: #1f77b4; stroke: #1f77b4; stroke-width: 0.5"/>
     <use xlink:href="#mf67684865f" x="344.84798" y="127.299407" style="fill: #1f77b4; stroke: #1f77b4; stroke-width: 0.5"/>
     <use xlink:href="#mf67684865f" x="345.316457" y="127.299407" style="fill: #1f77b4; stroke: #1f77b4; stroke-width: 0.5"/>
     <use xlink:href="#mf67684865f" x="346.721888" y="127.299407" style="fill: #1f77b4; stroke: #1f77b4; stroke-width: 0.5"/>
     <use xlink:href="#mf67684865f" x="352.343611" y="127.299407" style="fill: #1f77b4; stroke: #1f77b4; stroke-width: 0.5"/>
     <use xlink:href="#mf67684865f" x="354.217519" y="127.299407" style="fill: #1f77b4; stroke: #1f77b4; stroke-width: 0.5"/>
     <use xlink:href="#mf67684865f" x="355.154473" y="171.276774" style="fill: #1f77b4; stroke: #1f77b4; stroke-width: 0.5"/>
     <use xlink:href="#mf67684865f" x="357.496858" y="171.276774" style="fill: #1f77b4; stroke: #1f77b4; stroke-width: 0.5"/>
     <use xlink:href="#mf67684865f" x="372.488121" y="171.276774" style="fill: #1f77b4; stroke: #1f77b4; stroke-width: 0.5"/>
    </g>
   </g>
   <g id="line2d_16">
    <path d="M 60.013977 61.288875 
L 126.537708 61.288875 
L 126.537708 62.120215 
L 137.781156 62.120215 
L 137.781156 62.963183 
L 141.528971 62.963183 
L 141.528971 63.812107 
L 144.339833 63.812107 
L 144.339833 64.67016 
L 145.276787 64.67016 
L 145.276787 65.537574 
L 156.988712 65.537574 
L 156.988712 66.434447 
L 163.547389 66.434447 
L 163.547389 67.33473 
L 166.358251 67.33473 
L 166.358251 68.238462 
L 175.727791 68.238462 
L 175.727791 69.142194 
L 184.160376 69.142194 
L 184.160376 70.049429 
L 194.935347 70.049429 
L 194.935347 70.960209 
L 223.512442 70.960209 
L 223.512442 71.88183 
L 223.980919 71.88183 
L 223.980919 72.803452 
L 242.251522 72.803452 
L 242.251522 73.775627 
L 250.21563 73.775627 
L 250.21563 74.760319 
L 270.36014 74.760319 
L 270.36014 75.762286 
L 275.04491 75.762286 
L 275.04491 76.800855 
L 280.666634 76.800855 
L 280.666634 77.868817 
L 285.351403 77.868817 
L 285.351403 78.941865 
L 291.910081 78.941865 
L 291.910081 80.03054 
L 294.252466 80.03054 
L 294.252466 81.135383 
L 311.586114 81.135383 
L 311.586114 82.586844 
L 312.523068 82.586844 
L 312.523068 84.057658 
L 314.396976 84.057658 
L 314.396976 85.669064 
L 315.33393 85.669064 
L 315.33393 87.304701 
L 315.802407 87.304701 
L 315.802407 89.004734 
L 319.550223 89.004734 
L 319.550223 91.411522 
L 337.352348 91.411522 
L 337.352348 100.236412 
L 342.037118 100.236412 
L 342.037118 127.299407 
L 354.685996 127.299407 
L 354.685996 171.276774 
L 372.488121 171.276774 
L 372.488121 171.276774 
" clip-path="url(#p3af082be10)" style="fill: none; stroke: #1f77b4; stroke-width: 1.5; stroke-linecap: square"/>
   </g>
   <g id="line2d_17">
    <defs>
     <path id="m201f7c87db" d="M -4 0 
L 4 0 
M 0 4 
L 0 -4 
" style="stroke: #ff7f0e; stroke-width: 0.5"/>
    </defs>
    <g clip-path="url(#p3af082be10)">
     <use xlink:href="#m201f7c87db" x="82.500872" y="61.288875" style="fill: #ff7f0e; stroke: #ff7f0e; stroke-width: 0.5"/>
     <use xlink:href="#m201f7c87db" x="120.915984" y="61.288875" style="fill: #ff7f0e; stroke: #ff7f0e; stroke-width: 0.5"/>
     <use xlink:href="#m201f7c87db" x="126.069231" y="61.288875" style="fill: #ff7f0e; stroke: #ff7f0e; stroke-width: 0.5"/>
     <use xlink:href="#m201f7c87db" x="127.006185" y="61.288875" style="fill: #ff7f0e; stroke: #ff7f0e; stroke-width: 0.5"/>
     <use xlink:href="#m201f7c87db" x="147.150695" y="70.59349" style="fill: #ff7f0e; stroke: #ff7f0e; stroke-width: 0.5"/>
     <use xlink:href="#m201f7c87db" x="232.413505" y="70.59349" style="fill: #ff7f0e; stroke: #ff7f0e; stroke-width: 0.5"/>
     <use xlink:href="#m201f7c87db" x="233.818936" y="70.59349" style="fill: #ff7f0e; stroke: #ff7f0e; stroke-width: 0.5"/>
     <use xlink:href="#m201f7c87db" x="255.368877" y="70.59349" style="fill: #ff7f0e; stroke: #ff7f0e; stroke-width: 0.5"/>
     <use xlink:href="#m201f7c87db" x="272.702525" y="70.59349" style="fill: #ff7f0e; stroke: #ff7f0e; stroke-width: 0.5"/>
     <use xlink:href="#m201f7c87db" x="293.315512" y="70.59349" style="fill: #ff7f0e; stroke: #ff7f0e; stroke-width: 0.5"/>
     <use xlink:href="#m201f7c87db" x="296.126374" y="70.59349" style="fill: #ff7f0e; stroke: #ff7f0e; stroke-width: 0.5"/>
     <use xlink:href="#m201f7c87db" x="305.027437" y="70.59349" style="fill: #ff7f0e; stroke: #ff7f0e; stroke-width: 0.5"/>
     <use xlink:href="#m201f7c87db" x="305.495914" y="70.59349" style="fill: #ff7f0e; stroke: #ff7f0e; stroke-width: 0.5"/>
     <use xlink:href="#m201f7c87db" x="307.369821" y="70.59349" style="fill: #ff7f0e; stroke: #ff7f0e; stroke-width: 0.5"/>
     <use xlink:href="#m201f7c87db" x="310.180683" y="70.59349" style="fill: #ff7f0e; stroke: #ff7f0e; stroke-width: 0.5"/>
     <use xlink:href="#m201f7c87db" x="316.739361" y="70.59349" style="fill: #ff7f0e; stroke: #ff7f0e; stroke-width: 0.5"/>
     <use xlink:href="#m201f7c87db" x="318.613269" y="70.59349" style="fill: #ff7f0e; stroke: #ff7f0e; stroke-width: 0.5"/>
     <use xlink:href="#m201f7c87db" x="319.550223" y="70.59349" style="fill: #ff7f0e; stroke: #ff7f0e; stroke-width: 0.5"/>
     <use xlink:href="#m201f7c87db" x="320.487177" y="70.59349" style="fill: #ff7f0e; stroke: #ff7f0e; stroke-width: 0.5"/>
     <use xlink:href="#m201f7c87db" x="320.955654" y="70.59349" style="fill: #ff7f0e; stroke: #ff7f0e; stroke-width: 0.5"/>
     <use xlink:href="#m201f7c87db" x="321.892608" y="70.59349" style="fill: #ff7f0e; stroke: #ff7f0e; stroke-width: 0.5"/>
     <use xlink:href="#m201f7c87db" x="324.234993" y="70.59349" style="fill: #ff7f0e; stroke: #ff7f0e; stroke-width: 0.5"/>
     <use xlink:href="#m201f7c87db" x="325.171947" y="70.59349" style="fill: #ff7f0e; stroke: #ff7f0e; stroke-width: 0.5"/>
     <use xlink:href="#m201f7c87db" x="330.79367" y="70.59349" style="fill: #ff7f0e; stroke: #ff7f0e; stroke-width: 0.5"/>
     <use xlink:href="#m201f7c87db" x="332.199101" y="70.59349" style="fill: #ff7f0e; stroke: #ff7f0e; stroke-width: 0.5"/>
     <use xlink:href="#m201f7c87db" x="336.415394" y="70.59349" style="fill: #ff7f0e; stroke: #ff7f0e; stroke-width: 0.5"/>
     <use xlink:href="#m201f7c87db" x="338.757779" y="70.59349" style="fill: #ff7f0e; stroke: #ff7f0e; stroke-width: 0.5"/>
     <use xlink:href="#m201f7c87db" x="342.037118" y="70.59349" style="fill: #ff7f0e; stroke: #ff7f0e; stroke-width: 0.5"/>
     <use xlink:href="#m201f7c87db" x="384.668523" y="70.59349" style="fill: #ff7f0e; stroke: #ff7f0e; stroke-width: 0.5"/>
    </g>
   </g>
   <g id="line2d_18">
    <path d="M 60.013977 61.288875 
L 82.500872 61.288875 
L 82.500872 61.288875 
L 120.915984 61.288875 
L 120.915984 61.288875 
L 126.069231 61.288875 
L 126.069231 61.288875 
L 127.006185 61.288875 
L 127.006185 61.288875 
L 137.312679 61.288875 
L 137.312679 70.59349 
L 147.150695 70.59349 
L 147.150695 70.59349 
L 232.413505 70.59349 
L 232.413505 70.59349 
L 233.818936 70.59349 
L 233.818936 70.59349 
L 255.368877 70.59349 
L 255.368877 70.59349 
L 272.702525 70.59349 
L 272.702525 70.59349 
L 293.315512 70.59349 
L 293.315512 70.59349 
L 296.126374 70.59349 
L 296.126374 70.59349 
L 305.027437 70.59349 
L 305.027437 70.59349 
L 305.495914 70.59349 
L 305.495914 70.59349 
L 307.369821 70.59349 
L 307.369821 70.59349 
L 310.180683 70.59349 
L 310.180683 70.59349 
L 316.739361 70.59349 
L 316.739361 70.59349 
L 318.613269 70.59349 
L 318.613269 70.59349 
L 319.550223 70.59349 
L 319.550223 70.59349 
L 320.487177 70.59349 
L 320.487177 70.59349 
L 320.955654 70.59349 
L 320.955654 70.59349 
L 321.892608 70.59349 
L 321.892608 70.59349 
L 324.234993 70.59349 
L 324.234993 70.59349 
L 325.171947 70.59349 
L 325.171947 70.59349 
L 330.79367 70.59349 
L 330.79367 70.59349 
L 332.199101 70.59349 
L 332.199101 70.59349 
L 336.415394 70.59349 
L 336.415394 70.59349 
L 338.757779 70.59349 
L 338.757779 70.59349 
L 342.037118 70.59349 
L 342.037118 70.59349 
L 384.668523 70.59349 
L 384.668523 70.59349 
" clip-path="url(#p3af082be10)" style="fill: none; stroke: #ff7f0e; stroke-width: 1.5; stroke-linecap: square"/>
   </g>
   <g id="line2d_19">
    <defs>
     <path id="mc6ff2cce98" d="M -4 0 
L 4 0 
M 0 4 
L 0 -4 
" style="stroke: #2ca02c; stroke-width: 0.5"/>
    </defs>
    <g clip-path="url(#p3af082be10)">
     <use xlink:href="#mc6ff2cce98" x="132.159432" y="61.288875" style="fill: #2ca02c; stroke: #2ca02c; stroke-width: 0.5"/>
    </g>
   </g>
   <g id="line2d_20">
    <path d="M 60.013977 61.288875 
L 132.159432 61.288875 
L 132.159432 61.288875 
L 270.36014 61.288875 
L 270.36014 303.208875 
" clip-path="url(#p3af082be10)" style="fill: none; stroke: #2ca02c; stroke-width: 1.5; stroke-linecap: square"/>
   </g>
   <g id="patch_3">
    <path d="M 43.78125 315.304875 
L 43.78125 49.192875 
" style="fill: none; stroke: #000000; stroke-width: 0.8; stroke-linejoin: miter; stroke-linecap: square"/>
   </g>
   <g id="patch_4">
    <path d="M 43.78125 315.304875 
L 400.90125 315.304875 
" style="fill: none; stroke: #000000; stroke-width: 0.8; stroke-linejoin: miter; stroke-linecap: square"/>
   </g>
   <g id="text_17">
    <!-- Time to Unfavorable Outcomes of 340 patients -->
    <g transform="translate(81.456563 16.318125) scale(0.12 -0.12)">
     <defs>
      <path id="DejaVuSans-55" d="M 556 4666 
L 1191 4666 
L 1191 1831 
Q 1191 1081 1462 751 
Q 1734 422 2344 422 
Q 2950 422 3222 751 
Q 3494 1081 3494 1831 
L 3494 4666 
L 4128 4666 
L 4128 1753 
Q 4128 841 3676 375 
Q 3225 -91 2344 -91 
Q 1459 -91 1007 375 
Q 556 841 556 1753 
L 556 4666 
z
" transform="scale(0.015625)"/>
      <path id="DejaVuSans-4f" d="M 2522 4238 
Q 1834 4238 1429 3725 
Q 1025 3213 1025 2328 
Q 1025 1447 1429 934 
Q 1834 422 2522 422 
Q 3209 422 3611 934 
Q 4013 1447 4013 2328 
Q 4013 3213 3611 3725 
Q 3209 4238 2522 4238 
z
M 2522 4750 
Q 3503 4750 4090 4092 
Q 4678 3434 4678 2328 
Q 4678 1225 4090 567 
Q 3503 -91 2522 -91 
Q 1538 -91 948 565 
Q 359 1222 359 2328 
Q 359 3434 948 4092 
Q 1538 4750 2522 4750 
z
" transform="scale(0.015625)"/>
      <path id="DejaVuSans-75" d="M 544 1381 
L 544 3500 
L 1119 3500 
L 1119 1403 
Q 1119 906 1312 657 
Q 1506 409 1894 409 
Q 2359 409 2629 706 
Q 2900 1003 2900 1516 
L 2900 3500 
L 3475 3500 
L 3475 0 
L 2900 0 
L 2900 538 
Q 2691 219 2414 64 
Q 2138 -91 1772 -91 
Q 1169 -91 856 284 
Q 544 659 544 1381 
z
M 1991 3584 
L 1991 3584 
z
" transform="scale(0.015625)"/>
      <path id="DejaVuSans-70" d="M 1159 525 
L 1159 -1331 
L 581 -1331 
L 581 3500 
L 1159 3500 
L 1159 2969 
Q 1341 3281 1617 3432 
Q 1894 3584 2278 3584 
Q 2916 3584 3314 3078 
Q 3713 2572 3713 1747 
Q 3713 922 3314 415 
Q 2916 -91 2278 -91 
Q 1894 -91 1617 61 
Q 1341 213 1159 525 
z
M 3116 1747 
Q 3116 2381 2855 2742 
Q 2594 3103 2138 3103 
Q 1681 3103 1420 2742 
Q 1159 2381 1159 1747 
Q 1159 1113 1420 752 
Q 1681 391 2138 391 
Q 2594 391 2855 752 
Q 3116 1113 3116 1747 
z
" transform="scale(0.015625)"/>
     </defs>
     <use xlink:href="#DejaVuSans-54"/>
     <use xlink:href="#DejaVuSans-69" x="57.958984"/>
     <use xlink:href="#DejaVuSans-6d" x="85.742188"/>
     <use xlink:href="#DejaVuSans-65" x="183.154297"/>
     <use xlink:href="#DejaVuSans-20" x="244.677734"/>
     <use xlink:href="#DejaVuSans-74" x="276.464844"/>
     <use xlink:href="#DejaVuSans-6f" x="315.673828"/>
     <use xlink:href="#DejaVuSans-20" x="376.855469"/>
     <use xlink:href="#DejaVuSans-55" x="408.642578"/>
     <use xlink:href="#DejaVuSans-6e" x="481.835938"/>
     <use xlink:href="#DejaVuSans-66" x="545.214844"/>
     <use xlink:href="#DejaVuSans-61" x="580.419922"/>
     <use xlink:href="#DejaVuSans-76" x="641.699219"/>
     <use xlink:href="#DejaVuSans-6f" x="700.878906"/>
     <use xlink:href="#DejaVuSans-72" x="762.060547"/>
     <use xlink:href="#DejaVuSans-61" x="803.173828"/>
     <use xlink:href="#DejaVuSans-62" x="864.453125"/>
     <use xlink:href="#DejaVuSans-6c" x="927.929688"/>
     <use xlink:href="#DejaVuSans-65" x="955.712891"/>
     <use xlink:href="#DejaVuSans-20" x="1017.236328"/>
     <use xlink:href="#DejaVuSans-4f" x="1049.023438"/>
     <use xlink:href="#DejaVuSans-75" x="1127.734375"/>
     <use xlink:href="#DejaVuSans-74" x="1191.113281"/>
     <use xlink:href="#DejaVuSans-63" x="1230.322266"/>
     <use xlink:href="#DejaVuSans-6f" x="1285.302734"/>
     <use xlink:href="#DejaVuSans-6d" x="1346.484375"/>
     <use xlink:href="#DejaVuSans-65" x="1443.896484"/>
     <use xlink:href="#DejaVuSans-73" x="1505.419922"/>
     <use xlink:href="#DejaVuSans-20" x="1557.519531"/>
     <use xlink:href="#DejaVuSans-6f" x="1589.306641"/>
     <use xlink:href="#DejaVuSans-66" x="1650.488281"/>
     <use xlink:href="#DejaVuSans-20" x="1685.693359"/>
     <use xlink:href="#DejaVuSans-33" x="1717.480469"/>
     <use xlink:href="#DejaVuSans-34" x="1781.103516"/>
     <use xlink:href="#DejaVuSans-30" x="1844.726562"/>
     <use xlink:href="#DejaVuSans-20" x="1908.349609"/>
     <use xlink:href="#DejaVuSans-70" x="1940.136719"/>
     <use xlink:href="#DejaVuSans-61" x="2003.613281"/>
     <use xlink:href="#DejaVuSans-74" x="2064.892578"/>
     <use xlink:href="#DejaVuSans-69" x="2104.101562"/>
     <use xlink:href="#DejaVuSans-65" x="2131.884766"/>
     <use xlink:href="#DejaVuSans-6e" x="2193.408203"/>
     <use xlink:href="#DejaVuSans-74" x="2256.787109"/>
     <use xlink:href="#DejaVuSans-73" x="2295.996094"/>
    </g>
    <!-- stratified by changes in esx -->
    <g transform="translate(139.3875 29.7555) scale(0.12 -0.12)">
     <defs>
      <path id="DejaVuSans-64" d="M 2906 2969 
L 2906 4863 
L 3481 4863 
L 3481 0 
L 2906 0 
L 2906 525 
Q 2725 213 2448 61 
Q 2172 -91 1784 -91 
Q 1150 -91 751 415 
Q 353 922 353 1747 
Q 353 2572 751 3078 
Q 1150 3584 1784 3584 
Q 2172 3584 2448 3432 
Q 2725 3281 2906 2969 
z
M 947 1747 
Q 947 1113 1208 752 
Q 1469 391 1925 391 
Q 2381 391 2643 752 
Q 2906 1113 2906 1747 
Q 2906 2381 2643 2742 
Q 2381 3103 1925 3103 
Q 1469 3103 1208 2742 
Q 947 2381 947 1747 
z
" transform="scale(0.015625)"/>
      <path id="DejaVuSans-68" d="M 3513 2113 
L 3513 0 
L 2938 0 
L 2938 2094 
Q 2938 2591 2744 2837 
Q 2550 3084 2163 3084 
Q 1697 3084 1428 2787 
Q 1159 2491 1159 1978 
L 1159 0 
L 581 0 
L 581 4863 
L 1159 4863 
L 1159 2956 
Q 1366 3272 1645 3428 
Q 1925 3584 2291 3584 
Q 2894 3584 3203 3211 
Q 3513 2838 3513 2113 
z
" transform="scale(0.015625)"/>
      <path id="DejaVuSans-67" d="M 2906 1791 
Q 2906 2416 2648 2759 
Q 2391 3103 1925 3103 
Q 1463 3103 1205 2759 
Q 947 2416 947 1791 
Q 947 1169 1205 825 
Q 1463 481 1925 481 
Q 2391 481 2648 825 
Q 2906 1169 2906 1791 
z
M 3481 434 
Q 3481 -459 3084 -895 
Q 2688 -1331 1869 -1331 
Q 1566 -1331 1297 -1286 
Q 1028 -1241 775 -1147 
L 775 -588 
Q 1028 -725 1275 -790 
Q 1522 -856 1778 -856 
Q 2344 -856 2625 -561 
Q 2906 -266 2906 331 
L 2906 616 
Q 2728 306 2450 153 
Q 2172 0 1784 0 
Q 1141 0 747 490 
Q 353 981 353 1791 
Q 353 2603 747 3093 
Q 1141 3584 1784 3584 
Q 2172 3584 2450 3431 
Q 2728 3278 2906 2969 
L 2906 3500 
L 3481 3500 
L 3481 434 
z
" transform="scale(0.015625)"/>
      <path id="DejaVuSans-78" d="M 3513 3500 
L 2247 1797 
L 3578 0 
L 2900 0 
L 1881 1375 
L 863 0 
L 184 0 
L 1544 1831 
L 300 3500 
L 978 3500 
L 1906 2253 
L 2834 3500 
L 3513 3500 
z
" transform="scale(0.015625)"/>
     </defs>
     <use xlink:href="#DejaVuSans-73"/>
     <use xlink:href="#DejaVuSans-74" x="52.099609"/>
     <use xlink:href="#DejaVuSans-72" x="91.308594"/>
     <use xlink:href="#DejaVuSans-61" x="132.421875"/>
     <use xlink:href="#DejaVuSans-74" x="193.701172"/>
     <use xlink:href="#DejaVuSans-69" x="232.910156"/>
     <use xlink:href="#DejaVuSans-66" x="260.693359"/>
     <use xlink:href="#DejaVuSans-69" x="295.898438"/>
     <use xlink:href="#DejaVuSans-65" x="323.681641"/>
     <use xlink:href="#DejaVuSans-64" x="385.205078"/>
     <use xlink:href="#DejaVuSans-20" x="448.681641"/>
     <use xlink:href="#DejaVuSans-62" x="480.46875"/>
     <use xlink:href="#DejaVuSans-79" x="543.945312"/>
     <use xlink:href="#DejaVuSans-20" x="603.125"/>
     <use xlink:href="#DejaVuSans-63" x="634.912109"/>
     <use xlink:href="#DejaVuSans-68" x="689.892578"/>
     <use xlink:href="#DejaVuSans-61" x="753.271484"/>
     <use xlink:href="#DejaVuSans-6e" x="814.550781"/>
     <use xlink:href="#DejaVuSans-67" x="877.929688"/>
     <use xlink:href="#DejaVuSans-65" x="941.40625"/>
     <use xlink:href="#DejaVuSans-73" x="1002.929688"/>
     <use xlink:href="#DejaVuSans-20" x="1055.029297"/>
     <use xlink:href="#DejaVuSans-69" x="1086.816406"/>
     <use xlink:href="#DejaVuSans-6e" x="1114.599609"/>
     <use xlink:href="#DejaVuSans-20" x="1177.978516"/>
     <use xlink:href="#DejaVuSans-65" x="1209.765625"/>
     <use xlink:href="#DejaVuSans-73" x="1271.289062"/>
     <use xlink:href="#DejaVuSans-78" x="1323.388672"/>
    </g>
    <!-- p (Fixed vs. Absent) = 0.23 -->
    <g transform="translate(140.911875 43.192875) scale(0.12 -0.12)">
     <defs>
      <path id="DejaVuSans-28" d="M 1984 4856 
Q 1566 4138 1362 3434 
Q 1159 2731 1159 2009 
Q 1159 1288 1364 580 
Q 1569 -128 1984 -844 
L 1484 -844 
Q 1016 -109 783 600 
Q 550 1309 550 2009 
Q 550 2706 781 3412 
Q 1013 4119 1484 4856 
L 1984 4856 
z
" transform="scale(0.015625)"/>
      <path id="DejaVuSans-46" d="M 628 4666 
L 3309 4666 
L 3309 4134 
L 1259 4134 
L 1259 2759 
L 3109 2759 
L 3109 2228 
L 1259 2228 
L 1259 0 
L 628 0 
L 628 4666 
z
" transform="scale(0.015625)"/>
      <path id="DejaVuSans-41" d="M 2188 4044 
L 1331 1722 
L 3047 1722 
L 2188 4044 
z
M 1831 4666 
L 2547 4666 
L 4325 0 
L 3669 0 
L 3244 1197 
L 1141 1197 
L 716 0 
L 50 0 
L 1831 4666 
z
" transform="scale(0.015625)"/>
      <path id="DejaVuSans-29" d="M 513 4856 
L 1013 4856 
Q 1481 4119 1714 3412 
Q 1947 2706 1947 2009 
Q 1947 1309 1714 600 
Q 1481 -109 1013 -844 
L 513 -844 
Q 928 -128 1133 580 
Q 1338 1288 1338 2009 
Q 1338 2731 1133 3434 
Q 928 4138 513 4856 
z
" transform="scale(0.015625)"/>
      <path id="DejaVuSans-3d" d="M 678 2906 
L 4684 2906 
L 4684 2381 
L 678 2381 
L 678 2906 
z
M 678 1631 
L 4684 1631 
L 4684 1100 
L 678 1100 
L 678 1631 
z
" transform="scale(0.015625)"/>
     </defs>
     <use xlink:href="#DejaVuSans-70"/>
     <use xlink:href="#DejaVuSans-20" x="63.476562"/>
     <use xlink:href="#DejaVuSans-28" x="95.263672"/>
     <use xlink:href="#DejaVuSans-46" x="134.277344"/>
     <use xlink:href="#DejaVuSans-69" x="184.546875"/>
     <use xlink:href="#DejaVuSans-78" x="212.330078"/>
     <use xlink:href="#DejaVuSans-65" x="268.384766"/>
     <use xlink:href="#DejaVuSans-64" x="329.908203"/>
     <use xlink:href="#DejaVuSans-20" x="393.384766"/>
     <use xlink:href="#DejaVuSans-76" x="425.171875"/>
     <use xlink:href="#DejaVuSans-73" x="484.351562"/>
     <use xlink:href="#DejaVuSans-2e" x="536.451172"/>
     <use xlink:href="#DejaVuSans-20" x="568.238281"/>
     <use xlink:href="#DejaVuSans-41" x="600.025391"/>
     <use xlink:href="#DejaVuSans-62" x="668.433594"/>
     <use xlink:href="#DejaVuSans-73" x="731.910156"/>
     <use xlink:href="#DejaVuSans-65" x="784.009766"/>
     <use xlink:href="#DejaVuSans-6e" x="845.533203"/>
     <use xlink:href="#DejaVuSans-74" x="908.912109"/>
     <use xlink:href="#DejaVuSans-29" x="948.121094"/>
     <use xlink:href="#DejaVuSans-20" x="987.134766"/>
     <use xlink:href="#DejaVuSans-3d" x="1018.921875"/>
     <use xlink:href="#DejaVuSans-20" x="1102.710938"/>
     <use xlink:href="#DejaVuSans-30" x="1134.498047"/>
     <use xlink:href="#DejaVuSans-2e" x="1198.121094"/>
     <use xlink:href="#DejaVuSans-32" x="1229.908203"/>
     <use xlink:href="#DejaVuSans-33" x="1293.53125"/>
    </g>
   </g>
   <g id="legend_1">
    <g id="patch_5">
     <path d="M 50.78125 310.304875 
L 151.414062 310.304875 
Q 153.414062 310.304875 153.414062 308.304875 
L 153.414062 250.592375 
Q 153.414062 248.592375 151.414062 248.592375 
L 50.78125 248.592375 
Q 48.78125 248.592375 48.78125 250.592375 
L 48.78125 308.304875 
Q 48.78125 310.304875 50.78125 310.304875 
z
" style="fill: #ffffff; opacity: 0.8; stroke: #cccccc; stroke-linejoin: miter"/>
    </g>
    <g id="text_18">
     <!-- Indel State -->
     <g transform="translate(73.989844 260.190812) scale(0.1 -0.1)">
      <defs>
       <path id="DejaVuSans-49" d="M 628 4666 
L 1259 4666 
L 1259 0 
L 628 0 
L 628 4666 
z
" transform="scale(0.015625)"/>
      </defs>
      <use xlink:href="#DejaVuSans-49"/>
      <use xlink:href="#DejaVuSans-6e" x="29.492188"/>
      <use xlink:href="#DejaVuSans-64" x="92.871094"/>
      <use xlink:href="#DejaVuSans-65" x="156.347656"/>
      <use xlink:href="#DejaVuSans-6c" x="217.871094"/>
      <use xlink:href="#DejaVuSans-20" x="245.654297"/>
      <use xlink:href="#DejaVuSans-53" x="277.441406"/>
      <use xlink:href="#DejaVuSans-74" x="340.917969"/>
      <use xlink:href="#DejaVuSans-61" x="380.126953"/>
      <use xlink:href="#DejaVuSans-74" x="441.40625"/>
      <use xlink:href="#DejaVuSans-65" x="480.615234"/>
     </g>
    </g>
    <g id="line2d_21">
     <path d="M 52.78125 271.368937 
L 62.78125 271.368937 
L 62.78125 271.368937 
L 72.78125 271.368937 
L 72.78125 271.368937 
" style="fill: none; stroke: #1f77b4; stroke-width: 1.5; stroke-linecap: square"/>
    </g>
    <g id="text_19">
     <!-- Absent = 308 -->
     <g transform="translate(80.78125 274.868937) scale(0.1 -0.1)">
      <use xlink:href="#DejaVuSans-41"/>
      <use xlink:href="#DejaVuSans-62" x="68.408203"/>
      <use xlink:href="#DejaVuSans-73" x="131.884766"/>
      <use xlink:href="#DejaVuSans-65" x="183.984375"/>
      <use xlink:href="#DejaVuSans-6e" x="245.507812"/>
      <use xlink:href="#DejaVuSans-74" x="308.886719"/>
      <use xlink:href="#DejaVuSans-20" x="348.095703"/>
      <use xlink:href="#DejaVuSans-3d" x="379.882812"/>
      <use xlink:href="#DejaVuSans-20" x="463.671875"/>
      <use xlink:href="#DejaVuSans-33" x="495.458984"/>
      <use xlink:href="#DejaVuSans-30" x="559.082031"/>
      <use xlink:href="#DejaVuSans-38" x="622.705078"/>
     </g>
    </g>
    <g id="line2d_22">
     <path d="M 52.78125 286.047062 
L 62.78125 286.047062 
L 62.78125 286.047062 
L 72.78125 286.047062 
L 72.78125 286.047062 
" style="fill: none; stroke: #ff7f0e; stroke-width: 1.5; stroke-linecap: square"/>
    </g>
    <g id="text_20">
     <!-- Fixed = 30 -->
     <g transform="translate(80.78125 289.547062) scale(0.1 -0.1)">
      <use xlink:href="#DejaVuSans-46"/>
      <use xlink:href="#DejaVuSans-69" x="50.269531"/>
      <use xlink:href="#DejaVuSans-78" x="78.052734"/>
      <use xlink:href="#DejaVuSans-65" x="134.107422"/>
      <use xlink:href="#DejaVuSans-64" x="195.630859"/>
      <use xlink:href="#DejaVuSans-20" x="259.107422"/>
      <use xlink:href="#DejaVuSans-3d" x="290.894531"/>
      <use xlink:href="#DejaVuSans-20" x="374.683594"/>
      <use xlink:href="#DejaVuSans-33" x="406.470703"/>
      <use xlink:href="#DejaVuSans-30" x="470.09375"/>
     </g>
    </g>
    <g id="line2d_23">
     <path d="M 52.78125 300.725187 
L 62.78125 300.725187 
L 62.78125 300.725187 
L 72.78125 300.725187 
L 72.78125 300.725187 
" style="fill: none; stroke: #2ca02c; stroke-width: 1.5; stroke-linecap: square"/>
    </g>
    <g id="text_21">
     <!-- Unfixed = 2 -->
     <g transform="translate(80.78125 304.225187) scale(0.1 -0.1)">
      <use xlink:href="#DejaVuSans-55"/>
      <use xlink:href="#DejaVuSans-6e" x="73.193359"/>
      <use xlink:href="#DejaVuSans-66" x="136.572266"/>
      <use xlink:href="#DejaVuSans-69" x="171.777344"/>
      <use xlink:href="#DejaVuSans-78" x="199.560547"/>
      <use xlink:href="#DejaVuSans-65" x="255.615234"/>
      <use xlink:href="#DejaVuSans-64" x="317.138672"/>
      <use xlink:href="#DejaVuSans-20" x="380.615234"/>
      <use xlink:href="#DejaVuSans-3d" x="412.402344"/>
      <use xlink:href="#DejaVuSans-20" x="496.191406"/>
      <use xlink:href="#DejaVuSans-32" x="527.978516"/>
     </g>
    </g>
   </g>
  </g>
 </g>
 <defs>
  <clipPath id="p3af082be10">
   <rect x="43.78125" y="49.192875" width="357.12" height="266.112"/>
  </clipPath>
 </defs>
</svg>
