<?xml version="1.0" encoding="utf-8" standalone="no"?>
<!DOCTYPE svg PUBLIC "-//W3C//DTD SVG 1.1//EN"
  "http://www.w3.org/Graphics/SVG/1.1/DTD/svg11.dtd">
<svg xmlns:xlink="http://www.w3.org/1999/xlink" width="408.10125pt" height="353.194875pt" viewBox="0 0 408.10125 353.194875" xmlns="http://www.w3.org/2000/svg" version="1.1">
 <metadata>
  <rdf:RDF xmlns:dc="http://purl.org/dc/elements/1.1/" xmlns:cc="http://creativecommons.org/ns#" xmlns:rdf="http://www.w3.org/1999/02/22-rdf-syntax-ns#">
   <cc:Work>
    <dc:type rdf:resource="http://purl.org/dc/dcmitype/StillImage"/>
    <dc:date>2025-05-19T11:41:23.411141</dc:date>
    <dc:format>image/svg+xml</dc:format>
    <dc:creator>
     <cc:Agent>
      <dc:title>Matplotlib v3.7.2, https://matplotlib.org/</dc:title>
     </cc:Agent>
    </dc:creator>
   </cc:Work>
  </rdf:RDF>
 </metadata>
 <defs>
  <style type="text/css">*{stroke-linejoin: round; stroke-linecap: butt}</style>
 </defs>
 <g id="figure_1">
  <g id="patch_1">
   <path d="M 0 353.194875 
L 408.10125 353.194875 
L 408.10125 0 
L 0 0 
z
" style="fill: #ffffff"/>
  </g>
  <g id="axes_1">
   <g id="patch_2">
    <path d="M 43.78125 315.638625 
L 400.90125 315.638625 
L 400.90125 49.526625 
L 43.78125 49.526625 
z
" style="fill: #ffffff"/>
   </g>
   <g id="PolyCollection_1">
    <defs>
     <path id="m7c713234e1" d="M 60.013977 -291.57225 
L 60.013977 -291.57225 
L 75.473718 -291.57225 
L 75.473718 -291.57225 
L 80.158487 -291.57225 
L 80.158487 -291.57225 
L 82.500872 -291.57225 
L 82.500872 -291.57225 
L 82.969349 -291.57225 
L 82.969349 -291.57225 
L 84.843257 -291.57225 
L 84.843257 -291.57225 
L 91.870412 -291.57225 
L 91.870412 -291.57225 
L 96.086705 -291.57225 
L 96.086705 -291.57225 
L 99.366043 -291.57225 
L 99.366043 -291.57225 
L 111.077968 -291.57225 
L 111.077968 -291.57225 
L 115.294261 -291.57225 
L 115.294261 -291.57225 
L 120.915984 -291.57225 
L 120.915984 -291.57225 
L 121.384461 -291.57225 
L 121.384461 -291.57225 
L 124.195323 -291.57225 
L 124.195323 -291.57225 
L 125.132277 -291.57225 
L 125.132277 -291.57225 
L 126.069231 -291.57225 
L 126.069231 -291.57225 
L 126.537708 -291.57225 
L 126.537708 -285.0108 
L 127.006185 -285.0108 
L 127.006185 -285.0108 
L 128.411616 -285.0108 
L 128.411616 -285.0108 
L 132.159432 -285.0108 
L 132.159432 -285.0108 
L 133.096386 -285.0108 
L 133.096386 -285.0108 
L 135.907248 -285.0108 
L 135.907248 -285.0108 
L 137.312679 -285.0108 
L 137.312679 -284.107432 
L 137.781156 -284.107432 
L 137.781156 -282.866101 
L 138.71811 -282.866101 
L 138.71811 -282.866101 
L 139.186586 -282.866101 
L 139.186586 -282.866101 
L 141.528971 -282.866101 
L 141.528971 -281.570429 
L 141.997448 -281.570429 
L 141.997448 -281.570429 
L 143.402879 -281.570429 
L 143.402879 -281.570429 
L 143.871356 -281.570429 
L 143.871356 -281.570429 
L 144.339833 -281.570429 
L 144.339833 -280.260599 
L 144.80831 -280.260599 
L 144.80831 -280.260599 
L 145.276787 -280.260599 
L 145.276787 -278.948595 
L 146.213741 -278.948595 
L 146.213741 -278.948595 
L 147.150695 -278.948595 
L 147.150695 -278.948595 
L 147.619172 -278.948595 
L 147.619172 -278.948595 
L 148.087649 -278.948595 
L 148.087649 -278.948595 
L 148.556126 -278.948595 
L 148.556126 -278.948595 
L 151.366988 -278.948595 
L 151.366988 -278.948595 
L 151.835465 -278.948595 
L 151.835465 -278.948595 
L 154.17785 -278.948595 
L 154.17785 -278.948595 
L 156.988712 -278.948595 
L 156.988712 -277.585239 
L 161.673481 -277.585239 
L 161.673481 -277.585239 
L 163.547389 -277.585239 
L 163.547389 -276.241059 
L 165.889774 -276.241059 
L 165.889774 -276.241059 
L 166.358251 -276.241059 
L 166.358251 -274.912058 
L 181.349514 -274.912058 
L 181.349514 -274.912058 
L 184.160376 -274.912058 
L 184.160376 -273.595306 
L 187.908192 -273.595306 
L 187.908192 -273.595306 
L 194.935347 -273.595306 
L 194.935347 -272.288562 
L 202.430978 -272.288562 
L 202.430978 -272.288562 
L 209.458133 -272.288562 
L 209.458133 -272.288562 
L 222.107012 -272.288562 
L 222.107012 -272.288562 
L 223.512442 -272.288562 
L 223.512442 -270.976613 
L 223.980919 -270.976613 
L 223.980919 -270.976613 
L 225.38635 -270.976613 
L 225.38635 -270.976613 
L 226.791781 -270.976613 
L 226.791781 -270.976613 
L 227.728735 -270.976613 
L 227.728735 -270.976613 
L 228.197212 -270.976613 
L 228.197212 -270.976613 
L 230.07112 -270.976613 
L 230.07112 -270.976613 
L 230.539597 -270.976613 
L 230.539597 -270.976613 
L 231.008074 -270.976613 
L 231.008074 -270.976613 
L 231.945028 -270.976613 
L 231.945028 -270.976613 
L 232.413505 -270.976613 
L 232.413505 -270.976613 
L 233.818936 -270.976613 
L 233.818936 -270.976613 
L 239.909137 -270.976613 
L 239.909137 -270.976613 
L 242.251522 -270.976613 
L 242.251522 -269.571748 
L 243.188476 -269.571748 
L 243.188476 -269.571748 
L 246.936291 -269.571748 
L 246.936291 -269.571748 
L 250.21563 -269.571748 
L 250.21563 -268.161863 
L 254.431923 -268.161863 
L 254.431923 -268.161863 
L 255.368877 -268.161863 
L 255.368877 -268.161863 
L 259.58517 -268.161863 
L 259.58517 -268.161863 
L 260.990601 -268.161863 
L 260.990601 -268.161863 
L 266.612324 -268.161863 
L 266.612324 -268.161863 
L 270.36014 -268.161863 
L 270.36014 -266.729665 
L 270.828617 -266.729665 
L 270.828617 -266.729665 
L 271.765571 -266.729665 
L 271.765571 -266.729665 
L 272.702525 -266.729665 
L 272.702525 -266.729665 
L 273.171002 -266.729665 
L 273.171002 -266.729665 
L 273.639479 -266.729665 
L 273.639479 -266.729665 
L 275.04491 -266.729665 
L 275.04491 -265.239931 
L 276.450341 -265.239931 
L 276.450341 -265.239931 
L 276.918818 -265.239931 
L 276.918818 -265.239931 
L 277.387295 -265.239931 
L 277.387295 -265.239931 
L 278.792726 -265.239931 
L 278.792726 -265.239931 
L 279.261203 -265.239931 
L 279.261203 -265.239931 
L 280.666634 -265.239931 
L 280.666634 -263.715353 
L 285.351403 -263.715353 
L 285.351403 -262.199293 
L 290.036173 -262.199293 
L 290.036173 -262.199293 
L 291.441604 -262.199293 
L 291.441604 -262.199293 
L 291.910081 -262.199293 
L 291.910081 -260.67203 
L 292.378558 -260.67203 
L 292.378558 -260.67203 
L 293.315512 -260.67203 
L 293.315512 -260.67203 
L 294.252466 -260.67203 
L 294.252466 -259.122921 
L 296.126374 -259.122921 
L 296.126374 -259.122921 
L 297.063328 -259.122921 
L 297.063328 -259.122921 
L 297.531805 -259.122921 
L 297.531805 -259.122921 
L 298.000282 -259.122921 
L 298.000282 -259.122921 
L 299.405713 -259.122921 
L 299.405713 -259.122921 
L 301.279621 -259.122921 
L 301.279621 -259.122921 
L 301.748098 -259.122921 
L 301.748098 -259.122921 
L 302.685052 -259.122921 
L 302.685052 -259.122921 
L 303.622006 -259.122921 
L 303.622006 -259.122921 
L 304.55896 -259.122921 
L 304.55896 -259.122921 
L 305.027437 -259.122921 
L 305.027437 -259.122921 
L 305.495914 -259.122921 
L 305.495914 -259.122921 
L 305.96439 -259.122921 
L 305.96439 -259.122921 
L 306.432867 -259.122921 
L 306.432867 -259.122921 
L 306.901344 -259.122921 
L 306.901344 -259.122921 
L 307.369821 -259.122921 
L 307.369821 -259.122921 
L 307.838298 -259.122921 
L 307.838298 -259.122921 
L 308.306775 -259.122921 
L 308.306775 -259.122921 
L 308.775252 -259.122921 
L 308.775252 -259.122921 
L 309.243729 -259.122921 
L 309.243729 -259.122921 
L 309.712206 -259.122921 
L 309.712206 -259.122921 
L 310.180683 -259.122921 
L 310.180683 -259.122921 
L 310.64916 -259.122921 
L 310.64916 -259.122921 
L 311.117637 -259.122921 
L 311.117637 -259.122921 
L 311.586114 -259.122921 
L 311.586114 -256.928321 
L 312.054591 -256.928321 
L 312.054591 -256.928321 
L 312.523068 -256.928321 
L 312.523068 -254.741836 
L 312.991545 -254.741836 
L 312.991545 -254.741836 
L 313.460022 -254.741836 
L 313.460022 -254.741836 
L 313.928499 -254.741836 
L 313.928499 -254.741836 
L 314.396976 -254.741836 
L 314.396976 -252.338301 
L 314.865453 -252.338301 
L 314.865453 -252.338301 
L 315.33393 -252.338301 
L 315.33393 -249.938513 
L 315.802407 -249.938513 
L 315.802407 -247.467906 
L 316.270884 -247.467906 
L 316.270884 -247.467906 
L 316.739361 -247.467906 
L 316.739361 -247.467906 
L 317.207838 -247.467906 
L 317.207838 -247.467906 
L 317.676315 -247.467906 
L 317.676315 -247.467906 
L 318.144792 -247.467906 
L 318.144792 -247.467906 
L 318.613269 -247.467906 
L 318.613269 -247.467906 
L 319.081746 -247.467906 
L 319.081746 -247.467906 
L 319.550223 -247.467906 
L 319.550223 -243.667107 
L 320.0187 -243.667107 
L 320.0187 -243.667107 
L 320.487177 -243.667107 
L 320.487177 -243.667107 
L 320.955654 -243.667107 
L 320.955654 -243.667107 
L 321.424131 -243.667107 
L 321.424131 -243.667107 
L 321.892608 -243.667107 
L 321.892608 -243.667107 
L 322.361085 -243.667107 
L 322.361085 -243.667107 
L 322.829562 -243.667107 
L 322.829562 -243.667107 
L 323.766516 -243.667107 
L 323.766516 -243.667107 
L 324.234993 -243.667107 
L 324.234993 -243.667107 
L 324.70347 -243.667107 
L 324.70347 -243.667107 
L 325.171947 -243.667107 
L 325.171947 -243.667107 
L 326.108901 -243.667107 
L 326.108901 -243.667107 
L 326.577378 -243.667107 
L 326.577378 -243.667107 
L 327.045854 -243.667107 
L 327.045854 -243.667107 
L 327.514331 -243.667107 
L 327.514331 -243.667107 
L 327.982808 -243.667107 
L 327.982808 -243.667107 
L 328.919762 -243.667107 
L 328.919762 -243.667107 
L 329.388239 -243.667107 
L 329.388239 -243.667107 
L 329.856716 -243.667107 
L 329.856716 -243.667107 
L 330.325193 -243.667107 
L 330.325193 -243.667107 
L 330.79367 -243.667107 
L 330.79367 -243.667107 
L 331.730624 -243.667107 
L 331.730624 -243.667107 
L 332.199101 -243.667107 
L 332.199101 -243.667107 
L 332.667578 -243.667107 
L 332.667578 -243.667107 
L 333.604532 -243.667107 
L 333.604532 -243.667107 
L 334.073009 -243.667107 
L 334.073009 -243.667107 
L 334.541486 -243.667107 
L 334.541486 -243.667107 
L 335.009963 -243.667107 
L 335.009963 -243.667107 
L 335.47844 -243.667107 
L 335.47844 -243.667107 
L 336.415394 -243.667107 
L 336.415394 -243.667107 
L 337.352348 -243.667107 
L 337.352348 -219.965229 
L 338.757779 -219.965229 
L 338.757779 -219.965229 
L 339.226256 -219.965229 
L 339.226256 -219.965229 
L 339.694733 -219.965229 
L 339.694733 -219.965229 
L 340.16321 -219.965229 
L 340.16321 -219.965229 
L 340.631687 -219.965229 
L 340.631687 -219.965229 
L 341.100164 -219.965229 
L 341.100164 -219.965229 
L 342.037118 -219.965229 
L 342.037118 -165.330694 
L 342.505595 -165.330694 
L 342.505595 -165.330694 
L 343.442549 -165.330694 
L 343.442549 -165.330694 
L 343.911026 -165.330694 
L 343.911026 -165.330694 
L 344.84798 -165.330694 
L 344.84798 -165.330694 
L 345.316457 -165.330694 
L 345.316457 -165.330694 
L 346.721888 -165.330694 
L 346.721888 -165.330694 
L 352.343611 -165.330694 
L 352.343611 -165.330694 
L 354.217519 -165.330694 
L 354.217519 -165.330694 
L 354.685996 -165.330694 
L 354.685996 -78.51646 
L 355.154473 -78.51646 
L 355.154473 -78.51646 
L 357.496858 -78.51646 
L 357.496858 -78.51646 
L 372.488121 -78.51646 
L 372.488121 -78.51646 
L 384.668523 -78.51646 
L 384.668523 -78.51646 
L 384.668523 -239.483993 
L 384.668523 -239.483993 
L 384.668523 -239.483993 
L 372.488121 -239.483993 
L 372.488121 -239.483993 
L 357.496858 -239.483993 
L 357.496858 -239.483993 
L 355.154473 -239.483993 
L 355.154473 -239.483993 
L 354.685996 -239.483993 
L 354.685996 -252.903605 
L 354.217519 -252.903605 
L 354.217519 -252.903605 
L 352.343611 -252.903605 
L 352.343611 -252.903605 
L 346.721888 -252.903605 
L 346.721888 -252.903605 
L 345.316457 -252.903605 
L 345.316457 -252.903605 
L 344.84798 -252.903605 
L 344.84798 -252.903605 
L 343.911026 -252.903605 
L 343.911026 -252.903605 
L 343.442549 -252.903605 
L 343.442549 -252.903605 
L 342.505595 -252.903605 
L 342.505595 -252.903605 
L 342.037118 -252.903605 
L 342.037118 -266.666327 
L 341.100164 -266.666327 
L 341.100164 -266.666327 
L 340.631687 -266.666327 
L 340.631687 -266.666327 
L 340.16321 -266.666327 
L 340.16321 -266.666327 
L 339.694733 -266.666327 
L 339.694733 -266.666327 
L 339.226256 -266.666327 
L 339.226256 -266.666327 
L 338.757779 -266.666327 
L 338.757779 -266.666327 
L 337.352348 -266.666327 
L 337.352348 -269.337477 
L 336.415394 -269.337477 
L 336.415394 -269.337477 
L 335.47844 -269.337477 
L 335.47844 -269.337477 
L 335.009963 -269.337477 
L 335.009963 -269.337477 
L 334.541486 -269.337477 
L 334.541486 -269.337477 
L 334.073009 -269.337477 
L 334.073009 -269.337477 
L 333.604532 -269.337477 
L 333.604532 -269.337477 
L 332.667578 -269.337477 
L 332.667578 -269.337477 
L 332.199101 -269.337477 
L 332.199101 -269.337477 
L 331.730624 -269.337477 
L 331.730624 -269.337477 
L 330.79367 -269.337477 
L 330.79367 -269.337477 
L 330.325193 -269.337477 
L 330.325193 -269.337477 
L 329.856716 -269.337477 
L 329.856716 -269.337477 
L 329.388239 -269.337477 
L 329.388239 -269.337477 
L 328.919762 -269.337477 
L 328.919762 -269.337477 
L 327.982808 -269.337477 
L 327.982808 -269.337477 
L 327.514331 -269.337477 
L 327.514331 -269.337477 
L 327.045854 -269.337477 
L 327.045854 -269.337477 
L 326.577378 -269.337477 
L 326.577378 -269.337477 
L 326.108901 -269.337477 
L 326.108901 -269.337477 
L 325.171947 -269.337477 
L 325.171947 -269.337477 
L 324.70347 -269.337477 
L 324.70347 -269.337477 
L 324.234993 -269.337477 
L 324.234993 -269.337477 
L 323.766516 -269.337477 
L 323.766516 -269.337477 
L 322.829562 -269.337477 
L 322.829562 -269.337477 
L 322.361085 -269.337477 
L 322.361085 -269.337477 
L 321.892608 -269.337477 
L 321.892608 -269.337477 
L 321.424131 -269.337477 
L 321.424131 -269.337477 
L 320.955654 -269.337477 
L 320.955654 -269.337477 
L 320.487177 -269.337477 
L 320.487177 -269.337477 
L 320.0187 -269.337477 
L 320.0187 -269.337477 
L 319.550223 -269.337477 
L 319.550223 -271.144571 
L 319.081746 -271.144571 
L 319.081746 -271.144571 
L 318.613269 -271.144571 
L 318.613269 -271.144571 
L 318.144792 -271.144571 
L 318.144792 -271.144571 
L 317.676315 -271.144571 
L 317.676315 -271.144571 
L 317.207838 -271.144571 
L 317.207838 -271.144571 
L 316.739361 -271.144571 
L 316.739361 -271.144571 
L 316.270884 -271.144571 
L 316.270884 -271.144571 
L 315.802407 -271.144571 
L 315.802407 -272.565933 
L 315.33393 -272.565933 
L 315.33393 -273.929711 
L 314.865453 -273.929711 
L 314.865453 -273.929711 
L 314.396976 -273.929711 
L 314.396976 -275.25683 
L 313.928499 -275.25683 
L 313.928499 -275.25683 
L 313.460022 -275.25683 
L 313.460022 -275.25683 
L 312.991545 -275.25683 
L 312.991545 -275.25683 
L 312.523068 -275.25683 
L 312.523068 -276.486165 
L 312.054591 -276.486165 
L 312.054591 -276.486165 
L 311.586114 -276.486165 
L 311.586114 -277.683322 
L 311.117637 -277.683322 
L 311.117637 -277.683322 
L 310.64916 -277.683322 
L 310.64916 -277.683322 
L 310.180683 -277.683322 
L 310.180683 -277.683322 
L 309.712206 -277.683322 
L 309.712206 -277.683322 
L 309.243729 -277.683322 
L 309.243729 -277.683322 
L 308.775252 -277.683322 
L 308.775252 -277.683322 
L 308.306775 -277.683322 
L 308.306775 -277.683322 
L 307.838298 -277.683322 
L 307.838298 -277.683322 
L 307.369821 -277.683322 
L 307.369821 -277.683322 
L 306.901344 -277.683322 
L 306.901344 -277.683322 
L 306.432867 -277.683322 
L 306.432867 -277.683322 
L 305.96439 -277.683322 
L 305.96439 -277.683322 
L 305.495914 -277.683322 
L 305.495914 -277.683322 
L 305.027437 -277.683322 
L 305.027437 -277.683322 
L 304.55896 -277.683322 
L 304.55896 -277.683322 
L 303.622006 -277.683322 
L 303.622006 -277.683322 
L 302.685052 -277.683322 
L 302.685052 -277.683322 
L 301.748098 -277.683322 
L 301.748098 -277.683322 
L 301.279621 -277.683322 
L 301.279621 -277.683322 
L 299.405713 -277.683322 
L 299.405713 -277.683322 
L 298.000282 -277.683322 
L 298.000282 -277.683322 
L 297.531805 -277.683322 
L 297.531805 -277.683322 
L 297.063328 -277.683322 
L 297.063328 -277.683322 
L 296.126374 -277.683322 
L 296.126374 -277.683322 
L 294.252466 -277.683322 
L 294.252466 -278.652028 
L 293.315512 -278.652028 
L 293.315512 -278.652028 
L 292.378558 -278.652028 
L 292.378558 -278.652028 
L 291.910081 -278.652028 
L 291.910081 -279.596973 
L 291.441604 -279.596973 
L 291.441604 -279.596973 
L 290.036173 -279.596973 
L 290.036173 -279.596973 
L 285.351403 -279.596973 
L 285.351403 -280.521579 
L 280.666634 -280.521579 
L 280.666634 -281.431653 
L 279.261203 -281.431653 
L 279.261203 -281.431653 
L 278.792726 -281.431653 
L 278.792726 -281.431653 
L 277.387295 -281.431653 
L 277.387295 -281.431653 
L 276.918818 -281.431653 
L 276.918818 -281.431653 
L 276.450341 -281.431653 
L 276.450341 -281.431653 
L 275.04491 -281.431653 
L 275.04491 -282.312093 
L 273.639479 -282.312093 
L 273.639479 -282.312093 
L 273.171002 -282.312093 
L 273.171002 -282.312093 
L 272.702525 -282.312093 
L 272.702525 -282.312093 
L 271.765571 -282.312093 
L 271.765571 -282.312093 
L 270.828617 -282.312093 
L 270.828617 -282.312093 
L 270.36014 -282.312093 
L 270.36014 -283.155891 
L 266.612324 -283.155891 
L 266.612324 -283.155891 
L 260.990601 -283.155891 
L 260.990601 -283.155891 
L 259.58517 -283.155891 
L 259.58517 -283.155891 
L 255.368877 -283.155891 
L 255.368877 -283.155891 
L 254.431923 -283.155891 
L 254.431923 -283.155891 
L 250.21563 -283.155891 
L 250.21563 -283.9746 
L 246.936291 -283.9746 
L 246.936291 -283.9746 
L 243.188476 -283.9746 
L 243.188476 -283.9746 
L 242.251522 -283.9746 
L 242.251522 -284.772865 
L 239.909137 -284.772865 
L 239.909137 -284.772865 
L 233.818936 -284.772865 
L 233.818936 -284.772865 
L 232.413505 -284.772865 
L 232.413505 -284.772865 
L 231.945028 -284.772865 
L 231.945028 -284.772865 
L 231.008074 -284.772865 
L 231.008074 -284.772865 
L 230.539597 -284.772865 
L 230.539597 -284.772865 
L 230.07112 -284.772865 
L 230.07112 -284.772865 
L 228.197212 -284.772865 
L 228.197212 -284.772865 
L 227.728735 -284.772865 
L 227.728735 -284.772865 
L 226.791781 -284.772865 
L 226.791781 -284.772865 
L 225.38635 -284.772865 
L 225.38635 -284.772865 
L 223.980919 -284.772865 
L 223.980919 -284.772865 
L 223.512442 -284.772865 
L 223.512442 -285.524319 
L 222.107012 -285.524319 
L 222.107012 -285.524319 
L 209.458133 -285.524319 
L 209.458133 -285.524319 
L 202.430978 -285.524319 
L 202.430978 -285.524319 
L 194.935347 -285.524319 
L 194.935347 -286.255691 
L 187.908192 -286.255691 
L 187.908192 -286.255691 
L 184.160376 -286.255691 
L 184.160376 -286.969504 
L 181.349514 -286.969504 
L 181.349514 -286.969504 
L 166.358251 -286.969504 
L 166.358251 -287.663572 
L 165.889774 -287.663572 
L 165.889774 -287.663572 
L 163.547389 -287.663572 
L 163.547389 -288.335041 
L 161.673481 -288.335041 
L 161.673481 -288.335041 
L 156.988712 -288.335041 
L 156.988712 -288.980065 
L 154.17785 -288.980065 
L 154.17785 -288.980065 
L 151.835465 -288.980065 
L 151.835465 -288.980065 
L 151.366988 -288.980065 
L 151.366988 -288.980065 
L 148.556126 -288.980065 
L 148.556126 -288.980065 
L 148.087649 -288.980065 
L 148.087649 -288.980065 
L 147.619172 -288.980065 
L 147.619172 -288.980065 
L 147.150695 -288.980065 
L 147.150695 -288.980065 
L 146.213741 -288.980065 
L 146.213741 -288.980065 
L 145.276787 -288.980065 
L 145.276787 -289.580886 
L 144.80831 -289.580886 
L 144.80831 -289.580886 
L 144.339833 -289.580886 
L 144.339833 -290.142426 
L 143.871356 -290.142426 
L 143.871356 -290.142426 
L 143.402879 -290.142426 
L 143.402879 -290.142426 
L 141.997448 -290.142426 
L 141.997448 -290.142426 
L 141.528971 -290.142426 
L 141.528971 -290.65445 
L 139.186586 -290.65445 
L 139.186586 -290.65445 
L 138.71811 -290.65445 
L 138.71811 -290.65445 
L 137.781156 -290.65445 
L 137.781156 -291.099732 
L 137.312679 -291.099732 
L 137.312679 -291.4406 
L 135.907248 -291.4406 
L 135.907248 -291.4406 
L 133.096386 -291.4406 
L 133.096386 -291.4406 
L 132.159432 -291.4406 
L 132.159432 -291.4406 
L 128.411616 -291.4406 
L 128.411616 -291.4406 
L 127.006185 -291.4406 
L 127.006185 -291.4406 
L 126.537708 -291.4406 
L 126.537708 -291.57225 
L 126.069231 -291.57225 
L 126.069231 -291.57225 
L 125.132277 -291.57225 
L 125.132277 -291.57225 
L 124.195323 -291.57225 
L 124.195323 -291.57225 
L 121.384461 -291.57225 
L 121.384461 -291.57225 
L 120.915984 -291.57225 
L 120.915984 -291.57225 
L 115.294261 -291.57225 
L 115.294261 -291.57225 
L 111.077968 -291.57225 
L 111.077968 -291.57225 
L 99.366043 -291.57225 
L 99.366043 -291.57225 
L 96.086705 -291.57225 
L 96.086705 -291.57225 
L 91.870412 -291.57225 
L 91.870412 -291.57225 
L 84.843257 -291.57225 
L 84.843257 -291.57225 
L 82.969349 -291.57225 
L 82.969349 -291.57225 
L 82.500872 -291.57225 
L 82.500872 -291.57225 
L 80.158487 -291.57225 
L 80.158487 -291.57225 
L 75.473718 -291.57225 
L 75.473718 -291.57225 
L 60.013977 -291.57225 
z
" style="stroke: #1f77b4; stroke-opacity: 0.25"/>
    </defs>
    <g clip-path="url(#p2aaf607989)">
     <use xlink:href="#m7c713234e1" x="0" y="353.194875" style="fill: #1f77b4; fill-opacity: 0.25; stroke: #1f77b4; stroke-opacity: 0.25"/>
    </g>
   </g>
   <g id="PolyCollection_2">
    <defs>
     <path id="m09f3ccb983" d="M 60.013977 -291.57225 
L 60.013977 -291.57225 
L 99.366043 -291.57225 
L 99.366043 -291.57225 
L 175.727791 -291.57225 
L 175.727791 -97.031646 
L 223.980919 -97.031646 
L 223.980919 -74.859171 
L 270.36014 -74.859171 
L 270.36014 -49.65225 
L 307.838298 -49.65225 
L 307.838298 -49.65225 
L 310.180683 -49.65225 
L 310.180683 -49.65225 
L 322.829562 -49.65225 
L 322.829562 -49.65225 
L 337.820825 -49.65225 
L 337.820825 -49.65225 
L 337.820825 -243.97979 
L 337.820825 -243.97979 
L 337.820825 -243.97979 
L 322.829562 -243.97979 
L 322.829562 -243.97979 
L 310.180683 -243.97979 
L 310.180683 -243.97979 
L 307.838298 -243.97979 
L 307.838298 -243.97979 
L 270.36014 -243.97979 
L 270.36014 -268.14295 
L 223.980919 -268.14295 
L 223.980919 -285.309364 
L 175.727791 -285.309364 
L 175.727791 -291.57225 
L 99.366043 -291.57225 
L 99.366043 -291.57225 
L 60.013977 -291.57225 
z
" style="stroke: #ff7f0e; stroke-opacity: 0.25"/>
    </defs>
    <g clip-path="url(#p2aaf607989)">
     <use xlink:href="#m09f3ccb983" x="0" y="353.194875" style="fill: #ff7f0e; fill-opacity: 0.25; stroke: #ff7f0e; stroke-opacity: 0.25"/>
    </g>
   </g>
   <g id="PolyCollection_3">
    <defs>
     <path id="m01ae6dadd1" d="M 60.013977 -291.57225 
L 60.013977 -291.57225 
L 95.618228 -291.57225 
L 95.618228 -291.57225 
L 95.618228 -291.57225 
L 95.618228 -291.57225 
L 95.618228 -291.57225 
L 60.013977 -291.57225 
z
" style="stroke: #2ca02c; stroke-opacity: 0.25"/>
    </defs>
    <g clip-path="url(#p2aaf607989)">
     <use xlink:href="#m01ae6dadd1" x="0" y="353.194875" style="fill: #2ca02c; fill-opacity: 0.25; stroke: #2ca02c; stroke-opacity: 0.25"/>
    </g>
   </g>
   <g id="matplotlib.axis_1">
    <g id="xtick_1">
     <g id="line2d_1">
      <defs>
       <path id="m32fe9b0379" d="M 0 0 
L 0 3.5 
" style="stroke: #000000; stroke-width: 0.8"/>
      </defs>
      <g>
       <use xlink:href="#m32fe9b0379" x="60.013977" y="315.638625" style="stroke: #000000; stroke-width: 0.8"/>
      </g>
     </g>
     <g id="text_1">
      <!-- 0 -->
      <g transform="translate(56.832727 330.237062) scale(0.1 -0.1)">
       <defs>
        <path id="DejaVuSans-30" d="M 2034 4250 
Q 1547 4250 1301 3770 
Q 1056 3291 1056 2328 
Q 1056 1369 1301 889 
Q 1547 409 2034 409 
Q 2525 409 2770 889 
Q 3016 1369 3016 2328 
Q 3016 3291 2770 3770 
Q 2525 4250 2034 4250 
z
M 2034 4750 
Q 2819 4750 3233 4129 
Q 3647 3509 3647 2328 
Q 3647 1150 3233 529 
Q 2819 -91 2034 -91 
Q 1250 -91 836 529 
Q 422 1150 422 2328 
Q 422 3509 836 4129 
Q 1250 4750 2034 4750 
z
" transform="scale(0.015625)"/>
       </defs>
       <use xlink:href="#DejaVuSans-30"/>
      </g>
     </g>
    </g>
    <g id="xtick_2">
     <g id="line2d_2">
      <g>
       <use xlink:href="#m32fe9b0379" x="106.861675" y="315.638625" style="stroke: #000000; stroke-width: 0.8"/>
      </g>
     </g>
     <g id="text_2">
      <!-- 100 -->
      <g transform="translate(97.317925 330.237062) scale(0.1 -0.1)">
       <defs>
        <path id="DejaVuSans-31" d="M 794 531 
L 1825 531 
L 1825 4091 
L 703 3866 
L 703 4441 
L 1819 4666 
L 2450 4666 
L 2450 531 
L 3481 531 
L 3481 0 
L 794 0 
L 794 531 
z
" transform="scale(0.015625)"/>
       </defs>
       <use xlink:href="#DejaVuSans-31"/>
       <use xlink:href="#DejaVuSans-30" x="63.623047"/>
       <use xlink:href="#DejaVuSans-30" x="127.246094"/>
      </g>
     </g>
    </g>
    <g id="xtick_3">
     <g id="line2d_3">
      <g>
       <use xlink:href="#m32fe9b0379" x="153.709373" y="315.638625" style="stroke: #000000; stroke-width: 0.8"/>
      </g>
     </g>
     <g id="text_3">
      <!-- 200 -->
      <g transform="translate(144.165623 330.237062) scale(0.1 -0.1)">
       <defs>
        <path id="DejaVuSans-32" d="M 1228 531 
L 3431 531 
L 3431 0 
L 469 0 
L 469 531 
Q 828 903 1448 1529 
Q 2069 2156 2228 2338 
Q 2531 2678 2651 2914 
Q 2772 3150 2772 3378 
Q 2772 3750 2511 3984 
Q 2250 4219 1831 4219 
Q 1534 4219 1204 4116 
Q 875 4013 500 3803 
L 500 4441 
Q 881 4594 1212 4672 
Q 1544 4750 1819 4750 
Q 2544 4750 2975 4387 
Q 3406 4025 3406 3419 
Q 3406 3131 3298 2873 
Q 3191 2616 2906 2266 
Q 2828 2175 2409 1742 
Q 1991 1309 1228 531 
z
" transform="scale(0.015625)"/>
       </defs>
       <use xlink:href="#DejaVuSans-32"/>
       <use xlink:href="#DejaVuSans-30" x="63.623047"/>
       <use xlink:href="#DejaVuSans-30" x="127.246094"/>
      </g>
     </g>
    </g>
    <g id="xtick_4">
     <g id="line2d_4">
      <g>
       <use xlink:href="#m32fe9b0379" x="200.557071" y="315.638625" style="stroke: #000000; stroke-width: 0.8"/>
      </g>
     </g>
     <g id="text_4">
      <!-- 300 -->
      <g transform="translate(191.013321 330.237062) scale(0.1 -0.1)">
       <defs>
        <path id="DejaVuSans-33" d="M 2597 2516 
Q 3050 2419 3304 2112 
Q 3559 1806 3559 1356 
Q 3559 666 3084 287 
Q 2609 -91 1734 -91 
Q 1441 -91 1130 -33 
Q 819 25 488 141 
L 488 750 
Q 750 597 1062 519 
Q 1375 441 1716 441 
Q 2309 441 2620 675 
Q 2931 909 2931 1356 
Q 2931 1769 2642 2001 
Q 2353 2234 1838 2234 
L 1294 2234 
L 1294 2753 
L 1863 2753 
Q 2328 2753 2575 2939 
Q 2822 3125 2822 3475 
Q 2822 3834 2567 4026 
Q 2313 4219 1838 4219 
Q 1578 4219 1281 4162 
Q 984 4106 628 3988 
L 628 4550 
Q 988 4650 1302 4700 
Q 1616 4750 1894 4750 
Q 2613 4750 3031 4423 
Q 3450 4097 3450 3541 
Q 3450 3153 3228 2886 
Q 3006 2619 2597 2516 
z
" transform="scale(0.015625)"/>
       </defs>
       <use xlink:href="#DejaVuSans-33"/>
       <use xlink:href="#DejaVuSans-30" x="63.623047"/>
       <use xlink:href="#DejaVuSans-30" x="127.246094"/>
      </g>
     </g>
    </g>
    <g id="xtick_5">
     <g id="line2d_5">
      <g>
       <use xlink:href="#m32fe9b0379" x="247.404768" y="315.638625" style="stroke: #000000; stroke-width: 0.8"/>
      </g>
     </g>
     <g id="text_5">
      <!-- 400 -->
      <g transform="translate(237.861018 330.237062) scale(0.1 -0.1)">
       <defs>
        <path id="DejaVuSans-34" d="M 2419 4116 
L 825 1625 
L 2419 1625 
L 2419 4116 
z
M 2253 4666 
L 3047 4666 
L 3047 1625 
L 3713 1625 
L 3713 1100 
L 3047 1100 
L 3047 0 
L 2419 0 
L 2419 1100 
L 313 1100 
L 313 1709 
L 2253 4666 
z
" transform="scale(0.015625)"/>
       </defs>
       <use xlink:href="#DejaVuSans-34"/>
       <use xlink:href="#DejaVuSans-30" x="63.623047"/>
       <use xlink:href="#DejaVuSans-30" x="127.246094"/>
      </g>
     </g>
    </g>
    <g id="xtick_6">
     <g id="line2d_6">
      <g>
       <use xlink:href="#m32fe9b0379" x="294.252466" y="315.638625" style="stroke: #000000; stroke-width: 0.8"/>
      </g>
     </g>
     <g id="text_6">
      <!-- 500 -->
      <g transform="translate(284.708716 330.237062) scale(0.1 -0.1)">
       <defs>
        <path id="DejaVuSans-35" d="M 691 4666 
L 3169 4666 
L 3169 4134 
L 1269 4134 
L 1269 2991 
Q 1406 3038 1543 3061 
Q 1681 3084 1819 3084 
Q 2600 3084 3056 2656 
Q 3513 2228 3513 1497 
Q 3513 744 3044 326 
Q 2575 -91 1722 -91 
Q 1428 -91 1123 -41 
Q 819 9 494 109 
L 494 744 
Q 775 591 1075 516 
Q 1375 441 1709 441 
Q 2250 441 2565 725 
Q 2881 1009 2881 1497 
Q 2881 1984 2565 2268 
Q 2250 2553 1709 2553 
Q 1456 2553 1204 2497 
Q 953 2441 691 2322 
L 691 4666 
z
" transform="scale(0.015625)"/>
       </defs>
       <use xlink:href="#DejaVuSans-35"/>
       <use xlink:href="#DejaVuSans-30" x="63.623047"/>
       <use xlink:href="#DejaVuSans-30" x="127.246094"/>
      </g>
     </g>
    </g>
    <g id="xtick_7">
     <g id="line2d_7">
      <g>
       <use xlink:href="#m32fe9b0379" x="341.100164" y="315.638625" style="stroke: #000000; stroke-width: 0.8"/>
      </g>
     </g>
     <g id="text_7">
      <!-- 600 -->
      <g transform="translate(331.556414 330.237062) scale(0.1 -0.1)">
       <defs>
        <path id="DejaVuSans-36" d="M 2113 2584 
Q 1688 2584 1439 2293 
Q 1191 2003 1191 1497 
Q 1191 994 1439 701 
Q 1688 409 2113 409 
Q 2538 409 2786 701 
Q 3034 994 3034 1497 
Q 3034 2003 2786 2293 
Q 2538 2584 2113 2584 
z
M 3366 4563 
L 3366 3988 
Q 3128 4100 2886 4159 
Q 2644 4219 2406 4219 
Q 1781 4219 1451 3797 
Q 1122 3375 1075 2522 
Q 1259 2794 1537 2939 
Q 1816 3084 2150 3084 
Q 2853 3084 3261 2657 
Q 3669 2231 3669 1497 
Q 3669 778 3244 343 
Q 2819 -91 2113 -91 
Q 1303 -91 875 529 
Q 447 1150 447 2328 
Q 447 3434 972 4092 
Q 1497 4750 2381 4750 
Q 2619 4750 2861 4703 
Q 3103 4656 3366 4563 
z
" transform="scale(0.015625)"/>
       </defs>
       <use xlink:href="#DejaVuSans-36"/>
       <use xlink:href="#DejaVuSans-30" x="63.623047"/>
       <use xlink:href="#DejaVuSans-30" x="127.246094"/>
      </g>
     </g>
    </g>
    <g id="xtick_8">
     <g id="line2d_8">
      <g>
       <use xlink:href="#m32fe9b0379" x="387.947862" y="315.638625" style="stroke: #000000; stroke-width: 0.8"/>
      </g>
     </g>
     <g id="text_8">
      <!-- 700 -->
      <g transform="translate(378.404112 330.237062) scale(0.1 -0.1)">
       <defs>
        <path id="DejaVuSans-37" d="M 525 4666 
L 3525 4666 
L 3525 4397 
L 1831 0 
L 1172 0 
L 2766 4134 
L 525 4134 
L 525 4666 
z
" transform="scale(0.015625)"/>
       </defs>
       <use xlink:href="#DejaVuSans-37"/>
       <use xlink:href="#DejaVuSans-30" x="63.623047"/>
       <use xlink:href="#DejaVuSans-30" x="127.246094"/>
      </g>
     </g>
    </g>
    <g id="text_9">
     <!-- Weeks since Treatment Start -->
     <g transform="translate(150.632656 343.915187) scale(0.1 -0.1)">
      <defs>
       <path id="DejaVuSans-57" d="M 213 4666 
L 850 4666 
L 1831 722 
L 2809 4666 
L 3519 4666 
L 4500 722 
L 5478 4666 
L 6119 4666 
L 4947 0 
L 4153 0 
L 3169 4050 
L 2175 0 
L 1381 0 
L 213 4666 
z
" transform="scale(0.015625)"/>
       <path id="DejaVuSans-65" d="M 3597 1894 
L 3597 1613 
L 953 1613 
Q 991 1019 1311 708 
Q 1631 397 2203 397 
Q 2534 397 2845 478 
Q 3156 559 3463 722 
L 3463 178 
Q 3153 47 2828 -22 
Q 2503 -91 2169 -91 
Q 1331 -91 842 396 
Q 353 884 353 1716 
Q 353 2575 817 3079 
Q 1281 3584 2069 3584 
Q 2775 3584 3186 3129 
Q 3597 2675 3597 1894 
z
M 3022 2063 
Q 3016 2534 2758 2815 
Q 2500 3097 2075 3097 
Q 1594 3097 1305 2825 
Q 1016 2553 972 2059 
L 3022 2063 
z
" transform="scale(0.015625)"/>
       <path id="DejaVuSans-6b" d="M 581 4863 
L 1159 4863 
L 1159 1991 
L 2875 3500 
L 3609 3500 
L 1753 1863 
L 3688 0 
L 2938 0 
L 1159 1709 
L 1159 0 
L 581 0 
L 581 4863 
z
" transform="scale(0.015625)"/>
       <path id="DejaVuSans-73" d="M 2834 3397 
L 2834 2853 
Q 2591 2978 2328 3040 
Q 2066 3103 1784 3103 
Q 1356 3103 1142 2972 
Q 928 2841 928 2578 
Q 928 2378 1081 2264 
Q 1234 2150 1697 2047 
L 1894 2003 
Q 2506 1872 2764 1633 
Q 3022 1394 3022 966 
Q 3022 478 2636 193 
Q 2250 -91 1575 -91 
Q 1294 -91 989 -36 
Q 684 19 347 128 
L 347 722 
Q 666 556 975 473 
Q 1284 391 1588 391 
Q 1994 391 2212 530 
Q 2431 669 2431 922 
Q 2431 1156 2273 1281 
Q 2116 1406 1581 1522 
L 1381 1569 
Q 847 1681 609 1914 
Q 372 2147 372 2553 
Q 372 3047 722 3315 
Q 1072 3584 1716 3584 
Q 2034 3584 2315 3537 
Q 2597 3491 2834 3397 
z
" transform="scale(0.015625)"/>
       <path id="DejaVuSans-20" transform="scale(0.015625)"/>
       <path id="DejaVuSans-69" d="M 603 3500 
L 1178 3500 
L 1178 0 
L 603 0 
L 603 3500 
z
M 603 4863 
L 1178 4863 
L 1178 4134 
L 603 4134 
L 603 4863 
z
" transform="scale(0.015625)"/>
       <path id="DejaVuSans-6e" d="M 3513 2113 
L 3513 0 
L 2938 0 
L 2938 2094 
Q 2938 2591 2744 2837 
Q 2550 3084 2163 3084 
Q 1697 3084 1428 2787 
Q 1159 2491 1159 1978 
L 1159 0 
L 581 0 
L 581 3500 
L 1159 3500 
L 1159 2956 
Q 1366 3272 1645 3428 
Q 1925 3584 2291 3584 
Q 2894 3584 3203 3211 
Q 3513 2838 3513 2113 
z
" transform="scale(0.015625)"/>
       <path id="DejaVuSans-63" d="M 3122 3366 
L 3122 2828 
Q 2878 2963 2633 3030 
Q 2388 3097 2138 3097 
Q 1578 3097 1268 2742 
Q 959 2388 959 1747 
Q 959 1106 1268 751 
Q 1578 397 2138 397 
Q 2388 397 2633 464 
Q 2878 531 3122 666 
L 3122 134 
Q 2881 22 2623 -34 
Q 2366 -91 2075 -91 
Q 1284 -91 818 406 
Q 353 903 353 1747 
Q 353 2603 823 3093 
Q 1294 3584 2113 3584 
Q 2378 3584 2631 3529 
Q 2884 3475 3122 3366 
z
" transform="scale(0.015625)"/>
       <path id="DejaVuSans-54" d="M -19 4666 
L 3928 4666 
L 3928 4134 
L 2272 4134 
L 2272 0 
L 1638 0 
L 1638 4134 
L -19 4134 
L -19 4666 
z
" transform="scale(0.015625)"/>
       <path id="DejaVuSans-72" d="M 2631 2963 
Q 2534 3019 2420 3045 
Q 2306 3072 2169 3072 
Q 1681 3072 1420 2755 
Q 1159 2438 1159 1844 
L 1159 0 
L 581 0 
L 581 3500 
L 1159 3500 
L 1159 2956 
Q 1341 3275 1631 3429 
Q 1922 3584 2338 3584 
Q 2397 3584 2469 3576 
Q 2541 3569 2628 3553 
L 2631 2963 
z
" transform="scale(0.015625)"/>
       <path id="DejaVuSans-61" d="M 2194 1759 
Q 1497 1759 1228 1600 
Q 959 1441 959 1056 
Q 959 750 1161 570 
Q 1363 391 1709 391 
Q 2188 391 2477 730 
Q 2766 1069 2766 1631 
L 2766 1759 
L 2194 1759 
z
M 3341 1997 
L 3341 0 
L 2766 0 
L 2766 531 
Q 2569 213 2275 61 
Q 1981 -91 1556 -91 
Q 1019 -91 701 211 
Q 384 513 384 1019 
Q 384 1609 779 1909 
Q 1175 2209 1959 2209 
L 2766 2209 
L 2766 2266 
Q 2766 2663 2505 2880 
Q 2244 3097 1772 3097 
Q 1472 3097 1187 3025 
Q 903 2953 641 2809 
L 641 3341 
Q 956 3463 1253 3523 
Q 1550 3584 1831 3584 
Q 2591 3584 2966 3190 
Q 3341 2797 3341 1997 
z
" transform="scale(0.015625)"/>
       <path id="DejaVuSans-74" d="M 1172 4494 
L 1172 3500 
L 2356 3500 
L 2356 3053 
L 1172 3053 
L 1172 1153 
Q 1172 725 1289 603 
Q 1406 481 1766 481 
L 2356 481 
L 2356 0 
L 1766 0 
Q 1100 0 847 248 
Q 594 497 594 1153 
L 594 3053 
L 172 3053 
L 172 3500 
L 594 3500 
L 594 4494 
L 1172 4494 
z
" transform="scale(0.015625)"/>
       <path id="DejaVuSans-6d" d="M 3328 2828 
Q 3544 3216 3844 3400 
Q 4144 3584 4550 3584 
Q 5097 3584 5394 3201 
Q 5691 2819 5691 2113 
L 5691 0 
L 5113 0 
L 5113 2094 
Q 5113 2597 4934 2840 
Q 4756 3084 4391 3084 
Q 3944 3084 3684 2787 
Q 3425 2491 3425 1978 
L 3425 0 
L 2847 0 
L 2847 2094 
Q 2847 2600 2669 2842 
Q 2491 3084 2119 3084 
Q 1678 3084 1418 2786 
Q 1159 2488 1159 1978 
L 1159 0 
L 581 0 
L 581 3500 
L 1159 3500 
L 1159 2956 
Q 1356 3278 1631 3431 
Q 1906 3584 2284 3584 
Q 2666 3584 2933 3390 
Q 3200 3197 3328 2828 
z
" transform="scale(0.015625)"/>
       <path id="DejaVuSans-53" d="M 3425 4513 
L 3425 3897 
Q 3066 4069 2747 4153 
Q 2428 4238 2131 4238 
Q 1616 4238 1336 4038 
Q 1056 3838 1056 3469 
Q 1056 3159 1242 3001 
Q 1428 2844 1947 2747 
L 2328 2669 
Q 3034 2534 3370 2195 
Q 3706 1856 3706 1288 
Q 3706 609 3251 259 
Q 2797 -91 1919 -91 
Q 1588 -91 1214 -16 
Q 841 59 441 206 
L 441 856 
Q 825 641 1194 531 
Q 1563 422 1919 422 
Q 2459 422 2753 634 
Q 3047 847 3047 1241 
Q 3047 1584 2836 1778 
Q 2625 1972 2144 2069 
L 1759 2144 
Q 1053 2284 737 2584 
Q 422 2884 422 3419 
Q 422 4038 858 4394 
Q 1294 4750 2059 4750 
Q 2388 4750 2728 4690 
Q 3069 4631 3425 4513 
z
" transform="scale(0.015625)"/>
      </defs>
      <use xlink:href="#DejaVuSans-57"/>
      <use xlink:href="#DejaVuSans-65" x="93.001953"/>
      <use xlink:href="#DejaVuSans-65" x="154.525391"/>
      <use xlink:href="#DejaVuSans-6b" x="216.048828"/>
      <use xlink:href="#DejaVuSans-73" x="273.958984"/>
      <use xlink:href="#DejaVuSans-20" x="326.058594"/>
      <use xlink:href="#DejaVuSans-73" x="357.845703"/>
      <use xlink:href="#DejaVuSans-69" x="409.945312"/>
      <use xlink:href="#DejaVuSans-6e" x="437.728516"/>
      <use xlink:href="#DejaVuSans-63" x="501.107422"/>
      <use xlink:href="#DejaVuSans-65" x="556.087891"/>
      <use xlink:href="#DejaVuSans-20" x="617.611328"/>
      <use xlink:href="#DejaVuSans-54" x="649.398438"/>
      <use xlink:href="#DejaVuSans-72" x="695.732422"/>
      <use xlink:href="#DejaVuSans-65" x="734.595703"/>
      <use xlink:href="#DejaVuSans-61" x="796.119141"/>
      <use xlink:href="#DejaVuSans-74" x="857.398438"/>
      <use xlink:href="#DejaVuSans-6d" x="896.607422"/>
      <use xlink:href="#DejaVuSans-65" x="994.019531"/>
      <use xlink:href="#DejaVuSans-6e" x="1055.542969"/>
      <use xlink:href="#DejaVuSans-74" x="1118.921875"/>
      <use xlink:href="#DejaVuSans-20" x="1158.130859"/>
      <use xlink:href="#DejaVuSans-53" x="1189.917969"/>
      <use xlink:href="#DejaVuSans-74" x="1253.394531"/>
      <use xlink:href="#DejaVuSans-61" x="1292.603516"/>
      <use xlink:href="#DejaVuSans-72" x="1353.882812"/>
      <use xlink:href="#DejaVuSans-74" x="1394.996094"/>
     </g>
    </g>
   </g>
   <g id="matplotlib.axis_2">
    <g id="ytick_1">
     <g id="line2d_9">
      <defs>
       <path id="mc74ac6bcb2" d="M 0 0 
L -3.5 0 
" style="stroke: #000000; stroke-width: 0.8"/>
      </defs>
      <g>
       <use xlink:href="#mc74ac6bcb2" x="43.78125" y="295.323939" style="stroke: #000000; stroke-width: 0.8"/>
      </g>
     </g>
     <g id="text_10">
      <!-- 0.2 -->
      <g transform="translate(20.878125 299.123157) scale(0.1 -0.1)">
       <defs>
        <path id="DejaVuSans-2e" d="M 684 794 
L 1344 794 
L 1344 0 
L 684 0 
L 684 794 
z
" transform="scale(0.015625)"/>
       </defs>
       <use xlink:href="#DejaVuSans-30"/>
       <use xlink:href="#DejaVuSans-2e" x="63.623047"/>
       <use xlink:href="#DejaVuSans-32" x="95.410156"/>
      </g>
     </g>
    </g>
    <g id="ytick_2">
     <g id="line2d_10">
      <g>
       <use xlink:href="#mc74ac6bcb2" x="43.78125" y="236.89861" style="stroke: #000000; stroke-width: 0.8"/>
      </g>
     </g>
     <g id="text_11">
      <!-- 0.4 -->
      <g transform="translate(20.878125 240.697829) scale(0.1 -0.1)">
       <use xlink:href="#DejaVuSans-30"/>
       <use xlink:href="#DejaVuSans-2e" x="63.623047"/>
       <use xlink:href="#DejaVuSans-34" x="95.410156"/>
      </g>
     </g>
    </g>
    <g id="ytick_3">
     <g id="line2d_11">
      <g>
       <use xlink:href="#mc74ac6bcb2" x="43.78125" y="178.473282" style="stroke: #000000; stroke-width: 0.8"/>
      </g>
     </g>
     <g id="text_12">
      <!-- 0.6 -->
      <g transform="translate(20.878125 182.272501) scale(0.1 -0.1)">
       <use xlink:href="#DejaVuSans-30"/>
       <use xlink:href="#DejaVuSans-2e" x="63.623047"/>
       <use xlink:href="#DejaVuSans-36" x="95.410156"/>
      </g>
     </g>
    </g>
    <g id="ytick_4">
     <g id="line2d_12">
      <g>
       <use xlink:href="#mc74ac6bcb2" x="43.78125" y="120.047953" style="stroke: #000000; stroke-width: 0.8"/>
      </g>
     </g>
     <g id="text_13">
      <!-- 0.8 -->
      <g transform="translate(20.878125 123.847172) scale(0.1 -0.1)">
       <defs>
        <path id="DejaVuSans-38" d="M 2034 2216 
Q 1584 2216 1326 1975 
Q 1069 1734 1069 1313 
Q 1069 891 1326 650 
Q 1584 409 2034 409 
Q 2484 409 2743 651 
Q 3003 894 3003 1313 
Q 3003 1734 2745 1975 
Q 2488 2216 2034 2216 
z
M 1403 2484 
Q 997 2584 770 2862 
Q 544 3141 544 3541 
Q 544 4100 942 4425 
Q 1341 4750 2034 4750 
Q 2731 4750 3128 4425 
Q 3525 4100 3525 3541 
Q 3525 3141 3298 2862 
Q 3072 2584 2669 2484 
Q 3125 2378 3379 2068 
Q 3634 1759 3634 1313 
Q 3634 634 3220 271 
Q 2806 -91 2034 -91 
Q 1263 -91 848 271 
Q 434 634 434 1313 
Q 434 1759 690 2068 
Q 947 2378 1403 2484 
z
M 1172 3481 
Q 1172 3119 1398 2916 
Q 1625 2713 2034 2713 
Q 2441 2713 2670 2916 
Q 2900 3119 2900 3481 
Q 2900 3844 2670 4047 
Q 2441 4250 2034 4250 
Q 1625 4250 1398 4047 
Q 1172 3844 1172 3481 
z
" transform="scale(0.015625)"/>
       </defs>
       <use xlink:href="#DejaVuSans-30"/>
       <use xlink:href="#DejaVuSans-2e" x="63.623047"/>
       <use xlink:href="#DejaVuSans-38" x="95.410156"/>
      </g>
     </g>
    </g>
    <g id="ytick_5">
     <g id="line2d_13">
      <g>
       <use xlink:href="#mc74ac6bcb2" x="43.78125" y="61.622625" style="stroke: #000000; stroke-width: 0.8"/>
      </g>
     </g>
     <g id="text_14">
      <!-- 1.0 -->
      <g transform="translate(20.878125 65.421844) scale(0.1 -0.1)">
       <use xlink:href="#DejaVuSans-31"/>
       <use xlink:href="#DejaVuSans-2e" x="63.623047"/>
       <use xlink:href="#DejaVuSans-30" x="95.410156"/>
      </g>
     </g>
    </g>
    <g id="text_15">
     <!-- Probability of No Event -->
     <g transform="translate(14.798438 239.722469) rotate(-90) scale(0.1 -0.1)">
      <defs>
       <path id="DejaVuSans-50" d="M 1259 4147 
L 1259 2394 
L 2053 2394 
Q 2494 2394 2734 2622 
Q 2975 2850 2975 3272 
Q 2975 3691 2734 3919 
Q 2494 4147 2053 4147 
L 1259 4147 
z
M 628 4666 
L 2053 4666 
Q 2838 4666 3239 4311 
Q 3641 3956 3641 3272 
Q 3641 2581 3239 2228 
Q 2838 1875 2053 1875 
L 1259 1875 
L 1259 0 
L 628 0 
L 628 4666 
z
" transform="scale(0.015625)"/>
       <path id="DejaVuSans-6f" d="M 1959 3097 
Q 1497 3097 1228 2736 
Q 959 2375 959 1747 
Q 959 1119 1226 758 
Q 1494 397 1959 397 
Q 2419 397 2687 759 
Q 2956 1122 2956 1747 
Q 2956 2369 2687 2733 
Q 2419 3097 1959 3097 
z
M 1959 3584 
Q 2709 3584 3137 3096 
Q 3566 2609 3566 1747 
Q 3566 888 3137 398 
Q 2709 -91 1959 -91 
Q 1206 -91 779 398 
Q 353 888 353 1747 
Q 353 2609 779 3096 
Q 1206 3584 1959 3584 
z
" transform="scale(0.015625)"/>
       <path id="DejaVuSans-62" d="M 3116 1747 
Q 3116 2381 2855 2742 
Q 2594 3103 2138 3103 
Q 1681 3103 1420 2742 
Q 1159 2381 1159 1747 
Q 1159 1113 1420 752 
Q 1681 391 2138 391 
Q 2594 391 2855 752 
Q 3116 1113 3116 1747 
z
M 1159 2969 
Q 1341 3281 1617 3432 
Q 1894 3584 2278 3584 
Q 2916 3584 3314 3078 
Q 3713 2572 3713 1747 
Q 3713 922 3314 415 
Q 2916 -91 2278 -91 
Q 1894 -91 1617 61 
Q 1341 213 1159 525 
L 1159 0 
L 581 0 
L 581 4863 
L 1159 4863 
L 1159 2969 
z
" transform="scale(0.015625)"/>
       <path id="DejaVuSans-6c" d="M 603 4863 
L 1178 4863 
L 1178 0 
L 603 0 
L 603 4863 
z
" transform="scale(0.015625)"/>
       <path id="DejaVuSans-79" d="M 2059 -325 
Q 1816 -950 1584 -1140 
Q 1353 -1331 966 -1331 
L 506 -1331 
L 506 -850 
L 844 -850 
Q 1081 -850 1212 -737 
Q 1344 -625 1503 -206 
L 1606 56 
L 191 3500 
L 800 3500 
L 1894 763 
L 2988 3500 
L 3597 3500 
L 2059 -325 
z
" transform="scale(0.015625)"/>
       <path id="DejaVuSans-66" d="M 2375 4863 
L 2375 4384 
L 1825 4384 
Q 1516 4384 1395 4259 
Q 1275 4134 1275 3809 
L 1275 3500 
L 2222 3500 
L 2222 3053 
L 1275 3053 
L 1275 0 
L 697 0 
L 697 3053 
L 147 3053 
L 147 3500 
L 697 3500 
L 697 3744 
Q 697 4328 969 4595 
Q 1241 4863 1831 4863 
L 2375 4863 
z
" transform="scale(0.015625)"/>
       <path id="DejaVuSans-4e" d="M 628 4666 
L 1478 4666 
L 3547 763 
L 3547 4666 
L 4159 4666 
L 4159 0 
L 3309 0 
L 1241 3903 
L 1241 0 
L 628 0 
L 628 4666 
z
" transform="scale(0.015625)"/>
       <path id="DejaVuSans-45" d="M 628 4666 
L 3578 4666 
L 3578 4134 
L 1259 4134 
L 1259 2753 
L 3481 2753 
L 3481 2222 
L 1259 2222 
L 1259 531 
L 3634 531 
L 3634 0 
L 628 0 
L 628 4666 
z
" transform="scale(0.015625)"/>
       <path id="DejaVuSans-76" d="M 191 3500 
L 800 3500 
L 1894 563 
L 2988 3500 
L 3597 3500 
L 2284 0 
L 1503 0 
L 191 3500 
z
" transform="scale(0.015625)"/>
      </defs>
      <use xlink:href="#DejaVuSans-50"/>
      <use xlink:href="#DejaVuSans-72" x="58.552734"/>
      <use xlink:href="#DejaVuSans-6f" x="97.416016"/>
      <use xlink:href="#DejaVuSans-62" x="158.597656"/>
      <use xlink:href="#DejaVuSans-61" x="222.074219"/>
      <use xlink:href="#DejaVuSans-62" x="283.353516"/>
      <use xlink:href="#DejaVuSans-69" x="346.830078"/>
      <use xlink:href="#DejaVuSans-6c" x="374.613281"/>
      <use xlink:href="#DejaVuSans-69" x="402.396484"/>
      <use xlink:href="#DejaVuSans-74" x="430.179688"/>
      <use xlink:href="#DejaVuSans-79" x="469.388672"/>
      <use xlink:href="#DejaVuSans-20" x="528.568359"/>
      <use xlink:href="#DejaVuSans-6f" x="560.355469"/>
      <use xlink:href="#DejaVuSans-66" x="621.537109"/>
      <use xlink:href="#DejaVuSans-20" x="656.742188"/>
      <use xlink:href="#DejaVuSans-4e" x="688.529297"/>
      <use xlink:href="#DejaVuSans-6f" x="763.333984"/>
      <use xlink:href="#DejaVuSans-20" x="824.515625"/>
      <use xlink:href="#DejaVuSans-45" x="856.302734"/>
      <use xlink:href="#DejaVuSans-76" x="919.486328"/>
      <use xlink:href="#DejaVuSans-65" x="978.666016"/>
      <use xlink:href="#DejaVuSans-6e" x="1040.189453"/>
      <use xlink:href="#DejaVuSans-74" x="1103.568359"/>
     </g>
    </g>
   </g>
   <g id="line2d_14">
    <defs>
     <path id="mb0c57d6fdc" d="M -4 0 
L 4 0 
M 0 4 
L 0 -4 
" style="stroke: #1f77b4; stroke-width: 0.5"/>
    </defs>
    <g clip-path="url(#p2aaf607989)">
     <use xlink:href="#mb0c57d6fdc" x="75.473718" y="61.622625" style="fill: #1f77b4; stroke: #1f77b4; stroke-width: 0.5"/>
     <use xlink:href="#mb0c57d6fdc" x="80.158487" y="61.622625" style="fill: #1f77b4; stroke: #1f77b4; stroke-width: 0.5"/>
     <use xlink:href="#mb0c57d6fdc" x="82.500872" y="61.622625" style="fill: #1f77b4; stroke: #1f77b4; stroke-width: 0.5"/>
     <use xlink:href="#mb0c57d6fdc" x="82.969349" y="61.622625" style="fill: #1f77b4; stroke: #1f77b4; stroke-width: 0.5"/>
     <use xlink:href="#mb0c57d6fdc" x="84.843257" y="61.622625" style="fill: #1f77b4; stroke: #1f77b4; stroke-width: 0.5"/>
     <use xlink:href="#mb0c57d6fdc" x="91.870412" y="61.622625" style="fill: #1f77b4; stroke: #1f77b4; stroke-width: 0.5"/>
     <use xlink:href="#mb0c57d6fdc" x="96.086705" y="61.622625" style="fill: #1f77b4; stroke: #1f77b4; stroke-width: 0.5"/>
     <use xlink:href="#mb0c57d6fdc" x="99.366043" y="61.622625" style="fill: #1f77b4; stroke: #1f77b4; stroke-width: 0.5"/>
     <use xlink:href="#mb0c57d6fdc" x="111.077968" y="61.622625" style="fill: #1f77b4; stroke: #1f77b4; stroke-width: 0.5"/>
     <use xlink:href="#mb0c57d6fdc" x="115.294261" y="61.622625" style="fill: #1f77b4; stroke: #1f77b4; stroke-width: 0.5"/>
     <use xlink:href="#mb0c57d6fdc" x="120.915984" y="61.622625" style="fill: #1f77b4; stroke: #1f77b4; stroke-width: 0.5"/>
     <use xlink:href="#mb0c57d6fdc" x="121.384461" y="61.622625" style="fill: #1f77b4; stroke: #1f77b4; stroke-width: 0.5"/>
     <use xlink:href="#mb0c57d6fdc" x="124.195323" y="61.622625" style="fill: #1f77b4; stroke: #1f77b4; stroke-width: 0.5"/>
     <use xlink:href="#mb0c57d6fdc" x="125.132277" y="61.622625" style="fill: #1f77b4; stroke: #1f77b4; stroke-width: 0.5"/>
     <use xlink:href="#mb0c57d6fdc" x="126.069231" y="61.622625" style="fill: #1f77b4; stroke: #1f77b4; stroke-width: 0.5"/>
     <use xlink:href="#mb0c57d6fdc" x="127.006185" y="62.555937" style="fill: #1f77b4; stroke: #1f77b4; stroke-width: 0.5"/>
     <use xlink:href="#mb0c57d6fdc" x="128.411616" y="62.555937" style="fill: #1f77b4; stroke: #1f77b4; stroke-width: 0.5"/>
     <use xlink:href="#mb0c57d6fdc" x="132.159432" y="62.555937" style="fill: #1f77b4; stroke: #1f77b4; stroke-width: 0.5"/>
     <use xlink:href="#mb0c57d6fdc" x="133.096386" y="62.555937" style="fill: #1f77b4; stroke: #1f77b4; stroke-width: 0.5"/>
     <use xlink:href="#mb0c57d6fdc" x="135.907248" y="62.555937" style="fill: #1f77b4; stroke: #1f77b4; stroke-width: 0.5"/>
     <use xlink:href="#mb0c57d6fdc" x="138.71811" y="64.459161" style="fill: #1f77b4; stroke: #1f77b4; stroke-width: 0.5"/>
     <use xlink:href="#mb0c57d6fdc" x="139.186586" y="64.459161" style="fill: #1f77b4; stroke: #1f77b4; stroke-width: 0.5"/>
     <use xlink:href="#mb0c57d6fdc" x="141.997448" y="65.417076" style="fill: #1f77b4; stroke: #1f77b4; stroke-width: 0.5"/>
     <use xlink:href="#mb0c57d6fdc" x="143.402879" y="65.417076" style="fill: #1f77b4; stroke: #1f77b4; stroke-width: 0.5"/>
     <use xlink:href="#mb0c57d6fdc" x="143.871356" y="65.417076" style="fill: #1f77b4; stroke: #1f77b4; stroke-width: 0.5"/>
     <use xlink:href="#mb0c57d6fdc" x="144.339833" y="66.384633" style="fill: #1f77b4; stroke: #1f77b4; stroke-width: 0.5"/>
     <use xlink:href="#mb0c57d6fdc" x="144.80831" y="66.384633" style="fill: #1f77b4; stroke: #1f77b4; stroke-width: 0.5"/>
     <use xlink:href="#mb0c57d6fdc" x="145.276787" y="67.362064" style="fill: #1f77b4; stroke: #1f77b4; stroke-width: 0.5"/>
     <use xlink:href="#mb0c57d6fdc" x="146.213741" y="67.362064" style="fill: #1f77b4; stroke: #1f77b4; stroke-width: 0.5"/>
     <use xlink:href="#mb0c57d6fdc" x="147.150695" y="67.362064" style="fill: #1f77b4; stroke: #1f77b4; stroke-width: 0.5"/>
     <use xlink:href="#mb0c57d6fdc" x="147.619172" y="67.362064" style="fill: #1f77b4; stroke: #1f77b4; stroke-width: 0.5"/>
     <use xlink:href="#mb0c57d6fdc" x="148.087649" y="67.362064" style="fill: #1f77b4; stroke: #1f77b4; stroke-width: 0.5"/>
     <use xlink:href="#mb0c57d6fdc" x="148.556126" y="67.362064" style="fill: #1f77b4; stroke: #1f77b4; stroke-width: 0.5"/>
     <use xlink:href="#mb0c57d6fdc" x="151.366988" y="67.362064" style="fill: #1f77b4; stroke: #1f77b4; stroke-width: 0.5"/>
     <use xlink:href="#mb0c57d6fdc" x="151.835465" y="67.362064" style="fill: #1f77b4; stroke: #1f77b4; stroke-width: 0.5"/>
     <use xlink:href="#mb0c57d6fdc" x="154.17785" y="67.362064" style="fill: #1f77b4; stroke: #1f77b4; stroke-width: 0.5"/>
     <use xlink:href="#mb0c57d6fdc" x="161.673481" y="68.374033" style="fill: #1f77b4; stroke: #1f77b4; stroke-width: 0.5"/>
     <use xlink:href="#mb0c57d6fdc" x="165.889774" y="69.389603" style="fill: #1f77b4; stroke: #1f77b4; stroke-width: 0.5"/>
     <use xlink:href="#mb0c57d6fdc" x="181.349514" y="70.408813" style="fill: #1f77b4; stroke: #1f77b4; stroke-width: 0.5"/>
     <use xlink:href="#mb0c57d6fdc" x="187.908192" y="71.431703" style="fill: #1f77b4; stroke: #1f77b4; stroke-width: 0.5"/>
     <use xlink:href="#mb0c57d6fdc" x="202.430978" y="72.458312" style="fill: #1f77b4; stroke: #1f77b4; stroke-width: 0.5"/>
     <use xlink:href="#mb0c57d6fdc" x="209.458133" y="72.458312" style="fill: #1f77b4; stroke: #1f77b4; stroke-width: 0.5"/>
     <use xlink:href="#mb0c57d6fdc" x="222.107012" y="72.458312" style="fill: #1f77b4; stroke: #1f77b4; stroke-width: 0.5"/>
     <use xlink:href="#mb0c57d6fdc" x="223.980919" y="73.496286" style="fill: #1f77b4; stroke: #1f77b4; stroke-width: 0.5"/>
     <use xlink:href="#mb0c57d6fdc" x="225.38635" y="73.496286" style="fill: #1f77b4; stroke: #1f77b4; stroke-width: 0.5"/>
     <use xlink:href="#mb0c57d6fdc" x="226.791781" y="73.496286" style="fill: #1f77b4; stroke: #1f77b4; stroke-width: 0.5"/>
     <use xlink:href="#mb0c57d6fdc" x="227.728735" y="73.496286" style="fill: #1f77b4; stroke: #1f77b4; stroke-width: 0.5"/>
     <use xlink:href="#mb0c57d6fdc" x="228.197212" y="73.496286" style="fill: #1f77b4; stroke: #1f77b4; stroke-width: 0.5"/>
     <use xlink:href="#mb0c57d6fdc" x="230.07112" y="73.496286" style="fill: #1f77b4; stroke: #1f77b4; stroke-width: 0.5"/>
     <use xlink:href="#mb0c57d6fdc" x="230.539597" y="73.496286" style="fill: #1f77b4; stroke: #1f77b4; stroke-width: 0.5"/>
     <use xlink:href="#mb0c57d6fdc" x="231.008074" y="73.496286" style="fill: #1f77b4; stroke: #1f77b4; stroke-width: 0.5"/>
     <use xlink:href="#mb0c57d6fdc" x="231.945028" y="73.496286" style="fill: #1f77b4; stroke: #1f77b4; stroke-width: 0.5"/>
     <use xlink:href="#mb0c57d6fdc" x="232.413505" y="73.496286" style="fill: #1f77b4; stroke: #1f77b4; stroke-width: 0.5"/>
     <use xlink:href="#mb0c57d6fdc" x="233.818936" y="73.496286" style="fill: #1f77b4; stroke: #1f77b4; stroke-width: 0.5"/>
     <use xlink:href="#mb0c57d6fdc" x="239.909137" y="73.496286" style="fill: #1f77b4; stroke: #1f77b4; stroke-width: 0.5"/>
     <use xlink:href="#mb0c57d6fdc" x="242.251522" y="74.595318" style="fill: #1f77b4; stroke: #1f77b4; stroke-width: 0.5"/>
     <use xlink:href="#mb0c57d6fdc" x="243.188476" y="74.595318" style="fill: #1f77b4; stroke: #1f77b4; stroke-width: 0.5"/>
     <use xlink:href="#mb0c57d6fdc" x="246.936291" y="74.595318" style="fill: #1f77b4; stroke: #1f77b4; stroke-width: 0.5"/>
     <use xlink:href="#mb0c57d6fdc" x="254.431923" y="75.707485" style="fill: #1f77b4; stroke: #1f77b4; stroke-width: 0.5"/>
     <use xlink:href="#mb0c57d6fdc" x="255.368877" y="75.707485" style="fill: #1f77b4; stroke: #1f77b4; stroke-width: 0.5"/>
     <use xlink:href="#mb0c57d6fdc" x="259.58517" y="75.707485" style="fill: #1f77b4; stroke: #1f77b4; stroke-width: 0.5"/>
     <use xlink:href="#mb0c57d6fdc" x="260.990601" y="75.707485" style="fill: #1f77b4; stroke: #1f77b4; stroke-width: 0.5"/>
     <use xlink:href="#mb0c57d6fdc" x="266.612324" y="75.707485" style="fill: #1f77b4; stroke: #1f77b4; stroke-width: 0.5"/>
     <use xlink:href="#mb0c57d6fdc" x="270.36014" y="76.842349" style="fill: #1f77b4; stroke: #1f77b4; stroke-width: 0.5"/>
     <use xlink:href="#mb0c57d6fdc" x="270.828617" y="76.842349" style="fill: #1f77b4; stroke: #1f77b4; stroke-width: 0.5"/>
     <use xlink:href="#mb0c57d6fdc" x="271.765571" y="76.842349" style="fill: #1f77b4; stroke: #1f77b4; stroke-width: 0.5"/>
     <use xlink:href="#mb0c57d6fdc" x="272.702525" y="76.842349" style="fill: #1f77b4; stroke: #1f77b4; stroke-width: 0.5"/>
     <use xlink:href="#mb0c57d6fdc" x="273.171002" y="76.842349" style="fill: #1f77b4; stroke: #1f77b4; stroke-width: 0.5"/>
     <use xlink:href="#mb0c57d6fdc" x="273.639479" y="76.842349" style="fill: #1f77b4; stroke: #1f77b4; stroke-width: 0.5"/>
     <use xlink:href="#mb0c57d6fdc" x="276.450341" y="78.020677" style="fill: #1f77b4; stroke: #1f77b4; stroke-width: 0.5"/>
     <use xlink:href="#mb0c57d6fdc" x="276.918818" y="78.020677" style="fill: #1f77b4; stroke: #1f77b4; stroke-width: 0.5"/>
     <use xlink:href="#mb0c57d6fdc" x="277.387295" y="78.020677" style="fill: #1f77b4; stroke: #1f77b4; stroke-width: 0.5"/>
     <use xlink:href="#mb0c57d6fdc" x="278.792726" y="78.020677" style="fill: #1f77b4; stroke: #1f77b4; stroke-width: 0.5"/>
     <use xlink:href="#mb0c57d6fdc" x="279.261203" y="78.020677" style="fill: #1f77b4; stroke: #1f77b4; stroke-width: 0.5"/>
     <use xlink:href="#mb0c57d6fdc" x="280.666634" y="79.230013" style="fill: #1f77b4; stroke: #1f77b4; stroke-width: 0.5"/>
     <use xlink:href="#mb0c57d6fdc" x="285.351403" y="80.4447" style="fill: #1f77b4; stroke: #1f77b4; stroke-width: 0.5"/>
     <use xlink:href="#mb0c57d6fdc" x="290.036173" y="80.4447" style="fill: #1f77b4; stroke: #1f77b4; stroke-width: 0.5"/>
     <use xlink:href="#mb0c57d6fdc" x="291.441604" y="80.4447" style="fill: #1f77b4; stroke: #1f77b4; stroke-width: 0.5"/>
     <use xlink:href="#mb0c57d6fdc" x="292.378558" y="81.675801" style="fill: #1f77b4; stroke: #1f77b4; stroke-width: 0.5"/>
     <use xlink:href="#mb0c57d6fdc" x="293.315512" y="81.675801" style="fill: #1f77b4; stroke: #1f77b4; stroke-width: 0.5"/>
     <use xlink:href="#mb0c57d6fdc" x="296.126374" y="82.929596" style="fill: #1f77b4; stroke: #1f77b4; stroke-width: 0.5"/>
     <use xlink:href="#mb0c57d6fdc" x="297.063328" y="82.929596" style="fill: #1f77b4; stroke: #1f77b4; stroke-width: 0.5"/>
     <use xlink:href="#mb0c57d6fdc" x="297.531805" y="82.929596" style="fill: #1f77b4; stroke: #1f77b4; stroke-width: 0.5"/>
     <use xlink:href="#mb0c57d6fdc" x="298.000282" y="82.929596" style="fill: #1f77b4; stroke: #1f77b4; stroke-width: 0.5"/>
     <use xlink:href="#mb0c57d6fdc" x="299.405713" y="82.929596" style="fill: #1f77b4; stroke: #1f77b4; stroke-width: 0.5"/>
     <use xlink:href="#mb0c57d6fdc" x="301.279621" y="82.929596" style="fill: #1f77b4; stroke: #1f77b4; stroke-width: 0.5"/>
     <use xlink:href="#mb0c57d6fdc" x="301.748098" y="82.929596" style="fill: #1f77b4; stroke: #1f77b4; stroke-width: 0.5"/>
     <use xlink:href="#mb0c57d6fdc" x="302.685052" y="82.929596" style="fill: #1f77b4; stroke: #1f77b4; stroke-width: 0.5"/>
     <use xlink:href="#mb0c57d6fdc" x="303.622006" y="82.929596" style="fill: #1f77b4; stroke: #1f77b4; stroke-width: 0.5"/>
     <use xlink:href="#mb0c57d6fdc" x="304.55896" y="82.929596" style="fill: #1f77b4; stroke: #1f77b4; stroke-width: 0.5"/>
     <use xlink:href="#mb0c57d6fdc" x="305.027437" y="82.929596" style="fill: #1f77b4; stroke: #1f77b4; stroke-width: 0.5"/>
     <use xlink:href="#mb0c57d6fdc" x="305.495914" y="82.929596" style="fill: #1f77b4; stroke: #1f77b4; stroke-width: 0.5"/>
     <use xlink:href="#mb0c57d6fdc" x="305.96439" y="82.929596" style="fill: #1f77b4; stroke: #1f77b4; stroke-width: 0.5"/>
     <use xlink:href="#mb0c57d6fdc" x="306.432867" y="82.929596" style="fill: #1f77b4; stroke: #1f77b4; stroke-width: 0.5"/>
     <use xlink:href="#mb0c57d6fdc" x="306.901344" y="82.929596" style="fill: #1f77b4; stroke: #1f77b4; stroke-width: 0.5"/>
     <use xlink:href="#mb0c57d6fdc" x="307.369821" y="82.929596" style="fill: #1f77b4; stroke: #1f77b4; stroke-width: 0.5"/>
     <use xlink:href="#mb0c57d6fdc" x="307.838298" y="82.929596" style="fill: #1f77b4; stroke: #1f77b4; stroke-width: 0.5"/>
     <use xlink:href="#mb0c57d6fdc" x="308.306775" y="82.929596" style="fill: #1f77b4; stroke: #1f77b4; stroke-width: 0.5"/>
     <use xlink:href="#mb0c57d6fdc" x="308.775252" y="82.929596" style="fill: #1f77b4; stroke: #1f77b4; stroke-width: 0.5"/>
     <use xlink:href="#mb0c57d6fdc" x="309.243729" y="82.929596" style="fill: #1f77b4; stroke: #1f77b4; stroke-width: 0.5"/>
     <use xlink:href="#mb0c57d6fdc" x="309.712206" y="82.929596" style="fill: #1f77b4; stroke: #1f77b4; stroke-width: 0.5"/>
     <use xlink:href="#mb0c57d6fdc" x="310.180683" y="82.929596" style="fill: #1f77b4; stroke: #1f77b4; stroke-width: 0.5"/>
     <use xlink:href="#mb0c57d6fdc" x="310.64916" y="82.929596" style="fill: #1f77b4; stroke: #1f77b4; stroke-width: 0.5"/>
     <use xlink:href="#mb0c57d6fdc" x="311.117637" y="82.929596" style="fill: #1f77b4; stroke: #1f77b4; stroke-width: 0.5"/>
     <use xlink:href="#mb0c57d6fdc" x="311.586114" y="84.570927" style="fill: #1f77b4; stroke: #1f77b4; stroke-width: 0.5"/>
     <use xlink:href="#mb0c57d6fdc" x="312.054591" y="84.570927" style="fill: #1f77b4; stroke: #1f77b4; stroke-width: 0.5"/>
     <use xlink:href="#mb0c57d6fdc" x="312.523068" y="86.232522" style="fill: #1f77b4; stroke: #1f77b4; stroke-width: 0.5"/>
     <use xlink:href="#mb0c57d6fdc" x="312.991545" y="86.232522" style="fill: #1f77b4; stroke: #1f77b4; stroke-width: 0.5"/>
     <use xlink:href="#mb0c57d6fdc" x="313.460022" y="86.232522" style="fill: #1f77b4; stroke: #1f77b4; stroke-width: 0.5"/>
     <use xlink:href="#mb0c57d6fdc" x="313.928499" y="86.232522" style="fill: #1f77b4; stroke: #1f77b4; stroke-width: 0.5"/>
     <use xlink:href="#mb0c57d6fdc" x="314.865453" y="88.040068" style="fill: #1f77b4; stroke: #1f77b4; stroke-width: 0.5"/>
     <use xlink:href="#mb0c57d6fdc" x="315.33393" y="89.872545" style="fill: #1f77b4; stroke: #1f77b4; stroke-width: 0.5"/>
     <use xlink:href="#mb0c57d6fdc" x="315.802407" y="91.770938" style="fill: #1f77b4; stroke: #1f77b4; stroke-width: 0.5"/>
     <use xlink:href="#mb0c57d6fdc" x="316.270884" y="91.770938" style="fill: #1f77b4; stroke: #1f77b4; stroke-width: 0.5"/>
     <use xlink:href="#mb0c57d6fdc" x="316.739361" y="91.770938" style="fill: #1f77b4; stroke: #1f77b4; stroke-width: 0.5"/>
     <use xlink:href="#mb0c57d6fdc" x="317.207838" y="91.770938" style="fill: #1f77b4; stroke: #1f77b4; stroke-width: 0.5"/>
     <use xlink:href="#mb0c57d6fdc" x="317.676315" y="91.770938" style="fill: #1f77b4; stroke: #1f77b4; stroke-width: 0.5"/>
     <use xlink:href="#mb0c57d6fdc" x="318.144792" y="91.770938" style="fill: #1f77b4; stroke: #1f77b4; stroke-width: 0.5"/>
     <use xlink:href="#mb0c57d6fdc" x="318.613269" y="91.770938" style="fill: #1f77b4; stroke: #1f77b4; stroke-width: 0.5"/>
     <use xlink:href="#mb0c57d6fdc" x="319.081746" y="91.770938" style="fill: #1f77b4; stroke: #1f77b4; stroke-width: 0.5"/>
     <use xlink:href="#mb0c57d6fdc" x="319.550223" y="94.417184" style="fill: #1f77b4; stroke: #1f77b4; stroke-width: 0.5"/>
     <use xlink:href="#mb0c57d6fdc" x="320.0187" y="94.417184" style="fill: #1f77b4; stroke: #1f77b4; stroke-width: 0.5"/>
     <use xlink:href="#mb0c57d6fdc" x="320.487177" y="94.417184" style="fill: #1f77b4; stroke: #1f77b4; stroke-width: 0.5"/>
     <use xlink:href="#mb0c57d6fdc" x="320.955654" y="94.417184" style="fill: #1f77b4; stroke: #1f77b4; stroke-width: 0.5"/>
     <use xlink:href="#mb0c57d6fdc" x="321.424131" y="94.417184" style="fill: #1f77b4; stroke: #1f77b4; stroke-width: 0.5"/>
     <use xlink:href="#mb0c57d6fdc" x="321.892608" y="94.417184" style="fill: #1f77b4; stroke: #1f77b4; stroke-width: 0.5"/>
     <use xlink:href="#mb0c57d6fdc" x="322.361085" y="94.417184" style="fill: #1f77b4; stroke: #1f77b4; stroke-width: 0.5"/>
     <use xlink:href="#mb0c57d6fdc" x="322.829562" y="94.417184" style="fill: #1f77b4; stroke: #1f77b4; stroke-width: 0.5"/>
     <use xlink:href="#mb0c57d6fdc" x="323.766516" y="94.417184" style="fill: #1f77b4; stroke: #1f77b4; stroke-width: 0.5"/>
     <use xlink:href="#mb0c57d6fdc" x="324.234993" y="94.417184" style="fill: #1f77b4; stroke: #1f77b4; stroke-width: 0.5"/>
     <use xlink:href="#mb0c57d6fdc" x="324.70347" y="94.417184" style="fill: #1f77b4; stroke: #1f77b4; stroke-width: 0.5"/>
     <use xlink:href="#mb0c57d6fdc" x="325.171947" y="94.417184" style="fill: #1f77b4; stroke: #1f77b4; stroke-width: 0.5"/>
     <use xlink:href="#mb0c57d6fdc" x="326.108901" y="94.417184" style="fill: #1f77b4; stroke: #1f77b4; stroke-width: 0.5"/>
     <use xlink:href="#mb0c57d6fdc" x="326.577378" y="94.417184" style="fill: #1f77b4; stroke: #1f77b4; stroke-width: 0.5"/>
     <use xlink:href="#mb0c57d6fdc" x="327.045854" y="94.417184" style="fill: #1f77b4; stroke: #1f77b4; stroke-width: 0.5"/>
     <use xlink:href="#mb0c57d6fdc" x="327.514331" y="94.417184" style="fill: #1f77b4; stroke: #1f77b4; stroke-width: 0.5"/>
     <use xlink:href="#mb0c57d6fdc" x="327.982808" y="94.417184" style="fill: #1f77b4; stroke: #1f77b4; stroke-width: 0.5"/>
     <use xlink:href="#mb0c57d6fdc" x="328.919762" y="94.417184" style="fill: #1f77b4; stroke: #1f77b4; stroke-width: 0.5"/>
     <use xlink:href="#mb0c57d6fdc" x="329.388239" y="94.417184" style="fill: #1f77b4; stroke: #1f77b4; stroke-width: 0.5"/>
     <use xlink:href="#mb0c57d6fdc" x="329.856716" y="94.417184" style="fill: #1f77b4; stroke: #1f77b4; stroke-width: 0.5"/>
     <use xlink:href="#mb0c57d6fdc" x="330.325193" y="94.417184" style="fill: #1f77b4; stroke: #1f77b4; stroke-width: 0.5"/>
     <use xlink:href="#mb0c57d6fdc" x="330.79367" y="94.417184" style="fill: #1f77b4; stroke: #1f77b4; stroke-width: 0.5"/>
     <use xlink:href="#mb0c57d6fdc" x="331.730624" y="94.417184" style="fill: #1f77b4; stroke: #1f77b4; stroke-width: 0.5"/>
     <use xlink:href="#mb0c57d6fdc" x="332.199101" y="94.417184" style="fill: #1f77b4; stroke: #1f77b4; stroke-width: 0.5"/>
     <use xlink:href="#mb0c57d6fdc" x="332.667578" y="94.417184" style="fill: #1f77b4; stroke: #1f77b4; stroke-width: 0.5"/>
     <use xlink:href="#mb0c57d6fdc" x="333.604532" y="94.417184" style="fill: #1f77b4; stroke: #1f77b4; stroke-width: 0.5"/>
     <use xlink:href="#mb0c57d6fdc" x="334.073009" y="94.417184" style="fill: #1f77b4; stroke: #1f77b4; stroke-width: 0.5"/>
     <use xlink:href="#mb0c57d6fdc" x="334.541486" y="94.417184" style="fill: #1f77b4; stroke: #1f77b4; stroke-width: 0.5"/>
     <use xlink:href="#mb0c57d6fdc" x="335.009963" y="94.417184" style="fill: #1f77b4; stroke: #1f77b4; stroke-width: 0.5"/>
     <use xlink:href="#mb0c57d6fdc" x="335.47844" y="94.417184" style="fill: #1f77b4; stroke: #1f77b4; stroke-width: 0.5"/>
     <use xlink:href="#mb0c57d6fdc" x="336.415394" y="94.417184" style="fill: #1f77b4; stroke: #1f77b4; stroke-width: 0.5"/>
     <use xlink:href="#mb0c57d6fdc" x="338.757779" y="104.391495" style="fill: #1f77b4; stroke: #1f77b4; stroke-width: 0.5"/>
     <use xlink:href="#mb0c57d6fdc" x="339.226256" y="104.391495" style="fill: #1f77b4; stroke: #1f77b4; stroke-width: 0.5"/>
     <use xlink:href="#mb0c57d6fdc" x="339.694733" y="104.391495" style="fill: #1f77b4; stroke: #1f77b4; stroke-width: 0.5"/>
     <use xlink:href="#mb0c57d6fdc" x="340.16321" y="104.391495" style="fill: #1f77b4; stroke: #1f77b4; stroke-width: 0.5"/>
     <use xlink:href="#mb0c57d6fdc" x="340.631687" y="104.391495" style="fill: #1f77b4; stroke: #1f77b4; stroke-width: 0.5"/>
     <use xlink:href="#mb0c57d6fdc" x="341.100164" y="104.391495" style="fill: #1f77b4; stroke: #1f77b4; stroke-width: 0.5"/>
     <use xlink:href="#mb0c57d6fdc" x="342.037118" y="133.727704" style="fill: #1f77b4; stroke: #1f77b4; stroke-width: 0.5"/>
     <use xlink:href="#mb0c57d6fdc" x="342.505595" y="133.727704" style="fill: #1f77b4; stroke: #1f77b4; stroke-width: 0.5"/>
     <use xlink:href="#mb0c57d6fdc" x="343.442549" y="133.727704" style="fill: #1f77b4; stroke: #1f77b4; stroke-width: 0.5"/>
     <use xlink:href="#mb0c57d6fdc" x="343.911026" y="133.727704" style="fill: #1f77b4; stroke: #1f77b4; stroke-width: 0.5"/>
     <use xlink:href="#mb0c57d6fdc" x="344.84798" y="133.727704" style="fill: #1f77b4; stroke: #1f77b4; stroke-width: 0.5"/>
     <use xlink:href="#mb0c57d6fdc" x="345.316457" y="133.727704" style="fill: #1f77b4; stroke: #1f77b4; stroke-width: 0.5"/>
     <use xlink:href="#mb0c57d6fdc" x="346.721888" y="133.727704" style="fill: #1f77b4; stroke: #1f77b4; stroke-width: 0.5"/>
     <use xlink:href="#mb0c57d6fdc" x="352.343611" y="133.727704" style="fill: #1f77b4; stroke: #1f77b4; stroke-width: 0.5"/>
     <use xlink:href="#mb0c57d6fdc" x="354.217519" y="133.727704" style="fill: #1f77b4; stroke: #1f77b4; stroke-width: 0.5"/>
     <use xlink:href="#mb0c57d6fdc" x="355.154473" y="177.732016" style="fill: #1f77b4; stroke: #1f77b4; stroke-width: 0.5"/>
     <use xlink:href="#mb0c57d6fdc" x="357.496858" y="177.732016" style="fill: #1f77b4; stroke: #1f77b4; stroke-width: 0.5"/>
     <use xlink:href="#mb0c57d6fdc" x="372.488121" y="177.732016" style="fill: #1f77b4; stroke: #1f77b4; stroke-width: 0.5"/>
     <use xlink:href="#mb0c57d6fdc" x="384.668523" y="177.732016" style="fill: #1f77b4; stroke: #1f77b4; stroke-width: 0.5"/>
    </g>
   </g>
   <g id="line2d_15">
    <path d="M 60.013977 61.622625 
L 126.537708 61.622625 
L 126.537708 62.555937 
L 137.312679 62.555937 
L 137.312679 63.507549 
L 137.781156 63.507549 
L 137.781156 64.459161 
L 141.528971 64.459161 
L 141.528971 65.417076 
L 144.339833 65.417076 
L 144.339833 66.384633 
L 145.276787 66.384633 
L 145.276787 67.362064 
L 156.988712 67.362064 
L 156.988712 68.374033 
L 163.547389 68.374033 
L 163.547389 69.389603 
L 166.358251 69.389603 
L 166.358251 70.408813 
L 184.160376 70.408813 
L 184.160376 71.431703 
L 194.935347 71.431703 
L 194.935347 72.458312 
L 223.512442 72.458312 
L 223.512442 73.496286 
L 242.251522 73.496286 
L 242.251522 74.595318 
L 250.21563 74.595318 
L 250.21563 75.707485 
L 270.36014 75.707485 
L 270.36014 76.842349 
L 275.04491 76.842349 
L 275.04491 78.020677 
L 280.666634 78.020677 
L 280.666634 79.230013 
L 285.351403 79.230013 
L 285.351403 80.4447 
L 291.910081 80.4447 
L 291.910081 81.675801 
L 294.252466 81.675801 
L 294.252466 82.929596 
L 311.586114 82.929596 
L 311.586114 84.570927 
L 312.523068 84.570927 
L 312.523068 86.232522 
L 314.396976 86.232522 
L 314.396976 88.040068 
L 315.33393 88.040068 
L 315.33393 89.872545 
L 315.802407 89.872545 
L 315.802407 91.770938 
L 319.550223 91.770938 
L 319.550223 94.417184 
L 337.352348 94.417184 
L 337.352348 104.391495 
L 342.037118 104.391495 
L 342.037118 133.727704 
L 354.685996 133.727704 
L 354.685996 177.732016 
L 384.668523 177.732016 
L 384.668523 177.732016 
" clip-path="url(#p2aaf607989)" style="fill: none; stroke: #1f77b4; stroke-width: 1.5; stroke-linecap: square"/>
   </g>
   <g id="line2d_16">
    <defs>
     <path id="m0b71cfeb8f" d="M -4 0 
L 4 0 
M 0 4 
L 0 -4 
" style="stroke: #ff7f0e; stroke-width: 0.5"/>
    </defs>
    <g clip-path="url(#p2aaf607989)">
     <use xlink:href="#m0b71cfeb8f" x="99.366043" y="61.622625" style="fill: #ff7f0e; stroke: #ff7f0e; stroke-width: 0.5"/>
     <use xlink:href="#m0b71cfeb8f" x="307.838298" y="186.819757" style="fill: #ff7f0e; stroke: #ff7f0e; stroke-width: 0.5"/>
     <use xlink:href="#m0b71cfeb8f" x="310.180683" y="186.819757" style="fill: #ff7f0e; stroke: #ff7f0e; stroke-width: 0.5"/>
     <use xlink:href="#m0b71cfeb8f" x="322.829562" y="186.819757" style="fill: #ff7f0e; stroke: #ff7f0e; stroke-width: 0.5"/>
     <use xlink:href="#m0b71cfeb8f" x="337.820825" y="186.819757" style="fill: #ff7f0e; stroke: #ff7f0e; stroke-width: 0.5"/>
    </g>
   </g>
   <g id="line2d_17">
    <path d="M 60.013977 61.622625 
L 99.366043 61.622625 
L 99.366043 61.622625 
L 175.727791 61.622625 
L 175.727791 103.355002 
L 223.980919 103.355002 
L 223.980919 145.08738 
L 270.36014 145.08738 
L 270.36014 186.819757 
L 307.838298 186.819757 
L 307.838298 186.819757 
L 310.180683 186.819757 
L 310.180683 186.819757 
L 322.829562 186.819757 
L 322.829562 186.819757 
L 337.820825 186.819757 
L 337.820825 186.819757 
" clip-path="url(#p2aaf607989)" style="fill: none; stroke: #ff7f0e; stroke-width: 1.5; stroke-linecap: square"/>
   </g>
   <g id="line2d_18">
    <defs>
     <path id="m9c004b42d9" d="M -4 0 
L 4 0 
M 0 4 
L 0 -4 
" style="stroke: #2ca02c; stroke-width: 0.5"/>
    </defs>
    <g clip-path="url(#p2aaf607989)">
     <use xlink:href="#m9c004b42d9" x="95.618228" y="61.622625" style="fill: #2ca02c; stroke: #2ca02c; stroke-width: 0.5"/>
    </g>
   </g>
   <g id="line2d_19">
    <path d="M 60.013977 61.622625 
L 95.618228 61.622625 
L 95.618228 61.622625 
" clip-path="url(#p2aaf607989)" style="fill: none; stroke: #2ca02c; stroke-width: 1.5; stroke-linecap: square"/>
   </g>
   <g id="patch_3">
    <path d="M 43.78125 315.638625 
L 43.78125 49.526625 
" style="fill: none; stroke: #000000; stroke-width: 0.8; stroke-linejoin: miter; stroke-linecap: square"/>
   </g>
   <g id="patch_4">
    <path d="M 43.78125 315.638625 
L 400.90125 315.638625 
" style="fill: none; stroke: #000000; stroke-width: 0.8; stroke-linejoin: miter; stroke-linecap: square"/>
   </g>
   <g id="text_16">
    <!-- Time to Unfavorable Outcomes of 340 patients -->
    <g transform="translate(81.456563 16.318125) scale(0.12 -0.12)">
     <defs>
      <path id="DejaVuSans-55" d="M 556 4666 
L 1191 4666 
L 1191 1831 
Q 1191 1081 1462 751 
Q 1734 422 2344 422 
Q 2950 422 3222 751 
Q 3494 1081 3494 1831 
L 3494 4666 
L 4128 4666 
L 4128 1753 
Q 4128 841 3676 375 
Q 3225 -91 2344 -91 
Q 1459 -91 1007 375 
Q 556 841 556 1753 
L 556 4666 
z
" transform="scale(0.015625)"/>
      <path id="DejaVuSans-4f" d="M 2522 4238 
Q 1834 4238 1429 3725 
Q 1025 3213 1025 2328 
Q 1025 1447 1429 934 
Q 1834 422 2522 422 
Q 3209 422 3611 934 
Q 4013 1447 4013 2328 
Q 4013 3213 3611 3725 
Q 3209 4238 2522 4238 
z
M 2522 4750 
Q 3503 4750 4090 4092 
Q 4678 3434 4678 2328 
Q 4678 1225 4090 567 
Q 3503 -91 2522 -91 
Q 1538 -91 948 565 
Q 359 1222 359 2328 
Q 359 3434 948 4092 
Q 1538 4750 2522 4750 
z
" transform="scale(0.015625)"/>
      <path id="DejaVuSans-75" d="M 544 1381 
L 544 3500 
L 1119 3500 
L 1119 1403 
Q 1119 906 1312 657 
Q 1506 409 1894 409 
Q 2359 409 2629 706 
Q 2900 1003 2900 1516 
L 2900 3500 
L 3475 3500 
L 3475 0 
L 2900 0 
L 2900 538 
Q 2691 219 2414 64 
Q 2138 -91 1772 -91 
Q 1169 -91 856 284 
Q 544 659 544 1381 
z
M 1991 3584 
L 1991 3584 
z
" transform="scale(0.015625)"/>
      <path id="DejaVuSans-70" d="M 1159 525 
L 1159 -1331 
L 581 -1331 
L 581 3500 
L 1159 3500 
L 1159 2969 
Q 1341 3281 1617 3432 
Q 1894 3584 2278 3584 
Q 2916 3584 3314 3078 
Q 3713 2572 3713 1747 
Q 3713 922 3314 415 
Q 2916 -91 2278 -91 
Q 1894 -91 1617 61 
Q 1341 213 1159 525 
z
M 3116 1747 
Q 3116 2381 2855 2742 
Q 2594 3103 2138 3103 
Q 1681 3103 1420 2742 
Q 1159 2381 1159 1747 
Q 1159 1113 1420 752 
Q 1681 391 2138 391 
Q 2594 391 2855 752 
Q 3116 1113 3116 1747 
z
" transform="scale(0.015625)"/>
     </defs>
     <use xlink:href="#DejaVuSans-54"/>
     <use xlink:href="#DejaVuSans-69" x="57.958984"/>
     <use xlink:href="#DejaVuSans-6d" x="85.742188"/>
     <use xlink:href="#DejaVuSans-65" x="183.154297"/>
     <use xlink:href="#DejaVuSans-20" x="244.677734"/>
     <use xlink:href="#DejaVuSans-74" x="276.464844"/>
     <use xlink:href="#DejaVuSans-6f" x="315.673828"/>
     <use xlink:href="#DejaVuSans-20" x="376.855469"/>
     <use xlink:href="#DejaVuSans-55" x="408.642578"/>
     <use xlink:href="#DejaVuSans-6e" x="481.835938"/>
     <use xlink:href="#DejaVuSans-66" x="545.214844"/>
     <use xlink:href="#DejaVuSans-61" x="580.419922"/>
     <use xlink:href="#DejaVuSans-76" x="641.699219"/>
     <use xlink:href="#DejaVuSans-6f" x="700.878906"/>
     <use xlink:href="#DejaVuSans-72" x="762.060547"/>
     <use xlink:href="#DejaVuSans-61" x="803.173828"/>
     <use xlink:href="#DejaVuSans-62" x="864.453125"/>
     <use xlink:href="#DejaVuSans-6c" x="927.929688"/>
     <use xlink:href="#DejaVuSans-65" x="955.712891"/>
     <use xlink:href="#DejaVuSans-20" x="1017.236328"/>
     <use xlink:href="#DejaVuSans-4f" x="1049.023438"/>
     <use xlink:href="#DejaVuSans-75" x="1127.734375"/>
     <use xlink:href="#DejaVuSans-74" x="1191.113281"/>
     <use xlink:href="#DejaVuSans-63" x="1230.322266"/>
     <use xlink:href="#DejaVuSans-6f" x="1285.302734"/>
     <use xlink:href="#DejaVuSans-6d" x="1346.484375"/>
     <use xlink:href="#DejaVuSans-65" x="1443.896484"/>
     <use xlink:href="#DejaVuSans-73" x="1505.419922"/>
     <use xlink:href="#DejaVuSans-20" x="1557.519531"/>
     <use xlink:href="#DejaVuSans-6f" x="1589.306641"/>
     <use xlink:href="#DejaVuSans-66" x="1650.488281"/>
     <use xlink:href="#DejaVuSans-20" x="1685.693359"/>
     <use xlink:href="#DejaVuSans-33" x="1717.480469"/>
     <use xlink:href="#DejaVuSans-34" x="1781.103516"/>
     <use xlink:href="#DejaVuSans-30" x="1844.726562"/>
     <use xlink:href="#DejaVuSans-20" x="1908.349609"/>
     <use xlink:href="#DejaVuSans-70" x="1940.136719"/>
     <use xlink:href="#DejaVuSans-61" x="2003.613281"/>
     <use xlink:href="#DejaVuSans-74" x="2064.892578"/>
     <use xlink:href="#DejaVuSans-69" x="2104.101562"/>
     <use xlink:href="#DejaVuSans-65" x="2131.884766"/>
     <use xlink:href="#DejaVuSans-6e" x="2193.408203"/>
     <use xlink:href="#DejaVuSans-74" x="2256.787109"/>
     <use xlink:href="#DejaVuSans-73" x="2295.996094"/>
    </g>
    <!-- stratified by changes in Rv0759c_c.-97_-96delGG -->
    <g transform="translate(74.195625 29.7555) scale(0.12 -0.12)">
     <defs>
      <path id="DejaVuSans-64" d="M 2906 2969 
L 2906 4863 
L 3481 4863 
L 3481 0 
L 2906 0 
L 2906 525 
Q 2725 213 2448 61 
Q 2172 -91 1784 -91 
Q 1150 -91 751 415 
Q 353 922 353 1747 
Q 353 2572 751 3078 
Q 1150 3584 1784 3584 
Q 2172 3584 2448 3432 
Q 2725 3281 2906 2969 
z
M 947 1747 
Q 947 1113 1208 752 
Q 1469 391 1925 391 
Q 2381 391 2643 752 
Q 2906 1113 2906 1747 
Q 2906 2381 2643 2742 
Q 2381 3103 1925 3103 
Q 1469 3103 1208 2742 
Q 947 2381 947 1747 
z
" transform="scale(0.015625)"/>
      <path id="DejaVuSans-68" d="M 3513 2113 
L 3513 0 
L 2938 0 
L 2938 2094 
Q 2938 2591 2744 2837 
Q 2550 3084 2163 3084 
Q 1697 3084 1428 2787 
Q 1159 2491 1159 1978 
L 1159 0 
L 581 0 
L 581 4863 
L 1159 4863 
L 1159 2956 
Q 1366 3272 1645 3428 
Q 1925 3584 2291 3584 
Q 2894 3584 3203 3211 
Q 3513 2838 3513 2113 
z
" transform="scale(0.015625)"/>
      <path id="DejaVuSans-67" d="M 2906 1791 
Q 2906 2416 2648 2759 
Q 2391 3103 1925 3103 
Q 1463 3103 1205 2759 
Q 947 2416 947 1791 
Q 947 1169 1205 825 
Q 1463 481 1925 481 
Q 2391 481 2648 825 
Q 2906 1169 2906 1791 
z
M 3481 434 
Q 3481 -459 3084 -895 
Q 2688 -1331 1869 -1331 
Q 1566 -1331 1297 -1286 
Q 1028 -1241 775 -1147 
L 775 -588 
Q 1028 -725 1275 -790 
Q 1522 -856 1778 -856 
Q 2344 -856 2625 -561 
Q 2906 -266 2906 331 
L 2906 616 
Q 2728 306 2450 153 
Q 2172 0 1784 0 
Q 1141 0 747 490 
Q 353 981 353 1791 
Q 353 2603 747 3093 
Q 1141 3584 1784 3584 
Q 2172 3584 2450 3431 
Q 2728 3278 2906 2969 
L 2906 3500 
L 3481 3500 
L 3481 434 
z
" transform="scale(0.015625)"/>
      <path id="DejaVuSans-52" d="M 2841 2188 
Q 3044 2119 3236 1894 
Q 3428 1669 3622 1275 
L 4263 0 
L 3584 0 
L 2988 1197 
Q 2756 1666 2539 1819 
Q 2322 1972 1947 1972 
L 1259 1972 
L 1259 0 
L 628 0 
L 628 4666 
L 2053 4666 
Q 2853 4666 3247 4331 
Q 3641 3997 3641 3322 
Q 3641 2881 3436 2590 
Q 3231 2300 2841 2188 
z
M 1259 4147 
L 1259 2491 
L 2053 2491 
Q 2509 2491 2742 2702 
Q 2975 2913 2975 3322 
Q 2975 3731 2742 3939 
Q 2509 4147 2053 4147 
L 1259 4147 
z
" transform="scale(0.015625)"/>
      <path id="DejaVuSans-39" d="M 703 97 
L 703 672 
Q 941 559 1184 500 
Q 1428 441 1663 441 
Q 2288 441 2617 861 
Q 2947 1281 2994 2138 
Q 2813 1869 2534 1725 
Q 2256 1581 1919 1581 
Q 1219 1581 811 2004 
Q 403 2428 403 3163 
Q 403 3881 828 4315 
Q 1253 4750 1959 4750 
Q 2769 4750 3195 4129 
Q 3622 3509 3622 2328 
Q 3622 1225 3098 567 
Q 2575 -91 1691 -91 
Q 1453 -91 1209 -44 
Q 966 3 703 97 
z
M 1959 2075 
Q 2384 2075 2632 2365 
Q 2881 2656 2881 3163 
Q 2881 3666 2632 3958 
Q 2384 4250 1959 4250 
Q 1534 4250 1286 3958 
Q 1038 3666 1038 3163 
Q 1038 2656 1286 2365 
Q 1534 2075 1959 2075 
z
" transform="scale(0.015625)"/>
      <path id="DejaVuSans-5f" d="M 3263 -1063 
L 3263 -1509 
L -63 -1509 
L -63 -1063 
L 3263 -1063 
z
" transform="scale(0.015625)"/>
      <path id="DejaVuSans-2d" d="M 313 2009 
L 1997 2009 
L 1997 1497 
L 313 1497 
L 313 2009 
z
" transform="scale(0.015625)"/>
      <path id="DejaVuSans-47" d="M 3809 666 
L 3809 1919 
L 2778 1919 
L 2778 2438 
L 4434 2438 
L 4434 434 
Q 4069 175 3628 42 
Q 3188 -91 2688 -91 
Q 1594 -91 976 548 
Q 359 1188 359 2328 
Q 359 3472 976 4111 
Q 1594 4750 2688 4750 
Q 3144 4750 3555 4637 
Q 3966 4525 4313 4306 
L 4313 3634 
Q 3963 3931 3569 4081 
Q 3175 4231 2741 4231 
Q 1884 4231 1454 3753 
Q 1025 3275 1025 2328 
Q 1025 1384 1454 906 
Q 1884 428 2741 428 
Q 3075 428 3337 486 
Q 3600 544 3809 666 
z
" transform="scale(0.015625)"/>
     </defs>
     <use xlink:href="#DejaVuSans-73"/>
     <use xlink:href="#DejaVuSans-74" x="52.099609"/>
     <use xlink:href="#DejaVuSans-72" x="91.308594"/>
     <use xlink:href="#DejaVuSans-61" x="132.421875"/>
     <use xlink:href="#DejaVuSans-74" x="193.701172"/>
     <use xlink:href="#DejaVuSans-69" x="232.910156"/>
     <use xlink:href="#DejaVuSans-66" x="260.693359"/>
     <use xlink:href="#DejaVuSans-69" x="295.898438"/>
     <use xlink:href="#DejaVuSans-65" x="323.681641"/>
     <use xlink:href="#DejaVuSans-64" x="385.205078"/>
     <use xlink:href="#DejaVuSans-20" x="448.681641"/>
     <use xlink:href="#DejaVuSans-62" x="480.46875"/>
     <use xlink:href="#DejaVuSans-79" x="543.945312"/>
     <use xlink:href="#DejaVuSans-20" x="603.125"/>
     <use xlink:href="#DejaVuSans-63" x="634.912109"/>
     <use xlink:href="#DejaVuSans-68" x="689.892578"/>
     <use xlink:href="#DejaVuSans-61" x="753.271484"/>
     <use xlink:href="#DejaVuSans-6e" x="814.550781"/>
     <use xlink:href="#DejaVuSans-67" x="877.929688"/>
     <use xlink:href="#DejaVuSans-65" x="941.40625"/>
     <use xlink:href="#DejaVuSans-73" x="1002.929688"/>
     <use xlink:href="#DejaVuSans-20" x="1055.029297"/>
     <use xlink:href="#DejaVuSans-69" x="1086.816406"/>
     <use xlink:href="#DejaVuSans-6e" x="1114.599609"/>
     <use xlink:href="#DejaVuSans-20" x="1177.978516"/>
     <use xlink:href="#DejaVuSans-52" x="1209.765625"/>
     <use xlink:href="#DejaVuSans-76" x="1279.248047"/>
     <use xlink:href="#DejaVuSans-30" x="1338.427734"/>
     <use xlink:href="#DejaVuSans-37" x="1402.050781"/>
     <use xlink:href="#DejaVuSans-35" x="1465.673828"/>
     <use xlink:href="#DejaVuSans-39" x="1529.296875"/>
     <use xlink:href="#DejaVuSans-63" x="1592.919922"/>
     <use xlink:href="#DejaVuSans-5f" x="1647.900391"/>
     <use xlink:href="#DejaVuSans-63" x="1697.900391"/>
     <use xlink:href="#DejaVuSans-2e" x="1752.880859"/>
     <use xlink:href="#DejaVuSans-2d" x="1784.667969"/>
     <use xlink:href="#DejaVuSans-39" x="1820.751953"/>
     <use xlink:href="#DejaVuSans-37" x="1884.375"/>
     <use xlink:href="#DejaVuSans-5f" x="1947.998047"/>
     <use xlink:href="#DejaVuSans-2d" x="1997.998047"/>
     <use xlink:href="#DejaVuSans-39" x="2034.082031"/>
     <use xlink:href="#DejaVuSans-36" x="2097.705078"/>
     <use xlink:href="#DejaVuSans-64" x="2161.328125"/>
     <use xlink:href="#DejaVuSans-65" x="2224.804688"/>
     <use xlink:href="#DejaVuSans-6c" x="2286.328125"/>
     <use xlink:href="#DejaVuSans-47" x="2314.111328"/>
     <use xlink:href="#DejaVuSans-47" x="2391.601562"/>
    </g>
    <!-- p (Fixed vs. Absent) = 0.0 -->
    <g transform="translate(144.729375 43.526625) scale(0.12 -0.12)">
     <defs>
      <path id="DejaVuSans-28" d="M 1984 4856 
Q 1566 4138 1362 3434 
Q 1159 2731 1159 2009 
Q 1159 1288 1364 580 
Q 1569 -128 1984 -844 
L 1484 -844 
Q 1016 -109 783 600 
Q 550 1309 550 2009 
Q 550 2706 781 3412 
Q 1013 4119 1484 4856 
L 1984 4856 
z
" transform="scale(0.015625)"/>
      <path id="DejaVuSans-46" d="M 628 4666 
L 3309 4666 
L 3309 4134 
L 1259 4134 
L 1259 2759 
L 3109 2759 
L 3109 2228 
L 1259 2228 
L 1259 0 
L 628 0 
L 628 4666 
z
" transform="scale(0.015625)"/>
      <path id="DejaVuSans-78" d="M 3513 3500 
L 2247 1797 
L 3578 0 
L 2900 0 
L 1881 1375 
L 863 0 
L 184 0 
L 1544 1831 
L 300 3500 
L 978 3500 
L 1906 2253 
L 2834 3500 
L 3513 3500 
z
" transform="scale(0.015625)"/>
      <path id="DejaVuSans-41" d="M 2188 4044 
L 1331 1722 
L 3047 1722 
L 2188 4044 
z
M 1831 4666 
L 2547 4666 
L 4325 0 
L 3669 0 
L 3244 1197 
L 1141 1197 
L 716 0 
L 50 0 
L 1831 4666 
z
" transform="scale(0.015625)"/>
      <path id="DejaVuSans-29" d="M 513 4856 
L 1013 4856 
Q 1481 4119 1714 3412 
Q 1947 2706 1947 2009 
Q 1947 1309 1714 600 
Q 1481 -109 1013 -844 
L 513 -844 
Q 928 -128 1133 580 
Q 1338 1288 1338 2009 
Q 1338 2731 1133 3434 
Q 928 4138 513 4856 
z
" transform="scale(0.015625)"/>
      <path id="DejaVuSans-3d" d="M 678 2906 
L 4684 2906 
L 4684 2381 
L 678 2381 
L 678 2906 
z
M 678 1631 
L 4684 1631 
L 4684 1100 
L 678 1100 
L 678 1631 
z
" transform="scale(0.015625)"/>
     </defs>
     <use xlink:href="#DejaVuSans-70"/>
     <use xlink:href="#DejaVuSans-20" x="63.476562"/>
     <use xlink:href="#DejaVuSans-28" x="95.263672"/>
     <use xlink:href="#DejaVuSans-46" x="134.277344"/>
     <use xlink:href="#DejaVuSans-69" x="184.546875"/>
     <use xlink:href="#DejaVuSans-78" x="212.330078"/>
     <use xlink:href="#DejaVuSans-65" x="268.384766"/>
     <use xlink:href="#DejaVuSans-64" x="329.908203"/>
     <use xlink:href="#DejaVuSans-20" x="393.384766"/>
     <use xlink:href="#DejaVuSans-76" x="425.171875"/>
     <use xlink:href="#DejaVuSans-73" x="484.351562"/>
     <use xlink:href="#DejaVuSans-2e" x="536.451172"/>
     <use xlink:href="#DejaVuSans-20" x="568.238281"/>
     <use xlink:href="#DejaVuSans-41" x="600.025391"/>
     <use xlink:href="#DejaVuSans-62" x="668.433594"/>
     <use xlink:href="#DejaVuSans-73" x="731.910156"/>
     <use xlink:href="#DejaVuSans-65" x="784.009766"/>
     <use xlink:href="#DejaVuSans-6e" x="845.533203"/>
     <use xlink:href="#DejaVuSans-74" x="908.912109"/>
     <use xlink:href="#DejaVuSans-29" x="948.121094"/>
     <use xlink:href="#DejaVuSans-20" x="987.134766"/>
     <use xlink:href="#DejaVuSans-3d" x="1018.921875"/>
     <use xlink:href="#DejaVuSans-20" x="1102.710938"/>
     <use xlink:href="#DejaVuSans-30" x="1134.498047"/>
     <use xlink:href="#DejaVuSans-2e" x="1198.121094"/>
     <use xlink:href="#DejaVuSans-30" x="1229.908203"/>
    </g>
   </g>
   <g id="legend_1">
    <g id="patch_5">
     <path d="M 50.78125 310.638625 
L 151.414062 310.638625 
Q 153.414062 310.638625 153.414062 308.638625 
L 153.414062 250.926125 
Q 153.414062 248.926125 151.414062 248.926125 
L 50.78125 248.926125 
Q 48.78125 248.926125 48.78125 250.926125 
L 48.78125 308.638625 
Q 48.78125 310.638625 50.78125 310.638625 
z
" style="fill: #ffffff; opacity: 0.8; stroke: #cccccc; stroke-linejoin: miter"/>
    </g>
    <g id="text_17">
     <!-- Indel State -->
     <g transform="translate(73.989844 260.524562) scale(0.1 -0.1)">
      <defs>
       <path id="DejaVuSans-49" d="M 628 4666 
L 1259 4666 
L 1259 0 
L 628 0 
L 628 4666 
z
" transform="scale(0.015625)"/>
      </defs>
      <use xlink:href="#DejaVuSans-49"/>
      <use xlink:href="#DejaVuSans-6e" x="29.492188"/>
      <use xlink:href="#DejaVuSans-64" x="92.871094"/>
      <use xlink:href="#DejaVuSans-65" x="156.347656"/>
      <use xlink:href="#DejaVuSans-6c" x="217.871094"/>
      <use xlink:href="#DejaVuSans-20" x="245.654297"/>
      <use xlink:href="#DejaVuSans-53" x="277.441406"/>
      <use xlink:href="#DejaVuSans-74" x="340.917969"/>
      <use xlink:href="#DejaVuSans-61" x="380.126953"/>
      <use xlink:href="#DejaVuSans-74" x="441.40625"/>
      <use xlink:href="#DejaVuSans-65" x="480.615234"/>
     </g>
    </g>
    <g id="line2d_20">
     <path d="M 52.78125 271.702687 
L 62.78125 271.702687 
L 62.78125 271.702687 
L 72.78125 271.702687 
L 72.78125 271.702687 
" style="fill: none; stroke: #1f77b4; stroke-width: 1.5; stroke-linecap: square"/>
    </g>
    <g id="text_18">
     <!-- Absent = 331 -->
     <g transform="translate(80.78125 275.202687) scale(0.1 -0.1)">
      <use xlink:href="#DejaVuSans-41"/>
      <use xlink:href="#DejaVuSans-62" x="68.408203"/>
      <use xlink:href="#DejaVuSans-73" x="131.884766"/>
      <use xlink:href="#DejaVuSans-65" x="183.984375"/>
      <use xlink:href="#DejaVuSans-6e" x="245.507812"/>
      <use xlink:href="#DejaVuSans-74" x="308.886719"/>
      <use xlink:href="#DejaVuSans-20" x="348.095703"/>
      <use xlink:href="#DejaVuSans-3d" x="379.882812"/>
      <use xlink:href="#DejaVuSans-20" x="463.671875"/>
      <use xlink:href="#DejaVuSans-33" x="495.458984"/>
      <use xlink:href="#DejaVuSans-33" x="559.082031"/>
      <use xlink:href="#DejaVuSans-31" x="622.705078"/>
     </g>
    </g>
    <g id="line2d_21">
     <path d="M 52.78125 286.380812 
L 62.78125 286.380812 
L 62.78125 286.380812 
L 72.78125 286.380812 
L 72.78125 286.380812 
" style="fill: none; stroke: #ff7f0e; stroke-width: 1.5; stroke-linecap: square"/>
    </g>
    <g id="text_19">
     <!-- Fixed = 8 -->
     <g transform="translate(80.78125 289.880812) scale(0.1 -0.1)">
      <use xlink:href="#DejaVuSans-46"/>
      <use xlink:href="#DejaVuSans-69" x="50.269531"/>
      <use xlink:href="#DejaVuSans-78" x="78.052734"/>
      <use xlink:href="#DejaVuSans-65" x="134.107422"/>
      <use xlink:href="#DejaVuSans-64" x="195.630859"/>
      <use xlink:href="#DejaVuSans-20" x="259.107422"/>
      <use xlink:href="#DejaVuSans-3d" x="290.894531"/>
      <use xlink:href="#DejaVuSans-20" x="374.683594"/>
      <use xlink:href="#DejaVuSans-38" x="406.470703"/>
     </g>
    </g>
    <g id="line2d_22">
     <path d="M 52.78125 301.058937 
L 62.78125 301.058937 
L 62.78125 301.058937 
L 72.78125 301.058937 
L 72.78125 301.058937 
" style="fill: none; stroke: #2ca02c; stroke-width: 1.5; stroke-linecap: square"/>
    </g>
    <g id="text_20">
     <!-- Unfixed = 1 -->
     <g transform="translate(80.78125 304.558937) scale(0.1 -0.1)">
      <use xlink:href="#DejaVuSans-55"/>
      <use xlink:href="#DejaVuSans-6e" x="73.193359"/>
      <use xlink:href="#DejaVuSans-66" x="136.572266"/>
      <use xlink:href="#DejaVuSans-69" x="171.777344"/>
      <use xlink:href="#DejaVuSans-78" x="199.560547"/>
      <use xlink:href="#DejaVuSans-65" x="255.615234"/>
      <use xlink:href="#DejaVuSans-64" x="317.138672"/>
      <use xlink:href="#DejaVuSans-20" x="380.615234"/>
      <use xlink:href="#DejaVuSans-3d" x="412.402344"/>
      <use xlink:href="#DejaVuSans-20" x="496.191406"/>
      <use xlink:href="#DejaVuSans-31" x="527.978516"/>
     </g>
    </g>
   </g>
  </g>
 </g>
 <defs>
  <clipPath id="p2aaf607989">
   <rect x="43.78125" y="49.526625" width="357.12" height="266.112"/>
  </clipPath>
 </defs>
</svg>
