<?xml version="1.0" encoding="utf-8" standalone="no"?>
<!DOCTYPE svg PUBLIC "-//W3C//DTD SVG 1.1//EN"
  "http://www.w3.org/Graphics/SVG/1.1/DTD/svg11.dtd">
<svg xmlns:xlink="http://www.w3.org/1999/xlink" width="408.10125pt" height="352.861125pt" viewBox="0 0 408.10125 352.861125" xmlns="http://www.w3.org/2000/svg" version="1.1">
 <metadata>
  <rdf:RDF xmlns:dc="http://purl.org/dc/elements/1.1/" xmlns:cc="http://creativecommons.org/ns#" xmlns:rdf="http://www.w3.org/1999/02/22-rdf-syntax-ns#">
   <cc:Work>
    <dc:type rdf:resource="http://purl.org/dc/dcmitype/StillImage"/>
    <dc:date>2025-05-16T11:13:14.663532</dc:date>
    <dc:format>image/svg+xml</dc:format>
    <dc:creator>
     <cc:Agent>
      <dc:title>Matplotlib v3.7.2, https://matplotlib.org/</dc:title>
     </cc:Agent>
    </dc:creator>
   </cc:Work>
  </rdf:RDF>
 </metadata>
 <defs>
  <style type="text/css">*{stroke-linejoin: round; stroke-linecap: butt}</style>
 </defs>
 <g id="figure_1">
  <g id="patch_1">
   <path d="M 0 352.861125 
L 408.10125 352.861125 
L 408.10125 0 
L 0 0 
z
" style="fill: #ffffff"/>
  </g>
  <g id="axes_1">
   <g id="patch_2">
    <path d="M 43.78125 315.304875 
L 400.90125 315.304875 
L 400.90125 49.192875 
L 43.78125 49.192875 
z
" style="fill: #ffffff"/>
   </g>
   <g id="PolyCollection_1">
    <defs>
     <path id="m29baaca845" d="M 60.013977 -291.57225 
L 60.013977 -291.57225 
L 82.969349 -291.57225 
L 82.969349 -291.57225 
L 96.086705 -291.57225 
L 96.086705 -291.57225 
L 126.537708 -291.57225 
L 126.537708 -271.759201 
L 143.871356 -271.759201 
L 143.871356 -271.759201 
L 144.339833 -271.759201 
L 144.339833 -271.759201 
L 144.80831 -271.759201 
L 144.80831 -271.759201 
L 145.276787 -271.759201 
L 145.276787 -271.759201 
L 151.366988 -271.759201 
L 151.366988 -271.759201 
L 151.835465 -271.759201 
L 151.835465 -271.759201 
L 161.673481 -271.759201 
L 161.673481 -271.759201 
L 163.547389 -271.759201 
L 163.547389 -268.32408 
L 181.349514 -268.32408 
L 181.349514 -268.32408 
L 209.458133 -268.32408 
L 209.458133 -268.32408 
L 223.980919 -268.32408 
L 223.980919 -268.32408 
L 228.197212 -268.32408 
L 228.197212 -268.32408 
L 230.07112 -268.32408 
L 230.07112 -268.32408 
L 230.539597 -268.32408 
L 230.539597 -268.32408 
L 231.008074 -268.32408 
L 231.008074 -268.32408 
L 242.251522 -268.32408 
L 242.251522 -263.366355 
L 250.21563 -263.366355 
L 250.21563 -258.55227 
L 256.305831 -258.55227 
L 256.305831 -258.55227 
L 259.58517 -258.55227 
L 259.58517 -258.55227 
L 260.990601 -258.55227 
L 260.990601 -258.55227 
L 270.828617 -258.55227 
L 270.828617 -258.55227 
L 271.765571 -258.55227 
L 271.765571 -258.55227 
L 276.918818 -258.55227 
L 276.918818 -258.55227 
L 277.387295 -258.55227 
L 277.387295 -258.55227 
L 278.792726 -258.55227 
L 278.792726 -258.55227 
L 285.351403 -258.55227 
L 285.351403 -252.757644 
L 292.378558 -252.757644 
L 292.378558 -252.757644 
L 296.126374 -252.757644 
L 296.126374 -252.757644 
L 302.685052 -252.757644 
L 302.685052 -252.757644 
L 305.027437 -252.757644 
L 305.027437 -252.757644 
L 305.495914 -252.757644 
L 305.495914 -252.757644 
L 305.96439 -252.757644 
L 305.96439 -252.757644 
L 306.432867 -252.757644 
L 306.432867 -252.757644 
L 306.901344 -252.757644 
L 306.901344 -252.757644 
L 307.369821 -252.757644 
L 307.369821 -252.757644 
L 307.838298 -252.757644 
L 307.838298 -252.757644 
L 308.775252 -252.757644 
L 308.775252 -252.757644 
L 309.243729 -252.757644 
L 309.243729 -252.757644 
L 309.712206 -252.757644 
L 309.712206 -252.757644 
L 311.586114 -252.757644 
L 311.586114 -252.757644 
L 312.523068 -252.757644 
L 312.523068 -252.757644 
L 312.991545 -252.757644 
L 312.991545 -252.757644 
L 313.928499 -252.757644 
L 313.928499 -252.757644 
L 314.865453 -252.757644 
L 314.865453 -252.757644 
L 315.33393 -252.757644 
L 315.33393 -252.757644 
L 315.802407 -252.757644 
L 315.802407 -252.757644 
L 316.270884 -252.757644 
L 316.270884 -252.757644 
L 316.739361 -252.757644 
L 316.739361 -252.757644 
L 318.144792 -252.757644 
L 318.144792 -252.757644 
L 318.613269 -252.757644 
L 318.613269 -252.757644 
L 319.081746 -252.757644 
L 319.081746 -252.757644 
L 319.550223 -252.757644 
L 319.550223 -232.359382 
L 320.487177 -232.359382 
L 320.487177 -232.359382 
L 322.829562 -232.359382 
L 322.829562 -232.359382 
L 323.766516 -232.359382 
L 323.766516 -232.359382 
L 324.70347 -232.359382 
L 324.70347 -232.359382 
L 325.171947 -232.359382 
L 325.171947 -232.359382 
L 326.108901 -232.359382 
L 326.108901 -232.359382 
L 326.577378 -232.359382 
L 326.577378 -232.359382 
L 327.045854 -232.359382 
L 327.045854 -232.359382 
L 327.514331 -232.359382 
L 327.514331 -232.359382 
L 327.982808 -232.359382 
L 327.982808 -232.359382 
L 329.388239 -232.359382 
L 329.388239 -232.359382 
L 330.325193 -232.359382 
L 330.325193 -232.359382 
L 331.730624 -232.359382 
L 331.730624 -232.359382 
L 334.541486 -232.359382 
L 334.541486 -232.359382 
L 336.415394 -232.359382 
L 336.415394 -232.359382 
L 337.820825 -232.359382 
L 337.820825 -232.359382 
L 340.631687 -232.359382 
L 340.631687 -232.359382 
L 341.100164 -232.359382 
L 341.100164 -232.359382 
L 342.037118 -232.359382 
L 342.037118 -97.219026 
L 343.442549 -97.219026 
L 343.442549 -97.219026 
L 352.343611 -97.219026 
L 352.343611 -97.219026 
L 355.154473 -97.219026 
L 355.154473 -97.219026 
L 372.488121 -97.219026 
L 372.488121 -97.219026 
L 372.488121 -270.590392 
L 372.488121 -270.590392 
L 372.488121 -270.590392 
L 355.154473 -270.590392 
L 355.154473 -270.590392 
L 352.343611 -270.590392 
L 352.343611 -270.590392 
L 343.442549 -270.590392 
L 343.442549 -270.590392 
L 342.037118 -270.590392 
L 342.037118 -280.824455 
L 341.100164 -280.824455 
L 341.100164 -280.824455 
L 340.631687 -280.824455 
L 340.631687 -280.824455 
L 337.820825 -280.824455 
L 337.820825 -280.824455 
L 336.415394 -280.824455 
L 336.415394 -280.824455 
L 334.541486 -280.824455 
L 334.541486 -280.824455 
L 331.730624 -280.824455 
L 331.730624 -280.824455 
L 330.325193 -280.824455 
L 330.325193 -280.824455 
L 329.388239 -280.824455 
L 329.388239 -280.824455 
L 327.982808 -280.824455 
L 327.982808 -280.824455 
L 327.514331 -280.824455 
L 327.514331 -280.824455 
L 327.045854 -280.824455 
L 327.045854 -280.824455 
L 326.577378 -280.824455 
L 326.577378 -280.824455 
L 326.108901 -280.824455 
L 326.108901 -280.824455 
L 325.171947 -280.824455 
L 325.171947 -280.824455 
L 324.70347 -280.824455 
L 324.70347 -280.824455 
L 323.766516 -280.824455 
L 323.766516 -280.824455 
L 322.829562 -280.824455 
L 322.829562 -280.824455 
L 320.487177 -280.824455 
L 320.487177 -280.824455 
L 319.550223 -280.824455 
L 319.550223 -284.498376 
L 319.081746 -284.498376 
L 319.081746 -284.498376 
L 318.613269 -284.498376 
L 318.613269 -284.498376 
L 318.144792 -284.498376 
L 318.144792 -284.498376 
L 316.739361 -284.498376 
L 316.739361 -284.498376 
L 316.270884 -284.498376 
L 316.270884 -284.498376 
L 315.802407 -284.498376 
L 315.802407 -284.498376 
L 315.33393 -284.498376 
L 315.33393 -284.498376 
L 314.865453 -284.498376 
L 314.865453 -284.498376 
L 313.928499 -284.498376 
L 313.928499 -284.498376 
L 312.991545 -284.498376 
L 312.991545 -284.498376 
L 312.523068 -284.498376 
L 312.523068 -284.498376 
L 311.586114 -284.498376 
L 311.586114 -284.498376 
L 309.712206 -284.498376 
L 309.712206 -284.498376 
L 309.243729 -284.498376 
L 309.243729 -284.498376 
L 308.775252 -284.498376 
L 308.775252 -284.498376 
L 307.838298 -284.498376 
L 307.838298 -284.498376 
L 307.369821 -284.498376 
L 307.369821 -284.498376 
L 306.901344 -284.498376 
L 306.901344 -284.498376 
L 306.432867 -284.498376 
L 306.432867 -284.498376 
L 305.96439 -284.498376 
L 305.96439 -284.498376 
L 305.495914 -284.498376 
L 305.495914 -284.498376 
L 305.027437 -284.498376 
L 305.027437 -284.498376 
L 302.685052 -284.498376 
L 302.685052 -284.498376 
L 296.126374 -284.498376 
L 296.126374 -284.498376 
L 292.378558 -284.498376 
L 292.378558 -284.498376 
L 285.351403 -284.498376 
L 285.351403 -286.688163 
L 278.792726 -286.688163 
L 278.792726 -286.688163 
L 277.387295 -286.688163 
L 277.387295 -286.688163 
L 276.918818 -286.688163 
L 276.918818 -286.688163 
L 271.765571 -286.688163 
L 271.765571 -286.688163 
L 270.828617 -286.688163 
L 270.828617 -286.688163 
L 260.990601 -286.688163 
L 260.990601 -286.688163 
L 259.58517 -286.688163 
L 259.58517 -286.688163 
L 256.305831 -286.688163 
L 256.305831 -286.688163 
L 250.21563 -286.688163 
L 250.21563 -288.510933 
L 242.251522 -288.510933 
L 242.251522 -290.059782 
L 231.008074 -290.059782 
L 231.008074 -290.059782 
L 230.539597 -290.059782 
L 230.539597 -290.059782 
L 230.07112 -290.059782 
L 230.07112 -290.059782 
L 228.197212 -290.059782 
L 228.197212 -290.059782 
L 223.980919 -290.059782 
L 223.980919 -290.059782 
L 209.458133 -290.059782 
L 209.458133 -290.059782 
L 181.349514 -290.059782 
L 181.349514 -290.059782 
L 163.547389 -290.059782 
L 163.547389 -291.164148 
L 161.673481 -291.164148 
L 161.673481 -291.164148 
L 151.835465 -291.164148 
L 151.835465 -291.164148 
L 151.366988 -291.164148 
L 151.366988 -291.164148 
L 145.276787 -291.164148 
L 145.276787 -291.164148 
L 144.80831 -291.164148 
L 144.80831 -291.164148 
L 144.339833 -291.164148 
L 144.339833 -291.164148 
L 143.871356 -291.164148 
L 143.871356 -291.164148 
L 126.537708 -291.164148 
L 126.537708 -291.57225 
L 96.086705 -291.57225 
L 96.086705 -291.57225 
L 82.969349 -291.57225 
L 82.969349 -291.57225 
L 60.013977 -291.57225 
z
" style="stroke: #1f77b4; stroke-opacity: 0.25"/>
    </defs>
    <g clip-path="url(#p5ef9db4ae4)">
     <use xlink:href="#m29baaca845" x="0" y="352.861125" style="fill: #1f77b4; fill-opacity: 0.25; stroke: #1f77b4; stroke-opacity: 0.25"/>
    </g>
   </g>
   <g id="PolyCollection_2">
    <defs>
     <path id="mb000759856" d="M 60.013977 -291.57225 
L 60.013977 -291.57225 
L 82.500872 -291.57225 
L 82.500872 -291.57225 
L 82.969349 -291.57225 
L 82.969349 -291.57225 
L 84.843257 -291.57225 
L 84.843257 -291.57225 
L 91.870412 -291.57225 
L 91.870412 -291.57225 
L 95.618228 -291.57225 
L 95.618228 -291.57225 
L 99.366043 -291.57225 
L 99.366043 -291.57225 
L 115.294261 -291.57225 
L 115.294261 -291.57225 
L 120.915984 -291.57225 
L 120.915984 -291.57225 
L 121.384461 -291.57225 
L 121.384461 -291.57225 
L 124.195323 -291.57225 
L 124.195323 -291.57225 
L 125.132277 -291.57225 
L 125.132277 -291.57225 
L 126.069231 -291.57225 
L 126.069231 -291.57225 
L 127.006185 -291.57225 
L 127.006185 -291.57225 
L 128.411616 -291.57225 
L 128.411616 -291.57225 
L 132.159432 -291.57225 
L 132.159432 -291.57225 
L 133.096386 -291.57225 
L 133.096386 -291.57225 
L 135.907248 -291.57225 
L 135.907248 -291.57225 
L 137.781156 -291.57225 
L 137.781156 -278.970069 
L 138.71811 -278.970069 
L 138.71811 -278.970069 
L 139.186586 -278.970069 
L 139.186586 -278.970069 
L 141.528971 -278.970069 
L 141.528971 -277.275133 
L 143.402879 -277.275133 
L 143.402879 -277.275133 
L 144.80831 -277.275133 
L 144.80831 -277.275133 
L 147.619172 -277.275133 
L 147.619172 -277.275133 
L 148.087649 -277.275133 
L 148.087649 -277.275133 
L 148.556126 -277.275133 
L 148.556126 -277.275133 
L 154.17785 -277.275133 
L 154.17785 -277.275133 
L 156.988712 -277.275133 
L 156.988712 -274.679203 
L 165.889774 -274.679203 
L 165.889774 -274.679203 
L 184.160376 -274.679203 
L 184.160376 -272.047336 
L 194.935347 -272.047336 
L 194.935347 -269.464066 
L 202.430978 -269.464066 
L 202.430978 -269.464066 
L 222.107012 -269.464066 
L 222.107012 -269.464066 
L 223.512442 -269.464066 
L 223.512442 -266.865162 
L 223.980919 -266.865162 
L 223.980919 -264.318078 
L 225.38635 -264.318078 
L 225.38635 -264.318078 
L 226.791781 -264.318078 
L 226.791781 -264.318078 
L 227.728735 -264.318078 
L 227.728735 -264.318078 
L 230.07112 -264.318078 
L 230.07112 -264.318078 
L 232.413505 -264.318078 
L 232.413505 -264.318078 
L 233.818936 -264.318078 
L 233.818936 -264.318078 
L 239.909137 -264.318078 
L 239.909137 -264.318078 
L 243.188476 -264.318078 
L 243.188476 -264.318078 
L 246.936291 -264.318078 
L 246.936291 -264.318078 
L 270.36014 -264.318078 
L 270.36014 -258.795601 
L 272.702525 -258.795601 
L 272.702525 -258.795601 
L 275.04491 -258.795601 
L 275.04491 -256.086699 
L 276.450341 -256.086699 
L 276.450341 -256.086699 
L 280.666634 -256.086699 
L 280.666634 -253.390922 
L 290.036173 -253.390922 
L 290.036173 -253.390922 
L 291.441604 -253.390922 
L 291.441604 -253.390922 
L 291.910081 -253.390922 
L 291.910081 -250.635392 
L 292.378558 -250.635392 
L 292.378558 -250.635392 
L 293.315512 -250.635392 
L 293.315512 -250.635392 
L 296.126374 -250.635392 
L 296.126374 -250.635392 
L 297.063328 -250.635392 
L 297.063328 -250.635392 
L 297.531805 -250.635392 
L 297.531805 -250.635392 
L 298.000282 -250.635392 
L 298.000282 -250.635392 
L 299.405713 -250.635392 
L 299.405713 -250.635392 
L 301.279621 -250.635392 
L 301.279621 -250.635392 
L 301.748098 -250.635392 
L 301.748098 -250.635392 
L 303.622006 -250.635392 
L 303.622006 -250.635392 
L 304.55896 -250.635392 
L 304.55896 -250.635392 
L 305.495914 -250.635392 
L 305.495914 -250.635392 
L 306.432867 -250.635392 
L 306.432867 -250.635392 
L 307.369821 -250.635392 
L 307.369821 -250.635392 
L 308.306775 -250.635392 
L 308.306775 -250.635392 
L 308.775252 -250.635392 
L 308.775252 -250.635392 
L 309.243729 -250.635392 
L 309.243729 -250.635392 
L 310.180683 -250.635392 
L 310.180683 -250.635392 
L 310.64916 -250.635392 
L 310.64916 -250.635392 
L 311.117637 -250.635392 
L 311.117637 -250.635392 
L 311.586114 -250.635392 
L 311.586114 -246.393124 
L 312.054591 -246.393124 
L 312.054591 -246.393124 
L 312.523068 -246.393124 
L 312.523068 -242.241295 
L 312.991545 -242.241295 
L 312.991545 -242.241295 
L 313.460022 -242.241295 
L 313.460022 -242.241295 
L 313.928499 -242.241295 
L 313.928499 -242.241295 
L 314.396976 -242.241295 
L 314.396976 -237.652644 
L 315.33393 -237.652644 
L 315.33393 -233.222768 
L 315.802407 -233.222768 
L 315.802407 -228.739669 
L 316.270884 -228.739669 
L 316.270884 -228.739669 
L 316.739361 -228.739669 
L 316.739361 -228.739669 
L 317.207838 -228.739669 
L 317.207838 -228.739669 
L 317.676315 -228.739669 
L 317.676315 -228.739669 
L 318.144792 -228.739669 
L 318.144792 -228.739669 
L 319.081746 -228.739669 
L 319.081746 -228.739669 
L 319.550223 -228.739669 
L 319.550223 -228.739669 
L 320.0187 -228.739669 
L 320.0187 -228.739669 
L 320.487177 -228.739669 
L 320.487177 -228.739669 
L 320.955654 -228.739669 
L 320.955654 -228.739669 
L 321.424131 -228.739669 
L 321.424131 -228.739669 
L 321.892608 -228.739669 
L 321.892608 -228.739669 
L 322.361085 -228.739669 
L 322.361085 -228.739669 
L 322.829562 -228.739669 
L 322.829562 -228.739669 
L 324.234993 -228.739669 
L 324.234993 -228.739669 
L 325.171947 -228.739669 
L 325.171947 -228.739669 
L 326.577378 -228.739669 
L 326.577378 -228.739669 
L 327.045854 -228.739669 
L 327.045854 -228.739669 
L 327.982808 -228.739669 
L 327.982808 -228.739669 
L 328.919762 -228.739669 
L 328.919762 -228.739669 
L 329.856716 -228.739669 
L 329.856716 -228.739669 
L 330.79367 -228.739669 
L 330.79367 -228.739669 
L 331.730624 -228.739669 
L 331.730624 -228.739669 
L 332.199101 -228.739669 
L 332.199101 -228.739669 
L 333.604532 -228.739669 
L 333.604532 -228.739669 
L 334.073009 -228.739669 
L 334.073009 -228.739669 
L 334.541486 -228.739669 
L 334.541486 -228.739669 
L 335.009963 -228.739669 
L 335.009963 -228.739669 
L 335.47844 -228.739669 
L 335.47844 -228.739669 
L 337.352348 -228.739669 
L 337.352348 -189.735375 
L 339.226256 -189.735375 
L 339.226256 -189.735375 
L 340.16321 -189.735375 
L 340.16321 -189.735375 
L 340.631687 -189.735375 
L 340.631687 -189.735375 
L 342.037118 -189.735375 
L 342.037118 -144.973684 
L 344.84798 -144.973684 
L 344.84798 -144.973684 
L 345.316457 -144.973684 
L 345.316457 -144.973684 
L 346.721888 -144.973684 
L 346.721888 -144.973684 
L 354.685996 -144.973684 
L 354.685996 -49.65225 
L 357.496858 -49.65225 
L 357.496858 -49.65225 
L 384.668523 -49.65225 
L 384.668523 -49.65225 
L 384.668523 -232.540005 
L 384.668523 -232.540005 
L 384.668523 -232.540005 
L 357.496858 -232.540005 
L 357.496858 -232.540005 
L 354.685996 -232.540005 
L 354.685996 -252.172461 
L 346.721888 -252.172461 
L 346.721888 -252.172461 
L 345.316457 -252.172461 
L 345.316457 -252.172461 
L 344.84798 -252.172461 
L 344.84798 -252.172461 
L 342.037118 -252.172461 
L 342.037118 -261.875772 
L 340.631687 -261.875772 
L 340.631687 -261.875772 
L 340.16321 -261.875772 
L 340.16321 -261.875772 
L 339.226256 -261.875772 
L 339.226256 -261.875772 
L 337.352348 -261.875772 
L 337.352348 -266.273439 
L 335.47844 -266.273439 
L 335.47844 -266.273439 
L 335.009963 -266.273439 
L 335.009963 -266.273439 
L 334.541486 -266.273439 
L 334.541486 -266.273439 
L 334.073009 -266.273439 
L 334.073009 -266.273439 
L 333.604532 -266.273439 
L 333.604532 -266.273439 
L 332.199101 -266.273439 
L 332.199101 -266.273439 
L 331.730624 -266.273439 
L 331.730624 -266.273439 
L 330.79367 -266.273439 
L 330.79367 -266.273439 
L 329.856716 -266.273439 
L 329.856716 -266.273439 
L 328.919762 -266.273439 
L 328.919762 -266.273439 
L 327.982808 -266.273439 
L 327.982808 -266.273439 
L 327.045854 -266.273439 
L 327.045854 -266.273439 
L 326.577378 -266.273439 
L 326.577378 -266.273439 
L 325.171947 -266.273439 
L 325.171947 -266.273439 
L 324.234993 -266.273439 
L 324.234993 -266.273439 
L 322.829562 -266.273439 
L 322.829562 -266.273439 
L 322.361085 -266.273439 
L 322.361085 -266.273439 
L 321.892608 -266.273439 
L 321.892608 -266.273439 
L 321.424131 -266.273439 
L 321.424131 -266.273439 
L 320.955654 -266.273439 
L 320.955654 -266.273439 
L 320.487177 -266.273439 
L 320.487177 -266.273439 
L 320.0187 -266.273439 
L 320.0187 -266.273439 
L 319.550223 -266.273439 
L 319.550223 -266.273439 
L 319.081746 -266.273439 
L 319.081746 -266.273439 
L 318.144792 -266.273439 
L 318.144792 -266.273439 
L 317.676315 -266.273439 
L 317.676315 -266.273439 
L 317.207838 -266.273439 
L 317.207838 -266.273439 
L 316.739361 -266.273439 
L 316.739361 -266.273439 
L 316.270884 -266.273439 
L 316.270884 -266.273439 
L 315.802407 -266.273439 
L 315.802407 -268.786456 
L 315.33393 -268.786456 
L 315.33393 -271.187562 
L 314.396976 -271.187562 
L 314.396976 -273.518046 
L 313.928499 -273.518046 
L 313.928499 -273.518046 
L 313.460022 -273.518046 
L 313.460022 -273.518046 
L 312.991545 -273.518046 
L 312.991545 -273.518046 
L 312.523068 -273.518046 
L 312.523068 -275.642892 
L 312.054591 -275.642892 
L 312.054591 -275.642892 
L 311.586114 -275.642892 
L 311.586114 -277.680349 
L 311.117637 -277.680349 
L 311.117637 -277.680349 
L 310.64916 -277.680349 
L 310.64916 -277.680349 
L 310.180683 -277.680349 
L 310.180683 -277.680349 
L 309.243729 -277.680349 
L 309.243729 -277.680349 
L 308.775252 -277.680349 
L 308.775252 -277.680349 
L 308.306775 -277.680349 
L 308.306775 -277.680349 
L 307.369821 -277.680349 
L 307.369821 -277.680349 
L 306.432867 -277.680349 
L 306.432867 -277.680349 
L 305.495914 -277.680349 
L 305.495914 -277.680349 
L 304.55896 -277.680349 
L 304.55896 -277.680349 
L 303.622006 -277.680349 
L 303.622006 -277.680349 
L 301.748098 -277.680349 
L 301.748098 -277.680349 
L 301.279621 -277.680349 
L 301.279621 -277.680349 
L 299.405713 -277.680349 
L 299.405713 -277.680349 
L 298.000282 -277.680349 
L 298.000282 -277.680349 
L 297.531805 -277.680349 
L 297.531805 -277.680349 
L 297.063328 -277.680349 
L 297.063328 -277.680349 
L 296.126374 -277.680349 
L 296.126374 -277.680349 
L 293.315512 -277.680349 
L 293.315512 -277.680349 
L 292.378558 -277.680349 
L 292.378558 -277.680349 
L 291.910081 -277.680349 
L 291.910081 -279.27842 
L 291.441604 -279.27842 
L 291.441604 -279.27842 
L 290.036173 -279.27842 
L 290.036173 -279.27842 
L 280.666634 -279.27842 
L 280.666634 -280.812424 
L 276.450341 -280.812424 
L 276.450341 -280.812424 
L 275.04491 -280.812424 
L 275.04491 -282.300328 
L 272.702525 -282.300328 
L 272.702525 -282.300328 
L 270.36014 -282.300328 
L 270.36014 -285.127566 
L 246.936291 -285.127566 
L 246.936291 -285.127566 
L 243.188476 -285.127566 
L 243.188476 -285.127566 
L 239.909137 -285.127566 
L 239.909137 -285.127566 
L 233.818936 -285.127566 
L 233.818936 -285.127566 
L 232.413505 -285.127566 
L 232.413505 -285.127566 
L 230.07112 -285.127566 
L 230.07112 -285.127566 
L 227.728735 -285.127566 
L 227.728735 -285.127566 
L 226.791781 -285.127566 
L 226.791781 -285.127566 
L 225.38635 -285.127566 
L 225.38635 -285.127566 
L 223.980919 -285.127566 
L 223.980919 -286.397945 
L 223.512442 -286.397945 
L 223.512442 -287.609203 
L 222.107012 -287.609203 
L 222.107012 -287.609203 
L 202.430978 -287.609203 
L 202.430978 -287.609203 
L 194.935347 -287.609203 
L 194.935347 -288.735145 
L 184.160376 -288.735145 
L 184.160376 -289.765182 
L 165.889774 -289.765182 
L 165.889774 -289.765182 
L 156.988712 -289.765182 
L 156.988712 -290.654974 
L 154.17785 -290.654974 
L 154.17785 -290.654974 
L 148.556126 -290.654974 
L 148.556126 -290.654974 
L 148.087649 -290.654974 
L 148.087649 -290.654974 
L 147.619172 -290.654974 
L 147.619172 -290.654974 
L 144.80831 -290.654974 
L 144.80831 -290.654974 
L 143.402879 -290.654974 
L 143.402879 -290.654974 
L 141.528971 -290.654974 
L 141.528971 -291.316249 
L 139.186586 -291.316249 
L 139.186586 -291.316249 
L 138.71811 -291.316249 
L 138.71811 -291.316249 
L 137.781156 -291.316249 
L 137.781156 -291.57225 
L 135.907248 -291.57225 
L 135.907248 -291.57225 
L 133.096386 -291.57225 
L 133.096386 -291.57225 
L 132.159432 -291.57225 
L 132.159432 -291.57225 
L 128.411616 -291.57225 
L 128.411616 -291.57225 
L 127.006185 -291.57225 
L 127.006185 -291.57225 
L 126.069231 -291.57225 
L 126.069231 -291.57225 
L 125.132277 -291.57225 
L 125.132277 -291.57225 
L 124.195323 -291.57225 
L 124.195323 -291.57225 
L 121.384461 -291.57225 
L 121.384461 -291.57225 
L 120.915984 -291.57225 
L 120.915984 -291.57225 
L 115.294261 -291.57225 
L 115.294261 -291.57225 
L 99.366043 -291.57225 
L 99.366043 -291.57225 
L 95.618228 -291.57225 
L 95.618228 -291.57225 
L 91.870412 -291.57225 
L 91.870412 -291.57225 
L 84.843257 -291.57225 
L 84.843257 -291.57225 
L 82.969349 -291.57225 
L 82.969349 -291.57225 
L 82.500872 -291.57225 
L 82.500872 -291.57225 
L 60.013977 -291.57225 
z
" style="stroke: #ff7f0e; stroke-opacity: 0.25"/>
    </defs>
    <g clip-path="url(#p5ef9db4ae4)">
     <use xlink:href="#mb000759856" x="0" y="352.861125" style="fill: #ff7f0e; fill-opacity: 0.25; stroke: #ff7f0e; stroke-opacity: 0.25"/>
    </g>
   </g>
   <g id="PolyCollection_3">
    <defs>
     <path id="mad58c952f1" d="M 60.013977 -291.57225 
L 60.013977 -291.57225 
L 319.550223 -291.57225 
L 319.550223 -291.57225 
L 319.550223 -291.57225 
L 319.550223 -291.57225 
L 319.550223 -291.57225 
L 60.013977 -291.57225 
z
" style="stroke: #2ca02c; stroke-opacity: 0.25"/>
    </defs>
    <g clip-path="url(#p5ef9db4ae4)">
     <use xlink:href="#mad58c952f1" x="0" y="352.861125" style="fill: #2ca02c; fill-opacity: 0.25; stroke: #2ca02c; stroke-opacity: 0.25"/>
    </g>
   </g>
   <g id="matplotlib.axis_1">
    <g id="xtick_1">
     <g id="line2d_1">
      <defs>
       <path id="ma4cedb3e37" d="M 0 0 
L 0 3.5 
" style="stroke: #000000; stroke-width: 0.8"/>
      </defs>
      <g>
       <use xlink:href="#ma4cedb3e37" x="60.013977" y="315.304875" style="stroke: #000000; stroke-width: 0.8"/>
      </g>
     </g>
     <g id="text_1">
      <!-- 0 -->
      <g transform="translate(56.832727 329.903312) scale(0.1 -0.1)">
       <defs>
        <path id="DejaVuSans-30" d="M 2034 4250 
Q 1547 4250 1301 3770 
Q 1056 3291 1056 2328 
Q 1056 1369 1301 889 
Q 1547 409 2034 409 
Q 2525 409 2770 889 
Q 3016 1369 3016 2328 
Q 3016 3291 2770 3770 
Q 2525 4250 2034 4250 
z
M 2034 4750 
Q 2819 4750 3233 4129 
Q 3647 3509 3647 2328 
Q 3647 1150 3233 529 
Q 2819 -91 2034 -91 
Q 1250 -91 836 529 
Q 422 1150 422 2328 
Q 422 3509 836 4129 
Q 1250 4750 2034 4750 
z
" transform="scale(0.015625)"/>
       </defs>
       <use xlink:href="#DejaVuSans-30"/>
      </g>
     </g>
    </g>
    <g id="xtick_2">
     <g id="line2d_2">
      <g>
       <use xlink:href="#ma4cedb3e37" x="106.861675" y="315.304875" style="stroke: #000000; stroke-width: 0.8"/>
      </g>
     </g>
     <g id="text_2">
      <!-- 100 -->
      <g transform="translate(97.317925 329.903312) scale(0.1 -0.1)">
       <defs>
        <path id="DejaVuSans-31" d="M 794 531 
L 1825 531 
L 1825 4091 
L 703 3866 
L 703 4441 
L 1819 4666 
L 2450 4666 
L 2450 531 
L 3481 531 
L 3481 0 
L 794 0 
L 794 531 
z
" transform="scale(0.015625)"/>
       </defs>
       <use xlink:href="#DejaVuSans-31"/>
       <use xlink:href="#DejaVuSans-30" x="63.623047"/>
       <use xlink:href="#DejaVuSans-30" x="127.246094"/>
      </g>
     </g>
    </g>
    <g id="xtick_3">
     <g id="line2d_3">
      <g>
       <use xlink:href="#ma4cedb3e37" x="153.709373" y="315.304875" style="stroke: #000000; stroke-width: 0.8"/>
      </g>
     </g>
     <g id="text_3">
      <!-- 200 -->
      <g transform="translate(144.165623 329.903312) scale(0.1 -0.1)">
       <defs>
        <path id="DejaVuSans-32" d="M 1228 531 
L 3431 531 
L 3431 0 
L 469 0 
L 469 531 
Q 828 903 1448 1529 
Q 2069 2156 2228 2338 
Q 2531 2678 2651 2914 
Q 2772 3150 2772 3378 
Q 2772 3750 2511 3984 
Q 2250 4219 1831 4219 
Q 1534 4219 1204 4116 
Q 875 4013 500 3803 
L 500 4441 
Q 881 4594 1212 4672 
Q 1544 4750 1819 4750 
Q 2544 4750 2975 4387 
Q 3406 4025 3406 3419 
Q 3406 3131 3298 2873 
Q 3191 2616 2906 2266 
Q 2828 2175 2409 1742 
Q 1991 1309 1228 531 
z
" transform="scale(0.015625)"/>
       </defs>
       <use xlink:href="#DejaVuSans-32"/>
       <use xlink:href="#DejaVuSans-30" x="63.623047"/>
       <use xlink:href="#DejaVuSans-30" x="127.246094"/>
      </g>
     </g>
    </g>
    <g id="xtick_4">
     <g id="line2d_4">
      <g>
       <use xlink:href="#ma4cedb3e37" x="200.557071" y="315.304875" style="stroke: #000000; stroke-width: 0.8"/>
      </g>
     </g>
     <g id="text_4">
      <!-- 300 -->
      <g transform="translate(191.013321 329.903312) scale(0.1 -0.1)">
       <defs>
        <path id="DejaVuSans-33" d="M 2597 2516 
Q 3050 2419 3304 2112 
Q 3559 1806 3559 1356 
Q 3559 666 3084 287 
Q 2609 -91 1734 -91 
Q 1441 -91 1130 -33 
Q 819 25 488 141 
L 488 750 
Q 750 597 1062 519 
Q 1375 441 1716 441 
Q 2309 441 2620 675 
Q 2931 909 2931 1356 
Q 2931 1769 2642 2001 
Q 2353 2234 1838 2234 
L 1294 2234 
L 1294 2753 
L 1863 2753 
Q 2328 2753 2575 2939 
Q 2822 3125 2822 3475 
Q 2822 3834 2567 4026 
Q 2313 4219 1838 4219 
Q 1578 4219 1281 4162 
Q 984 4106 628 3988 
L 628 4550 
Q 988 4650 1302 4700 
Q 1616 4750 1894 4750 
Q 2613 4750 3031 4423 
Q 3450 4097 3450 3541 
Q 3450 3153 3228 2886 
Q 3006 2619 2597 2516 
z
" transform="scale(0.015625)"/>
       </defs>
       <use xlink:href="#DejaVuSans-33"/>
       <use xlink:href="#DejaVuSans-30" x="63.623047"/>
       <use xlink:href="#DejaVuSans-30" x="127.246094"/>
      </g>
     </g>
    </g>
    <g id="xtick_5">
     <g id="line2d_5">
      <g>
       <use xlink:href="#ma4cedb3e37" x="247.404768" y="315.304875" style="stroke: #000000; stroke-width: 0.8"/>
      </g>
     </g>
     <g id="text_5">
      <!-- 400 -->
      <g transform="translate(237.861018 329.903312) scale(0.1 -0.1)">
       <defs>
        <path id="DejaVuSans-34" d="M 2419 4116 
L 825 1625 
L 2419 1625 
L 2419 4116 
z
M 2253 4666 
L 3047 4666 
L 3047 1625 
L 3713 1625 
L 3713 1100 
L 3047 1100 
L 3047 0 
L 2419 0 
L 2419 1100 
L 313 1100 
L 313 1709 
L 2253 4666 
z
" transform="scale(0.015625)"/>
       </defs>
       <use xlink:href="#DejaVuSans-34"/>
       <use xlink:href="#DejaVuSans-30" x="63.623047"/>
       <use xlink:href="#DejaVuSans-30" x="127.246094"/>
      </g>
     </g>
    </g>
    <g id="xtick_6">
     <g id="line2d_6">
      <g>
       <use xlink:href="#ma4cedb3e37" x="294.252466" y="315.304875" style="stroke: #000000; stroke-width: 0.8"/>
      </g>
     </g>
     <g id="text_6">
      <!-- 500 -->
      <g transform="translate(284.708716 329.903312) scale(0.1 -0.1)">
       <defs>
        <path id="DejaVuSans-35" d="M 691 4666 
L 3169 4666 
L 3169 4134 
L 1269 4134 
L 1269 2991 
Q 1406 3038 1543 3061 
Q 1681 3084 1819 3084 
Q 2600 3084 3056 2656 
Q 3513 2228 3513 1497 
Q 3513 744 3044 326 
Q 2575 -91 1722 -91 
Q 1428 -91 1123 -41 
Q 819 9 494 109 
L 494 744 
Q 775 591 1075 516 
Q 1375 441 1709 441 
Q 2250 441 2565 725 
Q 2881 1009 2881 1497 
Q 2881 1984 2565 2268 
Q 2250 2553 1709 2553 
Q 1456 2553 1204 2497 
Q 953 2441 691 2322 
L 691 4666 
z
" transform="scale(0.015625)"/>
       </defs>
       <use xlink:href="#DejaVuSans-35"/>
       <use xlink:href="#DejaVuSans-30" x="63.623047"/>
       <use xlink:href="#DejaVuSans-30" x="127.246094"/>
      </g>
     </g>
    </g>
    <g id="xtick_7">
     <g id="line2d_7">
      <g>
       <use xlink:href="#ma4cedb3e37" x="341.100164" y="315.304875" style="stroke: #000000; stroke-width: 0.8"/>
      </g>
     </g>
     <g id="text_7">
      <!-- 600 -->
      <g transform="translate(331.556414 329.903312) scale(0.1 -0.1)">
       <defs>
        <path id="DejaVuSans-36" d="M 2113 2584 
Q 1688 2584 1439 2293 
Q 1191 2003 1191 1497 
Q 1191 994 1439 701 
Q 1688 409 2113 409 
Q 2538 409 2786 701 
Q 3034 994 3034 1497 
Q 3034 2003 2786 2293 
Q 2538 2584 2113 2584 
z
M 3366 4563 
L 3366 3988 
Q 3128 4100 2886 4159 
Q 2644 4219 2406 4219 
Q 1781 4219 1451 3797 
Q 1122 3375 1075 2522 
Q 1259 2794 1537 2939 
Q 1816 3084 2150 3084 
Q 2853 3084 3261 2657 
Q 3669 2231 3669 1497 
Q 3669 778 3244 343 
Q 2819 -91 2113 -91 
Q 1303 -91 875 529 
Q 447 1150 447 2328 
Q 447 3434 972 4092 
Q 1497 4750 2381 4750 
Q 2619 4750 2861 4703 
Q 3103 4656 3366 4563 
z
" transform="scale(0.015625)"/>
       </defs>
       <use xlink:href="#DejaVuSans-36"/>
       <use xlink:href="#DejaVuSans-30" x="63.623047"/>
       <use xlink:href="#DejaVuSans-30" x="127.246094"/>
      </g>
     </g>
    </g>
    <g id="xtick_8">
     <g id="line2d_8">
      <g>
       <use xlink:href="#ma4cedb3e37" x="387.947862" y="315.304875" style="stroke: #000000; stroke-width: 0.8"/>
      </g>
     </g>
     <g id="text_8">
      <!-- 700 -->
      <g transform="translate(378.404112 329.903312) scale(0.1 -0.1)">
       <defs>
        <path id="DejaVuSans-37" d="M 525 4666 
L 3525 4666 
L 3525 4397 
L 1831 0 
L 1172 0 
L 2766 4134 
L 525 4134 
L 525 4666 
z
" transform="scale(0.015625)"/>
       </defs>
       <use xlink:href="#DejaVuSans-37"/>
       <use xlink:href="#DejaVuSans-30" x="63.623047"/>
       <use xlink:href="#DejaVuSans-30" x="127.246094"/>
      </g>
     </g>
    </g>
    <g id="text_9">
     <!-- Weeks since Treatment Start -->
     <g transform="translate(150.632656 343.581437) scale(0.1 -0.1)">
      <defs>
       <path id="DejaVuSans-57" d="M 213 4666 
L 850 4666 
L 1831 722 
L 2809 4666 
L 3519 4666 
L 4500 722 
L 5478 4666 
L 6119 4666 
L 4947 0 
L 4153 0 
L 3169 4050 
L 2175 0 
L 1381 0 
L 213 4666 
z
" transform="scale(0.015625)"/>
       <path id="DejaVuSans-65" d="M 3597 1894 
L 3597 1613 
L 953 1613 
Q 991 1019 1311 708 
Q 1631 397 2203 397 
Q 2534 397 2845 478 
Q 3156 559 3463 722 
L 3463 178 
Q 3153 47 2828 -22 
Q 2503 -91 2169 -91 
Q 1331 -91 842 396 
Q 353 884 353 1716 
Q 353 2575 817 3079 
Q 1281 3584 2069 3584 
Q 2775 3584 3186 3129 
Q 3597 2675 3597 1894 
z
M 3022 2063 
Q 3016 2534 2758 2815 
Q 2500 3097 2075 3097 
Q 1594 3097 1305 2825 
Q 1016 2553 972 2059 
L 3022 2063 
z
" transform="scale(0.015625)"/>
       <path id="DejaVuSans-6b" d="M 581 4863 
L 1159 4863 
L 1159 1991 
L 2875 3500 
L 3609 3500 
L 1753 1863 
L 3688 0 
L 2938 0 
L 1159 1709 
L 1159 0 
L 581 0 
L 581 4863 
z
" transform="scale(0.015625)"/>
       <path id="DejaVuSans-73" d="M 2834 3397 
L 2834 2853 
Q 2591 2978 2328 3040 
Q 2066 3103 1784 3103 
Q 1356 3103 1142 2972 
Q 928 2841 928 2578 
Q 928 2378 1081 2264 
Q 1234 2150 1697 2047 
L 1894 2003 
Q 2506 1872 2764 1633 
Q 3022 1394 3022 966 
Q 3022 478 2636 193 
Q 2250 -91 1575 -91 
Q 1294 -91 989 -36 
Q 684 19 347 128 
L 347 722 
Q 666 556 975 473 
Q 1284 391 1588 391 
Q 1994 391 2212 530 
Q 2431 669 2431 922 
Q 2431 1156 2273 1281 
Q 2116 1406 1581 1522 
L 1381 1569 
Q 847 1681 609 1914 
Q 372 2147 372 2553 
Q 372 3047 722 3315 
Q 1072 3584 1716 3584 
Q 2034 3584 2315 3537 
Q 2597 3491 2834 3397 
z
" transform="scale(0.015625)"/>
       <path id="DejaVuSans-20" transform="scale(0.015625)"/>
       <path id="DejaVuSans-69" d="M 603 3500 
L 1178 3500 
L 1178 0 
L 603 0 
L 603 3500 
z
M 603 4863 
L 1178 4863 
L 1178 4134 
L 603 4134 
L 603 4863 
z
" transform="scale(0.015625)"/>
       <path id="DejaVuSans-6e" d="M 3513 2113 
L 3513 0 
L 2938 0 
L 2938 2094 
Q 2938 2591 2744 2837 
Q 2550 3084 2163 3084 
Q 1697 3084 1428 2787 
Q 1159 2491 1159 1978 
L 1159 0 
L 581 0 
L 581 3500 
L 1159 3500 
L 1159 2956 
Q 1366 3272 1645 3428 
Q 1925 3584 2291 3584 
Q 2894 3584 3203 3211 
Q 3513 2838 3513 2113 
z
" transform="scale(0.015625)"/>
       <path id="DejaVuSans-63" d="M 3122 3366 
L 3122 2828 
Q 2878 2963 2633 3030 
Q 2388 3097 2138 3097 
Q 1578 3097 1268 2742 
Q 959 2388 959 1747 
Q 959 1106 1268 751 
Q 1578 397 2138 397 
Q 2388 397 2633 464 
Q 2878 531 3122 666 
L 3122 134 
Q 2881 22 2623 -34 
Q 2366 -91 2075 -91 
Q 1284 -91 818 406 
Q 353 903 353 1747 
Q 353 2603 823 3093 
Q 1294 3584 2113 3584 
Q 2378 3584 2631 3529 
Q 2884 3475 3122 3366 
z
" transform="scale(0.015625)"/>
       <path id="DejaVuSans-54" d="M -19 4666 
L 3928 4666 
L 3928 4134 
L 2272 4134 
L 2272 0 
L 1638 0 
L 1638 4134 
L -19 4134 
L -19 4666 
z
" transform="scale(0.015625)"/>
       <path id="DejaVuSans-72" d="M 2631 2963 
Q 2534 3019 2420 3045 
Q 2306 3072 2169 3072 
Q 1681 3072 1420 2755 
Q 1159 2438 1159 1844 
L 1159 0 
L 581 0 
L 581 3500 
L 1159 3500 
L 1159 2956 
Q 1341 3275 1631 3429 
Q 1922 3584 2338 3584 
Q 2397 3584 2469 3576 
Q 2541 3569 2628 3553 
L 2631 2963 
z
" transform="scale(0.015625)"/>
       <path id="DejaVuSans-61" d="M 2194 1759 
Q 1497 1759 1228 1600 
Q 959 1441 959 1056 
Q 959 750 1161 570 
Q 1363 391 1709 391 
Q 2188 391 2477 730 
Q 2766 1069 2766 1631 
L 2766 1759 
L 2194 1759 
z
M 3341 1997 
L 3341 0 
L 2766 0 
L 2766 531 
Q 2569 213 2275 61 
Q 1981 -91 1556 -91 
Q 1019 -91 701 211 
Q 384 513 384 1019 
Q 384 1609 779 1909 
Q 1175 2209 1959 2209 
L 2766 2209 
L 2766 2266 
Q 2766 2663 2505 2880 
Q 2244 3097 1772 3097 
Q 1472 3097 1187 3025 
Q 903 2953 641 2809 
L 641 3341 
Q 956 3463 1253 3523 
Q 1550 3584 1831 3584 
Q 2591 3584 2966 3190 
Q 3341 2797 3341 1997 
z
" transform="scale(0.015625)"/>
       <path id="DejaVuSans-74" d="M 1172 4494 
L 1172 3500 
L 2356 3500 
L 2356 3053 
L 1172 3053 
L 1172 1153 
Q 1172 725 1289 603 
Q 1406 481 1766 481 
L 2356 481 
L 2356 0 
L 1766 0 
Q 1100 0 847 248 
Q 594 497 594 1153 
L 594 3053 
L 172 3053 
L 172 3500 
L 594 3500 
L 594 4494 
L 1172 4494 
z
" transform="scale(0.015625)"/>
       <path id="DejaVuSans-6d" d="M 3328 2828 
Q 3544 3216 3844 3400 
Q 4144 3584 4550 3584 
Q 5097 3584 5394 3201 
Q 5691 2819 5691 2113 
L 5691 0 
L 5113 0 
L 5113 2094 
Q 5113 2597 4934 2840 
Q 4756 3084 4391 3084 
Q 3944 3084 3684 2787 
Q 3425 2491 3425 1978 
L 3425 0 
L 2847 0 
L 2847 2094 
Q 2847 2600 2669 2842 
Q 2491 3084 2119 3084 
Q 1678 3084 1418 2786 
Q 1159 2488 1159 1978 
L 1159 0 
L 581 0 
L 581 3500 
L 1159 3500 
L 1159 2956 
Q 1356 3278 1631 3431 
Q 1906 3584 2284 3584 
Q 2666 3584 2933 3390 
Q 3200 3197 3328 2828 
z
" transform="scale(0.015625)"/>
       <path id="DejaVuSans-53" d="M 3425 4513 
L 3425 3897 
Q 3066 4069 2747 4153 
Q 2428 4238 2131 4238 
Q 1616 4238 1336 4038 
Q 1056 3838 1056 3469 
Q 1056 3159 1242 3001 
Q 1428 2844 1947 2747 
L 2328 2669 
Q 3034 2534 3370 2195 
Q 3706 1856 3706 1288 
Q 3706 609 3251 259 
Q 2797 -91 1919 -91 
Q 1588 -91 1214 -16 
Q 841 59 441 206 
L 441 856 
Q 825 641 1194 531 
Q 1563 422 1919 422 
Q 2459 422 2753 634 
Q 3047 847 3047 1241 
Q 3047 1584 2836 1778 
Q 2625 1972 2144 2069 
L 1759 2144 
Q 1053 2284 737 2584 
Q 422 2884 422 3419 
Q 422 4038 858 4394 
Q 1294 4750 2059 4750 
Q 2388 4750 2728 4690 
Q 3069 4631 3425 4513 
z
" transform="scale(0.015625)"/>
      </defs>
      <use xlink:href="#DejaVuSans-57"/>
      <use xlink:href="#DejaVuSans-65" x="93.001953"/>
      <use xlink:href="#DejaVuSans-65" x="154.525391"/>
      <use xlink:href="#DejaVuSans-6b" x="216.048828"/>
      <use xlink:href="#DejaVuSans-73" x="273.958984"/>
      <use xlink:href="#DejaVuSans-20" x="326.058594"/>
      <use xlink:href="#DejaVuSans-73" x="357.845703"/>
      <use xlink:href="#DejaVuSans-69" x="409.945312"/>
      <use xlink:href="#DejaVuSans-6e" x="437.728516"/>
      <use xlink:href="#DejaVuSans-63" x="501.107422"/>
      <use xlink:href="#DejaVuSans-65" x="556.087891"/>
      <use xlink:href="#DejaVuSans-20" x="617.611328"/>
      <use xlink:href="#DejaVuSans-54" x="649.398438"/>
      <use xlink:href="#DejaVuSans-72" x="695.732422"/>
      <use xlink:href="#DejaVuSans-65" x="734.595703"/>
      <use xlink:href="#DejaVuSans-61" x="796.119141"/>
      <use xlink:href="#DejaVuSans-74" x="857.398438"/>
      <use xlink:href="#DejaVuSans-6d" x="896.607422"/>
      <use xlink:href="#DejaVuSans-65" x="994.019531"/>
      <use xlink:href="#DejaVuSans-6e" x="1055.542969"/>
      <use xlink:href="#DejaVuSans-74" x="1118.921875"/>
      <use xlink:href="#DejaVuSans-20" x="1158.130859"/>
      <use xlink:href="#DejaVuSans-53" x="1189.917969"/>
      <use xlink:href="#DejaVuSans-74" x="1253.394531"/>
      <use xlink:href="#DejaVuSans-61" x="1292.603516"/>
      <use xlink:href="#DejaVuSans-72" x="1353.882812"/>
      <use xlink:href="#DejaVuSans-74" x="1394.996094"/>
     </g>
    </g>
   </g>
   <g id="matplotlib.axis_2">
    <g id="ytick_1">
     <g id="line2d_9">
      <defs>
       <path id="mcfb154d14f" d="M 0 0 
L -3.5 0 
" style="stroke: #000000; stroke-width: 0.8"/>
      </defs>
      <g>
       <use xlink:href="#mcfb154d14f" x="43.78125" y="275.84069" style="stroke: #000000; stroke-width: 0.8"/>
      </g>
     </g>
     <g id="text_10">
      <!-- 0.2 -->
      <g transform="translate(20.878125 279.639909) scale(0.1 -0.1)">
       <defs>
        <path id="DejaVuSans-2e" d="M 684 794 
L 1344 794 
L 1344 0 
L 684 0 
L 684 794 
z
" transform="scale(0.015625)"/>
       </defs>
       <use xlink:href="#DejaVuSans-30"/>
       <use xlink:href="#DejaVuSans-2e" x="63.623047"/>
       <use xlink:href="#DejaVuSans-32" x="95.410156"/>
      </g>
     </g>
    </g>
    <g id="ytick_2">
     <g id="line2d_10">
      <g>
       <use xlink:href="#mcfb154d14f" x="43.78125" y="222.202736" style="stroke: #000000; stroke-width: 0.8"/>
      </g>
     </g>
     <g id="text_11">
      <!-- 0.4 -->
      <g transform="translate(20.878125 226.001955) scale(0.1 -0.1)">
       <use xlink:href="#DejaVuSans-30"/>
       <use xlink:href="#DejaVuSans-2e" x="63.623047"/>
       <use xlink:href="#DejaVuSans-34" x="95.410156"/>
      </g>
     </g>
    </g>
    <g id="ytick_3">
     <g id="line2d_11">
      <g>
       <use xlink:href="#mcfb154d14f" x="43.78125" y="168.564783" style="stroke: #000000; stroke-width: 0.8"/>
      </g>
     </g>
     <g id="text_12">
      <!-- 0.6 -->
      <g transform="translate(20.878125 172.364001) scale(0.1 -0.1)">
       <use xlink:href="#DejaVuSans-30"/>
       <use xlink:href="#DejaVuSans-2e" x="63.623047"/>
       <use xlink:href="#DejaVuSans-36" x="95.410156"/>
      </g>
     </g>
    </g>
    <g id="ytick_4">
     <g id="line2d_12">
      <g>
       <use xlink:href="#mcfb154d14f" x="43.78125" y="114.926829" style="stroke: #000000; stroke-width: 0.8"/>
      </g>
     </g>
     <g id="text_13">
      <!-- 0.8 -->
      <g transform="translate(20.878125 118.726048) scale(0.1 -0.1)">
       <defs>
        <path id="DejaVuSans-38" d="M 2034 2216 
Q 1584 2216 1326 1975 
Q 1069 1734 1069 1313 
Q 1069 891 1326 650 
Q 1584 409 2034 409 
Q 2484 409 2743 651 
Q 3003 894 3003 1313 
Q 3003 1734 2745 1975 
Q 2488 2216 2034 2216 
z
M 1403 2484 
Q 997 2584 770 2862 
Q 544 3141 544 3541 
Q 544 4100 942 4425 
Q 1341 4750 2034 4750 
Q 2731 4750 3128 4425 
Q 3525 4100 3525 3541 
Q 3525 3141 3298 2862 
Q 3072 2584 2669 2484 
Q 3125 2378 3379 2068 
Q 3634 1759 3634 1313 
Q 3634 634 3220 271 
Q 2806 -91 2034 -91 
Q 1263 -91 848 271 
Q 434 634 434 1313 
Q 434 1759 690 2068 
Q 947 2378 1403 2484 
z
M 1172 3481 
Q 1172 3119 1398 2916 
Q 1625 2713 2034 2713 
Q 2441 2713 2670 2916 
Q 2900 3119 2900 3481 
Q 2900 3844 2670 4047 
Q 2441 4250 2034 4250 
Q 1625 4250 1398 4047 
Q 1172 3844 1172 3481 
z
" transform="scale(0.015625)"/>
       </defs>
       <use xlink:href="#DejaVuSans-30"/>
       <use xlink:href="#DejaVuSans-2e" x="63.623047"/>
       <use xlink:href="#DejaVuSans-38" x="95.410156"/>
      </g>
     </g>
    </g>
    <g id="ytick_5">
     <g id="line2d_13">
      <g>
       <use xlink:href="#mcfb154d14f" x="43.78125" y="61.288875" style="stroke: #000000; stroke-width: 0.8"/>
      </g>
     </g>
     <g id="text_14">
      <!-- 1.0 -->
      <g transform="translate(20.878125 65.088094) scale(0.1 -0.1)">
       <use xlink:href="#DejaVuSans-31"/>
       <use xlink:href="#DejaVuSans-2e" x="63.623047"/>
       <use xlink:href="#DejaVuSans-30" x="95.410156"/>
      </g>
     </g>
    </g>
    <g id="text_15">
     <!-- Probability of No Event -->
     <g transform="translate(14.798438 239.388719) rotate(-90) scale(0.1 -0.1)">
      <defs>
       <path id="DejaVuSans-50" d="M 1259 4147 
L 1259 2394 
L 2053 2394 
Q 2494 2394 2734 2622 
Q 2975 2850 2975 3272 
Q 2975 3691 2734 3919 
Q 2494 4147 2053 4147 
L 1259 4147 
z
M 628 4666 
L 2053 4666 
Q 2838 4666 3239 4311 
Q 3641 3956 3641 3272 
Q 3641 2581 3239 2228 
Q 2838 1875 2053 1875 
L 1259 1875 
L 1259 0 
L 628 0 
L 628 4666 
z
" transform="scale(0.015625)"/>
       <path id="DejaVuSans-6f" d="M 1959 3097 
Q 1497 3097 1228 2736 
Q 959 2375 959 1747 
Q 959 1119 1226 758 
Q 1494 397 1959 397 
Q 2419 397 2687 759 
Q 2956 1122 2956 1747 
Q 2956 2369 2687 2733 
Q 2419 3097 1959 3097 
z
M 1959 3584 
Q 2709 3584 3137 3096 
Q 3566 2609 3566 1747 
Q 3566 888 3137 398 
Q 2709 -91 1959 -91 
Q 1206 -91 779 398 
Q 353 888 353 1747 
Q 353 2609 779 3096 
Q 1206 3584 1959 3584 
z
" transform="scale(0.015625)"/>
       <path id="DejaVuSans-62" d="M 3116 1747 
Q 3116 2381 2855 2742 
Q 2594 3103 2138 3103 
Q 1681 3103 1420 2742 
Q 1159 2381 1159 1747 
Q 1159 1113 1420 752 
Q 1681 391 2138 391 
Q 2594 391 2855 752 
Q 3116 1113 3116 1747 
z
M 1159 2969 
Q 1341 3281 1617 3432 
Q 1894 3584 2278 3584 
Q 2916 3584 3314 3078 
Q 3713 2572 3713 1747 
Q 3713 922 3314 415 
Q 2916 -91 2278 -91 
Q 1894 -91 1617 61 
Q 1341 213 1159 525 
L 1159 0 
L 581 0 
L 581 4863 
L 1159 4863 
L 1159 2969 
z
" transform="scale(0.015625)"/>
       <path id="DejaVuSans-6c" d="M 603 4863 
L 1178 4863 
L 1178 0 
L 603 0 
L 603 4863 
z
" transform="scale(0.015625)"/>
       <path id="DejaVuSans-79" d="M 2059 -325 
Q 1816 -950 1584 -1140 
Q 1353 -1331 966 -1331 
L 506 -1331 
L 506 -850 
L 844 -850 
Q 1081 -850 1212 -737 
Q 1344 -625 1503 -206 
L 1606 56 
L 191 3500 
L 800 3500 
L 1894 763 
L 2988 3500 
L 3597 3500 
L 2059 -325 
z
" transform="scale(0.015625)"/>
       <path id="DejaVuSans-66" d="M 2375 4863 
L 2375 4384 
L 1825 4384 
Q 1516 4384 1395 4259 
Q 1275 4134 1275 3809 
L 1275 3500 
L 2222 3500 
L 2222 3053 
L 1275 3053 
L 1275 0 
L 697 0 
L 697 3053 
L 147 3053 
L 147 3500 
L 697 3500 
L 697 3744 
Q 697 4328 969 4595 
Q 1241 4863 1831 4863 
L 2375 4863 
z
" transform="scale(0.015625)"/>
       <path id="DejaVuSans-4e" d="M 628 4666 
L 1478 4666 
L 3547 763 
L 3547 4666 
L 4159 4666 
L 4159 0 
L 3309 0 
L 1241 3903 
L 1241 0 
L 628 0 
L 628 4666 
z
" transform="scale(0.015625)"/>
       <path id="DejaVuSans-45" d="M 628 4666 
L 3578 4666 
L 3578 4134 
L 1259 4134 
L 1259 2753 
L 3481 2753 
L 3481 2222 
L 1259 2222 
L 1259 531 
L 3634 531 
L 3634 0 
L 628 0 
L 628 4666 
z
" transform="scale(0.015625)"/>
       <path id="DejaVuSans-76" d="M 191 3500 
L 800 3500 
L 1894 563 
L 2988 3500 
L 3597 3500 
L 2284 0 
L 1503 0 
L 191 3500 
z
" transform="scale(0.015625)"/>
      </defs>
      <use xlink:href="#DejaVuSans-50"/>
      <use xlink:href="#DejaVuSans-72" x="58.552734"/>
      <use xlink:href="#DejaVuSans-6f" x="97.416016"/>
      <use xlink:href="#DejaVuSans-62" x="158.597656"/>
      <use xlink:href="#DejaVuSans-61" x="222.074219"/>
      <use xlink:href="#DejaVuSans-62" x="283.353516"/>
      <use xlink:href="#DejaVuSans-69" x="346.830078"/>
      <use xlink:href="#DejaVuSans-6c" x="374.613281"/>
      <use xlink:href="#DejaVuSans-69" x="402.396484"/>
      <use xlink:href="#DejaVuSans-74" x="430.179688"/>
      <use xlink:href="#DejaVuSans-79" x="469.388672"/>
      <use xlink:href="#DejaVuSans-20" x="528.568359"/>
      <use xlink:href="#DejaVuSans-6f" x="560.355469"/>
      <use xlink:href="#DejaVuSans-66" x="621.537109"/>
      <use xlink:href="#DejaVuSans-20" x="656.742188"/>
      <use xlink:href="#DejaVuSans-4e" x="688.529297"/>
      <use xlink:href="#DejaVuSans-6f" x="763.333984"/>
      <use xlink:href="#DejaVuSans-20" x="824.515625"/>
      <use xlink:href="#DejaVuSans-45" x="856.302734"/>
      <use xlink:href="#DejaVuSans-76" x="919.486328"/>
      <use xlink:href="#DejaVuSans-65" x="978.666016"/>
      <use xlink:href="#DejaVuSans-6e" x="1040.189453"/>
      <use xlink:href="#DejaVuSans-74" x="1103.568359"/>
     </g>
    </g>
   </g>
   <g id="line2d_14">
    <defs>
     <path id="m141aec6980" d="M -4 0 
L 4 0 
M 0 4 
L 0 -4 
" style="stroke: #1f77b4; stroke-width: 0.5"/>
    </defs>
    <g clip-path="url(#p5ef9db4ae4)">
     <use xlink:href="#m141aec6980" x="82.969349" y="61.288875" style="fill: #1f77b4; stroke: #1f77b4; stroke-width: 0.5"/>
     <use xlink:href="#m141aec6980" x="96.086705" y="61.288875" style="fill: #1f77b4; stroke: #1f77b4; stroke-width: 0.5"/>
     <use xlink:href="#m141aec6980" x="143.871356" y="64.172636" style="fill: #1f77b4; stroke: #1f77b4; stroke-width: 0.5"/>
     <use xlink:href="#m141aec6980" x="144.339833" y="64.172636" style="fill: #1f77b4; stroke: #1f77b4; stroke-width: 0.5"/>
     <use xlink:href="#m141aec6980" x="144.80831" y="64.172636" style="fill: #1f77b4; stroke: #1f77b4; stroke-width: 0.5"/>
     <use xlink:href="#m141aec6980" x="145.276787" y="64.172636" style="fill: #1f77b4; stroke: #1f77b4; stroke-width: 0.5"/>
     <use xlink:href="#m141aec6980" x="151.366988" y="64.172636" style="fill: #1f77b4; stroke: #1f77b4; stroke-width: 0.5"/>
     <use xlink:href="#m141aec6980" x="151.835465" y="64.172636" style="fill: #1f77b4; stroke: #1f77b4; stroke-width: 0.5"/>
     <use xlink:href="#m141aec6980" x="161.673481" y="64.172636" style="fill: #1f77b4; stroke: #1f77b4; stroke-width: 0.5"/>
     <use xlink:href="#m141aec6980" x="181.349514" y="67.293883" style="fill: #1f77b4; stroke: #1f77b4; stroke-width: 0.5"/>
     <use xlink:href="#m141aec6980" x="209.458133" y="67.293883" style="fill: #1f77b4; stroke: #1f77b4; stroke-width: 0.5"/>
     <use xlink:href="#m141aec6980" x="223.980919" y="67.293883" style="fill: #1f77b4; stroke: #1f77b4; stroke-width: 0.5"/>
     <use xlink:href="#m141aec6980" x="228.197212" y="67.293883" style="fill: #1f77b4; stroke: #1f77b4; stroke-width: 0.5"/>
     <use xlink:href="#m141aec6980" x="230.07112" y="67.293883" style="fill: #1f77b4; stroke: #1f77b4; stroke-width: 0.5"/>
     <use xlink:href="#m141aec6980" x="230.539597" y="67.293883" style="fill: #1f77b4; stroke: #1f77b4; stroke-width: 0.5"/>
     <use xlink:href="#m141aec6980" x="231.008074" y="67.293883" style="fill: #1f77b4; stroke: #1f77b4; stroke-width: 0.5"/>
     <use xlink:href="#m141aec6980" x="242.251522" y="70.69888" style="fill: #1f77b4; stroke: #1f77b4; stroke-width: 0.5"/>
     <use xlink:href="#m141aec6980" x="256.305831" y="74.149277" style="fill: #1f77b4; stroke: #1f77b4; stroke-width: 0.5"/>
     <use xlink:href="#m141aec6980" x="259.58517" y="74.149277" style="fill: #1f77b4; stroke: #1f77b4; stroke-width: 0.5"/>
     <use xlink:href="#m141aec6980" x="260.990601" y="74.149277" style="fill: #1f77b4; stroke: #1f77b4; stroke-width: 0.5"/>
     <use xlink:href="#m141aec6980" x="270.828617" y="74.149277" style="fill: #1f77b4; stroke: #1f77b4; stroke-width: 0.5"/>
     <use xlink:href="#m141aec6980" x="271.765571" y="74.149277" style="fill: #1f77b4; stroke: #1f77b4; stroke-width: 0.5"/>
     <use xlink:href="#m141aec6980" x="276.918818" y="74.149277" style="fill: #1f77b4; stroke: #1f77b4; stroke-width: 0.5"/>
     <use xlink:href="#m141aec6980" x="277.387295" y="74.149277" style="fill: #1f77b4; stroke: #1f77b4; stroke-width: 0.5"/>
     <use xlink:href="#m141aec6980" x="278.792726" y="74.149277" style="fill: #1f77b4; stroke: #1f77b4; stroke-width: 0.5"/>
     <use xlink:href="#m141aec6980" x="285.351403" y="78.077421" style="fill: #1f77b4; stroke: #1f77b4; stroke-width: 0.5"/>
     <use xlink:href="#m141aec6980" x="292.378558" y="78.077421" style="fill: #1f77b4; stroke: #1f77b4; stroke-width: 0.5"/>
     <use xlink:href="#m141aec6980" x="296.126374" y="78.077421" style="fill: #1f77b4; stroke: #1f77b4; stroke-width: 0.5"/>
     <use xlink:href="#m141aec6980" x="302.685052" y="78.077421" style="fill: #1f77b4; stroke: #1f77b4; stroke-width: 0.5"/>
     <use xlink:href="#m141aec6980" x="305.027437" y="78.077421" style="fill: #1f77b4; stroke: #1f77b4; stroke-width: 0.5"/>
     <use xlink:href="#m141aec6980" x="305.495914" y="78.077421" style="fill: #1f77b4; stroke: #1f77b4; stroke-width: 0.5"/>
     <use xlink:href="#m141aec6980" x="305.96439" y="78.077421" style="fill: #1f77b4; stroke: #1f77b4; stroke-width: 0.5"/>
     <use xlink:href="#m141aec6980" x="306.432867" y="78.077421" style="fill: #1f77b4; stroke: #1f77b4; stroke-width: 0.5"/>
     <use xlink:href="#m141aec6980" x="306.901344" y="78.077421" style="fill: #1f77b4; stroke: #1f77b4; stroke-width: 0.5"/>
     <use xlink:href="#m141aec6980" x="307.369821" y="78.077421" style="fill: #1f77b4; stroke: #1f77b4; stroke-width: 0.5"/>
     <use xlink:href="#m141aec6980" x="307.838298" y="78.077421" style="fill: #1f77b4; stroke: #1f77b4; stroke-width: 0.5"/>
     <use xlink:href="#m141aec6980" x="308.775252" y="78.077421" style="fill: #1f77b4; stroke: #1f77b4; stroke-width: 0.5"/>
     <use xlink:href="#m141aec6980" x="309.243729" y="78.077421" style="fill: #1f77b4; stroke: #1f77b4; stroke-width: 0.5"/>
     <use xlink:href="#m141aec6980" x="309.712206" y="78.077421" style="fill: #1f77b4; stroke: #1f77b4; stroke-width: 0.5"/>
     <use xlink:href="#m141aec6980" x="311.586114" y="78.077421" style="fill: #1f77b4; stroke: #1f77b4; stroke-width: 0.5"/>
     <use xlink:href="#m141aec6980" x="312.523068" y="78.077421" style="fill: #1f77b4; stroke: #1f77b4; stroke-width: 0.5"/>
     <use xlink:href="#m141aec6980" x="312.991545" y="78.077421" style="fill: #1f77b4; stroke: #1f77b4; stroke-width: 0.5"/>
     <use xlink:href="#m141aec6980" x="313.928499" y="78.077421" style="fill: #1f77b4; stroke: #1f77b4; stroke-width: 0.5"/>
     <use xlink:href="#m141aec6980" x="314.865453" y="78.077421" style="fill: #1f77b4; stroke: #1f77b4; stroke-width: 0.5"/>
     <use xlink:href="#m141aec6980" x="315.33393" y="78.077421" style="fill: #1f77b4; stroke: #1f77b4; stroke-width: 0.5"/>
     <use xlink:href="#m141aec6980" x="315.802407" y="78.077421" style="fill: #1f77b4; stroke: #1f77b4; stroke-width: 0.5"/>
     <use xlink:href="#m141aec6980" x="316.270884" y="78.077421" style="fill: #1f77b4; stroke: #1f77b4; stroke-width: 0.5"/>
     <use xlink:href="#m141aec6980" x="316.739361" y="78.077421" style="fill: #1f77b4; stroke: #1f77b4; stroke-width: 0.5"/>
     <use xlink:href="#m141aec6980" x="318.144792" y="78.077421" style="fill: #1f77b4; stroke: #1f77b4; stroke-width: 0.5"/>
     <use xlink:href="#m141aec6980" x="318.613269" y="78.077421" style="fill: #1f77b4; stroke: #1f77b4; stroke-width: 0.5"/>
     <use xlink:href="#m141aec6980" x="319.081746" y="78.077421" style="fill: #1f77b4; stroke: #1f77b4; stroke-width: 0.5"/>
     <use xlink:href="#m141aec6980" x="319.550223" y="87.056036" style="fill: #1f77b4; stroke: #1f77b4; stroke-width: 0.5"/>
     <use xlink:href="#m141aec6980" x="320.487177" y="87.056036" style="fill: #1f77b4; stroke: #1f77b4; stroke-width: 0.5"/>
     <use xlink:href="#m141aec6980" x="322.829562" y="87.056036" style="fill: #1f77b4; stroke: #1f77b4; stroke-width: 0.5"/>
     <use xlink:href="#m141aec6980" x="323.766516" y="87.056036" style="fill: #1f77b4; stroke: #1f77b4; stroke-width: 0.5"/>
     <use xlink:href="#m141aec6980" x="324.70347" y="87.056036" style="fill: #1f77b4; stroke: #1f77b4; stroke-width: 0.5"/>
     <use xlink:href="#m141aec6980" x="325.171947" y="87.056036" style="fill: #1f77b4; stroke: #1f77b4; stroke-width: 0.5"/>
     <use xlink:href="#m141aec6980" x="326.108901" y="87.056036" style="fill: #1f77b4; stroke: #1f77b4; stroke-width: 0.5"/>
     <use xlink:href="#m141aec6980" x="326.577378" y="87.056036" style="fill: #1f77b4; stroke: #1f77b4; stroke-width: 0.5"/>
     <use xlink:href="#m141aec6980" x="327.045854" y="87.056036" style="fill: #1f77b4; stroke: #1f77b4; stroke-width: 0.5"/>
     <use xlink:href="#m141aec6980" x="327.514331" y="87.056036" style="fill: #1f77b4; stroke: #1f77b4; stroke-width: 0.5"/>
     <use xlink:href="#m141aec6980" x="327.982808" y="87.056036" style="fill: #1f77b4; stroke: #1f77b4; stroke-width: 0.5"/>
     <use xlink:href="#m141aec6980" x="329.388239" y="87.056036" style="fill: #1f77b4; stroke: #1f77b4; stroke-width: 0.5"/>
     <use xlink:href="#m141aec6980" x="330.325193" y="87.056036" style="fill: #1f77b4; stroke: #1f77b4; stroke-width: 0.5"/>
     <use xlink:href="#m141aec6980" x="331.730624" y="87.056036" style="fill: #1f77b4; stroke: #1f77b4; stroke-width: 0.5"/>
     <use xlink:href="#m141aec6980" x="334.541486" y="87.056036" style="fill: #1f77b4; stroke: #1f77b4; stroke-width: 0.5"/>
     <use xlink:href="#m141aec6980" x="336.415394" y="87.056036" style="fill: #1f77b4; stroke: #1f77b4; stroke-width: 0.5"/>
     <use xlink:href="#m141aec6980" x="337.820825" y="87.056036" style="fill: #1f77b4; stroke: #1f77b4; stroke-width: 0.5"/>
     <use xlink:href="#m141aec6980" x="340.631687" y="87.056036" style="fill: #1f77b4; stroke: #1f77b4; stroke-width: 0.5"/>
     <use xlink:href="#m141aec6980" x="341.100164" y="87.056036" style="fill: #1f77b4; stroke: #1f77b4; stroke-width: 0.5"/>
     <use xlink:href="#m141aec6980" x="343.442549" y="135.540558" style="fill: #1f77b4; stroke: #1f77b4; stroke-width: 0.5"/>
     <use xlink:href="#m141aec6980" x="352.343611" y="135.540558" style="fill: #1f77b4; stroke: #1f77b4; stroke-width: 0.5"/>
     <use xlink:href="#m141aec6980" x="355.154473" y="135.540558" style="fill: #1f77b4; stroke: #1f77b4; stroke-width: 0.5"/>
     <use xlink:href="#m141aec6980" x="372.488121" y="135.540558" style="fill: #1f77b4; stroke: #1f77b4; stroke-width: 0.5"/>
    </g>
   </g>
   <g id="line2d_15">
    <path d="M 60.013977 61.288875 
L 126.537708 61.288875 
L 126.537708 64.172636 
L 163.547389 64.172636 
L 163.547389 67.293883 
L 242.251522 67.293883 
L 242.251522 70.69888 
L 250.21563 70.69888 
L 250.21563 74.149277 
L 285.351403 74.149277 
L 285.351403 78.077421 
L 319.550223 78.077421 
L 319.550223 87.056036 
L 342.037118 87.056036 
L 342.037118 135.540558 
L 372.488121 135.540558 
L 372.488121 135.540558 
" clip-path="url(#p5ef9db4ae4)" style="fill: none; stroke: #1f77b4; stroke-width: 1.5; stroke-linecap: square"/>
   </g>
   <g id="line2d_16">
    <defs>
     <path id="m280189eb5c" d="M -4 0 
L 4 0 
M 0 4 
L 0 -4 
" style="stroke: #ff7f0e; stroke-width: 0.5"/>
    </defs>
    <g clip-path="url(#p5ef9db4ae4)">
     <use xlink:href="#m280189eb5c" x="82.500872" y="61.288875" style="fill: #ff7f0e; stroke: #ff7f0e; stroke-width: 0.5"/>
     <use xlink:href="#m280189eb5c" x="82.969349" y="61.288875" style="fill: #ff7f0e; stroke: #ff7f0e; stroke-width: 0.5"/>
     <use xlink:href="#m280189eb5c" x="84.843257" y="61.288875" style="fill: #ff7f0e; stroke: #ff7f0e; stroke-width: 0.5"/>
     <use xlink:href="#m280189eb5c" x="91.870412" y="61.288875" style="fill: #ff7f0e; stroke: #ff7f0e; stroke-width: 0.5"/>
     <use xlink:href="#m280189eb5c" x="95.618228" y="61.288875" style="fill: #ff7f0e; stroke: #ff7f0e; stroke-width: 0.5"/>
     <use xlink:href="#m280189eb5c" x="99.366043" y="61.288875" style="fill: #ff7f0e; stroke: #ff7f0e; stroke-width: 0.5"/>
     <use xlink:href="#m280189eb5c" x="115.294261" y="61.288875" style="fill: #ff7f0e; stroke: #ff7f0e; stroke-width: 0.5"/>
     <use xlink:href="#m280189eb5c" x="120.915984" y="61.288875" style="fill: #ff7f0e; stroke: #ff7f0e; stroke-width: 0.5"/>
     <use xlink:href="#m280189eb5c" x="121.384461" y="61.288875" style="fill: #ff7f0e; stroke: #ff7f0e; stroke-width: 0.5"/>
     <use xlink:href="#m280189eb5c" x="124.195323" y="61.288875" style="fill: #ff7f0e; stroke: #ff7f0e; stroke-width: 0.5"/>
     <use xlink:href="#m280189eb5c" x="125.132277" y="61.288875" style="fill: #ff7f0e; stroke: #ff7f0e; stroke-width: 0.5"/>
     <use xlink:href="#m280189eb5c" x="126.069231" y="61.288875" style="fill: #ff7f0e; stroke: #ff7f0e; stroke-width: 0.5"/>
     <use xlink:href="#m280189eb5c" x="127.006185" y="61.288875" style="fill: #ff7f0e; stroke: #ff7f0e; stroke-width: 0.5"/>
     <use xlink:href="#m280189eb5c" x="128.411616" y="61.288875" style="fill: #ff7f0e; stroke: #ff7f0e; stroke-width: 0.5"/>
     <use xlink:href="#m280189eb5c" x="132.159432" y="61.288875" style="fill: #ff7f0e; stroke: #ff7f0e; stroke-width: 0.5"/>
     <use xlink:href="#m280189eb5c" x="133.096386" y="61.288875" style="fill: #ff7f0e; stroke: #ff7f0e; stroke-width: 0.5"/>
     <use xlink:href="#m280189eb5c" x="135.907248" y="61.288875" style="fill: #ff7f0e; stroke: #ff7f0e; stroke-width: 0.5"/>
     <use xlink:href="#m280189eb5c" x="138.71811" y="63.100968" style="fill: #ff7f0e; stroke: #ff7f0e; stroke-width: 0.5"/>
     <use xlink:href="#m280189eb5c" x="139.186586" y="63.100968" style="fill: #ff7f0e; stroke: #ff7f0e; stroke-width: 0.5"/>
     <use xlink:href="#m280189eb5c" x="143.402879" y="64.938055" style="fill: #ff7f0e; stroke: #ff7f0e; stroke-width: 0.5"/>
     <use xlink:href="#m280189eb5c" x="144.80831" y="64.938055" style="fill: #ff7f0e; stroke: #ff7f0e; stroke-width: 0.5"/>
     <use xlink:href="#m280189eb5c" x="147.619172" y="64.938055" style="fill: #ff7f0e; stroke: #ff7f0e; stroke-width: 0.5"/>
     <use xlink:href="#m280189eb5c" x="148.087649" y="64.938055" style="fill: #ff7f0e; stroke: #ff7f0e; stroke-width: 0.5"/>
     <use xlink:href="#m280189eb5c" x="148.556126" y="64.938055" style="fill: #ff7f0e; stroke: #ff7f0e; stroke-width: 0.5"/>
     <use xlink:href="#m280189eb5c" x="154.17785" y="64.938055" style="fill: #ff7f0e; stroke: #ff7f0e; stroke-width: 0.5"/>
     <use xlink:href="#m280189eb5c" x="165.889774" y="66.855016" style="fill: #ff7f0e; stroke: #ff7f0e; stroke-width: 0.5"/>
     <use xlink:href="#m280189eb5c" x="202.430978" y="70.717128" style="fill: #ff7f0e; stroke: #ff7f0e; stroke-width: 0.5"/>
     <use xlink:href="#m280189eb5c" x="222.107012" y="70.717128" style="fill: #ff7f0e; stroke: #ff7f0e; stroke-width: 0.5"/>
     <use xlink:href="#m280189eb5c" x="225.38635" y="74.637757" style="fill: #ff7f0e; stroke: #ff7f0e; stroke-width: 0.5"/>
     <use xlink:href="#m280189eb5c" x="226.791781" y="74.637757" style="fill: #ff7f0e; stroke: #ff7f0e; stroke-width: 0.5"/>
     <use xlink:href="#m280189eb5c" x="227.728735" y="74.637757" style="fill: #ff7f0e; stroke: #ff7f0e; stroke-width: 0.5"/>
     <use xlink:href="#m280189eb5c" x="230.07112" y="74.637757" style="fill: #ff7f0e; stroke: #ff7f0e; stroke-width: 0.5"/>
     <use xlink:href="#m280189eb5c" x="232.413505" y="74.637757" style="fill: #ff7f0e; stroke: #ff7f0e; stroke-width: 0.5"/>
     <use xlink:href="#m280189eb5c" x="233.818936" y="74.637757" style="fill: #ff7f0e; stroke: #ff7f0e; stroke-width: 0.5"/>
     <use xlink:href="#m280189eb5c" x="239.909137" y="74.637757" style="fill: #ff7f0e; stroke: #ff7f0e; stroke-width: 0.5"/>
     <use xlink:href="#m280189eb5c" x="243.188476" y="74.637757" style="fill: #ff7f0e; stroke: #ff7f0e; stroke-width: 0.5"/>
     <use xlink:href="#m280189eb5c" x="246.936291" y="74.637757" style="fill: #ff7f0e; stroke: #ff7f0e; stroke-width: 0.5"/>
     <use xlink:href="#m280189eb5c" x="272.702525" y="78.850004" style="fill: #ff7f0e; stroke: #ff7f0e; stroke-width: 0.5"/>
     <use xlink:href="#m280189eb5c" x="276.450341" y="80.973975" style="fill: #ff7f0e; stroke: #ff7f0e; stroke-width: 0.5"/>
     <use xlink:href="#m280189eb5c" x="280.666634" y="83.116257" style="fill: #ff7f0e; stroke: #ff7f0e; stroke-width: 0.5"/>
     <use xlink:href="#m280189eb5c" x="290.036173" y="83.116257" style="fill: #ff7f0e; stroke: #ff7f0e; stroke-width: 0.5"/>
     <use xlink:href="#m280189eb5c" x="291.441604" y="83.116257" style="fill: #ff7f0e; stroke: #ff7f0e; stroke-width: 0.5"/>
     <use xlink:href="#m280189eb5c" x="292.378558" y="85.315921" style="fill: #ff7f0e; stroke: #ff7f0e; stroke-width: 0.5"/>
     <use xlink:href="#m280189eb5c" x="293.315512" y="85.315921" style="fill: #ff7f0e; stroke: #ff7f0e; stroke-width: 0.5"/>
     <use xlink:href="#m280189eb5c" x="296.126374" y="85.315921" style="fill: #ff7f0e; stroke: #ff7f0e; stroke-width: 0.5"/>
     <use xlink:href="#m280189eb5c" x="297.063328" y="85.315921" style="fill: #ff7f0e; stroke: #ff7f0e; stroke-width: 0.5"/>
     <use xlink:href="#m280189eb5c" x="297.531805" y="85.315921" style="fill: #ff7f0e; stroke: #ff7f0e; stroke-width: 0.5"/>
     <use xlink:href="#m280189eb5c" x="298.000282" y="85.315921" style="fill: #ff7f0e; stroke: #ff7f0e; stroke-width: 0.5"/>
     <use xlink:href="#m280189eb5c" x="299.405713" y="85.315921" style="fill: #ff7f0e; stroke: #ff7f0e; stroke-width: 0.5"/>
     <use xlink:href="#m280189eb5c" x="301.279621" y="85.315921" style="fill: #ff7f0e; stroke: #ff7f0e; stroke-width: 0.5"/>
     <use xlink:href="#m280189eb5c" x="301.748098" y="85.315921" style="fill: #ff7f0e; stroke: #ff7f0e; stroke-width: 0.5"/>
     <use xlink:href="#m280189eb5c" x="303.622006" y="85.315921" style="fill: #ff7f0e; stroke: #ff7f0e; stroke-width: 0.5"/>
     <use xlink:href="#m280189eb5c" x="304.55896" y="85.315921" style="fill: #ff7f0e; stroke: #ff7f0e; stroke-width: 0.5"/>
     <use xlink:href="#m280189eb5c" x="305.495914" y="85.315921" style="fill: #ff7f0e; stroke: #ff7f0e; stroke-width: 0.5"/>
     <use xlink:href="#m280189eb5c" x="306.432867" y="85.315921" style="fill: #ff7f0e; stroke: #ff7f0e; stroke-width: 0.5"/>
     <use xlink:href="#m280189eb5c" x="307.369821" y="85.315921" style="fill: #ff7f0e; stroke: #ff7f0e; stroke-width: 0.5"/>
     <use xlink:href="#m280189eb5c" x="308.306775" y="85.315921" style="fill: #ff7f0e; stroke: #ff7f0e; stroke-width: 0.5"/>
     <use xlink:href="#m280189eb5c" x="308.775252" y="85.315921" style="fill: #ff7f0e; stroke: #ff7f0e; stroke-width: 0.5"/>
     <use xlink:href="#m280189eb5c" x="309.243729" y="85.315921" style="fill: #ff7f0e; stroke: #ff7f0e; stroke-width: 0.5"/>
     <use xlink:href="#m280189eb5c" x="310.180683" y="85.315921" style="fill: #ff7f0e; stroke: #ff7f0e; stroke-width: 0.5"/>
     <use xlink:href="#m280189eb5c" x="310.64916" y="85.315921" style="fill: #ff7f0e; stroke: #ff7f0e; stroke-width: 0.5"/>
     <use xlink:href="#m280189eb5c" x="311.117637" y="85.315921" style="fill: #ff7f0e; stroke: #ff7f0e; stroke-width: 0.5"/>
     <use xlink:href="#m280189eb5c" x="312.054591" y="88.330275" style="fill: #ff7f0e; stroke: #ff7f0e; stroke-width: 0.5"/>
     <use xlink:href="#m280189eb5c" x="312.523068" y="91.382786" style="fill: #ff7f0e; stroke: #ff7f0e; stroke-width: 0.5"/>
     <use xlink:href="#m280189eb5c" x="312.991545" y="91.382786" style="fill: #ff7f0e; stroke: #ff7f0e; stroke-width: 0.5"/>
     <use xlink:href="#m280189eb5c" x="313.460022" y="91.382786" style="fill: #ff7f0e; stroke: #ff7f0e; stroke-width: 0.5"/>
     <use xlink:href="#m280189eb5c" x="313.928499" y="91.382786" style="fill: #ff7f0e; stroke: #ff7f0e; stroke-width: 0.5"/>
     <use xlink:href="#m280189eb5c" x="315.33393" y="98.089712" style="fill: #ff7f0e; stroke: #ff7f0e; stroke-width: 0.5"/>
     <use xlink:href="#m280189eb5c" x="315.802407" y="101.543278" style="fill: #ff7f0e; stroke: #ff7f0e; stroke-width: 0.5"/>
     <use xlink:href="#m280189eb5c" x="316.270884" y="101.543278" style="fill: #ff7f0e; stroke: #ff7f0e; stroke-width: 0.5"/>
     <use xlink:href="#m280189eb5c" x="316.739361" y="101.543278" style="fill: #ff7f0e; stroke: #ff7f0e; stroke-width: 0.5"/>
     <use xlink:href="#m280189eb5c" x="317.207838" y="101.543278" style="fill: #ff7f0e; stroke: #ff7f0e; stroke-width: 0.5"/>
     <use xlink:href="#m280189eb5c" x="317.676315" y="101.543278" style="fill: #ff7f0e; stroke: #ff7f0e; stroke-width: 0.5"/>
     <use xlink:href="#m280189eb5c" x="318.144792" y="101.543278" style="fill: #ff7f0e; stroke: #ff7f0e; stroke-width: 0.5"/>
     <use xlink:href="#m280189eb5c" x="319.081746" y="101.543278" style="fill: #ff7f0e; stroke: #ff7f0e; stroke-width: 0.5"/>
     <use xlink:href="#m280189eb5c" x="319.550223" y="101.543278" style="fill: #ff7f0e; stroke: #ff7f0e; stroke-width: 0.5"/>
     <use xlink:href="#m280189eb5c" x="320.0187" y="101.543278" style="fill: #ff7f0e; stroke: #ff7f0e; stroke-width: 0.5"/>
     <use xlink:href="#m280189eb5c" x="320.487177" y="101.543278" style="fill: #ff7f0e; stroke: #ff7f0e; stroke-width: 0.5"/>
     <use xlink:href="#m280189eb5c" x="320.955654" y="101.543278" style="fill: #ff7f0e; stroke: #ff7f0e; stroke-width: 0.5"/>
     <use xlink:href="#m280189eb5c" x="321.424131" y="101.543278" style="fill: #ff7f0e; stroke: #ff7f0e; stroke-width: 0.5"/>
     <use xlink:href="#m280189eb5c" x="321.892608" y="101.543278" style="fill: #ff7f0e; stroke: #ff7f0e; stroke-width: 0.5"/>
     <use xlink:href="#m280189eb5c" x="322.361085" y="101.543278" style="fill: #ff7f0e; stroke: #ff7f0e; stroke-width: 0.5"/>
     <use xlink:href="#m280189eb5c" x="322.829562" y="101.543278" style="fill: #ff7f0e; stroke: #ff7f0e; stroke-width: 0.5"/>
     <use xlink:href="#m280189eb5c" x="324.234993" y="101.543278" style="fill: #ff7f0e; stroke: #ff7f0e; stroke-width: 0.5"/>
     <use xlink:href="#m280189eb5c" x="325.171947" y="101.543278" style="fill: #ff7f0e; stroke: #ff7f0e; stroke-width: 0.5"/>
     <use xlink:href="#m280189eb5c" x="326.577378" y="101.543278" style="fill: #ff7f0e; stroke: #ff7f0e; stroke-width: 0.5"/>
     <use xlink:href="#m280189eb5c" x="327.045854" y="101.543278" style="fill: #ff7f0e; stroke: #ff7f0e; stroke-width: 0.5"/>
     <use xlink:href="#m280189eb5c" x="327.982808" y="101.543278" style="fill: #ff7f0e; stroke: #ff7f0e; stroke-width: 0.5"/>
     <use xlink:href="#m280189eb5c" x="328.919762" y="101.543278" style="fill: #ff7f0e; stroke: #ff7f0e; stroke-width: 0.5"/>
     <use xlink:href="#m280189eb5c" x="329.856716" y="101.543278" style="fill: #ff7f0e; stroke: #ff7f0e; stroke-width: 0.5"/>
     <use xlink:href="#m280189eb5c" x="330.79367" y="101.543278" style="fill: #ff7f0e; stroke: #ff7f0e; stroke-width: 0.5"/>
     <use xlink:href="#m280189eb5c" x="331.730624" y="101.543278" style="fill: #ff7f0e; stroke: #ff7f0e; stroke-width: 0.5"/>
     <use xlink:href="#m280189eb5c" x="332.199101" y="101.543278" style="fill: #ff7f0e; stroke: #ff7f0e; stroke-width: 0.5"/>
     <use xlink:href="#m280189eb5c" x="333.604532" y="101.543278" style="fill: #ff7f0e; stroke: #ff7f0e; stroke-width: 0.5"/>
     <use xlink:href="#m280189eb5c" x="334.073009" y="101.543278" style="fill: #ff7f0e; stroke: #ff7f0e; stroke-width: 0.5"/>
     <use xlink:href="#m280189eb5c" x="334.541486" y="101.543278" style="fill: #ff7f0e; stroke: #ff7f0e; stroke-width: 0.5"/>
     <use xlink:href="#m280189eb5c" x="335.009963" y="101.543278" style="fill: #ff7f0e; stroke: #ff7f0e; stroke-width: 0.5"/>
     <use xlink:href="#m280189eb5c" x="335.47844" y="101.543278" style="fill: #ff7f0e; stroke: #ff7f0e; stroke-width: 0.5"/>
     <use xlink:href="#m280189eb5c" x="339.226256" y="117.824376" style="fill: #ff7f0e; stroke: #ff7f0e; stroke-width: 0.5"/>
     <use xlink:href="#m280189eb5c" x="340.16321" y="117.824376" style="fill: #ff7f0e; stroke: #ff7f0e; stroke-width: 0.5"/>
     <use xlink:href="#m280189eb5c" x="340.631687" y="117.824376" style="fill: #ff7f0e; stroke: #ff7f0e; stroke-width: 0.5"/>
     <use xlink:href="#m280189eb5c" x="342.037118" y="141.341517" style="fill: #ff7f0e; stroke: #ff7f0e; stroke-width: 0.5"/>
     <use xlink:href="#m280189eb5c" x="344.84798" y="141.341517" style="fill: #ff7f0e; stroke: #ff7f0e; stroke-width: 0.5"/>
     <use xlink:href="#m280189eb5c" x="345.316457" y="141.341517" style="fill: #ff7f0e; stroke: #ff7f0e; stroke-width: 0.5"/>
     <use xlink:href="#m280189eb5c" x="346.721888" y="141.341517" style="fill: #ff7f0e; stroke: #ff7f0e; stroke-width: 0.5"/>
     <use xlink:href="#m280189eb5c" x="357.496858" y="204.053893" style="fill: #ff7f0e; stroke: #ff7f0e; stroke-width: 0.5"/>
     <use xlink:href="#m280189eb5c" x="384.668523" y="204.053893" style="fill: #ff7f0e; stroke: #ff7f0e; stroke-width: 0.5"/>
    </g>
   </g>
   <g id="line2d_17">
    <path d="M 60.013977 61.288875 
L 137.781156 61.288875 
L 137.781156 63.100968 
L 141.528971 63.100968 
L 141.528971 64.938055 
L 156.988712 64.938055 
L 156.988712 66.855016 
L 184.160376 66.855016 
L 184.160376 68.786072 
L 194.935347 68.786072 
L 194.935347 70.717128 
L 223.512442 70.717128 
L 223.512442 72.677443 
L 223.980919 72.677443 
L 223.980919 74.637757 
L 270.36014 74.637757 
L 270.36014 78.850004 
L 275.04491 78.850004 
L 275.04491 80.973975 
L 280.666634 80.973975 
L 280.666634 83.116257 
L 291.910081 83.116257 
L 291.910081 85.315921 
L 311.586114 85.315921 
L 311.586114 88.330275 
L 312.523068 88.330275 
L 312.523068 91.382786 
L 314.396976 91.382786 
L 314.396976 94.736249 
L 315.33393 94.736249 
L 315.33393 98.089712 
L 315.802407 98.089712 
L 315.802407 101.543278 
L 337.352348 101.543278 
L 337.352348 117.824376 
L 342.037118 117.824376 
L 342.037118 141.341517 
L 354.685996 141.341517 
L 354.685996 204.053893 
L 384.668523 204.053893 
L 384.668523 204.053893 
" clip-path="url(#p5ef9db4ae4)" style="fill: none; stroke: #ff7f0e; stroke-width: 1.5; stroke-linecap: square"/>
   </g>
   <g id="line2d_18">
    <defs>
     <path id="m346ff87c42" d="M -4 0 
L 4 0 
M 0 4 
L 0 -4 
" style="stroke: #2ca02c; stroke-width: 0.5"/>
    </defs>
    <g clip-path="url(#p5ef9db4ae4)">
     <use xlink:href="#m346ff87c42" x="319.550223" y="61.288875" style="fill: #2ca02c; stroke: #2ca02c; stroke-width: 0.5"/>
    </g>
   </g>
   <g id="line2d_19">
    <path d="M 60.013977 61.288875 
L 319.550223 61.288875 
L 319.550223 61.288875 
" clip-path="url(#p5ef9db4ae4)" style="fill: none; stroke: #2ca02c; stroke-width: 1.5; stroke-linecap: square"/>
   </g>
   <g id="patch_3">
    <path d="M 43.78125 315.304875 
L 43.78125 49.192875 
" style="fill: none; stroke: #000000; stroke-width: 0.8; stroke-linejoin: miter; stroke-linecap: square"/>
   </g>
   <g id="patch_4">
    <path d="M 43.78125 315.304875 
L 400.90125 315.304875 
" style="fill: none; stroke: #000000; stroke-width: 0.8; stroke-linejoin: miter; stroke-linecap: square"/>
   </g>
   <g id="text_16">
    <!-- Time to Unfavorable Outcomes of 263 patients -->
    <g transform="translate(81.456563 16.318125) scale(0.12 -0.12)">
     <defs>
      <path id="DejaVuSans-55" d="M 556 4666 
L 1191 4666 
L 1191 1831 
Q 1191 1081 1462 751 
Q 1734 422 2344 422 
Q 2950 422 3222 751 
Q 3494 1081 3494 1831 
L 3494 4666 
L 4128 4666 
L 4128 1753 
Q 4128 841 3676 375 
Q 3225 -91 2344 -91 
Q 1459 -91 1007 375 
Q 556 841 556 1753 
L 556 4666 
z
" transform="scale(0.015625)"/>
      <path id="DejaVuSans-4f" d="M 2522 4238 
Q 1834 4238 1429 3725 
Q 1025 3213 1025 2328 
Q 1025 1447 1429 934 
Q 1834 422 2522 422 
Q 3209 422 3611 934 
Q 4013 1447 4013 2328 
Q 4013 3213 3611 3725 
Q 3209 4238 2522 4238 
z
M 2522 4750 
Q 3503 4750 4090 4092 
Q 4678 3434 4678 2328 
Q 4678 1225 4090 567 
Q 3503 -91 2522 -91 
Q 1538 -91 948 565 
Q 359 1222 359 2328 
Q 359 3434 948 4092 
Q 1538 4750 2522 4750 
z
" transform="scale(0.015625)"/>
      <path id="DejaVuSans-75" d="M 544 1381 
L 544 3500 
L 1119 3500 
L 1119 1403 
Q 1119 906 1312 657 
Q 1506 409 1894 409 
Q 2359 409 2629 706 
Q 2900 1003 2900 1516 
L 2900 3500 
L 3475 3500 
L 3475 0 
L 2900 0 
L 2900 538 
Q 2691 219 2414 64 
Q 2138 -91 1772 -91 
Q 1169 -91 856 284 
Q 544 659 544 1381 
z
M 1991 3584 
L 1991 3584 
z
" transform="scale(0.015625)"/>
      <path id="DejaVuSans-70" d="M 1159 525 
L 1159 -1331 
L 581 -1331 
L 581 3500 
L 1159 3500 
L 1159 2969 
Q 1341 3281 1617 3432 
Q 1894 3584 2278 3584 
Q 2916 3584 3314 3078 
Q 3713 2572 3713 1747 
Q 3713 922 3314 415 
Q 2916 -91 2278 -91 
Q 1894 -91 1617 61 
Q 1341 213 1159 525 
z
M 3116 1747 
Q 3116 2381 2855 2742 
Q 2594 3103 2138 3103 
Q 1681 3103 1420 2742 
Q 1159 2381 1159 1747 
Q 1159 1113 1420 752 
Q 1681 391 2138 391 
Q 2594 391 2855 752 
Q 3116 1113 3116 1747 
z
" transform="scale(0.015625)"/>
     </defs>
     <use xlink:href="#DejaVuSans-54"/>
     <use xlink:href="#DejaVuSans-69" x="57.958984"/>
     <use xlink:href="#DejaVuSans-6d" x="85.742188"/>
     <use xlink:href="#DejaVuSans-65" x="183.154297"/>
     <use xlink:href="#DejaVuSans-20" x="244.677734"/>
     <use xlink:href="#DejaVuSans-74" x="276.464844"/>
     <use xlink:href="#DejaVuSans-6f" x="315.673828"/>
     <use xlink:href="#DejaVuSans-20" x="376.855469"/>
     <use xlink:href="#DejaVuSans-55" x="408.642578"/>
     <use xlink:href="#DejaVuSans-6e" x="481.835938"/>
     <use xlink:href="#DejaVuSans-66" x="545.214844"/>
     <use xlink:href="#DejaVuSans-61" x="580.419922"/>
     <use xlink:href="#DejaVuSans-76" x="641.699219"/>
     <use xlink:href="#DejaVuSans-6f" x="700.878906"/>
     <use xlink:href="#DejaVuSans-72" x="762.060547"/>
     <use xlink:href="#DejaVuSans-61" x="803.173828"/>
     <use xlink:href="#DejaVuSans-62" x="864.453125"/>
     <use xlink:href="#DejaVuSans-6c" x="927.929688"/>
     <use xlink:href="#DejaVuSans-65" x="955.712891"/>
     <use xlink:href="#DejaVuSans-20" x="1017.236328"/>
     <use xlink:href="#DejaVuSans-4f" x="1049.023438"/>
     <use xlink:href="#DejaVuSans-75" x="1127.734375"/>
     <use xlink:href="#DejaVuSans-74" x="1191.113281"/>
     <use xlink:href="#DejaVuSans-63" x="1230.322266"/>
     <use xlink:href="#DejaVuSans-6f" x="1285.302734"/>
     <use xlink:href="#DejaVuSans-6d" x="1346.484375"/>
     <use xlink:href="#DejaVuSans-65" x="1443.896484"/>
     <use xlink:href="#DejaVuSans-73" x="1505.419922"/>
     <use xlink:href="#DejaVuSans-20" x="1557.519531"/>
     <use xlink:href="#DejaVuSans-6f" x="1589.306641"/>
     <use xlink:href="#DejaVuSans-66" x="1650.488281"/>
     <use xlink:href="#DejaVuSans-20" x="1685.693359"/>
     <use xlink:href="#DejaVuSans-32" x="1717.480469"/>
     <use xlink:href="#DejaVuSans-36" x="1781.103516"/>
     <use xlink:href="#DejaVuSans-33" x="1844.726562"/>
     <use xlink:href="#DejaVuSans-20" x="1908.349609"/>
     <use xlink:href="#DejaVuSans-70" x="1940.136719"/>
     <use xlink:href="#DejaVuSans-61" x="2003.613281"/>
     <use xlink:href="#DejaVuSans-74" x="2064.892578"/>
     <use xlink:href="#DejaVuSans-69" x="2104.101562"/>
     <use xlink:href="#DejaVuSans-65" x="2131.884766"/>
     <use xlink:href="#DejaVuSans-6e" x="2193.408203"/>
     <use xlink:href="#DejaVuSans-74" x="2256.787109"/>
     <use xlink:href="#DejaVuSans-73" x="2295.996094"/>
    </g>
    <!-- stratified by changes in virulence -->
    <g transform="translate(122.116875 29.7555) scale(0.12 -0.12)">
     <defs>
      <path id="DejaVuSans-64" d="M 2906 2969 
L 2906 4863 
L 3481 4863 
L 3481 0 
L 2906 0 
L 2906 525 
Q 2725 213 2448 61 
Q 2172 -91 1784 -91 
Q 1150 -91 751 415 
Q 353 922 353 1747 
Q 353 2572 751 3078 
Q 1150 3584 1784 3584 
Q 2172 3584 2448 3432 
Q 2725 3281 2906 2969 
z
M 947 1747 
Q 947 1113 1208 752 
Q 1469 391 1925 391 
Q 2381 391 2643 752 
Q 2906 1113 2906 1747 
Q 2906 2381 2643 2742 
Q 2381 3103 1925 3103 
Q 1469 3103 1208 2742 
Q 947 2381 947 1747 
z
" transform="scale(0.015625)"/>
      <path id="DejaVuSans-68" d="M 3513 2113 
L 3513 0 
L 2938 0 
L 2938 2094 
Q 2938 2591 2744 2837 
Q 2550 3084 2163 3084 
Q 1697 3084 1428 2787 
Q 1159 2491 1159 1978 
L 1159 0 
L 581 0 
L 581 4863 
L 1159 4863 
L 1159 2956 
Q 1366 3272 1645 3428 
Q 1925 3584 2291 3584 
Q 2894 3584 3203 3211 
Q 3513 2838 3513 2113 
z
" transform="scale(0.015625)"/>
      <path id="DejaVuSans-67" d="M 2906 1791 
Q 2906 2416 2648 2759 
Q 2391 3103 1925 3103 
Q 1463 3103 1205 2759 
Q 947 2416 947 1791 
Q 947 1169 1205 825 
Q 1463 481 1925 481 
Q 2391 481 2648 825 
Q 2906 1169 2906 1791 
z
M 3481 434 
Q 3481 -459 3084 -895 
Q 2688 -1331 1869 -1331 
Q 1566 -1331 1297 -1286 
Q 1028 -1241 775 -1147 
L 775 -588 
Q 1028 -725 1275 -790 
Q 1522 -856 1778 -856 
Q 2344 -856 2625 -561 
Q 2906 -266 2906 331 
L 2906 616 
Q 2728 306 2450 153 
Q 2172 0 1784 0 
Q 1141 0 747 490 
Q 353 981 353 1791 
Q 353 2603 747 3093 
Q 1141 3584 1784 3584 
Q 2172 3584 2450 3431 
Q 2728 3278 2906 2969 
L 2906 3500 
L 3481 3500 
L 3481 434 
z
" transform="scale(0.015625)"/>
     </defs>
     <use xlink:href="#DejaVuSans-73"/>
     <use xlink:href="#DejaVuSans-74" x="52.099609"/>
     <use xlink:href="#DejaVuSans-72" x="91.308594"/>
     <use xlink:href="#DejaVuSans-61" x="132.421875"/>
     <use xlink:href="#DejaVuSans-74" x="193.701172"/>
     <use xlink:href="#DejaVuSans-69" x="232.910156"/>
     <use xlink:href="#DejaVuSans-66" x="260.693359"/>
     <use xlink:href="#DejaVuSans-69" x="295.898438"/>
     <use xlink:href="#DejaVuSans-65" x="323.681641"/>
     <use xlink:href="#DejaVuSans-64" x="385.205078"/>
     <use xlink:href="#DejaVuSans-20" x="448.681641"/>
     <use xlink:href="#DejaVuSans-62" x="480.46875"/>
     <use xlink:href="#DejaVuSans-79" x="543.945312"/>
     <use xlink:href="#DejaVuSans-20" x="603.125"/>
     <use xlink:href="#DejaVuSans-63" x="634.912109"/>
     <use xlink:href="#DejaVuSans-68" x="689.892578"/>
     <use xlink:href="#DejaVuSans-61" x="753.271484"/>
     <use xlink:href="#DejaVuSans-6e" x="814.550781"/>
     <use xlink:href="#DejaVuSans-67" x="877.929688"/>
     <use xlink:href="#DejaVuSans-65" x="941.40625"/>
     <use xlink:href="#DejaVuSans-73" x="1002.929688"/>
     <use xlink:href="#DejaVuSans-20" x="1055.029297"/>
     <use xlink:href="#DejaVuSans-69" x="1086.816406"/>
     <use xlink:href="#DejaVuSans-6e" x="1114.599609"/>
     <use xlink:href="#DejaVuSans-20" x="1177.978516"/>
     <use xlink:href="#DejaVuSans-76" x="1209.765625"/>
     <use xlink:href="#DejaVuSans-69" x="1268.945312"/>
     <use xlink:href="#DejaVuSans-72" x="1296.728516"/>
     <use xlink:href="#DejaVuSans-75" x="1337.841797"/>
     <use xlink:href="#DejaVuSans-6c" x="1401.220703"/>
     <use xlink:href="#DejaVuSans-65" x="1429.003906"/>
     <use xlink:href="#DejaVuSans-6e" x="1490.527344"/>
     <use xlink:href="#DejaVuSans-63" x="1553.90625"/>
     <use xlink:href="#DejaVuSans-65" x="1608.886719"/>
    </g>
    <!-- p (Fixed vs. Absent) = 0.22 -->
    <g transform="translate(140.911875 43.192875) scale(0.12 -0.12)">
     <defs>
      <path id="DejaVuSans-28" d="M 1984 4856 
Q 1566 4138 1362 3434 
Q 1159 2731 1159 2009 
Q 1159 1288 1364 580 
Q 1569 -128 1984 -844 
L 1484 -844 
Q 1016 -109 783 600 
Q 550 1309 550 2009 
Q 550 2706 781 3412 
Q 1013 4119 1484 4856 
L 1984 4856 
z
" transform="scale(0.015625)"/>
      <path id="DejaVuSans-46" d="M 628 4666 
L 3309 4666 
L 3309 4134 
L 1259 4134 
L 1259 2759 
L 3109 2759 
L 3109 2228 
L 1259 2228 
L 1259 0 
L 628 0 
L 628 4666 
z
" transform="scale(0.015625)"/>
      <path id="DejaVuSans-78" d="M 3513 3500 
L 2247 1797 
L 3578 0 
L 2900 0 
L 1881 1375 
L 863 0 
L 184 0 
L 1544 1831 
L 300 3500 
L 978 3500 
L 1906 2253 
L 2834 3500 
L 3513 3500 
z
" transform="scale(0.015625)"/>
      <path id="DejaVuSans-41" d="M 2188 4044 
L 1331 1722 
L 3047 1722 
L 2188 4044 
z
M 1831 4666 
L 2547 4666 
L 4325 0 
L 3669 0 
L 3244 1197 
L 1141 1197 
L 716 0 
L 50 0 
L 1831 4666 
z
" transform="scale(0.015625)"/>
      <path id="DejaVuSans-29" d="M 513 4856 
L 1013 4856 
Q 1481 4119 1714 3412 
Q 1947 2706 1947 2009 
Q 1947 1309 1714 600 
Q 1481 -109 1013 -844 
L 513 -844 
Q 928 -128 1133 580 
Q 1338 1288 1338 2009 
Q 1338 2731 1133 3434 
Q 928 4138 513 4856 
z
" transform="scale(0.015625)"/>
      <path id="DejaVuSans-3d" d="M 678 2906 
L 4684 2906 
L 4684 2381 
L 678 2381 
L 678 2906 
z
M 678 1631 
L 4684 1631 
L 4684 1100 
L 678 1100 
L 678 1631 
z
" transform="scale(0.015625)"/>
     </defs>
     <use xlink:href="#DejaVuSans-70"/>
     <use xlink:href="#DejaVuSans-20" x="63.476562"/>
     <use xlink:href="#DejaVuSans-28" x="95.263672"/>
     <use xlink:href="#DejaVuSans-46" x="134.277344"/>
     <use xlink:href="#DejaVuSans-69" x="184.546875"/>
     <use xlink:href="#DejaVuSans-78" x="212.330078"/>
     <use xlink:href="#DejaVuSans-65" x="268.384766"/>
     <use xlink:href="#DejaVuSans-64" x="329.908203"/>
     <use xlink:href="#DejaVuSans-20" x="393.384766"/>
     <use xlink:href="#DejaVuSans-76" x="425.171875"/>
     <use xlink:href="#DejaVuSans-73" x="484.351562"/>
     <use xlink:href="#DejaVuSans-2e" x="536.451172"/>
     <use xlink:href="#DejaVuSans-20" x="568.238281"/>
     <use xlink:href="#DejaVuSans-41" x="600.025391"/>
     <use xlink:href="#DejaVuSans-62" x="668.433594"/>
     <use xlink:href="#DejaVuSans-73" x="731.910156"/>
     <use xlink:href="#DejaVuSans-65" x="784.009766"/>
     <use xlink:href="#DejaVuSans-6e" x="845.533203"/>
     <use xlink:href="#DejaVuSans-74" x="908.912109"/>
     <use xlink:href="#DejaVuSans-29" x="948.121094"/>
     <use xlink:href="#DejaVuSans-20" x="987.134766"/>
     <use xlink:href="#DejaVuSans-3d" x="1018.921875"/>
     <use xlink:href="#DejaVuSans-20" x="1102.710938"/>
     <use xlink:href="#DejaVuSans-30" x="1134.498047"/>
     <use xlink:href="#DejaVuSans-2e" x="1198.121094"/>
     <use xlink:href="#DejaVuSans-32" x="1229.908203"/>
     <use xlink:href="#DejaVuSans-32" x="1293.53125"/>
    </g>
   </g>
   <g id="legend_1">
    <g id="patch_5">
     <path d="M 50.78125 310.304875 
L 145.051563 310.304875 
Q 147.051563 310.304875 147.051563 308.304875 
L 147.051563 250.592375 
Q 147.051563 248.592375 145.051563 248.592375 
L 50.78125 248.592375 
Q 48.78125 248.592375 48.78125 250.592375 
L 48.78125 308.304875 
Q 48.78125 310.304875 50.78125 310.304875 
z
" style="fill: #ffffff; opacity: 0.8; stroke: #cccccc; stroke-linejoin: miter"/>
    </g>
    <g id="text_17">
     <!-- Indel Change -->
     <g transform="translate(64.9 260.190812) scale(0.1 -0.1)">
      <defs>
       <path id="DejaVuSans-49" d="M 628 4666 
L 1259 4666 
L 1259 0 
L 628 0 
L 628 4666 
z
" transform="scale(0.015625)"/>
       <path id="DejaVuSans-43" d="M 4122 4306 
L 4122 3641 
Q 3803 3938 3442 4084 
Q 3081 4231 2675 4231 
Q 1875 4231 1450 3742 
Q 1025 3253 1025 2328 
Q 1025 1406 1450 917 
Q 1875 428 2675 428 
Q 3081 428 3442 575 
Q 3803 722 4122 1019 
L 4122 359 
Q 3791 134 3420 21 
Q 3050 -91 2638 -91 
Q 1578 -91 968 557 
Q 359 1206 359 2328 
Q 359 3453 968 4101 
Q 1578 4750 2638 4750 
Q 3056 4750 3426 4639 
Q 3797 4528 4122 4306 
z
" transform="scale(0.015625)"/>
      </defs>
      <use xlink:href="#DejaVuSans-49"/>
      <use xlink:href="#DejaVuSans-6e" x="29.492188"/>
      <use xlink:href="#DejaVuSans-64" x="92.871094"/>
      <use xlink:href="#DejaVuSans-65" x="156.347656"/>
      <use xlink:href="#DejaVuSans-6c" x="217.871094"/>
      <use xlink:href="#DejaVuSans-20" x="245.654297"/>
      <use xlink:href="#DejaVuSans-43" x="277.441406"/>
      <use xlink:href="#DejaVuSans-68" x="347.265625"/>
      <use xlink:href="#DejaVuSans-61" x="410.644531"/>
      <use xlink:href="#DejaVuSans-6e" x="471.923828"/>
      <use xlink:href="#DejaVuSans-67" x="535.302734"/>
      <use xlink:href="#DejaVuSans-65" x="598.779297"/>
     </g>
    </g>
    <g id="line2d_20">
     <path d="M 52.78125 271.368937 
L 62.78125 271.368937 
L 62.78125 271.368937 
L 72.78125 271.368937 
L 72.78125 271.368937 
" style="fill: none; stroke: #1f77b4; stroke-width: 1.5; stroke-linecap: square"/>
    </g>
    <g id="text_18">
     <!-- Absent = 95 -->
     <g transform="translate(80.78125 274.868937) scale(0.1 -0.1)">
      <defs>
       <path id="DejaVuSans-39" d="M 703 97 
L 703 672 
Q 941 559 1184 500 
Q 1428 441 1663 441 
Q 2288 441 2617 861 
Q 2947 1281 2994 2138 
Q 2813 1869 2534 1725 
Q 2256 1581 1919 1581 
Q 1219 1581 811 2004 
Q 403 2428 403 3163 
Q 403 3881 828 4315 
Q 1253 4750 1959 4750 
Q 2769 4750 3195 4129 
Q 3622 3509 3622 2328 
Q 3622 1225 3098 567 
Q 2575 -91 1691 -91 
Q 1453 -91 1209 -44 
Q 966 3 703 97 
z
M 1959 2075 
Q 2384 2075 2632 2365 
Q 2881 2656 2881 3163 
Q 2881 3666 2632 3958 
Q 2384 4250 1959 4250 
Q 1534 4250 1286 3958 
Q 1038 3666 1038 3163 
Q 1038 2656 1286 2365 
Q 1534 2075 1959 2075 
z
" transform="scale(0.015625)"/>
      </defs>
      <use xlink:href="#DejaVuSans-41"/>
      <use xlink:href="#DejaVuSans-62" x="68.408203"/>
      <use xlink:href="#DejaVuSans-73" x="131.884766"/>
      <use xlink:href="#DejaVuSans-65" x="183.984375"/>
      <use xlink:href="#DejaVuSans-6e" x="245.507812"/>
      <use xlink:href="#DejaVuSans-74" x="308.886719"/>
      <use xlink:href="#DejaVuSans-20" x="348.095703"/>
      <use xlink:href="#DejaVuSans-3d" x="379.882812"/>
      <use xlink:href="#DejaVuSans-20" x="463.671875"/>
      <use xlink:href="#DejaVuSans-39" x="495.458984"/>
      <use xlink:href="#DejaVuSans-35" x="559.082031"/>
     </g>
    </g>
    <g id="line2d_21">
     <path d="M 52.78125 286.047062 
L 62.78125 286.047062 
L 62.78125 286.047062 
L 72.78125 286.047062 
L 72.78125 286.047062 
" style="fill: none; stroke: #ff7f0e; stroke-width: 1.5; stroke-linecap: square"/>
    </g>
    <g id="text_19">
     <!-- Fixed = 167 -->
     <g transform="translate(80.78125 289.547062) scale(0.1 -0.1)">
      <use xlink:href="#DejaVuSans-46"/>
      <use xlink:href="#DejaVuSans-69" x="50.269531"/>
      <use xlink:href="#DejaVuSans-78" x="78.052734"/>
      <use xlink:href="#DejaVuSans-65" x="134.107422"/>
      <use xlink:href="#DejaVuSans-64" x="195.630859"/>
      <use xlink:href="#DejaVuSans-20" x="259.107422"/>
      <use xlink:href="#DejaVuSans-3d" x="290.894531"/>
      <use xlink:href="#DejaVuSans-20" x="374.683594"/>
      <use xlink:href="#DejaVuSans-31" x="406.470703"/>
      <use xlink:href="#DejaVuSans-36" x="470.09375"/>
      <use xlink:href="#DejaVuSans-37" x="533.716797"/>
     </g>
    </g>
    <g id="line2d_22">
     <path d="M 52.78125 300.725187 
L 62.78125 300.725187 
L 62.78125 300.725187 
L 72.78125 300.725187 
L 72.78125 300.725187 
" style="fill: none; stroke: #2ca02c; stroke-width: 1.5; stroke-linecap: square"/>
    </g>
    <g id="text_20">
     <!-- Gain = 1 -->
     <g transform="translate(80.78125 304.225187) scale(0.1 -0.1)">
      <defs>
       <path id="DejaVuSans-47" d="M 3809 666 
L 3809 1919 
L 2778 1919 
L 2778 2438 
L 4434 2438 
L 4434 434 
Q 4069 175 3628 42 
Q 3188 -91 2688 -91 
Q 1594 -91 976 548 
Q 359 1188 359 2328 
Q 359 3472 976 4111 
Q 1594 4750 2688 4750 
Q 3144 4750 3555 4637 
Q 3966 4525 4313 4306 
L 4313 3634 
Q 3963 3931 3569 4081 
Q 3175 4231 2741 4231 
Q 1884 4231 1454 3753 
Q 1025 3275 1025 2328 
Q 1025 1384 1454 906 
Q 1884 428 2741 428 
Q 3075 428 3337 486 
Q 3600 544 3809 666 
z
" transform="scale(0.015625)"/>
      </defs>
      <use xlink:href="#DejaVuSans-47"/>
      <use xlink:href="#DejaVuSans-61" x="77.490234"/>
      <use xlink:href="#DejaVuSans-69" x="138.769531"/>
      <use xlink:href="#DejaVuSans-6e" x="166.552734"/>
      <use xlink:href="#DejaVuSans-20" x="229.931641"/>
      <use xlink:href="#DejaVuSans-3d" x="261.71875"/>
      <use xlink:href="#DejaVuSans-20" x="345.507812"/>
      <use xlink:href="#DejaVuSans-31" x="377.294922"/>
     </g>
    </g>
   </g>
  </g>
 </g>
 <defs>
  <clipPath id="p5ef9db4ae4">
   <rect x="43.78125" y="49.192875" width="357.12" height="266.112"/>
  </clipPath>
 </defs>
</svg>
