<?xml version="1.0" encoding="utf-8" standalone="no"?>
<!DOCTYPE svg PUBLIC "-//W3C//DTD SVG 1.1//EN"
  "http://www.w3.org/Graphics/SVG/1.1/DTD/svg11.dtd">
<svg xmlns:xlink="http://www.w3.org/1999/xlink" width="404.923125pt" height="325.986375pt" viewBox="0 0 404.923125 325.986375" xmlns="http://www.w3.org/2000/svg" version="1.1">
 <metadata>
  <rdf:RDF xmlns:dc="http://purl.org/dc/elements/1.1/" xmlns:cc="http://creativecommons.org/ns#" xmlns:rdf="http://www.w3.org/1999/02/22-rdf-syntax-ns#">
   <cc:Work>
    <dc:type rdf:resource="http://purl.org/dc/dcmitype/StillImage"/>
    <dc:date>2025-05-18T23:52:03.136081</dc:date>
    <dc:format>image/svg+xml</dc:format>
    <dc:creator>
     <cc:Agent>
      <dc:title>Matplotlib v3.7.2, https://matplotlib.org/</dc:title>
     </cc:Agent>
    </dc:creator>
   </cc:Work>
  </rdf:RDF>
 </metadata>
 <defs>
  <style type="text/css">*{stroke-linejoin: round; stroke-linecap: butt}</style>
 </defs>
 <g id="figure_1">
  <g id="patch_1">
   <path d="M 0 325.986375 
L 404.923125 325.986375 
L 404.923125 0 
L 0 0 
z
" style="fill: #ffffff"/>
  </g>
  <g id="axes_1">
   <g id="patch_2">
    <path d="M 40.603125 288.430125 
L 397.723125 288.430125 
L 397.723125 22.318125 
L 40.603125 22.318125 
z
" style="fill: #ffffff"/>
   </g>
   <g id="patch_3">
    <path d="M 56.835852 288.430125 
L 60.700787 288.430125 
L 60.700787 277.645444 
L 56.835852 277.645444 
z
" clip-path="url(#pa8203d69de)" style="fill: #1f77b4; fill-opacity: 0.75; stroke: #000000; stroke-width: 0.386494; stroke-linejoin: miter"/>
   </g>
   <g id="patch_4">
    <path d="M 60.700787 288.430125 
L 64.565722 288.430125 
L 64.565722 277.645444 
L 60.700787 277.645444 
z
" clip-path="url(#pa8203d69de)" style="fill: #1f77b4; fill-opacity: 0.75; stroke: #000000; stroke-width: 0.386494; stroke-linejoin: miter"/>
   </g>
   <g id="patch_5">
    <path d="M 64.565722 288.430125 
L 68.430657 288.430125 
L 68.430657 283.037785 
L 64.565722 283.037785 
z
" clip-path="url(#pa8203d69de)" style="fill: #1f77b4; fill-opacity: 0.75; stroke: #000000; stroke-width: 0.386494; stroke-linejoin: miter"/>
   </g>
   <g id="patch_6">
    <path d="M 68.430657 288.430125 
L 72.295593 288.430125 
L 72.295593 285.733955 
L 68.430657 285.733955 
z
" clip-path="url(#pa8203d69de)" style="fill: #1f77b4; fill-opacity: 0.75; stroke: #000000; stroke-width: 0.386494; stroke-linejoin: miter"/>
   </g>
   <g id="patch_7">
    <path d="M 72.295593 288.430125 
L 76.160528 288.430125 
L 76.160528 274.949274 
L 72.295593 274.949274 
z
" clip-path="url(#pa8203d69de)" style="fill: #1f77b4; fill-opacity: 0.75; stroke: #000000; stroke-width: 0.386494; stroke-linejoin: miter"/>
   </g>
   <g id="patch_8">
    <path d="M 76.160528 288.430125 
L 80.025463 288.430125 
L 80.025463 280.341614 
L 76.160528 280.341614 
z
" clip-path="url(#pa8203d69de)" style="fill: #1f77b4; fill-opacity: 0.75; stroke: #000000; stroke-width: 0.386494; stroke-linejoin: miter"/>
   </g>
   <g id="patch_9">
    <path d="M 80.025463 288.430125 
L 83.890398 288.430125 
L 83.890398 285.733955 
L 80.025463 285.733955 
z
" clip-path="url(#pa8203d69de)" style="fill: #1f77b4; fill-opacity: 0.75; stroke: #000000; stroke-width: 0.386494; stroke-linejoin: miter"/>
   </g>
   <g id="patch_10">
    <path d="M 83.890398 288.430125 
L 87.755333 288.430125 
L 87.755333 277.645444 
L 83.890398 277.645444 
z
" clip-path="url(#pa8203d69de)" style="fill: #1f77b4; fill-opacity: 0.75; stroke: #000000; stroke-width: 0.386494; stroke-linejoin: miter"/>
   </g>
   <g id="patch_11">
    <path d="M 87.755333 288.430125 
L 91.620268 288.430125 
L 91.620268 266.860763 
L 87.755333 266.860763 
z
" clip-path="url(#pa8203d69de)" style="fill: #1f77b4; fill-opacity: 0.75; stroke: #000000; stroke-width: 0.386494; stroke-linejoin: miter"/>
   </g>
   <g id="patch_12">
    <path d="M 91.620268 288.430125 
L 95.485203 288.430125 
L 95.485203 261.468423 
L 91.620268 261.468423 
z
" clip-path="url(#pa8203d69de)" style="fill: #1f77b4; fill-opacity: 0.75; stroke: #000000; stroke-width: 0.386494; stroke-linejoin: miter"/>
   </g>
   <g id="patch_13">
    <path d="M 95.485203 288.430125 
L 99.350138 288.430125 
L 99.350138 245.291402 
L 95.485203 245.291402 
z
" clip-path="url(#pa8203d69de)" style="fill: #1f77b4; fill-opacity: 0.75; stroke: #000000; stroke-width: 0.386494; stroke-linejoin: miter"/>
   </g>
   <g id="patch_14">
    <path d="M 99.350138 288.430125 
L 103.215073 288.430125 
L 103.215073 239.899061 
L 99.350138 239.899061 
z
" clip-path="url(#pa8203d69de)" style="fill: #1f77b4; fill-opacity: 0.75; stroke: #000000; stroke-width: 0.386494; stroke-linejoin: miter"/>
   </g>
   <g id="patch_15">
    <path d="M 103.215073 288.430125 
L 107.080008 288.430125 
L 107.080008 204.848848 
L 103.215073 204.848848 
z
" clip-path="url(#pa8203d69de)" style="fill: #1f77b4; fill-opacity: 0.75; stroke: #000000; stroke-width: 0.386494; stroke-linejoin: miter"/>
   </g>
   <g id="patch_16">
    <path d="M 107.080008 288.430125 
L 110.944943 288.430125 
L 110.944943 175.190976 
L 107.080008 175.190976 
z
" clip-path="url(#pa8203d69de)" style="fill: #1f77b4; fill-opacity: 0.75; stroke: #000000; stroke-width: 0.386494; stroke-linejoin: miter"/>
   </g>
   <g id="patch_17">
    <path d="M 110.944943 288.430125 
L 114.809878 288.430125 
L 114.809878 142.836934 
L 110.944943 142.836934 
z
" clip-path="url(#pa8203d69de)" style="fill: #1f77b4; fill-opacity: 0.75; stroke: #000000; stroke-width: 0.386494; stroke-linejoin: miter"/>
   </g>
   <g id="patch_18">
    <path d="M 114.809878 288.430125 
L 118.674813 288.430125 
L 118.674813 53.863316 
L 114.809878 53.863316 
z
" clip-path="url(#pa8203d69de)" style="fill: #1f77b4; fill-opacity: 0.75; stroke: #000000; stroke-width: 0.386494; stroke-linejoin: miter"/>
   </g>
   <g id="patch_19">
    <path d="M 118.674813 288.430125 
L 122.539748 288.430125 
L 122.539748 34.990125 
L 118.674813 34.990125 
z
" clip-path="url(#pa8203d69de)" style="fill: #1f77b4; fill-opacity: 0.75; stroke: #000000; stroke-width: 0.386494; stroke-linejoin: miter"/>
   </g>
   <g id="patch_20">
    <path d="M 122.539748 288.430125 
L 126.404683 288.430125 
L 126.404683 51.167146 
L 122.539748 51.167146 
z
" clip-path="url(#pa8203d69de)" style="fill: #1f77b4; fill-opacity: 0.75; stroke: #000000; stroke-width: 0.386494; stroke-linejoin: miter"/>
   </g>
   <g id="patch_21">
    <path d="M 126.404683 288.430125 
L 130.269619 288.430125 
L 130.269619 72.736508 
L 126.404683 72.736508 
z
" clip-path="url(#pa8203d69de)" style="fill: #1f77b4; fill-opacity: 0.75; stroke: #000000; stroke-width: 0.386494; stroke-linejoin: miter"/>
   </g>
   <g id="patch_22">
    <path d="M 130.269619 288.430125 
L 134.134554 288.430125 
L 134.134554 148.229274 
L 130.269619 148.229274 
z
" clip-path="url(#pa8203d69de)" style="fill: #1f77b4; fill-opacity: 0.75; stroke: #000000; stroke-width: 0.386494; stroke-linejoin: miter"/>
   </g>
   <g id="patch_23">
    <path d="M 134.134554 288.430125 
L 137.999489 288.430125 
L 137.999489 191.367997 
L 134.134554 191.367997 
z
" clip-path="url(#pa8203d69de)" style="fill: #1f77b4; fill-opacity: 0.75; stroke: #000000; stroke-width: 0.386494; stroke-linejoin: miter"/>
   </g>
   <g id="patch_24">
    <path d="M 137.999489 288.430125 
L 141.864424 288.430125 
L 141.864424 234.506721 
L 137.999489 234.506721 
z
" clip-path="url(#pa8203d69de)" style="fill: #1f77b4; fill-opacity: 0.75; stroke: #000000; stroke-width: 0.386494; stroke-linejoin: miter"/>
   </g>
   <g id="patch_25">
    <path d="M 141.864424 288.430125 
L 145.729359 288.430125 
L 145.729359 245.291402 
L 141.864424 245.291402 
z
" clip-path="url(#pa8203d69de)" style="fill: #1f77b4; fill-opacity: 0.75; stroke: #000000; stroke-width: 0.386494; stroke-linejoin: miter"/>
   </g>
   <g id="patch_26">
    <path d="M 145.729359 288.430125 
L 149.594294 288.430125 
L 149.594294 245.291402 
L 145.729359 245.291402 
z
" clip-path="url(#pa8203d69de)" style="fill: #1f77b4; fill-opacity: 0.75; stroke: #000000; stroke-width: 0.386494; stroke-linejoin: miter"/>
   </g>
   <g id="patch_27">
    <path d="M 149.594294 288.430125 
L 153.459229 288.430125 
L 153.459229 261.468423 
L 149.594294 261.468423 
z
" clip-path="url(#pa8203d69de)" style="fill: #1f77b4; fill-opacity: 0.75; stroke: #000000; stroke-width: 0.386494; stroke-linejoin: miter"/>
   </g>
   <g id="patch_28">
    <path d="M 153.459229 288.430125 
L 157.324164 288.430125 
L 157.324164 288.430125 
L 153.459229 288.430125 
z
" clip-path="url(#pa8203d69de)" style="fill: #1f77b4; fill-opacity: 0.75; stroke: #000000; stroke-width: 0.386494; stroke-linejoin: miter"/>
   </g>
   <g id="patch_29">
    <path d="M 157.324164 288.430125 
L 161.189099 288.430125 
L 161.189099 277.645444 
L 157.324164 277.645444 
z
" clip-path="url(#pa8203d69de)" style="fill: #1f77b4; fill-opacity: 0.75; stroke: #000000; stroke-width: 0.386494; stroke-linejoin: miter"/>
   </g>
   <g id="patch_30">
    <path d="M 161.189099 288.430125 
L 165.054034 288.430125 
L 165.054034 280.341614 
L 161.189099 280.341614 
z
" clip-path="url(#pa8203d69de)" style="fill: #1f77b4; fill-opacity: 0.75; stroke: #000000; stroke-width: 0.386494; stroke-linejoin: miter"/>
   </g>
   <g id="patch_31">
    <path d="M 165.054034 288.430125 
L 168.918969 288.430125 
L 168.918969 277.645444 
L 165.054034 277.645444 
z
" clip-path="url(#pa8203d69de)" style="fill: #1f77b4; fill-opacity: 0.75; stroke: #000000; stroke-width: 0.386494; stroke-linejoin: miter"/>
   </g>
   <g id="patch_32">
    <path d="M 168.918969 288.430125 
L 172.783904 288.430125 
L 172.783904 288.430125 
L 168.918969 288.430125 
z
" clip-path="url(#pa8203d69de)" style="fill: #1f77b4; fill-opacity: 0.75; stroke: #000000; stroke-width: 0.386494; stroke-linejoin: miter"/>
   </g>
   <g id="patch_33">
    <path d="M 172.783904 288.430125 
L 176.648839 288.430125 
L 176.648839 283.037785 
L 172.783904 283.037785 
z
" clip-path="url(#pa8203d69de)" style="fill: #1f77b4; fill-opacity: 0.75; stroke: #000000; stroke-width: 0.386494; stroke-linejoin: miter"/>
   </g>
   <g id="patch_34">
    <path d="M 176.648839 288.430125 
L 180.513774 288.430125 
L 180.513774 288.430125 
L 176.648839 288.430125 
z
" clip-path="url(#pa8203d69de)" style="fill: #1f77b4; fill-opacity: 0.75; stroke: #000000; stroke-width: 0.386494; stroke-linejoin: miter"/>
   </g>
   <g id="patch_35">
    <path d="M 180.513774 288.430125 
L 184.378709 288.430125 
L 184.378709 285.733955 
L 180.513774 285.733955 
z
" clip-path="url(#pa8203d69de)" style="fill: #1f77b4; fill-opacity: 0.75; stroke: #000000; stroke-width: 0.386494; stroke-linejoin: miter"/>
   </g>
   <g id="patch_36">
    <path d="M 184.378709 288.430125 
L 188.243644 288.430125 
L 188.243644 285.733955 
L 184.378709 285.733955 
z
" clip-path="url(#pa8203d69de)" style="fill: #1f77b4; fill-opacity: 0.75; stroke: #000000; stroke-width: 0.386494; stroke-linejoin: miter"/>
   </g>
   <g id="patch_37">
    <path d="M 188.243644 288.430125 
L 192.10858 288.430125 
L 192.10858 288.430125 
L 188.243644 288.430125 
z
" clip-path="url(#pa8203d69de)" style="fill: #1f77b4; fill-opacity: 0.75; stroke: #000000; stroke-width: 0.386494; stroke-linejoin: miter"/>
   </g>
   <g id="patch_38">
    <path d="M 192.10858 288.430125 
L 195.973515 288.430125 
L 195.973515 288.430125 
L 192.10858 288.430125 
z
" clip-path="url(#pa8203d69de)" style="fill: #1f77b4; fill-opacity: 0.75; stroke: #000000; stroke-width: 0.386494; stroke-linejoin: miter"/>
   </g>
   <g id="patch_39">
    <path d="M 195.973515 288.430125 
L 199.83845 288.430125 
L 199.83845 288.430125 
L 195.973515 288.430125 
z
" clip-path="url(#pa8203d69de)" style="fill: #1f77b4; fill-opacity: 0.75; stroke: #000000; stroke-width: 0.386494; stroke-linejoin: miter"/>
   </g>
   <g id="patch_40">
    <path d="M 199.83845 288.430125 
L 203.703385 288.430125 
L 203.703385 288.430125 
L 199.83845 288.430125 
z
" clip-path="url(#pa8203d69de)" style="fill: #1f77b4; fill-opacity: 0.75; stroke: #000000; stroke-width: 0.386494; stroke-linejoin: miter"/>
   </g>
   <g id="patch_41">
    <path d="M 203.703385 288.430125 
L 207.56832 288.430125 
L 207.56832 288.430125 
L 203.703385 288.430125 
z
" clip-path="url(#pa8203d69de)" style="fill: #1f77b4; fill-opacity: 0.75; stroke: #000000; stroke-width: 0.386494; stroke-linejoin: miter"/>
   </g>
   <g id="patch_42">
    <path d="M 207.56832 288.430125 
L 211.433255 288.430125 
L 211.433255 288.430125 
L 207.56832 288.430125 
z
" clip-path="url(#pa8203d69de)" style="fill: #1f77b4; fill-opacity: 0.75; stroke: #000000; stroke-width: 0.386494; stroke-linejoin: miter"/>
   </g>
   <g id="patch_43">
    <path d="M 211.433255 288.430125 
L 215.29819 288.430125 
L 215.29819 288.430125 
L 211.433255 288.430125 
z
" clip-path="url(#pa8203d69de)" style="fill: #1f77b4; fill-opacity: 0.75; stroke: #000000; stroke-width: 0.386494; stroke-linejoin: miter"/>
   </g>
   <g id="patch_44">
    <path d="M 215.29819 288.430125 
L 219.163125 288.430125 
L 219.163125 283.037785 
L 215.29819 283.037785 
z
" clip-path="url(#pa8203d69de)" style="fill: #1f77b4; fill-opacity: 0.75; stroke: #000000; stroke-width: 0.386494; stroke-linejoin: miter"/>
   </g>
   <g id="patch_45">
    <path d="M 219.163125 288.430125 
L 223.02806 288.430125 
L 223.02806 288.430125 
L 219.163125 288.430125 
z
" clip-path="url(#pa8203d69de)" style="fill: #1f77b4; fill-opacity: 0.75; stroke: #000000; stroke-width: 0.386494; stroke-linejoin: miter"/>
   </g>
   <g id="patch_46">
    <path d="M 223.02806 288.430125 
L 226.892995 288.430125 
L 226.892995 288.430125 
L 223.02806 288.430125 
z
" clip-path="url(#pa8203d69de)" style="fill: #1f77b4; fill-opacity: 0.75; stroke: #000000; stroke-width: 0.386494; stroke-linejoin: miter"/>
   </g>
   <g id="patch_47">
    <path d="M 226.892995 288.430125 
L 230.75793 288.430125 
L 230.75793 285.733955 
L 226.892995 285.733955 
z
" clip-path="url(#pa8203d69de)" style="fill: #1f77b4; fill-opacity: 0.75; stroke: #000000; stroke-width: 0.386494; stroke-linejoin: miter"/>
   </g>
   <g id="patch_48">
    <path d="M 230.75793 288.430125 
L 234.622865 288.430125 
L 234.622865 288.430125 
L 230.75793 288.430125 
z
" clip-path="url(#pa8203d69de)" style="fill: #1f77b4; fill-opacity: 0.75; stroke: #000000; stroke-width: 0.386494; stroke-linejoin: miter"/>
   </g>
   <g id="patch_49">
    <path d="M 234.622865 288.430125 
L 238.4878 288.430125 
L 238.4878 285.733955 
L 234.622865 285.733955 
z
" clip-path="url(#pa8203d69de)" style="fill: #1f77b4; fill-opacity: 0.75; stroke: #000000; stroke-width: 0.386494; stroke-linejoin: miter"/>
   </g>
   <g id="patch_50">
    <path d="M 238.4878 288.430125 
L 242.352735 288.430125 
L 242.352735 285.733955 
L 238.4878 285.733955 
z
" clip-path="url(#pa8203d69de)" style="fill: #1f77b4; fill-opacity: 0.75; stroke: #000000; stroke-width: 0.386494; stroke-linejoin: miter"/>
   </g>
   <g id="patch_51">
    <path d="M 242.352735 288.430125 
L 246.21767 288.430125 
L 246.21767 288.430125 
L 242.352735 288.430125 
z
" clip-path="url(#pa8203d69de)" style="fill: #1f77b4; fill-opacity: 0.75; stroke: #000000; stroke-width: 0.386494; stroke-linejoin: miter"/>
   </g>
   <g id="patch_52">
    <path d="M 246.21767 288.430125 
L 250.082606 288.430125 
L 250.082606 288.430125 
L 246.21767 288.430125 
z
" clip-path="url(#pa8203d69de)" style="fill: #1f77b4; fill-opacity: 0.75; stroke: #000000; stroke-width: 0.386494; stroke-linejoin: miter"/>
   </g>
   <g id="patch_53">
    <path d="M 250.082606 288.430125 
L 253.947541 288.430125 
L 253.947541 288.430125 
L 250.082606 288.430125 
z
" clip-path="url(#pa8203d69de)" style="fill: #1f77b4; fill-opacity: 0.75; stroke: #000000; stroke-width: 0.386494; stroke-linejoin: miter"/>
   </g>
   <g id="patch_54">
    <path d="M 253.947541 288.430125 
L 257.812476 288.430125 
L 257.812476 288.430125 
L 253.947541 288.430125 
z
" clip-path="url(#pa8203d69de)" style="fill: #1f77b4; fill-opacity: 0.75; stroke: #000000; stroke-width: 0.386494; stroke-linejoin: miter"/>
   </g>
   <g id="patch_55">
    <path d="M 257.812476 288.430125 
L 261.677411 288.430125 
L 261.677411 288.430125 
L 257.812476 288.430125 
z
" clip-path="url(#pa8203d69de)" style="fill: #1f77b4; fill-opacity: 0.75; stroke: #000000; stroke-width: 0.386494; stroke-linejoin: miter"/>
   </g>
   <g id="patch_56">
    <path d="M 261.677411 288.430125 
L 265.542346 288.430125 
L 265.542346 285.733955 
L 261.677411 285.733955 
z
" clip-path="url(#pa8203d69de)" style="fill: #1f77b4; fill-opacity: 0.75; stroke: #000000; stroke-width: 0.386494; stroke-linejoin: miter"/>
   </g>
   <g id="patch_57">
    <path d="M 265.542346 288.430125 
L 269.407281 288.430125 
L 269.407281 285.733955 
L 265.542346 285.733955 
z
" clip-path="url(#pa8203d69de)" style="fill: #1f77b4; fill-opacity: 0.75; stroke: #000000; stroke-width: 0.386494; stroke-linejoin: miter"/>
   </g>
   <g id="patch_58">
    <path d="M 269.407281 288.430125 
L 273.272216 288.430125 
L 273.272216 285.733955 
L 269.407281 285.733955 
z
" clip-path="url(#pa8203d69de)" style="fill: #1f77b4; fill-opacity: 0.75; stroke: #000000; stroke-width: 0.386494; stroke-linejoin: miter"/>
   </g>
   <g id="patch_59">
    <path d="M 273.272216 288.430125 
L 277.137151 288.430125 
L 277.137151 285.733955 
L 273.272216 285.733955 
z
" clip-path="url(#pa8203d69de)" style="fill: #1f77b4; fill-opacity: 0.75; stroke: #000000; stroke-width: 0.386494; stroke-linejoin: miter"/>
   </g>
   <g id="patch_60">
    <path d="M 277.137151 288.430125 
L 281.002086 288.430125 
L 281.002086 288.430125 
L 277.137151 288.430125 
z
" clip-path="url(#pa8203d69de)" style="fill: #1f77b4; fill-opacity: 0.75; stroke: #000000; stroke-width: 0.386494; stroke-linejoin: miter"/>
   </g>
   <g id="patch_61">
    <path d="M 281.002086 288.430125 
L 284.867021 288.430125 
L 284.867021 288.430125 
L 281.002086 288.430125 
z
" clip-path="url(#pa8203d69de)" style="fill: #1f77b4; fill-opacity: 0.75; stroke: #000000; stroke-width: 0.386494; stroke-linejoin: miter"/>
   </g>
   <g id="patch_62">
    <path d="M 284.867021 288.430125 
L 288.731956 288.430125 
L 288.731956 283.037785 
L 284.867021 283.037785 
z
" clip-path="url(#pa8203d69de)" style="fill: #1f77b4; fill-opacity: 0.75; stroke: #000000; stroke-width: 0.386494; stroke-linejoin: miter"/>
   </g>
   <g id="patch_63">
    <path d="M 288.731956 288.430125 
L 292.596891 288.430125 
L 292.596891 288.430125 
L 288.731956 288.430125 
z
" clip-path="url(#pa8203d69de)" style="fill: #1f77b4; fill-opacity: 0.75; stroke: #000000; stroke-width: 0.386494; stroke-linejoin: miter"/>
   </g>
   <g id="patch_64">
    <path d="M 292.596891 288.430125 
L 296.461826 288.430125 
L 296.461826 285.733955 
L 292.596891 285.733955 
z
" clip-path="url(#pa8203d69de)" style="fill: #1f77b4; fill-opacity: 0.75; stroke: #000000; stroke-width: 0.386494; stroke-linejoin: miter"/>
   </g>
   <g id="patch_65">
    <path d="M 296.461826 288.430125 
L 300.326761 288.430125 
L 300.326761 285.733955 
L 296.461826 285.733955 
z
" clip-path="url(#pa8203d69de)" style="fill: #1f77b4; fill-opacity: 0.75; stroke: #000000; stroke-width: 0.386494; stroke-linejoin: miter"/>
   </g>
   <g id="patch_66">
    <path d="M 300.326761 288.430125 
L 304.191696 288.430125 
L 304.191696 285.733955 
L 300.326761 285.733955 
z
" clip-path="url(#pa8203d69de)" style="fill: #1f77b4; fill-opacity: 0.75; stroke: #000000; stroke-width: 0.386494; stroke-linejoin: miter"/>
   </g>
   <g id="patch_67">
    <path d="M 304.191696 288.430125 
L 308.056631 288.430125 
L 308.056631 285.733955 
L 304.191696 285.733955 
z
" clip-path="url(#pa8203d69de)" style="fill: #1f77b4; fill-opacity: 0.75; stroke: #000000; stroke-width: 0.386494; stroke-linejoin: miter"/>
   </g>
   <g id="patch_68">
    <path d="M 308.056631 288.430125 
L 311.921567 288.430125 
L 311.921567 283.037785 
L 308.056631 283.037785 
z
" clip-path="url(#pa8203d69de)" style="fill: #1f77b4; fill-opacity: 0.75; stroke: #000000; stroke-width: 0.386494; stroke-linejoin: miter"/>
   </g>
   <g id="patch_69">
    <path d="M 311.921567 288.430125 
L 315.786502 288.430125 
L 315.786502 288.430125 
L 311.921567 288.430125 
z
" clip-path="url(#pa8203d69de)" style="fill: #1f77b4; fill-opacity: 0.75; stroke: #000000; stroke-width: 0.386494; stroke-linejoin: miter"/>
   </g>
   <g id="patch_70">
    <path d="M 315.786502 288.430125 
L 319.651437 288.430125 
L 319.651437 285.733955 
L 315.786502 285.733955 
z
" clip-path="url(#pa8203d69de)" style="fill: #1f77b4; fill-opacity: 0.75; stroke: #000000; stroke-width: 0.386494; stroke-linejoin: miter"/>
   </g>
   <g id="patch_71">
    <path d="M 319.651437 288.430125 
L 323.516372 288.430125 
L 323.516372 288.430125 
L 319.651437 288.430125 
z
" clip-path="url(#pa8203d69de)" style="fill: #1f77b4; fill-opacity: 0.75; stroke: #000000; stroke-width: 0.386494; stroke-linejoin: miter"/>
   </g>
   <g id="patch_72">
    <path d="M 323.516372 288.430125 
L 327.381307 288.430125 
L 327.381307 285.733955 
L 323.516372 285.733955 
z
" clip-path="url(#pa8203d69de)" style="fill: #1f77b4; fill-opacity: 0.75; stroke: #000000; stroke-width: 0.386494; stroke-linejoin: miter"/>
   </g>
   <g id="patch_73">
    <path d="M 327.381307 288.430125 
L 331.246242 288.430125 
L 331.246242 288.430125 
L 327.381307 288.430125 
z
" clip-path="url(#pa8203d69de)" style="fill: #1f77b4; fill-opacity: 0.75; stroke: #000000; stroke-width: 0.386494; stroke-linejoin: miter"/>
   </g>
   <g id="patch_74">
    <path d="M 331.246242 288.430125 
L 335.111177 288.430125 
L 335.111177 288.430125 
L 331.246242 288.430125 
z
" clip-path="url(#pa8203d69de)" style="fill: #1f77b4; fill-opacity: 0.75; stroke: #000000; stroke-width: 0.386494; stroke-linejoin: miter"/>
   </g>
   <g id="patch_75">
    <path d="M 335.111177 288.430125 
L 338.976112 288.430125 
L 338.976112 288.430125 
L 335.111177 288.430125 
z
" clip-path="url(#pa8203d69de)" style="fill: #1f77b4; fill-opacity: 0.75; stroke: #000000; stroke-width: 0.386494; stroke-linejoin: miter"/>
   </g>
   <g id="patch_76">
    <path d="M 338.976112 288.430125 
L 342.841047 288.430125 
L 342.841047 283.037785 
L 338.976112 283.037785 
z
" clip-path="url(#pa8203d69de)" style="fill: #1f77b4; fill-opacity: 0.75; stroke: #000000; stroke-width: 0.386494; stroke-linejoin: miter"/>
   </g>
   <g id="patch_77">
    <path d="M 342.841047 288.430125 
L 346.705982 288.430125 
L 346.705982 288.430125 
L 342.841047 288.430125 
z
" clip-path="url(#pa8203d69de)" style="fill: #1f77b4; fill-opacity: 0.75; stroke: #000000; stroke-width: 0.386494; stroke-linejoin: miter"/>
   </g>
   <g id="patch_78">
    <path d="M 346.705982 288.430125 
L 350.570917 288.430125 
L 350.570917 288.430125 
L 346.705982 288.430125 
z
" clip-path="url(#pa8203d69de)" style="fill: #1f77b4; fill-opacity: 0.75; stroke: #000000; stroke-width: 0.386494; stroke-linejoin: miter"/>
   </g>
   <g id="patch_79">
    <path d="M 350.570917 288.430125 
L 354.435852 288.430125 
L 354.435852 285.733955 
L 350.570917 285.733955 
z
" clip-path="url(#pa8203d69de)" style="fill: #1f77b4; fill-opacity: 0.75; stroke: #000000; stroke-width: 0.386494; stroke-linejoin: miter"/>
   </g>
   <g id="patch_80">
    <path d="M 354.435852 288.430125 
L 358.300787 288.430125 
L 358.300787 285.733955 
L 354.435852 285.733955 
z
" clip-path="url(#pa8203d69de)" style="fill: #1f77b4; fill-opacity: 0.75; stroke: #000000; stroke-width: 0.386494; stroke-linejoin: miter"/>
   </g>
   <g id="patch_81">
    <path d="M 358.300787 288.430125 
L 362.165722 288.430125 
L 362.165722 288.430125 
L 358.300787 288.430125 
z
" clip-path="url(#pa8203d69de)" style="fill: #1f77b4; fill-opacity: 0.75; stroke: #000000; stroke-width: 0.386494; stroke-linejoin: miter"/>
   </g>
   <g id="patch_82">
    <path d="M 362.165722 288.430125 
L 366.030657 288.430125 
L 366.030657 288.430125 
L 362.165722 288.430125 
z
" clip-path="url(#pa8203d69de)" style="fill: #1f77b4; fill-opacity: 0.75; stroke: #000000; stroke-width: 0.386494; stroke-linejoin: miter"/>
   </g>
   <g id="patch_83">
    <path d="M 366.030657 288.430125 
L 369.895593 288.430125 
L 369.895593 285.733955 
L 366.030657 285.733955 
z
" clip-path="url(#pa8203d69de)" style="fill: #1f77b4; fill-opacity: 0.75; stroke: #000000; stroke-width: 0.386494; stroke-linejoin: miter"/>
   </g>
   <g id="patch_84">
    <path d="M 369.895593 288.430125 
L 373.760528 288.430125 
L 373.760528 283.037785 
L 369.895593 283.037785 
z
" clip-path="url(#pa8203d69de)" style="fill: #1f77b4; fill-opacity: 0.75; stroke: #000000; stroke-width: 0.386494; stroke-linejoin: miter"/>
   </g>
   <g id="patch_85">
    <path d="M 373.760528 288.430125 
L 377.625463 288.430125 
L 377.625463 285.733955 
L 373.760528 285.733955 
z
" clip-path="url(#pa8203d69de)" style="fill: #1f77b4; fill-opacity: 0.75; stroke: #000000; stroke-width: 0.386494; stroke-linejoin: miter"/>
   </g>
   <g id="patch_86">
    <path d="M 377.625463 288.430125 
L 381.490398 288.430125 
L 381.490398 280.341614 
L 377.625463 280.341614 
z
" clip-path="url(#pa8203d69de)" style="fill: #1f77b4; fill-opacity: 0.75; stroke: #000000; stroke-width: 0.386494; stroke-linejoin: miter"/>
   </g>
   <g id="matplotlib.axis_1">
    <g id="xtick_1">
     <g id="line2d_1">
      <defs>
       <path id="m9f15489377" d="M 0 0 
L 0 3.5 
" style="stroke: #000000; stroke-width: 0.8"/>
      </defs>
      <g>
       <use xlink:href="#m9f15489377" x="135.175688" y="288.430125" style="stroke: #000000; stroke-width: 0.8"/>
      </g>
     </g>
     <g id="text_1">
      <!-- $\mathdefault{10^{-2}}$ -->
      <g transform="translate(123.425688 303.028562) scale(0.1 -0.1)">
       <defs>
        <path id="DejaVuSans-31" d="M 794 531 
L 1825 531 
L 1825 4091 
L 703 3866 
L 703 4441 
L 1819 4666 
L 2450 4666 
L 2450 531 
L 3481 531 
L 3481 0 
L 794 0 
L 794 531 
z
" transform="scale(0.015625)"/>
        <path id="DejaVuSans-30" d="M 2034 4250 
Q 1547 4250 1301 3770 
Q 1056 3291 1056 2328 
Q 1056 1369 1301 889 
Q 1547 409 2034 409 
Q 2525 409 2770 889 
Q 3016 1369 3016 2328 
Q 3016 3291 2770 3770 
Q 2525 4250 2034 4250 
z
M 2034 4750 
Q 2819 4750 3233 4129 
Q 3647 3509 3647 2328 
Q 3647 1150 3233 529 
Q 2819 -91 2034 -91 
Q 1250 -91 836 529 
Q 422 1150 422 2328 
Q 422 3509 836 4129 
Q 1250 4750 2034 4750 
z
" transform="scale(0.015625)"/>
        <path id="DejaVuSans-2212" d="M 678 2272 
L 4684 2272 
L 4684 1741 
L 678 1741 
L 678 2272 
z
" transform="scale(0.015625)"/>
        <path id="DejaVuSans-32" d="M 1228 531 
L 3431 531 
L 3431 0 
L 469 0 
L 469 531 
Q 828 903 1448 1529 
Q 2069 2156 2228 2338 
Q 2531 2678 2651 2914 
Q 2772 3150 2772 3378 
Q 2772 3750 2511 3984 
Q 2250 4219 1831 4219 
Q 1534 4219 1204 4116 
Q 875 4013 500 3803 
L 500 4441 
Q 881 4594 1212 4672 
Q 1544 4750 1819 4750 
Q 2544 4750 2975 4387 
Q 3406 4025 3406 3419 
Q 3406 3131 3298 2873 
Q 3191 2616 2906 2266 
Q 2828 2175 2409 1742 
Q 1991 1309 1228 531 
z
" transform="scale(0.015625)"/>
       </defs>
       <use xlink:href="#DejaVuSans-31" transform="translate(0 0.765625)"/>
       <use xlink:href="#DejaVuSans-30" transform="translate(63.623047 0.765625)"/>
       <use xlink:href="#DejaVuSans-2212" transform="translate(128.203125 39.046875) scale(0.7)"/>
       <use xlink:href="#DejaVuSans-32" transform="translate(186.855469 39.046875) scale(0.7)"/>
      </g>
     </g>
    </g>
    <g id="xtick_2">
     <g id="line2d_2">
      <g>
       <use xlink:href="#m9f15489377" x="281.917818" y="288.430125" style="stroke: #000000; stroke-width: 0.8"/>
      </g>
     </g>
     <g id="text_2">
      <!-- $\mathdefault{10^{-1}}$ -->
      <g transform="translate(270.167818 303.028562) scale(0.1 -0.1)">
       <use xlink:href="#DejaVuSans-31" transform="translate(0 0.684375)"/>
       <use xlink:href="#DejaVuSans-30" transform="translate(63.623047 0.684375)"/>
       <use xlink:href="#DejaVuSans-2212" transform="translate(128.203125 38.965625) scale(0.7)"/>
       <use xlink:href="#DejaVuSans-31" transform="translate(186.855469 38.965625) scale(0.7)"/>
      </g>
     </g>
    </g>
    <g id="xtick_3">
     <g id="line2d_3">
      <defs>
       <path id="m5f62df43f4" d="M 0 0 
L 0 2 
" style="stroke: #000000; stroke-width: 0.6"/>
      </defs>
      <g>
       <use xlink:href="#m5f62df43f4" x="58.447347" y="288.430125" style="stroke: #000000; stroke-width: 0.6"/>
      </g>
     </g>
    </g>
    <g id="xtick_4">
     <g id="line2d_4">
      <g>
       <use xlink:href="#m5f62df43f4" x="76.781123" y="288.430125" style="stroke: #000000; stroke-width: 0.6"/>
      </g>
     </g>
    </g>
    <g id="xtick_5">
     <g id="line2d_5">
      <g>
       <use xlink:href="#m5f62df43f4" x="91.001905" y="288.430125" style="stroke: #000000; stroke-width: 0.6"/>
      </g>
     </g>
    </g>
    <g id="xtick_6">
     <g id="line2d_6">
      <g>
       <use xlink:href="#m5f62df43f4" x="102.62113" y="288.430125" style="stroke: #000000; stroke-width: 0.6"/>
      </g>
     </g>
    </g>
    <g id="xtick_7">
     <g id="line2d_7">
      <g>
       <use xlink:href="#m5f62df43f4" x="112.445044" y="288.430125" style="stroke: #000000; stroke-width: 0.6"/>
      </g>
     </g>
    </g>
    <g id="xtick_8">
     <g id="line2d_8">
      <g>
       <use xlink:href="#m5f62df43f4" x="120.954906" y="288.430125" style="stroke: #000000; stroke-width: 0.6"/>
      </g>
     </g>
    </g>
    <g id="xtick_9">
     <g id="line2d_9">
      <g>
       <use xlink:href="#m5f62df43f4" x="128.461136" y="288.430125" style="stroke: #000000; stroke-width: 0.6"/>
      </g>
     </g>
    </g>
    <g id="xtick_10">
     <g id="line2d_10">
      <g>
       <use xlink:href="#m5f62df43f4" x="179.349471" y="288.430125" style="stroke: #000000; stroke-width: 0.6"/>
      </g>
     </g>
    </g>
    <g id="xtick_11">
     <g id="line2d_11">
      <g>
       <use xlink:href="#m5f62df43f4" x="205.189477" y="288.430125" style="stroke: #000000; stroke-width: 0.6"/>
      </g>
     </g>
    </g>
    <g id="xtick_12">
     <g id="line2d_12">
      <g>
       <use xlink:href="#m5f62df43f4" x="223.523254" y="288.430125" style="stroke: #000000; stroke-width: 0.6"/>
      </g>
     </g>
    </g>
    <g id="xtick_13">
     <g id="line2d_13">
      <g>
       <use xlink:href="#m5f62df43f4" x="237.744036" y="288.430125" style="stroke: #000000; stroke-width: 0.6"/>
      </g>
     </g>
    </g>
    <g id="xtick_14">
     <g id="line2d_14">
      <g>
       <use xlink:href="#m5f62df43f4" x="249.36326" y="288.430125" style="stroke: #000000; stroke-width: 0.6"/>
      </g>
     </g>
    </g>
    <g id="xtick_15">
     <g id="line2d_15">
      <g>
       <use xlink:href="#m5f62df43f4" x="259.187175" y="288.430125" style="stroke: #000000; stroke-width: 0.6"/>
      </g>
     </g>
    </g>
    <g id="xtick_16">
     <g id="line2d_16">
      <g>
       <use xlink:href="#m5f62df43f4" x="267.697037" y="288.430125" style="stroke: #000000; stroke-width: 0.6"/>
      </g>
     </g>
    </g>
    <g id="xtick_17">
     <g id="line2d_17">
      <g>
       <use xlink:href="#m5f62df43f4" x="275.203267" y="288.430125" style="stroke: #000000; stroke-width: 0.6"/>
      </g>
     </g>
    </g>
    <g id="xtick_18">
     <g id="line2d_18">
      <g>
       <use xlink:href="#m5f62df43f4" x="326.091601" y="288.430125" style="stroke: #000000; stroke-width: 0.6"/>
      </g>
     </g>
    </g>
    <g id="xtick_19">
     <g id="line2d_19">
      <g>
       <use xlink:href="#m5f62df43f4" x="351.931608" y="288.430125" style="stroke: #000000; stroke-width: 0.6"/>
      </g>
     </g>
    </g>
    <g id="xtick_20">
     <g id="line2d_20">
      <g>
       <use xlink:href="#m5f62df43f4" x="370.265384" y="288.430125" style="stroke: #000000; stroke-width: 0.6"/>
      </g>
     </g>
    </g>
    <g id="xtick_21">
     <g id="line2d_21">
      <g>
       <use xlink:href="#m5f62df43f4" x="384.486166" y="288.430125" style="stroke: #000000; stroke-width: 0.6"/>
      </g>
     </g>
    </g>
    <g id="xtick_22">
     <g id="line2d_22">
      <g>
       <use xlink:href="#m5f62df43f4" x="396.105391" y="288.430125" style="stroke: #000000; stroke-width: 0.6"/>
      </g>
     </g>
    </g>
    <g id="text_3">
     <!-- F2 -->
     <g transform="translate(213.106094 316.706687) scale(0.1 -0.1)">
      <defs>
       <path id="DejaVuSans-46" d="M 628 4666 
L 3309 4666 
L 3309 4134 
L 1259 4134 
L 1259 2759 
L 3109 2759 
L 3109 2228 
L 1259 2228 
L 1259 0 
L 628 0 
L 628 4666 
z
" transform="scale(0.015625)"/>
      </defs>
      <use xlink:href="#DejaVuSans-46"/>
      <use xlink:href="#DejaVuSans-32" x="57.519531"/>
     </g>
    </g>
   </g>
   <g id="matplotlib.axis_2">
    <g id="ytick_1">
     <g id="line2d_23">
      <defs>
       <path id="m81202b1ebd" d="M 0 0 
L -3.5 0 
" style="stroke: #000000; stroke-width: 0.8"/>
      </defs>
      <g>
       <use xlink:href="#m81202b1ebd" x="40.603125" y="288.430125" style="stroke: #000000; stroke-width: 0.8"/>
      </g>
     </g>
     <g id="text_4">
      <!-- 0 -->
      <g transform="translate(27.240625 292.229344) scale(0.1 -0.1)">
       <use xlink:href="#DejaVuSans-30"/>
      </g>
     </g>
    </g>
    <g id="ytick_2">
     <g id="line2d_24">
      <g>
       <use xlink:href="#m81202b1ebd" x="40.603125" y="234.506721" style="stroke: #000000; stroke-width: 0.8"/>
      </g>
     </g>
     <g id="text_5">
      <!-- 20 -->
      <g transform="translate(20.878125 238.305939) scale(0.1 -0.1)">
       <use xlink:href="#DejaVuSans-32"/>
       <use xlink:href="#DejaVuSans-30" x="63.623047"/>
      </g>
     </g>
    </g>
    <g id="ytick_3">
     <g id="line2d_25">
      <g>
       <use xlink:href="#m81202b1ebd" x="40.603125" y="180.583316" style="stroke: #000000; stroke-width: 0.8"/>
      </g>
     </g>
     <g id="text_6">
      <!-- 40 -->
      <g transform="translate(20.878125 184.382535) scale(0.1 -0.1)">
       <defs>
        <path id="DejaVuSans-34" d="M 2419 4116 
L 825 1625 
L 2419 1625 
L 2419 4116 
z
M 2253 4666 
L 3047 4666 
L 3047 1625 
L 3713 1625 
L 3713 1100 
L 3047 1100 
L 3047 0 
L 2419 0 
L 2419 1100 
L 313 1100 
L 313 1709 
L 2253 4666 
z
" transform="scale(0.015625)"/>
       </defs>
       <use xlink:href="#DejaVuSans-34"/>
       <use xlink:href="#DejaVuSans-30" x="63.623047"/>
      </g>
     </g>
    </g>
    <g id="ytick_4">
     <g id="line2d_26">
      <g>
       <use xlink:href="#m81202b1ebd" x="40.603125" y="126.659912" style="stroke: #000000; stroke-width: 0.8"/>
      </g>
     </g>
     <g id="text_7">
      <!-- 60 -->
      <g transform="translate(20.878125 130.459131) scale(0.1 -0.1)">
       <defs>
        <path id="DejaVuSans-36" d="M 2113 2584 
Q 1688 2584 1439 2293 
Q 1191 2003 1191 1497 
Q 1191 994 1439 701 
Q 1688 409 2113 409 
Q 2538 409 2786 701 
Q 3034 994 3034 1497 
Q 3034 2003 2786 2293 
Q 2538 2584 2113 2584 
z
M 3366 4563 
L 3366 3988 
Q 3128 4100 2886 4159 
Q 2644 4219 2406 4219 
Q 1781 4219 1451 3797 
Q 1122 3375 1075 2522 
Q 1259 2794 1537 2939 
Q 1816 3084 2150 3084 
Q 2853 3084 3261 2657 
Q 3669 2231 3669 1497 
Q 3669 778 3244 343 
Q 2819 -91 2113 -91 
Q 1303 -91 875 529 
Q 447 1150 447 2328 
Q 447 3434 972 4092 
Q 1497 4750 2381 4750 
Q 2619 4750 2861 4703 
Q 3103 4656 3366 4563 
z
" transform="scale(0.015625)"/>
       </defs>
       <use xlink:href="#DejaVuSans-36"/>
       <use xlink:href="#DejaVuSans-30" x="63.623047"/>
      </g>
     </g>
    </g>
    <g id="ytick_5">
     <g id="line2d_27">
      <g>
       <use xlink:href="#m81202b1ebd" x="40.603125" y="72.736508" style="stroke: #000000; stroke-width: 0.8"/>
      </g>
     </g>
     <g id="text_8">
      <!-- 80 -->
      <g transform="translate(20.878125 76.535727) scale(0.1 -0.1)">
       <defs>
        <path id="DejaVuSans-38" d="M 2034 2216 
Q 1584 2216 1326 1975 
Q 1069 1734 1069 1313 
Q 1069 891 1326 650 
Q 1584 409 2034 409 
Q 2484 409 2743 651 
Q 3003 894 3003 1313 
Q 3003 1734 2745 1975 
Q 2488 2216 2034 2216 
z
M 1403 2484 
Q 997 2584 770 2862 
Q 544 3141 544 3541 
Q 544 4100 942 4425 
Q 1341 4750 2034 4750 
Q 2731 4750 3128 4425 
Q 3525 4100 3525 3541 
Q 3525 3141 3298 2862 
Q 3072 2584 2669 2484 
Q 3125 2378 3379 2068 
Q 3634 1759 3634 1313 
Q 3634 634 3220 271 
Q 2806 -91 2034 -91 
Q 1263 -91 848 271 
Q 434 634 434 1313 
Q 434 1759 690 2068 
Q 947 2378 1403 2484 
z
M 1172 3481 
Q 1172 3119 1398 2916 
Q 1625 2713 2034 2713 
Q 2441 2713 2670 2916 
Q 2900 3119 2900 3481 
Q 2900 3844 2670 4047 
Q 2441 4250 2034 4250 
Q 1625 4250 1398 4047 
Q 1172 3844 1172 3481 
z
" transform="scale(0.015625)"/>
       </defs>
       <use xlink:href="#DejaVuSans-38"/>
       <use xlink:href="#DejaVuSans-30" x="63.623047"/>
      </g>
     </g>
    </g>
    <g id="text_9">
     <!-- Count -->
     <g transform="translate(14.798438 170.222562) rotate(-90) scale(0.1 -0.1)">
      <defs>
       <path id="DejaVuSans-43" d="M 4122 4306 
L 4122 3641 
Q 3803 3938 3442 4084 
Q 3081 4231 2675 4231 
Q 1875 4231 1450 3742 
Q 1025 3253 1025 2328 
Q 1025 1406 1450 917 
Q 1875 428 2675 428 
Q 3081 428 3442 575 
Q 3803 722 4122 1019 
L 4122 359 
Q 3791 134 3420 21 
Q 3050 -91 2638 -91 
Q 1578 -91 968 557 
Q 359 1206 359 2328 
Q 359 3453 968 4101 
Q 1578 4750 2638 4750 
Q 3056 4750 3426 4639 
Q 3797 4528 4122 4306 
z
" transform="scale(0.015625)"/>
       <path id="DejaVuSans-6f" d="M 1959 3097 
Q 1497 3097 1228 2736 
Q 959 2375 959 1747 
Q 959 1119 1226 758 
Q 1494 397 1959 397 
Q 2419 397 2687 759 
Q 2956 1122 2956 1747 
Q 2956 2369 2687 2733 
Q 2419 3097 1959 3097 
z
M 1959 3584 
Q 2709 3584 3137 3096 
Q 3566 2609 3566 1747 
Q 3566 888 3137 398 
Q 2709 -91 1959 -91 
Q 1206 -91 779 398 
Q 353 888 353 1747 
Q 353 2609 779 3096 
Q 1206 3584 1959 3584 
z
" transform="scale(0.015625)"/>
       <path id="DejaVuSans-75" d="M 544 1381 
L 544 3500 
L 1119 3500 
L 1119 1403 
Q 1119 906 1312 657 
Q 1506 409 1894 409 
Q 2359 409 2629 706 
Q 2900 1003 2900 1516 
L 2900 3500 
L 3475 3500 
L 3475 0 
L 2900 0 
L 2900 538 
Q 2691 219 2414 64 
Q 2138 -91 1772 -91 
Q 1169 -91 856 284 
Q 544 659 544 1381 
z
M 1991 3584 
L 1991 3584 
z
" transform="scale(0.015625)"/>
       <path id="DejaVuSans-6e" d="M 3513 2113 
L 3513 0 
L 2938 0 
L 2938 2094 
Q 2938 2591 2744 2837 
Q 2550 3084 2163 3084 
Q 1697 3084 1428 2787 
Q 1159 2491 1159 1978 
L 1159 0 
L 581 0 
L 581 3500 
L 1159 3500 
L 1159 2956 
Q 1366 3272 1645 3428 
Q 1925 3584 2291 3584 
Q 2894 3584 3203 3211 
Q 3513 2838 3513 2113 
z
" transform="scale(0.015625)"/>
       <path id="DejaVuSans-74" d="M 1172 4494 
L 1172 3500 
L 2356 3500 
L 2356 3053 
L 1172 3053 
L 1172 1153 
Q 1172 725 1289 603 
Q 1406 481 1766 481 
L 2356 481 
L 2356 0 
L 1766 0 
Q 1100 0 847 248 
Q 594 497 594 1153 
L 594 3053 
L 172 3053 
L 172 3500 
L 594 3500 
L 594 4494 
L 1172 4494 
z
" transform="scale(0.015625)"/>
      </defs>
      <use xlink:href="#DejaVuSans-43"/>
      <use xlink:href="#DejaVuSans-6f" x="69.824219"/>
      <use xlink:href="#DejaVuSans-75" x="131.005859"/>
      <use xlink:href="#DejaVuSans-6e" x="194.384766"/>
      <use xlink:href="#DejaVuSans-74" x="257.763672"/>
     </g>
    </g>
   </g>
   <g id="line2d_28">
    <path d="M 205.189477 288.430125 
L 205.189477 22.318125 
" clip-path="url(#pa8203d69de)" style="fill: none; stroke-dasharray: 3.33,1.44; stroke-dashoffset: 0; stroke: #8b0000; stroke-width: 0.9"/>
   </g>
   <g id="patch_87">
    <path d="M 40.603125 288.430125 
L 40.603125 22.318125 
" style="fill: none; stroke: #000000; stroke-width: 0.8; stroke-linejoin: miter; stroke-linecap: square"/>
   </g>
   <g id="patch_88">
    <path d="M 40.603125 288.430125 
L 397.723125 288.430125 
" style="fill: none; stroke: #000000; stroke-width: 0.8; stroke-linejoin: miter; stroke-linecap: square"/>
   </g>
   <g id="text_10">
    <!-- F2 Scores for 747 WGS Samples across 418 pids -->
    <g transform="translate(73.90125 16.318125) scale(0.12 -0.12)">
     <defs>
      <path id="DejaVuSans-20" transform="scale(0.015625)"/>
      <path id="DejaVuSans-53" d="M 3425 4513 
L 3425 3897 
Q 3066 4069 2747 4153 
Q 2428 4238 2131 4238 
Q 1616 4238 1336 4038 
Q 1056 3838 1056 3469 
Q 1056 3159 1242 3001 
Q 1428 2844 1947 2747 
L 2328 2669 
Q 3034 2534 3370 2195 
Q 3706 1856 3706 1288 
Q 3706 609 3251 259 
Q 2797 -91 1919 -91 
Q 1588 -91 1214 -16 
Q 841 59 441 206 
L 441 856 
Q 825 641 1194 531 
Q 1563 422 1919 422 
Q 2459 422 2753 634 
Q 3047 847 3047 1241 
Q 3047 1584 2836 1778 
Q 2625 1972 2144 2069 
L 1759 2144 
Q 1053 2284 737 2584 
Q 422 2884 422 3419 
Q 422 4038 858 4394 
Q 1294 4750 2059 4750 
Q 2388 4750 2728 4690 
Q 3069 4631 3425 4513 
z
" transform="scale(0.015625)"/>
      <path id="DejaVuSans-63" d="M 3122 3366 
L 3122 2828 
Q 2878 2963 2633 3030 
Q 2388 3097 2138 3097 
Q 1578 3097 1268 2742 
Q 959 2388 959 1747 
Q 959 1106 1268 751 
Q 1578 397 2138 397 
Q 2388 397 2633 464 
Q 2878 531 3122 666 
L 3122 134 
Q 2881 22 2623 -34 
Q 2366 -91 2075 -91 
Q 1284 -91 818 406 
Q 353 903 353 1747 
Q 353 2603 823 3093 
Q 1294 3584 2113 3584 
Q 2378 3584 2631 3529 
Q 2884 3475 3122 3366 
z
" transform="scale(0.015625)"/>
      <path id="DejaVuSans-72" d="M 2631 2963 
Q 2534 3019 2420 3045 
Q 2306 3072 2169 3072 
Q 1681 3072 1420 2755 
Q 1159 2438 1159 1844 
L 1159 0 
L 581 0 
L 581 3500 
L 1159 3500 
L 1159 2956 
Q 1341 3275 1631 3429 
Q 1922 3584 2338 3584 
Q 2397 3584 2469 3576 
Q 2541 3569 2628 3553 
L 2631 2963 
z
" transform="scale(0.015625)"/>
      <path id="DejaVuSans-65" d="M 3597 1894 
L 3597 1613 
L 953 1613 
Q 991 1019 1311 708 
Q 1631 397 2203 397 
Q 2534 397 2845 478 
Q 3156 559 3463 722 
L 3463 178 
Q 3153 47 2828 -22 
Q 2503 -91 2169 -91 
Q 1331 -91 842 396 
Q 353 884 353 1716 
Q 353 2575 817 3079 
Q 1281 3584 2069 3584 
Q 2775 3584 3186 3129 
Q 3597 2675 3597 1894 
z
M 3022 2063 
Q 3016 2534 2758 2815 
Q 2500 3097 2075 3097 
Q 1594 3097 1305 2825 
Q 1016 2553 972 2059 
L 3022 2063 
z
" transform="scale(0.015625)"/>
      <path id="DejaVuSans-73" d="M 2834 3397 
L 2834 2853 
Q 2591 2978 2328 3040 
Q 2066 3103 1784 3103 
Q 1356 3103 1142 2972 
Q 928 2841 928 2578 
Q 928 2378 1081 2264 
Q 1234 2150 1697 2047 
L 1894 2003 
Q 2506 1872 2764 1633 
Q 3022 1394 3022 966 
Q 3022 478 2636 193 
Q 2250 -91 1575 -91 
Q 1294 -91 989 -36 
Q 684 19 347 128 
L 347 722 
Q 666 556 975 473 
Q 1284 391 1588 391 
Q 1994 391 2212 530 
Q 2431 669 2431 922 
Q 2431 1156 2273 1281 
Q 2116 1406 1581 1522 
L 1381 1569 
Q 847 1681 609 1914 
Q 372 2147 372 2553 
Q 372 3047 722 3315 
Q 1072 3584 1716 3584 
Q 2034 3584 2315 3537 
Q 2597 3491 2834 3397 
z
" transform="scale(0.015625)"/>
      <path id="DejaVuSans-66" d="M 2375 4863 
L 2375 4384 
L 1825 4384 
Q 1516 4384 1395 4259 
Q 1275 4134 1275 3809 
L 1275 3500 
L 2222 3500 
L 2222 3053 
L 1275 3053 
L 1275 0 
L 697 0 
L 697 3053 
L 147 3053 
L 147 3500 
L 697 3500 
L 697 3744 
Q 697 4328 969 4595 
Q 1241 4863 1831 4863 
L 2375 4863 
z
" transform="scale(0.015625)"/>
      <path id="DejaVuSans-37" d="M 525 4666 
L 3525 4666 
L 3525 4397 
L 1831 0 
L 1172 0 
L 2766 4134 
L 525 4134 
L 525 4666 
z
" transform="scale(0.015625)"/>
      <path id="DejaVuSans-57" d="M 213 4666 
L 850 4666 
L 1831 722 
L 2809 4666 
L 3519 4666 
L 4500 722 
L 5478 4666 
L 6119 4666 
L 4947 0 
L 4153 0 
L 3169 4050 
L 2175 0 
L 1381 0 
L 213 4666 
z
" transform="scale(0.015625)"/>
      <path id="DejaVuSans-47" d="M 3809 666 
L 3809 1919 
L 2778 1919 
L 2778 2438 
L 4434 2438 
L 4434 434 
Q 4069 175 3628 42 
Q 3188 -91 2688 -91 
Q 1594 -91 976 548 
Q 359 1188 359 2328 
Q 359 3472 976 4111 
Q 1594 4750 2688 4750 
Q 3144 4750 3555 4637 
Q 3966 4525 4313 4306 
L 4313 3634 
Q 3963 3931 3569 4081 
Q 3175 4231 2741 4231 
Q 1884 4231 1454 3753 
Q 1025 3275 1025 2328 
Q 1025 1384 1454 906 
Q 1884 428 2741 428 
Q 3075 428 3337 486 
Q 3600 544 3809 666 
z
" transform="scale(0.015625)"/>
      <path id="DejaVuSans-61" d="M 2194 1759 
Q 1497 1759 1228 1600 
Q 959 1441 959 1056 
Q 959 750 1161 570 
Q 1363 391 1709 391 
Q 2188 391 2477 730 
Q 2766 1069 2766 1631 
L 2766 1759 
L 2194 1759 
z
M 3341 1997 
L 3341 0 
L 2766 0 
L 2766 531 
Q 2569 213 2275 61 
Q 1981 -91 1556 -91 
Q 1019 -91 701 211 
Q 384 513 384 1019 
Q 384 1609 779 1909 
Q 1175 2209 1959 2209 
L 2766 2209 
L 2766 2266 
Q 2766 2663 2505 2880 
Q 2244 3097 1772 3097 
Q 1472 3097 1187 3025 
Q 903 2953 641 2809 
L 641 3341 
Q 956 3463 1253 3523 
Q 1550 3584 1831 3584 
Q 2591 3584 2966 3190 
Q 3341 2797 3341 1997 
z
" transform="scale(0.015625)"/>
      <path id="DejaVuSans-6d" d="M 3328 2828 
Q 3544 3216 3844 3400 
Q 4144 3584 4550 3584 
Q 5097 3584 5394 3201 
Q 5691 2819 5691 2113 
L 5691 0 
L 5113 0 
L 5113 2094 
Q 5113 2597 4934 2840 
Q 4756 3084 4391 3084 
Q 3944 3084 3684 2787 
Q 3425 2491 3425 1978 
L 3425 0 
L 2847 0 
L 2847 2094 
Q 2847 2600 2669 2842 
Q 2491 3084 2119 3084 
Q 1678 3084 1418 2786 
Q 1159 2488 1159 1978 
L 1159 0 
L 581 0 
L 581 3500 
L 1159 3500 
L 1159 2956 
Q 1356 3278 1631 3431 
Q 1906 3584 2284 3584 
Q 2666 3584 2933 3390 
Q 3200 3197 3328 2828 
z
" transform="scale(0.015625)"/>
      <path id="DejaVuSans-70" d="M 1159 525 
L 1159 -1331 
L 581 -1331 
L 581 3500 
L 1159 3500 
L 1159 2969 
Q 1341 3281 1617 3432 
Q 1894 3584 2278 3584 
Q 2916 3584 3314 3078 
Q 3713 2572 3713 1747 
Q 3713 922 3314 415 
Q 2916 -91 2278 -91 
Q 1894 -91 1617 61 
Q 1341 213 1159 525 
z
M 3116 1747 
Q 3116 2381 2855 2742 
Q 2594 3103 2138 3103 
Q 1681 3103 1420 2742 
Q 1159 2381 1159 1747 
Q 1159 1113 1420 752 
Q 1681 391 2138 391 
Q 2594 391 2855 752 
Q 3116 1113 3116 1747 
z
" transform="scale(0.015625)"/>
      <path id="DejaVuSans-6c" d="M 603 4863 
L 1178 4863 
L 1178 0 
L 603 0 
L 603 4863 
z
" transform="scale(0.015625)"/>
      <path id="DejaVuSans-69" d="M 603 3500 
L 1178 3500 
L 1178 0 
L 603 0 
L 603 3500 
z
M 603 4863 
L 1178 4863 
L 1178 4134 
L 603 4134 
L 603 4863 
z
" transform="scale(0.015625)"/>
      <path id="DejaVuSans-64" d="M 2906 2969 
L 2906 4863 
L 3481 4863 
L 3481 0 
L 2906 0 
L 2906 525 
Q 2725 213 2448 61 
Q 2172 -91 1784 -91 
Q 1150 -91 751 415 
Q 353 922 353 1747 
Q 353 2572 751 3078 
Q 1150 3584 1784 3584 
Q 2172 3584 2448 3432 
Q 2725 3281 2906 2969 
z
M 947 1747 
Q 947 1113 1208 752 
Q 1469 391 1925 391 
Q 2381 391 2643 752 
Q 2906 1113 2906 1747 
Q 2906 2381 2643 2742 
Q 2381 3103 1925 3103 
Q 1469 3103 1208 2742 
Q 947 2381 947 1747 
z
" transform="scale(0.015625)"/>
     </defs>
     <use xlink:href="#DejaVuSans-46"/>
     <use xlink:href="#DejaVuSans-32" x="57.519531"/>
     <use xlink:href="#DejaVuSans-20" x="121.142578"/>
     <use xlink:href="#DejaVuSans-53" x="152.929688"/>
     <use xlink:href="#DejaVuSans-63" x="216.40625"/>
     <use xlink:href="#DejaVuSans-6f" x="271.386719"/>
     <use xlink:href="#DejaVuSans-72" x="332.568359"/>
     <use xlink:href="#DejaVuSans-65" x="371.431641"/>
     <use xlink:href="#DejaVuSans-73" x="432.955078"/>
     <use xlink:href="#DejaVuSans-20" x="485.054688"/>
     <use xlink:href="#DejaVuSans-66" x="516.841797"/>
     <use xlink:href="#DejaVuSans-6f" x="552.046875"/>
     <use xlink:href="#DejaVuSans-72" x="613.228516"/>
     <use xlink:href="#DejaVuSans-20" x="654.341797"/>
     <use xlink:href="#DejaVuSans-37" x="686.128906"/>
     <use xlink:href="#DejaVuSans-34" x="749.751953"/>
     <use xlink:href="#DejaVuSans-37" x="813.375"/>
     <use xlink:href="#DejaVuSans-20" x="876.998047"/>
     <use xlink:href="#DejaVuSans-57" x="908.785156"/>
     <use xlink:href="#DejaVuSans-47" x="1007.662109"/>
     <use xlink:href="#DejaVuSans-53" x="1085.152344"/>
     <use xlink:href="#DejaVuSans-20" x="1148.628906"/>
     <use xlink:href="#DejaVuSans-53" x="1180.416016"/>
     <use xlink:href="#DejaVuSans-61" x="1243.892578"/>
     <use xlink:href="#DejaVuSans-6d" x="1305.171875"/>
     <use xlink:href="#DejaVuSans-70" x="1402.583984"/>
     <use xlink:href="#DejaVuSans-6c" x="1466.060547"/>
     <use xlink:href="#DejaVuSans-65" x="1493.84375"/>
     <use xlink:href="#DejaVuSans-73" x="1555.367188"/>
     <use xlink:href="#DejaVuSans-20" x="1607.466797"/>
     <use xlink:href="#DejaVuSans-61" x="1639.253906"/>
     <use xlink:href="#DejaVuSans-63" x="1700.533203"/>
     <use xlink:href="#DejaVuSans-72" x="1755.513672"/>
     <use xlink:href="#DejaVuSans-6f" x="1794.376953"/>
     <use xlink:href="#DejaVuSans-73" x="1855.558594"/>
     <use xlink:href="#DejaVuSans-73" x="1907.658203"/>
     <use xlink:href="#DejaVuSans-20" x="1959.757812"/>
     <use xlink:href="#DejaVuSans-34" x="1991.544922"/>
     <use xlink:href="#DejaVuSans-31" x="2055.167969"/>
     <use xlink:href="#DejaVuSans-38" x="2118.791016"/>
     <use xlink:href="#DejaVuSans-20" x="2182.414062"/>
     <use xlink:href="#DejaVuSans-70" x="2214.201172"/>
     <use xlink:href="#DejaVuSans-69" x="2277.677734"/>
     <use xlink:href="#DejaVuSans-64" x="2305.460938"/>
     <use xlink:href="#DejaVuSans-73" x="2368.9375"/>
    </g>
   </g>
   <g id="legend_1">
    <g id="patch_89">
     <path d="M 309.6075 44.99625 
L 390.723125 44.99625 
Q 392.723125 44.99625 392.723125 42.99625 
L 392.723125 29.318125 
Q 392.723125 27.318125 390.723125 27.318125 
L 309.6075 27.318125 
Q 307.6075 27.318125 307.6075 29.318125 
L 307.6075 42.99625 
Q 307.6075 44.99625 309.6075 44.99625 
z
" style="fill: #ffffff; opacity: 0.8; stroke: #cccccc; stroke-linejoin: miter"/>
    </g>
    <g id="line2d_29">
     <path d="M 311.6075 35.416562 
L 321.6075 35.416562 
L 331.6075 35.416562 
" style="fill: none; stroke-dasharray: 3.33,1.44; stroke-dashoffset: 0; stroke: #8b0000; stroke-width: 0.9"/>
    </g>
    <g id="text_11">
     <!-- F2 = 0.03 -->
     <g transform="translate(339.6075 38.916562) scale(0.1 -0.1)">
      <defs>
       <path id="DejaVuSans-3d" d="M 678 2906 
L 4684 2906 
L 4684 2381 
L 678 2381 
L 678 2906 
z
M 678 1631 
L 4684 1631 
L 4684 1100 
L 678 1100 
L 678 1631 
z
" transform="scale(0.015625)"/>
       <path id="DejaVuSans-2e" d="M 684 794 
L 1344 794 
L 1344 0 
L 684 0 
L 684 794 
z
" transform="scale(0.015625)"/>
       <path id="DejaVuSans-33" d="M 2597 2516 
Q 3050 2419 3304 2112 
Q 3559 1806 3559 1356 
Q 3559 666 3084 287 
Q 2609 -91 1734 -91 
Q 1441 -91 1130 -33 
Q 819 25 488 141 
L 488 750 
Q 750 597 1062 519 
Q 1375 441 1716 441 
Q 2309 441 2620 675 
Q 2931 909 2931 1356 
Q 2931 1769 2642 2001 
Q 2353 2234 1838 2234 
L 1294 2234 
L 1294 2753 
L 1863 2753 
Q 2328 2753 2575 2939 
Q 2822 3125 2822 3475 
Q 2822 3834 2567 4026 
Q 2313 4219 1838 4219 
Q 1578 4219 1281 4162 
Q 984 4106 628 3988 
L 628 4550 
Q 988 4650 1302 4700 
Q 1616 4750 1894 4750 
Q 2613 4750 3031 4423 
Q 3450 4097 3450 3541 
Q 3450 3153 3228 2886 
Q 3006 2619 2597 2516 
z
" transform="scale(0.015625)"/>
      </defs>
      <use xlink:href="#DejaVuSans-46"/>
      <use xlink:href="#DejaVuSans-32" x="57.519531"/>
      <use xlink:href="#DejaVuSans-20" x="121.142578"/>
      <use xlink:href="#DejaVuSans-3d" x="152.929688"/>
      <use xlink:href="#DejaVuSans-20" x="236.71875"/>
      <use xlink:href="#DejaVuSans-30" x="268.505859"/>
      <use xlink:href="#DejaVuSans-2e" x="332.128906"/>
      <use xlink:href="#DejaVuSans-30" x="363.916016"/>
      <use xlink:href="#DejaVuSans-33" x="427.539062"/>
     </g>
    </g>
   </g>
  </g>
 </g>
 <defs>
  <clipPath id="pa8203d69de">
   <rect x="40.603125" y="22.318125" width="357.12" height="266.112"/>
  </clipPath>
 </defs>
</svg>
